<svg fill="none" height="46" viewBox="0 0 46 46" width="46" xmlns="http://www.w3.org/2000/svg" xmlns:xlink="http://www.w3.org/1999/xlink"><mask id="a" height="21" maskUnits="userSpaceOnUse" width="10" x="18" y="13"><path d="m18 13h9.9157v21h-9.9157z" fill="#fff"/></mask><path d="m46 23c0 12.7025-10.2975 23-23 23s-23-10.2975-23-23 10.2975-23 23-23 23 10.2975 23 23z" fill="#f5ecd5"/><g mask="url(#a)"><path d="m25.6278 16.4617h2.2879v-3.449h-2.9212v.0133c-3.8406.1406-4.6321 2.2916-4.6982 4.5661h-.009v2.3933h-2.2873v3.4533h2.2873v10.4962h4.1047v-10.4962h2.943l.5807-3.4533h-3.5237v-2.1424c0-.7612.5103-1.3813 1.2358-1.3813z" fill="#587a33"/></g></svg>