<svg fill="none" height="46" viewBox="0 0 46 46" width="46" xmlns="http://www.w3.org/2000/svg" xmlns:xlink="http://www.w3.org/1999/xlink"><mask id="a" height="20" maskUnits="userSpaceOnUse" width="20" x="13" y="13"><path d="m13 13h20v20h-20z" fill="#fff"/></mask><path d="m46 23c0 12.7025-10.2975 23-23 23s-23-10.2975-23-23 10.2975-23 23-23 23 10.2975 23 23z" fill="#f5ecd5"/><path d="m20.498 22.9934c0-1.3812 1.1196-2.5007 2.5002-2.5007 1.3812 0 2.5002 1.1195 2.5002 2.5007 0 1.3806-1.119 2.5002-2.5002 2.5002-1.3806 0-2.5002-1.1196-2.5002-2.5002z" fill="#587a33"/><g mask="url(#a)"><path clip-rule="evenodd" d="m22.9983 32.9952c-8.2361 0-10.0012-1.7651-10.0012-10.0012 0-8.2362 1.7651-10.0018 10.0012-10.0018 8.2362 0 10.0013 1.7656 10.0013 10.0018 0 8.2361-1.7651 10.0012-10.0013 10.0012zm3.334-15.0021c0 .4603.3733.8332.8332.8332.4604 0 .8337-.3729.8337-.8332 0-.4604-.3733-.8338-.8337-.8338-.4599 0-.8332.3734-.8332.8338zm-7.5011 5.0009c0-2.3019 1.8658-4.1677 4.1671-4.1677 2.3014 0 4.1672 1.8658 4.1672 4.1677 0 2.3013-1.8658 4.1671-4.1672 4.1671-2.3013 0-4.1671-1.8658-4.1671-4.1671z" fill="#587a33" fill-rule="evenodd"/></g></svg>