<svg width="199" height="87" viewBox="0 0 199 87" fill="none" xmlns="http://www.w3.org/2000/svg">
<path d="M190.254 123.555C192.921 123.344 195.622 123.239 198.347 123.373V120.873C197.723 120.873 197.217 120.844 196.713 120.878C194.142 121.04 191.575 121.25 189.004 121.382C184.962 121.585 180.921 121.384 176.862 121.81C173.703 122.14 170.52 122.233 167.333 122.304C167.144 122.537 166.533 122.755 166.068 122.691C165.644 122.632 165.187 122.527 164.886 122.368C164.881 122.366 164.879 122.363 164.874 122.361C164.044 122.38 163.215 122.4 162.386 122.429C160.477 122.493 158.491 122.165 156.675 122.591C154.936 122.999 153.238 122.975 151.548 122.899C149.874 122.823 148.279 123.479 146.542 123.046C145.47 122.779 144.208 123.378 143.024 123.457C140.369 123.628 137.698 123.351 135.046 123.939C133.884 124.196 132.624 124.027 131.408 124.022C130.175 124.019 128.946 124.085 127.709 124.044C126.593 124.007 125.453 124.068 124.318 124.066C120.924 124.059 117.531 124.401 114.077 124.609C114.446 125.575 114.744 126.351 115.04 127.126H117.127C117.817 126.434 118.412 126.434 119.212 127.126H120.254C120.413 126.965 120.57 126.667 120.734 126.662C122.554 126.618 124.403 126.427 126.194 126.659C127.973 126.889 129.668 125.509 131.442 126.547C131.689 126.689 132.12 126.544 132.46 126.495C133.296 126.378 134.145 126.07 134.965 126.136C137.942 126.383 140.888 125.155 143.875 126.001C144.252 126.109 144.714 125.937 145.133 125.871C145.717 125.778 146.297 125.6 146.884 125.575C148.186 125.524 149.514 125.382 150.784 125.58C152.12 125.788 153.38 124.379 154.691 125.497C155.971 124.744 157.475 125.443 158.711 124.983C160.191 124.435 161.505 125.174 162.919 125.042C166.344 124.722 169.794 124.658 173.231 124.46C175.02 124.357 176.852 124.859 178.601 124.059C178.858 123.941 179.262 124.132 179.594 124.196C180.008 124.274 180.529 124.572 180.81 124.421C182.386 123.569 184.138 124.408 185.647 123.904C187.198 123.386 188.742 123.672 190.254 123.555ZM128.687 124.2C128.619 124.193 128.555 124.169 128.491 124.151C128.523 124.134 128.555 124.117 128.594 124.098C128.655 124.115 128.719 124.134 128.783 124.151C128.751 124.169 128.712 124.203 128.687 124.2ZM166.009 122.977C165.987 122.98 165.945 122.945 165.914 122.931C165.977 122.911 166.041 122.894 166.102 122.877C166.141 122.896 166.173 122.914 166.205 122.931C166.141 122.945 166.08 122.97 166.009 122.977ZM18.8454 123.53C16.0148 123.381 13.1915 123.586 10.3437 123.058C7.66235 122.559 4.87086 122.642 2.12585 122.5C-1.91825 122.287 -5.96481 122.145 -10.004 121.871C-11.1612 121.793 -12.2769 121.269 -13.4561 121.854C-13.6714 121.962 -14.0775 121.607 -14.4053 121.585C-17.5711 121.353 -20.7541 120.873 -23.9003 121.044C-25.537 121.135 -27.0392 120.665 -28.6221 120.721C-29.3683 120.748 -30.1218 120.443 -30.8754 120.425C-32.8717 120.379 -34.8705 120.457 -36.8645 120.399C-39.5263 120.323 -42.2077 120.504 -44.8352 119.86C-45.7405 119.638 -46.6677 119.408 -47.5876 119.391C-51.0592 119.315 -54.5308 119.327 -58 119.307V121.392C-57.1339 121.404 -56.2361 121.274 -55.4042 121.455C-52.2042 122.148 -48.9209 121.864 -45.7013 122.348C-44.5098 122.527 -43.2352 122.224 -42.0682 122.471C-40.7985 122.742 -39.514 122.226 -38.3911 122.537C-36.4118 123.085 -34.4546 122.87 -32.4901 122.933C-30.5793 122.997 -28.605 122.679 -26.7774 123.075C-24.8765 123.488 -22.9633 123.134 -21.1553 123.545C-19.2666 123.975 -17.4194 123.97 -15.5332 123.944C-14.579 123.934 -13.5613 123.792 -12.6854 124.066C-11.6432 124.389 -10.7331 123.789 -9.75448 123.99C-8.84437 124.181 -7.92693 124.421 -7.00214 124.46C-3.73847 124.604 -0.460121 124.472 2.78397 125.054C4.03659 125.279 5.43356 125.734 6.55897 125.399C7.92168 124.993 9.02995 125.377 10.2752 125.519C12.7413 125.805 15.2784 125.106 17.7151 126.001C18.6081 125.125 19.4815 126.099 20.3794 126.067C21.2895 126.033 22.2094 126.407 23.1366 126.505C23.8853 126.586 24.6486 126.522 25.1061 126.522C26.1728 125.695 25.9795 124.954 25.796 124.215C23.4278 123.975 21.1427 123.652 18.8454 123.53ZM-17.7742 121.937C-17.8451 121.859 -17.9455 121.786 -17.9797 121.703C-18.0751 121.477 -17.784 121.458 -17.4757 121.482C-17.3314 121.492 -17.1968 121.539 -16.8494 121.614C-17.2849 121.769 -17.5295 121.852 -17.7742 121.937ZM6.28006 124.986C6.11369 125 5.93021 124.961 5.75161 124.947C5.93021 124.859 6.09657 124.763 6.29474 124.695C6.33878 124.677 6.49535 124.748 6.72288 124.814C6.51982 124.895 6.41217 124.974 6.28006 124.986ZM103.021 3.86062C101.851 8.06376 100.689 12.2326 99.5319 16.3844C99.6836 16.4676 99.8377 16.5532 100.029 16.656C99.8573 16.7318 99.7129 16.8174 99.6811 16.8052C99.5955 16.7807 99.5172 16.7489 99.4389 16.7171C96.8407 26.0359 94.2719 35.2496 91.7299 44.4705C88.0259 57.9069 84.3806 71.3603 80.7254 84.7477C81.6062 85.6896 82.4649 85.5575 83.4778 85.0682C84.2509 82.2571 85.0264 79.4485 85.7995 76.6375C85.7531 76.6766 85.6943 76.7231 85.6332 76.7794C85.4766 76.6717 85.342 76.613 85.3102 76.5421C85.2931 76.5029 85.4424 76.4442 85.5182 76.3928C85.6234 76.4393 85.7482 76.4809 85.8289 76.5323C92.4076 52.6493 98.9863 28.7565 105.587 4.78785C104.853 4.52118 104.144 4.26674 103.021 3.86062ZM99.7496 16.355C99.7056 16.333 99.664 16.3086 99.62 16.2865C99.6762 16.2621 99.735 16.2376 99.7912 16.2156C99.823 16.2327 99.8866 16.2572 99.8793 16.2621C99.845 16.2963 99.7961 16.3257 99.7496 16.355ZM97.7728 26.9607C97.6628 26.8384 97.5771 26.787 97.582 26.7405C97.5918 26.6329 97.4426 26.4763 97.7924 26.4445C97.9025 26.4323 98.0346 26.4886 98.1545 26.513C98.0493 26.6378 97.9417 26.7626 97.7728 26.9607ZM101.626 14.3024C101.066 14.3636 101.066 14.7159 100.616 14.8235C100.54 14.8431 100.42 14.8333 100.339 14.8137C100.298 14.8039 100.261 14.7379 100.285 14.7134C100.435 14.5593 100.603 14.4076 100.706 14.3122C100.601 14.1825 100.501 14.114 100.511 14.0553C100.52 14.0039 100.692 13.911 100.74 13.9183C101.034 13.9672 101.328 14.0308 101.594 14.114C101.658 14.1336 101.643 14.3024 101.626 14.3024ZM75.0055 66.181C75.5412 64.2042 75.2868 62.2446 75.4238 60.28C75.5535 58.3815 75.8055 56.4879 75.9376 54.5894C76.0159 53.464 75.6611 52.2113 76.0501 51.2352C76.5247 50.0486 75.8275 49.0871 75.9792 48.0278C76.0281 47.6926 76.0721 47.355 76.126 47.0198C76.2483 46.2663 76.4465 45.5176 76.4881 44.7617C76.6153 42.5378 76.4636 40.3261 76.8722 38.0826C77.3884 35.2398 76.8306 32.3064 77.4128 29.3901C77.8924 26.9803 77.5596 24.4433 77.8948 21.9429C78.389 18.2853 78.345 14.5544 78.526 10.8528C78.6973 7.41542 78.8636 3.97561 79.0178 0.53579C79.0251 0.393891 78.8808 0.244653 78.7707 0.0269118H76.4832C76.4832 1.54865 76.4856 2.84531 76.4807 4.13952C76.4783 4.91997 76.6691 5.7787 76.4147 6.46862C75.7247 8.32553 76.0379 10.2167 75.9743 12.0932C75.9547 12.7024 76.1113 13.3629 75.918 13.9061C74.9541 16.6364 75.463 19.5062 75.0642 22.3001C74.9467 23.1295 74.8782 23.9662 74.8367 24.8029C74.9394 24.869 75.0471 24.9375 75.2012 25.0378C75.0373 25.1063 74.9296 25.1772 74.822 25.1992C74.6996 28.4311 74.9639 31.7046 74.4795 34.9511C73.9853 38.2564 74.5798 41.6448 73.951 45.0014C73.5938 46.9097 73.8703 48.9134 73.4641 50.8902C73.1192 52.5588 73.4372 54.3521 73.3516 56.0842C73.2684 57.7919 72.9773 59.4898 72.899 61.195C72.7791 63.7541 72.6739 66.3107 72.5736 68.8698C72.691 68.7841 72.8158 68.7034 72.9504 68.6251C72.97 68.6129 73.1534 68.6447 73.1803 68.6765C73.2317 68.7401 73.2293 68.8184 73.2342 68.8355C73.2342 68.9652 73.2709 69.0483 73.2219 69.1144C73.1828 69.1658 73.0336 69.2245 72.9357 69.2245C72.8183 69.2221 72.6862 69.1682 72.5932 69.1217C72.5834 69.1169 72.5736 69.1095 72.5638 69.1022C72.4684 71.5536 72.3779 74.005 72.28 76.4564C72.2727 76.6301 72.3241 76.8259 72.2629 76.9751C71.4629 78.9715 71.9913 81.0608 71.7075 83.1501C72.1748 83.4462 72.5883 83.7079 73.2611 84.1361C73.6745 82.9299 74.2495 81.9318 74.3302 80.8944C74.6018 77.3812 74.7119 73.8558 74.8611 70.3328C74.9174 68.9431 74.6507 67.4801 75.0055 66.181ZM72.8109 68.6202C72.7644 68.5884 72.7204 68.559 72.6764 68.5297C72.7375 68.5199 72.8378 68.4954 72.8525 68.5028C72.899 68.5346 72.9137 68.5786 72.9406 68.6202H72.8109ZM72.7938 69.5377C72.762 69.5034 72.718 69.4692 72.7033 69.4349C72.6984 69.4227 72.762 69.4007 72.7938 69.3835C72.8305 69.4153 72.8647 69.4496 72.899 69.4814C72.8598 69.501 72.828 69.5205 72.7938 69.5377ZM73.3785 68.0086C73.3467 67.9743 73.3027 67.9425 73.288 67.9058C73.2831 67.8936 73.3467 67.874 73.3785 67.8544C73.4152 67.8887 73.4495 67.9229 73.4837 67.9548C73.4446 67.9743 73.4128 67.9914 73.3785 68.0086ZM74.2984 66.4599C74.2372 66.4404 74.1736 66.4232 74.11 66.4061C74.1418 66.389 74.1834 66.3547 74.2079 66.3572C74.2764 66.3645 74.3376 66.389 74.4036 66.4061C74.3694 66.4208 74.3376 66.4379 74.2984 66.4599ZM103.642 96.5938C105.269 94.9595 106.871 93.2983 108.54 91.7056C110.916 89.4377 113.374 87.2579 115.728 84.9655C116.831 83.889 117.7 82.5752 118.796 81.4914C120.097 80.2045 121.592 79.1109 122.894 77.8216C127.094 73.6747 131.263 69.4961 135.405 65.2929C139.525 61.1143 143.865 57.1558 147.873 52.8646C148.162 52.5563 148.555 52.3484 148.866 52.0572C149.414 51.541 149.95 51.0077 150.466 50.4596C150.816 50.0853 151.078 49.6156 151.459 49.2853C153.236 47.7464 155.276 46.4791 156.421 44.3091C156.534 44.0987 156.798 43.9543 157.016 43.8149C159.127 42.4619 160.58 40.4362 162.395 38.8117C161.759 38.0826 161.255 37.5077 160.695 36.8667C159.293 38.5353 157.718 39.7169 156.384 41.1775C154.877 42.8265 153.045 44.1721 151.445 45.7427C150.158 47.0076 149.067 48.473 147.777 49.7404C145.439 52.0425 142.965 54.2102 140.643 56.5319C138.322 58.8537 136.164 61.3393 133.847 63.666C133.358 64.1602 132.856 64.6422 132.35 65.1192C132.413 65.1486 132.474 65.1779 132.538 65.2073C132.438 65.2269 132.335 65.2464 132.183 65.2734C130.752 66.6165 129.282 67.9205 127.872 69.2857C125.47 71.6123 123.08 73.9536 120.68 76.2876C120.778 76.3096 120.888 76.3414 121.044 76.3781C120.841 76.4785 120.721 76.5665 120.672 76.5567C120.599 76.5421 120.533 76.52 120.472 76.4907C116.477 80.3758 112.476 84.2535 108.496 88.1508C107.762 88.8677 107.216 89.7704 106.5 90.5044C104.824 92.217 103.096 93.8782 101.443 95.5124C101.489 96.173 101.523 96.677 101.563 97.2495C102.666 97.6164 103.145 97.0904 103.642 96.5938ZM140.775 56.5344C140.895 56.5857 141.047 56.6273 141.12 56.6934C141.152 56.7203 141.018 56.7986 140.888 56.9185C140.734 56.8108 140.599 56.7521 140.568 56.6836C140.55 56.6445 140.702 56.5833 140.775 56.5344ZM133.23 65.3149C133.34 65.1804 133.526 65.0263 133.761 64.9675C133.994 64.9088 134.324 65.1584 134.344 65.4397C134.29 65.4642 134.185 65.5425 134.052 65.5572C133.7 65.6012 133.137 65.4275 133.23 65.3149ZM121.913 76.7158C121.945 76.7329 121.979 76.75 122.018 76.772C121.984 76.8038 121.947 76.8356 121.913 76.8699C121.881 76.8528 121.815 76.8307 121.822 76.8185C121.837 76.7843 121.881 76.75 121.913 76.7158ZM140.125 20.2891C139.396 21.2138 138.603 22.1166 137.928 23.1001C135.604 26.4861 133.355 29.9235 131.009 33.2972C129.272 35.7976 127.819 38.4692 126.145 41.0185C126.155 41.0307 126.165 41.0429 126.17 41.0552C126.175 41.065 126.128 41.0821 126.094 41.0968C125.534 41.9457 124.951 42.7824 124.323 43.5922C123.136 45.1238 122.062 46.7385 121.022 48.3825C121.069 48.3507 121.142 48.3165 121.189 48.2847C121.308 48.336 121.46 48.3776 121.534 48.4437C121.563 48.4706 121.431 48.5489 121.301 48.6712C121.149 48.566 121.022 48.5073 120.985 48.4412C119.704 50.4645 118.47 52.5269 117.149 54.5233C115.691 56.7252 114.456 59.0641 112.714 61.1094C111.955 61.9975 110.94 62.9834 110.678 64.1259C110.365 65.5033 109.364 66.3229 108.687 67.3651C105.377 72.4564 101.878 77.4204 98.5582 82.5042C96.8603 85.1074 95.0303 87.6542 93.7654 90.5264C95.982 91.6102 96.4542 91.3631 96.8701 88.9313C97.3863 88.5252 97.8927 88.2854 98.1667 87.8866C99.5172 85.9172 100.98 83.9966 102.071 81.8877C103.647 78.8394 106.24 76.4809 107.627 73.3322C107.696 73.1805 107.872 73.0802 107.96 72.9334C109.171 70.8832 110.578 68.9652 111.914 66.9982C113.639 64.4562 115.214 61.814 116.856 59.2133C116.743 59.2451 116.614 59.2818 116.455 59.3234C116.391 59.228 116.31 59.1546 116.293 59.0763C116.264 58.954 116.266 58.7803 116.611 58.839C116.755 58.861 116.87 58.9369 116.983 59.0151C117.076 58.8683 117.166 58.7216 117.259 58.5748C117.763 57.787 118.414 57.0922 118.916 56.3019C119.74 55.0053 120.433 53.623 121.301 52.3606C122.419 50.7385 123.85 49.3073 124.797 47.5996C125.162 46.9464 125.543 46.3054 125.94 45.6718C125.773 45.6742 125.641 45.6204 125.49 45.5348C125.468 45.5225 125.397 45.5348 125.348 45.5348C125.348 45.6595 125.377 45.7868 125.343 45.9091C125.228 46.3446 124.482 46.5256 123.782 46.2981C123.52 46.2125 123.518 46.1073 123.726 46.0045C123.855 45.9409 124.019 45.8944 124.166 45.8406C124.254 45.8063 124.398 45.7794 124.418 45.7378C124.57 45.3929 124.562 45.3929 125.057 45.3831C125.191 45.2852 125.296 45.1335 125.47 45.1091C125.693 45.0748 125.972 45.1409 126.226 45.1653C126.155 45.2045 126.162 45.2387 126.199 45.2705C127.31 43.5188 128.499 41.8209 129.624 40.079C131.501 37.1725 133.47 34.3321 135.146 31.2862C135.833 30.0385 136.687 28.8813 137.558 27.7314C137.436 27.7632 137.314 27.7901 137.186 27.8048C137.062 27.817 136.873 27.751 136.766 27.6922C136.729 27.6727 136.837 27.521 136.9 27.5161C137.172 27.4965 137.451 27.5039 137.727 27.5112C138.292 26.7699 138.86 26.0286 139.393 25.2677C140.262 24.0273 141.067 22.738 141.872 21.5123C141.385 21.1722 140.832 20.7857 140.125 20.2891ZM119.748 51.7147C119.537 51.5557 119.334 51.4382 119.231 51.2988C119.2 51.2548 119.437 51.1569 119.552 51.0835C119.633 51.1324 119.728 51.1716 119.789 51.2254C119.899 51.3233 120.012 51.4236 120.07 51.5312C120.088 51.563 119.921 51.6193 119.748 51.7147ZM126.121 44.9011C126.06 44.884 125.996 44.8644 125.932 44.8473C125.967 44.8302 126.006 44.7959 126.03 44.7984C126.099 44.8082 126.16 44.8302 126.226 44.8473C126.192 44.8644 126.16 44.8815 126.121 44.9011ZM126.321 41.3806C126.297 41.383 126.258 41.3488 126.226 41.3341C126.29 41.317 126.353 41.2925 126.422 41.2852C126.446 41.2827 126.485 41.317 126.517 41.3341C126.453 41.3512 126.39 41.3732 126.321 41.3806ZM127.535 40.9426C127.285 40.9426 127.036 40.9133 126.713 40.8888C126.838 40.7665 126.916 40.6515 126.96 40.6539C127.207 40.6735 127.562 40.5463 127.674 40.7616C127.704 40.8154 127.586 40.9426 127.535 40.9426ZM130.255 37.8233C130.148 37.6985 130.045 37.6251 130.043 37.5542C130.043 37.5175 130.277 37.4343 130.304 37.4441C130.427 37.4906 130.544 37.5566 130.593 37.6276C130.613 37.6545 130.446 37.7181 130.255 37.8233ZM130.248 37.2802C130.175 37.2802 130.099 37.2337 130.025 37.2092C130.148 37.1823 130.265 37.1432 130.39 37.1383C130.458 37.1334 130.537 37.1823 130.652 37.2215C130.498 37.2459 130.373 37.2777 130.248 37.2802ZM138.204 26.2708C138.187 26.3295 138.092 26.4176 138.004 26.4298C137.896 26.4421 137.649 26.3907 137.649 26.3638C137.632 26.1534 137.556 26.0678 137.221 26.2684C137.189 26.2879 137.145 26.3026 137.118 26.3222C136.944 26.4616 136.775 26.6035 136.604 26.743C136.555 26.6256 136.484 26.5106 136.462 26.3931C136.421 26.1607 136.626 26.0139 137.084 25.9797C137.228 25.9699 137.375 25.9797 137.519 25.9797C138.211 25.9772 138.282 26.0017 138.204 26.2708ZM-43.6022 81.8119C-44.39 81.5085 -45.3148 81.4107 -45.9557 80.9262C-46.883 80.2241 -47.7955 80.0944 -48.9381 80.3219C-49.1118 80.914 -49.2904 81.5281 -49.4739 82.1519C-48.8696 82.3917 -48.3191 82.6168 -47.7637 82.8321C-46.1025 83.4755 -44.4218 84.0651 -42.7875 84.7673C-41.2413 85.4352 -39.8125 86.4627 -38.2125 86.8909C-35.651 87.5735 -33.3243 88.8065 -30.8313 89.6359C-28.7664 90.3258 -26.7456 91.1454 -24.7248 91.9674C-24.6343 91.9111 -24.5291 91.8647 -24.4165 91.8402H-24.5486C-24.5927 91.8108 -24.6392 91.779 -24.6832 91.7497C-24.622 91.7399 -24.5193 91.7154 -24.507 91.7252C-24.4606 91.757 -24.4459 91.8011 -24.419 91.8402C-24.096 91.7668 -23.8391 91.8867 -23.8342 92.1118C-23.8318 92.1705 -23.8661 92.2316 -23.9223 92.2928C-23.1468 92.606 -22.3712 92.9191 -21.5908 93.2225C-20.8788 93.5014 -20.1375 93.702 -19.4305 93.9883C-16.2035 95.2923 -12.9937 96.6329 -9.75937 97.9198C-9.05722 98.2012 -8.28412 98.2941 -7.54771 98.4996C-6.65228 98.7467 -5.71771 98.9156 -4.88345 99.3021C-2.52499 100.398 -0.34269 101.922 2.35828 102.16C2.59804 102.179 2.82556 102.348 3.05309 102.453C5.49717 103.586 7.84828 104.99 10.4856 105.602C12.3548 106.037 13.8765 107.143 15.6136 107.796C18.5445 108.897 21.6002 109.653 24.3868 111.16C25.5611 111.797 26.8749 112.176 28.2303 112.712C28.749 112.225 29.1869 111.814 29.7936 111.246C28.2083 110.404 27.1245 109.773 25.9942 109.247C24.8541 108.716 23.6822 108.239 22.4956 107.823C21.6589 107.532 20.8222 107.234 19.988 106.933C19.9513 106.943 19.9146 106.955 19.8754 106.965C19.8485 106.93 19.8045 106.891 19.7702 106.855C18.043 106.231 16.3255 105.587 14.6472 104.905C11.7529 103.725 8.97858 102.258 5.90819 101.509C5.25496 101.35 4.61153 101.081 4.01458 100.768C2.95768 100.212 1.98396 99.4807 0.892807 99.0208C-0.186111 98.5633 -1.44852 98.5094 -2.49319 97.9957C-6.29998 96.1265 -10.464 95.2237 -14.3099 93.3717C-17.3852 91.8867 -20.7663 90.9325 -23.9639 89.609C-27.964 87.9527 -31.991 86.3575 -36.0131 84.7575C-38.5354 83.7569 -41.07 82.7856 -43.6022 81.8119ZM26.0113 110.025C26.2731 109.996 26.5153 110.033 26.4394 110.206C26.4101 110.27 26.2021 110.311 25.9893 110.397C25.8156 110.289 25.6957 110.214 25.5783 110.138C25.7226 110.099 25.8596 110.042 26.0113 110.025ZM22.0846 109.115C22.2755 109.061 22.7623 109.357 22.6375 109.448C22.5299 109.524 22.2779 109.546 22.0602 109.6C21.8522 109.546 21.6687 109.497 21.4852 109.45C21.6809 109.335 21.84 109.186 22.0846 109.115ZM-16.135 93.5503C-16.0665 93.5577 -16.0054 93.5821 -15.9393 93.5993C-15.9711 93.6139 -16.0054 93.6311 -16.0421 93.6531C-16.1032 93.6335 -16.1668 93.6164 -16.2304 93.5993C-16.1986 93.5797 -16.1595 93.5479 -16.135 93.5503ZM-16.9619 92.4518C-16.9301 92.4861 -16.8861 92.5179 -16.8714 92.5546C-16.8665 92.5668 -16.9301 92.5888 -16.9619 92.606C-16.9938 92.5717 -17.0378 92.5375 -17.0549 92.5032C-17.0598 92.4885 -16.9938 92.469 -16.9619 92.4518ZM-16.8837 93.3766C-16.7467 93.3791 -16.6096 93.4329 -16.3699 93.4892C-16.573 93.5895 -16.6928 93.6751 -16.7418 93.6653C-16.8812 93.6384 -17.0084 93.5797 -17.0941 93.5136C-17.1136 93.4989 -16.9595 93.3766 -16.8837 93.3766ZM-22.8092 92.146C-22.7773 92.1631 -22.7455 92.1803 -22.7064 92.1998C-22.7406 92.2316 -22.7749 92.2659 -22.8092 92.2977C-22.841 92.2806 -22.907 92.261 -22.9021 92.2488C-22.885 92.2121 -22.841 92.1803 -22.8092 92.146ZM26.7599 103.811C21.4339 101.135 16.0784 98.5143 10.767 95.8109C9.95719 95.3999 9.18898 94.9106 8.41833 94.4213C8.34248 94.4384 8.25196 94.4604 8.1541 94.4898C8.12229 94.3797 8.09538 94.2892 8.07581 94.2035C7.52045 93.8512 6.96264 93.5038 6.38526 93.1931C4.22009 92.0261 1.9546 91.0377 -0.188557 89.8365C-3.29565 88.0995 -6.75014 87.0254 -9.64928 84.8945C-9.98201 84.6499 -10.4248 84.5618 -10.8114 84.3881C-11.4255 84.1116 -12.0518 83.8523 -12.6487 83.5367C-16.3381 81.5795 -19.9712 79.5121 -23.7168 77.6748C-26.4349 76.3439 -29.334 75.4338 -31.7855 73.523C-33.18 72.4368 -34.8094 71.4019 -36.4901 71.0007C-38.3911 70.5481 -39.5899 69.0337 -41.3489 68.5126C-41.9116 68.3462 -42.4915 68.241 -43.2034 68.0722C-43.5239 68.7401 -43.8052 69.3297 -44.0621 69.863C-40.6541 71.6955 -37.41 73.4497 -34.161 75.1842C-33.8675 75.0717 -33.5739 74.9469 -33.2411 74.8955C-32.9647 74.8515 -32.6148 74.942 -32.2943 74.9665C-31.9738 74.9934 -31.6313 74.9861 -31.3329 75.0448C-31.1371 75.0815 -30.9316 75.1989 -30.868 75.3041C-30.7653 75.4754 -31.0564 75.4656 -31.2888 75.5072C-31.5286 75.5512 -31.6876 75.7127 -31.9274 75.7616C-32.0203 75.7787 -32.1696 75.5659 -32.3335 75.8081C-32.3995 75.9011 -32.4974 75.9476 -32.6124 75.972C-32.0105 76.2632 -31.4087 76.5518 -30.8117 76.8503C-28.079 78.2253 -25.3535 79.6198 -22.611 80.9801C-21.7033 81.4302 -20.5999 81.6162 -19.8562 82.2425C-18.4445 83.429 -16.7858 84.092 -15.1956 84.9116C-13.6885 85.6872 -12.1643 86.4309 -10.6597 87.2114C-9.15263 87.9943 -7.67738 88.8456 -6.15319 89.5992C-4.64124 90.3478 -2.97026 90.8347 -1.57574 91.7521C-1.15983 92.0261 -0.73658 92.2879 -0.310886 92.5424C-0.239937 92.5057 -0.161648 92.4763 -0.0784645 92.4592C-0.0270882 92.4494 0.0927925 92.535 0.295853 92.6353C0.171082 92.6647 0.0732193 92.694 -0.00996017 92.7136C2.91608 94.4164 6.0403 95.7375 8.95167 97.4599C9.24281 97.6336 9.54372 97.8587 9.86178 97.9051C11.2294 98.1033 12.1811 98.9327 13.0594 99.9651C14.0013 100.004 14.794 100.295 15.6527 100.809C15.9341 100.978 16.2252 101.132 16.509 101.294C16.5139 101.259 16.5212 101.225 16.5212 101.196C16.5237 101.132 16.6117 101.069 16.6607 101.005C16.8295 101.113 17.0007 101.218 17.2185 101.355C17.0179 101.406 16.9102 101.455 16.805 101.457C18.9164 102.632 21.1207 103.65 23.2834 104.738C24.5605 105.382 25.9844 105.842 27.078 106.718C28.0517 107.496 29.067 107.975 30.3661 108.364C30.7918 107.855 31.2591 107.297 31.7068 106.764C30.7502 106.196 29.9576 105.734 29.1722 105.262C28.3673 104.782 27.5967 104.232 26.7599 103.811ZM-31.2986 74.8784C-31.4283 74.8735 -31.553 74.8491 -31.6803 74.8319C-31.6436 74.7977 -31.6118 74.7365 -31.5702 74.7365C-31.4429 74.7316 -31.3133 74.7488 -31.1543 74.761C-31.2203 74.8173 -31.2643 74.8784 -31.2986 74.8784ZM-14.9803 84.5006C-15.1173 84.481 -15.3252 84.4125 -15.3326 84.3587C-15.3472 84.2657 -15.2323 84.1654 -15.1711 84.07C-15.0121 84.1532 -14.8555 84.2339 -14.4958 84.4223C-14.7283 84.4639 -14.8702 84.5153 -14.9803 84.5006ZM-14.4004 83.7397C-14.5277 83.7642 -14.6842 83.7446 -14.8261 83.7446C-15.3008 83.7397 -15.5063 83.6027 -15.3497 83.3777C-15.2763 83.27 -15.1686 83.1673 -15.0586 83.0669C-15.017 83.0303 -14.9313 82.9887 -14.8555 82.9838C-14.2903 82.9397 -14.5692 83.3116 -14.1851 83.363C-14.2512 83.4902 -14.009 83.6712 -14.4004 83.7397ZM16.739 100.09C16.6631 100.041 16.5114 99.9798 16.531 99.9407C16.5628 99.8697 16.6974 99.8134 16.8515 99.7058C16.9812 99.8257 17.1157 99.904 17.0839 99.9309C17.0105 99.9969 16.8588 100.039 16.739 100.09ZM68.7546 70.3157C68.2041 65.7994 68.2628 61.2023 68.1478 56.6371C68.0598 53.0823 68.1258 49.5251 68.0891 45.9678C68.0842 45.3831 67.9056 44.8008 67.8273 44.2136C67.5802 42.3592 67.0469 40.4802 67.1937 38.6551C67.2695 37.7034 67.2793 36.7811 67.2524 35.8539C67.2377 35.8392 67.2231 35.8245 67.2084 35.8123C67.2255 35.8025 67.2377 35.7976 67.2524 35.7878C67.2377 35.323 67.2133 34.8557 67.1815 34.3811C67.0371 34.3835 66.9613 34.3835 66.8879 34.3811C66.6946 34.3737 66.5013 34.3639 66.724 34.2318C66.8169 34.178 66.9075 34.0973 67.0249 34.0801C67.1423 34.0654 67.1497 34.0018 67.1546 33.9431C66.8438 29.6421 66.7607 25.324 66.5576 21.0157C66.4695 19.1392 66.7044 17.2505 66.1197 15.3862C65.9044 14.7012 66.1637 13.8596 66.2322 13.0914C66.2591 12.7733 66.494 12.4014 66.3912 12.1543C65.6989 10.4736 66.1931 8.72921 66.0487 7.02153C65.8457 4.65819 65.6548 2.29484 65.4665 0H63.3453C63.7123 4.34503 63.4481 8.46254 63.8395 12.6045C64.3435 17.911 63.8835 23.286 64.434 28.6244C64.5979 30.2342 64.8255 31.8758 64.7227 33.5174C64.7912 33.5346 64.8866 33.581 65.0872 33.6765C65.3172 33.7865 65.5007 33.9945 65.9117 33.8037C65.9191 33.8012 66.105 33.904 66.2885 33.9994C66.1148 34.0899 65.9215 34.1755 65.7649 34.2783C65.6083 34.3811 65.5252 34.3664 65.3441 34.2807C65.1582 34.1927 64.8352 34.1437 64.6787 34.0654C64.6469 34.3517 64.6053 34.6355 64.549 34.9217C65.7111 37.6961 64.2334 40.7714 65.535 43.5311C64.8548 44.5757 65.4053 45.6057 65.4762 46.6724C65.7062 50.1024 65.3979 53.5545 66.0096 56.9747C66.1172 57.5839 65.4273 58.4108 65.6377 58.9148C66.7019 61.4592 65.3882 64.2507 66.5552 66.7584C66.6873 67.0422 66.6824 67.5119 66.5331 67.7786C65.7821 69.1217 66.3937 70.4331 66.5796 71.7371C66.7558 72.975 67.2524 74.1665 66.6457 75.4362C66.4769 75.7934 66.5992 76.2925 66.5967 76.7256C66.5894 78.1152 67.5215 79.4388 66.7044 80.9262C66.4622 81.3642 66.9319 82.2156 67.1227 82.8614C67.3699 83.7104 67.7858 83.8303 69.1534 83.4755C69.0237 79.1011 69.2904 74.7267 68.7546 70.3157ZM66.083 28.6978C66.0463 28.5803 66.0096 28.4629 65.9973 28.4262C65.9973 28.3186 65.99 28.2941 65.9973 28.2696C66.034 28.162 65.8677 27.9858 66.2151 27.9785C66.3986 27.9736 66.6897 28.0666 66.7607 28.1522C66.8536 28.2672 66.8659 28.4482 66.7484 28.5461C66.6408 28.6342 66.313 28.6488 66.083 28.6978ZM66.7289 70.2838C66.6971 70.2667 66.631 70.2471 66.6383 70.2325C66.653 70.1982 66.6971 70.164 66.7289 70.1297C66.7607 70.1468 66.7925 70.164 66.8316 70.1835C66.7998 70.2178 66.7631 70.2496 66.7289 70.2838ZM68.532 69.4912C68.4634 69.4838 68.4023 69.4594 68.3362 69.4422C68.368 69.4251 68.4023 69.4104 68.4414 69.3884C68.5026 69.4055 68.5638 69.4251 68.6274 69.4422C68.5956 69.4594 68.5564 69.4936 68.532 69.4912ZM87.8448 86.2695C89.7972 82.3012 90.996 78.0393 92.5936 73.9341C92.8064 73.3934 92.8358 72.7744 93.0804 72.2557C94.2401 69.797 95.4511 67.3651 96.6205 64.9113C96.7624 64.6152 96.7526 64.2483 96.8212 63.9155C96.9948 63.0886 97.0242 62.1932 97.3741 61.4494C98.7808 58.4524 99.9894 55.3894 101.09 52.2701C102.218 49.0798 103.574 45.9727 104.797 42.8167C105.071 42.1145 105.073 41.2803 105.443 40.6491C107.297 37.4784 108.312 33.9529 109.763 30.6158C111.481 26.6574 112.878 22.5594 114.382 18.5129C114.705 17.6419 114.649 16.5214 115.19 15.8633C116.829 13.8694 116.868 11.2418 118.336 9.04971C117.416 8.71453 116.662 8.44052 115.794 8.12492C115.136 9.66868 114.514 10.9727 114.02 12.3232C113.176 14.6204 112.604 17.0401 111.561 19.2395C110.402 21.6811 109.443 24.2108 108.528 26.7185C107.713 28.9473 106.781 31.1272 105.915 33.3315C104.435 37.0991 102.803 40.8105 101.479 44.6369C100.731 46.7996 100.087 48.9942 99.3533 51.1593C98.5998 53.3906 97.3129 55.3747 96.53 57.6329C95.5685 60.4023 94.1642 63.025 93.533 65.9364C93.3764 66.6679 92.9703 67.348 92.6767 68.0477C91.7299 70.3181 90.947 72.6741 89.7874 74.8295C88.5274 77.1659 88.1066 79.7862 86.92 82.1422C86.2962 83.3801 85.7066 84.7575 85.8729 86.2597C86.3891 86.4872 86.832 86.6805 87.2772 86.8786C87.4999 86.6438 87.7372 86.4872 87.8448 86.2695ZM103.128 46.0681C103.062 46.0852 103.001 46.1097 102.933 46.117C102.908 46.1195 102.869 46.0852 102.835 46.0681C102.901 46.051 102.964 46.029 103.033 46.0216C103.057 46.0192 103.096 46.051 103.128 46.0681ZM102.646 45.7085C102.707 45.7256 102.771 45.7452 102.835 45.7623C102.803 45.7794 102.764 45.8137 102.739 45.8112C102.671 45.8039 102.607 45.7794 102.544 45.7623C102.575 45.7476 102.61 45.7305 102.646 45.7085ZM101.863 48.4657C101.885 48.4633 101.927 48.4975 101.959 48.5146C101.893 48.5293 101.832 48.5538 101.763 48.5611C101.739 48.5636 101.7 48.5293 101.665 48.5146C101.731 48.4975 101.795 48.4731 101.863 48.4657ZM101.311 47.8321C101.411 47.8198 101.648 47.881 101.648 47.9079C101.653 48.0351 101.592 48.1648 101.543 48.3385C101.308 48.2675 101.093 48.226 101.1 48.2039C101.137 48.0743 100.887 47.8859 101.311 47.8321ZM95.7569 61.7993C95.9477 61.9069 96.1141 61.9681 96.0945 61.995C96.0432 62.0684 95.9282 62.1345 95.8058 62.1785C95.7765 62.1907 95.5441 62.1075 95.5441 62.0684C95.5441 61.9975 95.6493 61.9265 95.7569 61.7993ZM120.944 121.377C123.168 121.245 125.343 120.976 127.498 120.421C128.646 120.127 129.839 119.958 131.021 119.86C132.469 119.738 133.906 119.76 135.344 119.351C136.66 118.975 138.079 118.965 139.445 118.745C139.934 118.664 140.479 118.209 140.866 118.334C142.026 118.713 142.946 118.131 143.973 117.883C145.045 117.624 146.229 117.788 147.276 117.47C149.101 116.917 150.946 116.739 152.829 116.641C154.53 116.553 156.23 116.364 157.916 116.11C158.356 116.041 158.738 115.559 159.144 115.268C159.858 115.733 160.575 115.642 161.363 115.437C162.674 115.097 164.015 114.688 165.348 114.669C167.005 114.644 168.548 114.187 170.144 113.923C170.897 113.798 171.648 113.651 172.404 113.553C173.84 113.37 175.281 113.211 176.722 113.052C177.603 112.954 178.332 112.357 179.416 112.812C180.059 113.079 181.124 112.303 182.009 112.034C182.247 111.96 182.53 112.056 182.785 112.024C184.473 111.799 186.166 111.62 187.837 111.315C189.997 110.918 192.14 110.414 194.293 109.976C194.535 109.927 194.878 109.908 195.044 110.037C195.974 110.767 196.608 110.006 197.312 109.675V107.875C195.37 107.816 193.672 107.652 192.003 108.315C191.228 108.623 190.364 108.765 189.525 108.856C187.311 109.091 185.085 109.237 182.868 109.458C181.427 109.6 179.959 109.668 178.562 110.011C174.342 111.043 170.07 111.682 165.745 112.007C165.405 112.031 165.067 112.1 164.734 112.166C163.235 112.455 161.747 112.822 160.238 113.03C157.37 113.431 154.584 114.461 151.618 114.167C151.396 114.145 151.159 114.385 150.914 114.429C148.661 114.845 146.412 115.293 144.147 115.635C141.372 116.053 138.542 116.193 135.809 116.795C132.129 117.605 128.423 118.016 124.685 118.307C123.845 118.373 123.004 118.549 122.192 118.776C121.034 119.102 119.907 119.393 118.671 119.307C117.032 119.195 115.508 119.696 113.979 120.472C114.008 121.12 114.035 121.693 114.067 122.424C114.813 122.358 115.39 122.344 115.955 122.246C117.619 121.962 119.268 121.475 120.944 121.377ZM144.768 117.382C144.79 117.38 144.832 117.414 144.864 117.431C144.8 117.448 144.736 117.468 144.675 117.485C144.636 117.465 144.604 117.448 144.572 117.431C144.636 117.414 144.7 117.392 144.768 117.382ZM135.946 118.27C135.978 118.304 136.022 118.336 136.037 118.373C136.044 118.385 135.978 118.405 135.946 118.424C135.914 118.39 135.87 118.356 135.855 118.321C135.851 118.309 135.914 118.287 135.946 118.27ZM134.532 118.094C134.718 118.135 134.796 118.153 134.877 118.17C134.693 118.253 134.52 118.343 134.326 118.419C134.29 118.432 134.172 118.387 134.094 118.37C134.246 118.275 134.4 118.177 134.532 118.094ZM127.444 119.963C127.515 120.061 127.589 120.159 127.704 120.313C127.557 120.352 127.415 120.418 127.344 120.401C127.217 120.372 127.024 120.266 127.048 120.239C127.139 120.137 127.305 120.054 127.444 119.963ZM114.916 93.8121C118.492 90.9961 122.106 88.2316 125.695 85.4327C127.386 84.1141 129.294 82.9691 130.659 81.3691C132.193 79.5733 134.128 78.4308 135.931 77.0485C137.365 75.9524 138.684 74.6974 140.156 73.6625C142.18 72.2386 143.653 70.1199 146.023 69.1242C146.628 68.8722 147.048 68.2043 147.572 67.7468C148.416 67.0153 149.248 66.2666 150.129 65.5816C152.499 63.7394 154.931 61.973 157.27 60.0941C161.297 56.8597 165.265 53.5569 169.27 50.2982C169.928 49.7648 170.648 49.3024 171.472 48.7128C170.895 48.1844 170.447 47.7733 169.713 47.1005C166.608 49.5153 163.628 51.815 160.668 54.1441C158.104 56.1625 155.572 58.2274 153.011 60.2506C151.469 61.4739 149.889 62.6482 148.343 63.8666C146.053 65.6697 143.76 67.4728 141.5 69.3175C140.609 70.0465 139.804 70.8955 138.931 71.6417C138.955 71.6539 138.985 71.6661 139.002 71.6808C139.034 71.7077 138.899 71.786 138.772 71.9059C138.738 71.8839 138.708 71.8667 138.679 71.8472C138.454 72.0307 138.224 72.2093 137.982 72.3732C134.385 74.827 131.222 77.8167 127.733 80.4051C125.039 82.4039 122.6 84.7428 120.024 86.9031C118.906 87.8377 117.81 88.8456 116.557 89.5649C114.673 90.6487 112.971 91.9136 111.446 93.4525C110.908 93.9956 110.218 94.3846 109.631 94.8837C107.931 96.3345 106.248 97.8048 104.408 99.3975C104.763 100.039 105.066 100.587 105.379 101.157C107.327 100.55 108.305 98.9547 109.756 98.0006C111.596 96.7895 113.174 95.1822 114.916 93.8121ZM148.602 65.4838C148.793 65.589 148.959 65.6526 148.94 65.6795C148.888 65.7504 148.773 65.8165 148.651 65.863C148.621 65.8728 148.389 65.792 148.389 65.7529C148.389 65.6795 148.494 65.6085 148.602 65.4838ZM147.755 67.2061C147.694 67.189 147.631 67.1694 147.567 67.1523C147.601 67.1352 147.64 67.1009 147.665 67.1034C147.733 67.1131 147.795 67.1352 147.861 67.1523C147.829 67.1694 147.795 67.1841 147.755 67.2061ZM147.848 66.0098C147.941 66.0073 148.039 66.0514 148.277 66.1076C147.902 66.1957 147.662 66.2544 147.425 66.3107C147.374 66.2471 147.269 66.181 147.286 66.1223C147.339 65.9364 147.643 66.0171 147.848 66.0098ZM140.917 72.1334C140.952 72.1677 140.986 72.1995 141.02 72.2313C140.981 72.2533 140.949 72.268 140.917 72.2851C140.883 72.2533 140.842 72.219 140.824 72.1824C140.819 72.1701 140.883 72.1505 140.917 72.1334ZM139.449 71.8423C139.77 71.7616 140.132 71.7224 140.482 71.6808C140.555 71.671 140.658 71.7224 140.729 71.742C140.592 72.0625 140.11 72.3145 139.687 72.2778C139.479 72.2631 139.295 72.1628 139.102 72.1016C139.217 72.0135 139.29 71.8839 139.449 71.8423ZM23.7409 95.6397C20.739 93.2788 17.243 91.5588 14.038 89.4475C11.4814 87.7643 9.07155 85.8584 6.53205 84.1459C5.0519 83.1477 3.2586 82.5507 1.93747 81.3935C0.0585403 79.7495 -2.33905 78.8883 -4.29139 77.3886C-4.32564 77.4179 -4.35744 77.4497 -4.39169 77.4815C-4.4235 77.4644 -4.48711 77.4424 -4.48222 77.4302C-4.46754 77.3959 -4.4235 77.3616 -4.39169 77.3274C-4.37212 77.3396 -4.3501 77.3494 -4.33053 77.3592C-4.42839 77.2834 -4.5238 77.2051 -4.61922 77.1243C-4.64858 77.1366 -4.68038 77.1488 -4.70974 77.161C-4.72687 77.1292 -4.7758 77.0754 -4.75867 77.0681C-4.74155 77.0632 -4.72197 77.0583 -4.7024 77.0558C-4.78069 76.9898 -4.85653 76.9213 -4.93238 76.8528C-5.63453 76.8528 -5.65165 76.843 -5.62719 76.4418C-5.61985 76.3561 -5.68346 76.2387 -5.61985 76.1628C-5.62963 76.1531 -5.63942 76.1433 -5.64921 76.131C-7.93427 75.2968 -9.73491 73.6821 -11.7337 72.3781C-14.2341 70.7487 -16.8298 69.2588 -19.3033 67.5902C-22.8483 65.2024 -26.2955 62.6751 -29.8282 60.2702C-31.805 58.9246 -33.8699 57.7062 -35.9299 56.4047C-36.5024 56.9013 -37.2926 57.3637 -37.1507 58.4108C-34.8852 59.9522 -32.6393 61.4959 -30.3763 63.0152C-28.0349 64.5859 -25.7376 66.2373 -23.3107 67.6636C-20.896 69.085 -18.8874 71.1915 -16.091 71.9646C-14.3564 74.3353 -11.4891 75.0693 -9.23337 76.6889C-7.01192 78.2889 -4.62411 79.6638 -2.46138 81.3324C-0.230148 83.0547 2.34115 84.2266 4.53324 86.0419C6.68618 87.8254 9.20856 89.1735 11.611 90.6414C12.7511 91.3387 13.8203 92.1485 14.9114 92.9191C15.0093 92.8971 15.1243 92.8726 15.2735 92.8384C15.6918 92.7405 15.8289 92.8555 16.1078 92.8824C16.3377 92.9069 16.6068 92.7895 16.8711 92.7699C16.9249 92.765 17.1108 92.9656 17.0839 92.9778C16.8809 93.0708 16.6362 93.1393 16.4038 93.2151C16.12 92.924 15.5475 93.4256 15.2662 93.1051C15.2637 93.1026 15.2246 93.1051 15.183 93.1099C16.2937 93.8806 17.4338 94.6048 18.706 95.1161C20.5286 97.3718 23.4351 98.0348 25.5978 99.8526C27.7092 101.629 30.2487 102.894 32.7637 104.486C33.2383 103.723 33.576 103.185 33.9845 102.532C32.8763 101.736 32.0714 101.235 31.3521 100.631C29.0181 98.666 26.1605 97.5382 23.7409 95.6397ZM-8.11775 75.172C-8.08595 75.2063 -8.04191 75.2381 -8.02723 75.2748C-8.02234 75.287 -8.08595 75.3066 -8.11775 75.3237C-8.14956 75.2919 -8.1936 75.2576 -8.20827 75.2234C-8.21561 75.2087 -8.14956 75.1891 -8.11775 75.172ZM-8.7514 75.4485C-8.77587 75.4509 -8.81501 75.4191 -8.84927 75.402C-8.78321 75.3849 -8.72205 75.3604 -8.65354 75.3531C-8.62908 75.3506 -8.58994 75.3849 -8.55568 75.402C-8.62174 75.4191 -8.6829 75.4411 -8.7514 75.4485ZM-7.3789 76.1408C-7.82417 76.043 -8.16668 75.9769 -8.47984 75.8888C-8.54345 75.8693 -8.57036 75.72 -8.51165 75.6956C-8.23029 75.5732 -7.91714 75.4705 -7.60398 75.3702C-7.57707 75.3628 -7.39603 75.4338 -7.39848 75.4656C-7.40826 75.6246 -7.37646 75.7616 -7.10978 75.8693C-7.08287 75.8815 -7.26881 76.0332 -7.3789 76.1408ZM-6.65718 75.9353C-6.68898 75.9011 -6.73302 75.8693 -6.7477 75.8326C-6.75259 75.8203 -6.68898 75.8008 -6.65718 75.7836C-6.62292 75.8179 -6.58133 75.8497 -6.56421 75.8864C-6.55931 75.8986 -6.62292 75.9182 -6.65718 75.9353ZM-5.26755 77.3274C-5.29935 77.2931 -5.34339 77.2613 -5.35807 77.2246C-5.36541 77.2124 -5.29935 77.1928 -5.26755 77.1757C-5.23574 77.2075 -5.19171 77.2418 -5.17703 77.2785C-5.16969 77.2907 -5.23574 77.3103 -5.26755 77.3274ZM-4.34766 77.7629C-4.40882 77.7458 -4.47243 77.7286 -4.53604 77.7091C-4.50423 77.6944 -4.46509 77.6601 -4.44062 77.6626C-4.37212 77.6699 -4.30851 77.6944 -4.2449 77.7091C-4.27671 77.7262 -4.30851 77.7433 -4.34766 77.7629ZM188.426 82.1764V82.2156L188.38 82.1911C188.395 82.1862 188.409 82.1813 188.426 82.1764ZM120.934 110.074C124.986 108.577 129.025 107.033 133.12 105.67C134.799 105.11 136.191 104.024 138.07 103.735C139.99 103.439 141.769 102.211 143.714 101.345C143.919 101.345 144.345 101.448 144.678 101.318C145.057 101.171 145.324 100.657 145.698 100.579C148.697 99.9529 151.494 98.759 154.305 97.5944C157.204 96.3907 160.096 95.1577 163.044 94.0837C164.142 93.6849 165.187 93.1051 166.288 92.8139C169.082 92.0702 171.797 91.1576 174.405 89.9295C174.401 89.927 174.398 89.9246 174.393 89.9221C174.437 89.9001 174.481 89.8781 174.523 89.8561C174.528 89.8585 174.533 89.861 174.538 89.8659C174.731 89.7729 174.924 89.6824 175.117 89.5869C175.497 89.3986 175.878 89.1955 176.279 89.0658C178.046 88.4885 179.798 87.8573 181.596 87.3973C183.555 86.8982 185.055 85.3667 187.22 85.2272C188.392 85.1538 189.515 84.2657 190.834 83.6664C190.516 82.9373 190.261 82.3526 189.963 81.67C189.491 81.829 189.031 81.9782 188.576 82.1275C188.608 82.1397 188.639 82.1544 188.669 82.1666C188.588 82.1838 188.507 82.2009 188.426 82.2156C188.654 82.4602 188.556 82.6461 188.17 82.6731C187.935 82.6877 187.683 82.6535 187.455 82.6804C187.237 82.7073 187.122 82.678 187.049 82.629C186.271 82.8859 185.51 83.1428 184.757 83.4193C183.641 83.8254 182.587 84.393 181.473 84.8138C178.78 85.8315 176.057 86.7759 173.366 87.801C171.389 88.5545 169.424 89.3399 167.457 90.1154C167.482 90.1227 167.504 90.1301 167.528 90.1374C167.32 90.2182 167.21 90.2891 167.076 90.3062C167.054 90.3087 167.029 90.3013 167.005 90.294C165.97 90.7001 164.935 91.1013 163.895 91.4928C162.552 91.9943 161.111 92.239 159.775 92.7503C159.396 92.8971 159.019 93.0463 158.64 93.1956C158.762 93.2641 158.875 93.3155 158.885 93.3693C158.921 93.5699 158.596 93.5307 158.393 93.5136C158.285 93.5063 158.192 93.4549 158.097 93.4084C154.708 94.7344 151.344 96.1192 147.949 97.4232C143.841 98.9987 139.694 100.467 135.586 102.035C133.448 102.852 131.41 103.973 129.228 104.628C123.153 106.453 117.274 108.768 111.432 111.226C111.674 112.024 111.894 112.741 112.1 113.416C115.075 112.288 117.996 111.158 120.934 110.074ZM175.455 88.7698C175.572 88.6671 175.717 88.5692 175.856 88.4738C175.917 88.4322 176.047 88.3637 176.062 88.3686C176.179 88.4126 176.368 88.4738 176.36 88.5252C176.346 88.6279 176.255 88.7404 176.138 88.8261C176.047 88.8921 175.868 88.9239 175.815 88.9435C175.59 88.9362 175.494 88.9337 175.399 88.9313C175.416 88.875 175.406 88.8138 175.455 88.7698ZM174.1 89.7019H173.97C173.926 89.6726 173.879 89.6408 173.835 89.6114C173.897 89.6016 173.999 89.5772 174.012 89.5869C174.058 89.6188 174.073 89.6628 174.1 89.7019ZM174.334 89.3496C174.339 89.3545 174.259 89.3986 174.239 89.3937C174.075 89.3643 173.86 89.3496 173.767 89.286C173.649 89.2077 173.627 89.0879 173.581 88.9851C173.578 88.9802 173.733 88.9533 173.911 88.919C174.051 89.0585 174.197 89.2028 174.334 89.3496ZM173.662 88.4811C173.693 88.5129 173.738 88.5472 173.752 88.5814C173.757 88.5937 173.693 88.6157 173.662 88.6328C173.627 88.601 173.591 88.5667 173.559 88.5349C173.596 88.5129 173.63 88.4958 173.662 88.4811ZM172.786 89.5502C172.82 89.5821 172.854 89.6163 172.889 89.6481C172.849 89.6677 172.818 89.6848 172.786 89.7019C172.752 89.6677 172.71 89.6359 172.693 89.5992C172.688 89.5869 172.752 89.5674 172.786 89.5502ZM172.786 90.0078C172.82 90.0396 172.854 90.0738 172.889 90.1056C172.849 90.1252 172.818 90.1423 172.786 90.1594C172.752 90.1252 172.71 90.0934 172.693 90.0567C172.688 90.0469 172.752 90.0249 172.786 90.0078ZM168.984 89.5502C169.016 89.5845 169.06 89.6163 169.074 89.653C169.079 89.6652 169.016 89.6848 168.984 89.7019C168.95 89.6701 168.913 89.6359 168.881 89.6041C168.918 89.5845 168.952 89.5674 168.984 89.5502ZM168.15 90.0298C168.189 90.0493 168.221 90.0665 168.252 90.0836C168.189 90.1007 168.125 90.1227 168.057 90.1325C168.032 90.135 167.993 90.1007 167.961 90.0836C168.025 90.0665 168.088 90.0469 168.15 90.0298ZM161.397 93.7045C161.539 93.8243 161.679 93.9418 161.808 94.0616C161.811 94.0641 161.671 94.1204 161.591 94.1277C161.51 94.1375 161.351 94.1228 161.341 94.1032C161.287 93.9883 161.26 93.8708 161.246 93.7534C161.243 93.7363 161.363 93.7167 161.397 93.7045ZM159.335 93.3693C159.369 93.4011 159.411 93.4353 159.428 93.472C159.433 93.4843 159.369 93.5038 159.335 93.521C159.301 93.4892 159.266 93.4549 159.232 93.4231C159.271 93.4035 159.303 93.3864 159.335 93.3693ZM26.8113 119.784C26.6205 120.494 26.4541 121.11 26.3147 121.629C24.5263 121.362 22.777 121.125 21.0351 120.839C18.7035 120.455 16.3793 120.036 14.0551 119.621C13.6417 119.547 13.238 119.334 12.8294 119.337C11.2808 119.347 9.76637 119.249 8.25441 118.811C5.48005 118.006 2.46837 118.424 -0.239937 117.22C-3.02898 117.573 -5.56602 116.237 -8.31592 116.041C-11.834 115.789 -15.3105 114.749 -18.8091 114.238C-22.6795 113.673 -26.4838 112.719 -30.4154 112.393C-32.9622 112.186 -35.6094 112.024 -38.1195 111.077C-39.4235 110.585 -40.9746 110.918 -42.4034 110.471C-44.7447 109.734 -47.2304 109.754 -49.6304 109.047C-51.524 108.489 -53.6354 108.408 -55.6244 107.948C-55.8006 107.909 -56.0354 108.129 -56.6373 108.413C-56.3853 107.283 -56.2434 106.637 -56.0599 105.8C-55.2648 105.866 -54.6042 105.873 -53.9632 105.981C-52.8525 106.17 -51.825 107.089 -50.6188 106.316C-48.4512 106.71 -46.2444 106.972 -44.1257 107.547C-42.7214 107.926 -41.2804 108.088 -39.9128 108.447C-37.5984 109.056 -35.1054 108.521 -32.9084 109.688C-32.5512 109.876 -32.0839 109.908 -31.6631 109.918C-28.6784 109.996 -25.8257 111.038 -22.9021 111.256C-20.1571 111.459 -17.6347 112.553 -14.8482 112.604C-12.1692 112.653 -9.50738 113.465 -6.83088 113.91C-5.23574 114.175 -3.62104 114.326 -2.03324 114.625C0.215118 115.046 2.43657 115.601 4.68493 116.012C6.36079 116.318 8.05379 116.567 9.74924 116.692C11.6306 116.831 13.4435 117.196 15.2784 117.619C17.1818 118.057 19.1708 118.18 21.1305 118.304C23.1146 118.432 24.9324 119.033 26.8113 119.784ZM5.60727 29.2898C5.76384 29.2115 5.94978 29.1333 6.17975 29.0525C6.40483 28.9742 6.65193 28.9131 6.87946 28.8348C7.18772 28.732 7.67702 28.7198 8.00731 28.7198C8.49661 28.7222 8.39631 28.8813 8.4012 29.1773C8.39631 29.2947 8.20792 29.51 7.73574 29.6495C7.64033 29.6788 7.52045 29.7596 7.53513 29.8085C7.65257 30.2342 6.8868 30.2513 6.48067 30.3957C6.43419 30.4128 6.38037 30.4201 6.3241 30.4275C7.92168 32.8936 9.62447 35.2912 11.2343 37.7499C12.2251 39.2619 13.2037 40.7812 14.1799 42.3005C14.2411 42.2662 14.3047 42.2295 14.3512 42.1977C14.4148 42.2662 14.471 42.3372 14.5444 42.4032C14.6325 42.484 14.7695 42.5525 14.8184 42.6381C14.8429 42.6797 14.7181 42.7433 14.5885 42.8656C14.5664 42.8509 14.5444 42.8387 14.52 42.8265C14.5567 42.8803 14.5909 42.9366 14.6276 42.9928C14.6472 42.9733 14.6668 42.9561 14.6863 42.9366C14.7181 42.9537 14.7842 42.9757 14.7768 42.9879C14.7622 43.0222 14.7206 43.0564 14.6888 43.0882C15.7041 44.6711 16.7194 46.2565 17.7371 47.8394C20.5971 52.2823 23.3593 56.7815 26.278 61.1901C28.5337 64.5981 30.6646 68.0893 32.8053 71.5707C32.8689 71.583 32.9301 71.5903 32.9888 71.605C33.0916 71.6294 33.1552 71.6979 33.346 71.8105C33.1968 71.8105 33.072 71.8154 32.9594 71.8178C33.4757 72.6594 33.9992 73.4986 34.5203 74.3377C34.5717 74.2986 34.6255 74.2619 34.6769 74.2252C34.8457 74.279 34.9191 74.3035 34.9949 74.3255C34.8677 74.3818 34.743 74.438 34.6157 74.4943C34.8555 74.8784 35.0904 75.265 35.3326 75.6491C35.45 75.6735 35.5577 75.7347 35.7436 75.8081C35.6384 75.8375 35.5528 75.8668 35.4843 75.8913C36.2084 77.046 36.9399 78.2081 37.7938 79.2626C39.729 81.6578 40.8495 84.6107 43.0489 86.8248C43.3768 87.1551 43.4893 87.7423 43.6043 88.234C43.8709 89.3765 44.4899 90.2671 45.4 90.9741C45.5199 91.0695 45.7156 91.0671 45.9627 91.1356C46.2343 90.8787 46.5377 90.5925 46.9927 90.1619C46.3126 88.6157 45.9627 86.7759 44.8912 85.582C42.2293 82.6266 40.9987 78.7121 38.1192 75.95C37.5051 73.7506 35.7876 72.2093 34.7307 70.2716C33.7546 68.4759 32.749 66.6948 31.6726 64.9578C30.4248 62.9418 29.1037 60.9724 27.7826 59.0029C26.8774 57.6549 25.9208 56.3435 24.9838 55.0175C24.4406 54.2493 23.8486 53.5105 23.3519 52.7104C21.2381 49.3024 19.1048 45.9018 17.0644 42.4473C14.9799 38.9194 12.3132 35.7731 10.3878 32.1449C9.87646 31.1785 9.52415 30.1119 8.92476 29.2042C7.65501 27.2812 6.27272 25.4317 4.92713 23.5576C4.67514 23.2078 4.16871 22.9044 4.1418 22.5496C4.03415 21.138 2.89407 20.5729 1.9864 19.5551C1.43104 19.8731 0.905041 20.1741 0.32032 20.5068C1.19128 21.9135 1.96683 23.1319 2.70813 24.3723C3.68674 26.0041 4.60908 27.6702 5.60727 29.2898ZM7.71128 30.3883C7.65012 30.3712 7.5865 30.3516 7.5229 30.3345C7.55714 30.3174 7.59629 30.2831 7.62076 30.2856C7.68926 30.2929 7.75287 30.3174 7.81648 30.3345C7.78223 30.3516 7.75042 30.3687 7.71128 30.3883ZM36.9179 73.8851C37.1087 73.9928 37.2751 74.0539 37.2555 74.0809C37.2042 74.1543 37.0867 74.2203 36.9669 74.2643C36.9375 74.2766 36.7026 74.1934 36.7051 74.1543C36.7051 74.0833 36.8103 74.0124 36.9179 73.8851ZM36.0592 74.1934C36.2133 74.301 36.3601 74.3573 36.3821 74.4258C36.409 74.5139 36.3332 74.6093 36.3038 74.7023C36.1399 74.6093 35.9589 74.5212 35.8243 74.416C35.7925 74.394 35.9295 74.3133 36.0592 74.1934ZM35.4451 75.172C35.4769 75.2063 35.521 75.2381 35.5356 75.2748C35.5405 75.287 35.4769 75.3066 35.4451 75.3237C35.4133 75.2919 35.3693 75.2576 35.3546 75.2234C35.3473 75.2087 35.4133 75.1891 35.4451 75.172ZM34.0481 72.1432C34.1827 72.1603 34.2952 72.2288 34.5008 72.3096C34.2708 72.3781 34.1215 72.4466 34.0677 72.4319C33.9429 72.3928 33.8622 72.3145 33.7644 72.2509C33.8598 72.2117 33.9747 72.1334 34.0481 72.1432ZM33.3974 71.0472C33.4316 71.0814 33.4732 71.1132 33.4903 71.1499C33.4952 71.1621 33.4316 71.1817 33.3974 71.2013C33.3631 71.167 33.3289 71.1328 33.2946 71.101C33.3338 71.0814 33.3656 71.0643 33.3974 71.0472ZM22.7085 53.0309C22.9042 53.0432 23.0755 53.1533 23.259 53.2218C23.1097 53.3196 22.9605 53.4175 22.6865 53.5985C22.5519 53.4322 22.4516 53.3612 22.4443 53.2878C22.4345 53.1826 22.3391 53.0065 22.7085 53.0309ZM22.021 53.0334C22.0528 53.0505 22.1164 53.075 22.1091 53.0799C22.0748 53.1141 22.0259 53.1435 21.9794 53.1728C21.9378 53.1508 21.8938 53.1288 21.8498 53.1043C21.906 53.0799 21.9623 53.0554 22.021 53.0334ZM21.8498 53.1728C21.8498 53.1949 21.8498 53.2193 21.8498 53.2413C21.791 53.2658 21.7348 53.2878 21.6761 53.3123C21.6589 53.2805 21.61 53.2267 21.6296 53.2193C21.6883 53.1949 21.7739 53.1875 21.8498 53.1728ZM18.8479 47.3746C19.0999 47.4504 19.3372 47.5385 19.6479 47.6486C19.462 47.7415 19.3127 47.8247 19.298 47.8198C19.0681 47.7244 18.8479 47.6217 18.6448 47.5116C18.6326 47.5042 18.8332 47.3697 18.8479 47.3746ZM17.7396 44.8546C17.8962 44.9525 18.0234 44.9965 18.0405 45.0479C18.0919 45.2265 17.857 45.2436 17.6026 45.2265C17.4705 45.2192 17.3457 45.1947 17.2185 45.1776C17.38 45.0773 17.5414 44.977 17.7396 44.8546ZM15.1438 42.5598C15.1365 42.5378 15.3518 42.4937 15.5866 42.4252C15.6356 42.5989 15.6943 42.7262 15.6918 42.8558C15.6918 42.8827 15.4545 42.9439 15.3542 42.9317C14.931 42.8754 15.1805 42.6895 15.1438 42.5598ZM10.0086 34.841C10.0404 34.8753 10.0844 34.9071 10.1015 34.9438C10.1064 34.956 10.0404 34.9756 10.0086 34.9927C9.97432 34.9609 9.93761 34.9266 9.90582 34.8948C9.94496 34.8753 9.97676 34.8581 10.0086 34.841ZM9.71743 34.3811C9.75168 34.4153 9.78593 34.4471 9.82018 34.4789C9.78104 34.5009 9.74924 34.5181 9.71743 34.5352C9.68318 34.5009 9.64159 34.4667 9.62447 34.4324C9.61957 34.4202 9.68318 34.3982 9.71743 34.3811ZM9.13271 34.2294C9.16451 34.2636 9.20856 34.2954 9.22324 34.3321C9.22813 34.3444 9.16451 34.3639 9.13271 34.3835C9.09846 34.3492 9.05687 34.315 9.03974 34.2807C9.03485 34.2661 9.09846 34.2465 9.13271 34.2294ZM8.69234 30.1804C8.62872 30.1975 8.56512 30.2195 8.49661 30.2293C8.47215 30.2317 8.43301 30.1975 8.4012 30.1804C8.46481 30.1632 8.52842 30.1437 8.58958 30.1265C8.62872 30.1461 8.66053 30.1632 8.69234 30.1804ZM171.56 75.6613C169.529 76.7451 167.55 77.9366 165.488 78.9617C163.362 80.0186 161.082 80.7868 159.019 81.9464C157.018 83.0694 154.86 83.8352 152.871 84.9508C150.804 86.108 148.817 87.4389 146.674 88.4297C144.607 89.3839 142.515 90.2328 140.533 91.4023C138.495 92.606 136.193 93.3497 134.065 94.4115C132.019 95.4342 130.067 96.6403 128.039 97.6996C125.932 98.8006 123.838 99.9529 121.644 100.848C119.503 101.722 117.497 102.791 115.476 103.897C113.448 105.007 111.439 106.162 109.223 107.023C109.582 107.784 109.834 108.315 110.235 109.162C111.217 108.672 111.97 108.298 112.726 107.926C115.087 106.759 117.453 105.597 119.811 104.423C122.473 103.099 125.125 101.754 127.792 100.44C130.378 99.17 132.888 97.7486 135.44 96.4201C141.309 93.3619 147.32 90.5802 153.26 87.6542C158.08 85.2762 162.877 82.8492 167.685 80.4467C168.896 79.8424 170.129 79.2822 171.323 78.6461C172.448 78.0467 173.51 77.3201 174.648 76.7427C177.689 75.1965 180.759 73.709 183.807 72.175C184.39 71.8839 184.916 71.4826 185.611 71.0398C185.055 70.3621 184.632 69.8435 184.196 69.315C182.041 70.3572 179.964 71.331 177.916 72.3585C175.783 73.4301 173.667 74.5384 171.56 75.6613ZM128.384 98.5437C128.323 98.4727 128.213 98.4018 128.213 98.3308C128.213 98.2623 128.328 98.1963 128.391 98.1302C128.526 98.1963 128.66 98.2599 128.795 98.3259C128.648 98.4042 128.516 98.4727 128.384 98.5437ZM82.2301 60.2727C82.5701 59.798 83.1989 59.2818 83.1108 58.9784C82.619 57.3001 83.6344 55.8934 83.7934 54.3447C84.0405 51.9789 84.4539 49.6303 84.8307 47.2791C85.1365 45.3586 85.7849 43.443 85.7555 41.5323C85.7115 38.66 86.7855 36.0178 87.0399 33.1994C87.2797 30.5473 87.8644 27.8537 88.4296 25.1992C88.9751 22.6279 89.0583 19.9612 89.506 17.3655C90.0418 14.2779 90.7758 11.2271 91.3703 8.14938C91.7862 6.00133 92.4565 3.85817 91.9281 1.65141C91.2993 1.48994 90.7464 1.35048 90.1005 1.18412C89.9024 2.17252 89.6993 3.16336 89.506 4.1591C89.1635 5.90347 88.8308 7.65029 88.4883 9.39711C88.3953 9.87174 88.136 10.3635 88.2045 10.8063C88.4736 12.5115 87.9182 14.1458 87.8008 15.807C87.6662 17.7373 86.2057 19.4866 86.8026 21.5882C86.0931 22.9876 86.0858 24.5411 85.7677 26.0286C85.2662 28.3724 84.8087 30.6917 84.7916 33.0991C84.7867 33.7645 84.5151 34.4251 84.4344 35.0954C84.0527 38.2221 82.6655 41.2118 83.2992 44.2822C82.8613 44.8718 82.5506 45.2852 82.2398 45.7036C82.3328 48.3018 82.3573 50.8706 81.315 53.3245C81.1242 53.7771 81.2196 54.3447 81.1487 54.8536C80.9799 56.0304 80.8062 57.2072 80.608 58.379C80.4661 59.2109 80.2508 60.0329 80.1334 60.8672C80.0502 61.4641 80.2581 62.1614 80.0233 62.6678C78.9957 64.8917 79.0276 67.3309 78.6899 69.6526C78.685 69.6771 78.6826 69.6991 78.6777 69.7211C78.7168 69.7065 78.7511 69.6942 78.7805 69.6967C78.9174 69.7138 79.0276 69.7848 79.2355 69.8655C79.0031 69.934 78.8539 70.0025 78.8025 69.9878C78.7413 69.9682 78.6948 69.9413 78.6508 69.9095C78.2275 72.7695 77.7113 75.5977 77.129 78.4259C76.7719 80.1458 76.6642 81.9195 76.4514 83.6223C77.0997 83.9183 77.5278 84.1116 78.0392 84.344C79.2404 81.7948 79.8912 79.2259 80.0233 76.6252C80.1114 74.9029 80.5199 73.2662 80.789 71.605C81.4031 67.8226 82.416 64.0966 82.2301 60.2727ZM78.9346 70.301C78.9028 70.2838 78.8685 70.2667 78.8318 70.2471C78.8636 70.2153 78.9003 70.1811 78.9346 70.1493C78.9664 70.164 79.03 70.186 79.0251 70.1982C79.0104 70.2349 78.9664 70.2667 78.9346 70.301ZM108.917 104.528C108.934 104.459 109.073 104.398 109.218 104.288C109.247 104.313 109.276 104.335 109.303 104.354C110.715 103.449 112.051 102.593 113.347 101.758C113.328 101.739 113.303 101.717 113.296 101.695C113.237 101.553 113.323 101.433 113.648 101.475C113.68 101.477 113.71 101.489 113.739 101.506C114.311 101.139 114.881 100.772 115.449 100.405C117.883 98.8324 120.234 97.1027 122.769 95.7082C126.04 93.9075 129.15 91.85 132.205 89.7484C134.928 87.8719 137.805 86.2523 140.521 84.3758C142.062 83.3092 143.839 82.6143 145.184 81.2076C145.869 80.4932 146.889 80.0993 147.753 79.5464C148.895 78.8173 150.089 78.1739 151.278 77.5182C151.227 77.4522 151.22 77.3739 151.291 77.276C151.736 77.0265 151.239 76.7696 151.3 76.5127C151.322 76.4295 151.406 76.3488 151.459 76.2681C151.596 76.339 151.853 76.4124 151.846 76.4785C151.817 76.6889 152.037 76.8454 152.196 77.0093C153.683 76.1677 155.137 75.2699 156.433 74.12C157.123 73.5084 158.048 73.1683 158.836 72.6619C160.844 71.3701 162.833 70.0514 164.835 68.7474C166.762 67.4899 168.656 66.1761 170.633 64.9993C172.402 63.9473 174.193 62.9638 175.731 61.5571C176.331 61.0066 177.219 60.7742 177.97 60.3876C178.337 60.1993 178.694 59.984 179.066 59.776C178.643 59.1326 178.276 58.5748 177.884 57.9827C176.194 58.7093 174.506 59.1644 173.39 60.6005C173.253 60.7766 172.942 60.8109 172.72 60.9283C171.599 61.5204 170.388 61.9901 169.378 62.7314C166.794 64.6201 164.11 66.3572 161.436 68.1064C161.441 68.1089 161.444 68.1113 161.449 68.1113C161.439 68.1138 161.431 68.1162 161.422 68.1162C159.961 69.0728 158.505 70.0319 157.072 71.0251C154.652 72.6986 151.988 73.9316 149.576 75.6295C149.708 75.7029 149.837 75.769 149.815 75.7861C149.693 75.8937 149.51 75.9843 149.348 76.0797C149.287 76.0356 149.211 75.9916 149.143 75.9451C148.9 76.1262 148.656 76.3023 148.418 76.4956C145.759 78.6412 142.574 80.1287 139.675 81.9905C132.651 86.497 125.666 91.0647 118.649 95.5858C116.291 97.1027 113.959 98.6954 111.473 99.9773C109.798 100.841 108.564 102.079 107.341 103.402C107.246 103.505 107.287 103.728 107.238 104.092C107.779 104.327 108.369 104.584 108.714 104.733C108.782 104.689 108.848 104.645 108.919 104.601C108.912 104.577 108.909 104.552 108.917 104.528ZM165.598 66.7217C165.564 66.7413 165.517 66.7731 165.505 66.7706C165.441 66.7511 165.388 66.7266 165.329 66.7021C165.373 66.6801 165.417 66.6556 165.458 66.6336C165.505 66.663 165.551 66.6923 165.598 66.7217ZM164.776 66.34C164.999 66.3767 165.148 66.5309 165.329 66.6336C165.131 66.6874 164.932 66.7413 164.622 66.8269C164.556 66.7315 164.477 66.6556 164.458 66.5798C164.431 66.455 164.433 66.2838 164.776 66.34ZM152.318 76.5641C152.35 76.5812 152.416 76.6008 152.411 76.6155C152.394 76.6497 152.35 76.684 152.318 76.7158C152.286 76.6986 152.255 76.684 152.215 76.6619C152.25 76.6301 152.284 76.5983 152.318 76.5641ZM110.561 100.731C110.585 100.728 110.624 100.763 110.656 100.777C110.593 100.797 110.529 100.814 110.468 100.834C110.429 100.812 110.397 100.794 110.365 100.777C110.429 100.76 110.492 100.738 110.561 100.731ZM108.807 104.034C108.738 104.026 108.675 104.002 108.609 103.987C108.643 103.97 108.675 103.953 108.714 103.933C108.775 103.951 108.838 103.968 108.902 103.987C108.87 104.002 108.831 104.036 108.807 104.034ZM194.807 96.7724C194.704 96.2073 194.677 95.7913 194.543 95.4146C194.418 95.0672 194.178 94.7589 193.929 94.3283C191.827 94.9938 189.816 95.6323 187.803 96.2611C187.56 96.3369 187.299 96.3565 187.044 96.3883C182.555 96.9461 178.3 98.4238 173.992 99.7009C173.229 99.9284 172.58 100.342 171.653 100.264C170.833 100.19 169.958 100.78 169.106 101.071C169.026 101.098 168.933 101.073 168.847 101.083C164.874 101.577 161.094 102.862 157.27 103.943C155.393 104.474 153.659 105.438 151.594 105.35C150.809 105.318 149.999 105.861 149.201 106.14C148.563 106.363 147.939 106.681 147.281 106.788C142.415 107.584 137.744 109.118 133.02 110.451C131.885 110.771 130.708 110.945 129.108 111.278C129.022 111.341 128.543 111.694 128.46 111.755C126.238 112.181 124.494 112.579 122.73 112.836C120.792 113.12 119.102 114.179 117.047 114.258C115.645 114.309 114.28 115.32 112.978 115.87V116.983C113.67 117.216 114.382 117.455 114.957 117.649C116.993 116.966 118.872 115.968 120.834 115.76C124.599 115.361 128.002 113.697 131.682 113.071C132.922 112.861 134.104 112.332 135.332 112.024C136.479 111.738 137.685 111.652 138.808 111.302C141.067 110.595 143.386 110.084 145.664 109.485C148.098 108.841 150.456 107.637 153.089 107.823C153.243 107.833 153.414 107.723 153.563 107.647C156.14 106.314 159.027 106.01 161.764 105.24C167.631 103.588 173.561 102.167 179.46 100.626C182.484 99.8354 185.488 98.9547 188.517 98.1816C190.557 97.6605 192.627 97.2568 194.807 96.7724ZM194.171 95.943C194.107 95.9259 194.044 95.9088 193.983 95.8892C194.014 95.8721 194.053 95.8403 194.078 95.8427C194.146 95.8501 194.21 95.8721 194.274 95.8892C194.242 95.9063 194.208 95.9235 194.171 95.943ZM194.222 95.2825C194.376 95.3803 194.54 95.4415 194.553 95.5075C194.589 95.7082 194.264 95.669 194.061 95.6519C193.926 95.6421 193.814 95.5589 193.689 95.51C193.838 95.4464 193.99 95.3803 194.222 95.2825ZM192.715 96.1461C192.74 96.1436 192.779 96.1779 192.813 96.195C192.747 96.2121 192.683 96.2342 192.615 96.2439C192.593 96.2464 192.551 96.2121 192.52 96.195C192.586 96.1779 192.647 96.1559 192.715 96.1461ZM190.697 96.7284C190.817 96.7822 190.968 96.8238 191.042 96.8898C191.074 96.9167 190.939 96.995 190.812 97.1149C190.655 97.0073 190.523 96.9485 190.489 96.8776C190.472 96.8409 190.623 96.7797 190.697 96.7284ZM105.592 86.7832C106.086 86.2964 106.578 85.8022 107.011 85.2639C108.609 83.2847 110.194 81.3006 111.784 79.314C111.632 79.3164 111.515 79.3311 111.478 79.3091C111.376 79.2479 111.317 79.1647 111.241 79.0913C111.358 79.062 111.471 79.0228 111.593 79.0131C111.659 79.0082 111.75 79.0498 111.816 79.0816C111.855 79.0987 111.889 79.1183 111.926 79.1378C112.861 77.9684 113.8 76.8014 114.737 75.6344C116.293 73.6919 117.851 71.7542 119.412 69.8166C120.11 68.948 120.802 68.0722 121.514 67.2135C123.589 64.7107 126.047 62.5161 127.66 59.6317C127.824 59.3356 128.09 59.091 128.313 58.8292C129.384 57.5717 130.488 56.3362 131.564 55.0836C131.484 55.0053 131.405 54.9294 131.488 54.8536C131.366 54.7729 131.244 54.6921 131.119 54.6089C131.227 54.5135 131.29 54.4573 131.354 54.401C131.491 54.4719 131.704 54.5355 131.74 54.6187C131.77 54.6823 131.581 54.7729 131.488 54.8536C131.579 54.8536 131.669 54.8536 131.76 54.8536C132.575 53.8994 133.377 52.9331 134.126 51.9275C135.146 50.555 136.186 49.2584 137.475 48.1428C137.862 47.81 138.148 47.3599 138.473 46.9587C140.421 44.5611 142.383 42.1757 144.298 39.7536C145.04 38.8166 145.678 37.7989 146.341 36.8031C146.576 36.4484 146.654 35.8588 146.968 35.7022C148.839 34.7627 149.48 32.7027 150.975 31.4232C151.601 30.8874 152.025 30.1119 152.609 29.3534C151.885 28.891 151.276 28.502 150.532 28.0274C149.693 29.1455 149.037 30.1535 148.242 31.0415C147.21 32.1963 146.513 33.7034 145.465 34.6918C142.757 37.2435 140.758 40.3335 138.371 43.1152C136.636 45.136 135.114 47.3648 133.225 49.2241C130.777 51.6315 128.78 54.4132 126.725 57.0946C124.951 59.409 123.175 61.699 121.235 63.8764C120.034 65.2244 118.754 66.5333 117.751 68.0233C115.163 71.8692 112.019 75.243 109.01 78.7366C107.554 80.4247 106.191 82.1911 104.777 83.9135C103.084 85.9734 101.355 88.004 99.6958 90.0909C99.0108 90.9546 98.4481 91.9209 97.8805 92.8677C97.7851 93.0292 97.9392 93.3399 97.9955 93.6947C98.5362 93.7338 99.0401 93.773 99.7668 93.8292C100.569 92.8898 101.403 92.1069 101.998 91.1723C103.023 89.5551 104.237 88.119 105.592 86.7832ZM151.352 30.2195C151.3 30.2905 151.185 30.3565 151.063 30.403C151.034 30.4128 150.801 30.3296 150.801 30.2929C150.804 30.2195 150.907 30.1486 151.014 30.0238C151.205 30.1314 151.371 30.1926 151.352 30.2195ZM150.955 29.5051C150.987 29.5247 151.051 29.5492 151.044 29.5541C151.009 29.5883 150.96 29.6152 150.914 29.647C150.872 29.6226 150.828 29.6005 150.784 29.5785C150.84 29.5541 150.897 29.5296 150.955 29.5051ZM150.784 29.647C150.784 29.669 150.784 29.6911 150.784 29.7155C150.725 29.7375 150.669 29.762 150.61 29.784C150.593 29.7522 150.544 29.6984 150.562 29.6935C150.623 29.669 150.708 29.6593 150.784 29.647ZM139.427 42.8583C139.557 42.9781 139.692 43.0564 139.66 43.0834C139.586 43.1494 139.435 43.191 139.315 43.2424C139.239 43.1934 139.09 43.1323 139.107 43.0956C139.139 43.0246 139.271 42.9659 139.427 42.8583ZM135.41 48.9036C135.479 48.9036 135.547 49.0064 135.682 49.114C135.381 49.2021 135.124 49.278 134.867 49.3538C134.73 49.2192 134.593 49.0847 134.456 48.9477C134.774 48.9306 135.092 48.9036 135.41 48.9036ZM105.563 83.7569C105.597 83.774 105.66 83.7985 105.653 83.8058C105.619 83.8376 105.57 83.867 105.523 83.8963C105.482 83.8743 105.438 83.8523 105.394 83.8278C105.45 83.8058 105.506 83.7813 105.563 83.7569ZM105.394 83.8963C105.394 83.9208 105.394 83.9428 105.394 83.9648C105.335 83.9893 105.279 84.0113 105.22 84.0358C105.203 84.004 105.154 83.9501 105.174 83.9428C105.232 83.9183 105.318 83.911 105.394 83.8963ZM43.3303 92.6133C43.2887 92.5472 43.2471 92.4861 43.2079 92.42C43.1761 92.4053 43.1468 92.3882 43.1199 92.376C43.137 92.3711 43.1541 92.3687 43.1688 92.3638C41.5932 89.861 39.9467 87.9013 38.2782 85.9343C35.061 82.1471 32.1129 78.1323 29.0279 74.2325C28.2009 73.1879 27.144 72.3071 26.4223 71.2013C24.1617 67.7443 21.5929 64.5394 18.8552 61.4617C18.2827 60.8158 17.6466 60.2237 17.0668 59.5852C16.7267 59.6659 16.5653 59.6977 16.4429 59.7467C16.2301 59.8298 16.0221 60.0109 15.7775 59.8323C15.6674 59.7515 15.7579 59.5534 15.8753 59.4433C15.9659 59.3601 16.2521 59.2892 16.438 59.2965C16.5824 59.3014 16.7243 59.3552 16.9273 59.4286C16.8564 59.3479 16.783 59.2696 16.7145 59.1888C15.3444 57.5374 14.0062 55.8616 12.7022 54.1612C11.9095 53.1288 11.0116 52.1331 10.3927 51.0321C10.0208 50.3691 9.65382 49.7501 9.15473 49.1752C9.14739 49.185 9.14005 49.1923 9.13026 49.1997C9.09846 49.1825 9.03485 49.163 9.03974 49.1507C9.04708 49.1287 9.06666 49.1091 9.08623 49.092C8.37673 48.2724 7.72106 47.4113 7.03114 46.5745C5.98892 45.3121 5.02744 43.9714 3.87268 42.8216C1.90812 40.8668 0.330105 38.638 -1.22589 36.3652C-2.19226 34.9535 -3.39351 33.7034 -4.48222 32.3773C-5.13299 31.5847 -5.78621 30.7969 -6.41253 29.9871C-7.14404 29.0378 -7.84374 28.0666 -8.58749 27.0708C-9.29943 27.4965 -9.87191 27.839 -10.579 28.2647C-9.55386 29.5345 -8.46516 30.6232 -7.68716 31.9027C-5.35807 35.7364 -1.94761 38.7212 0.464664 42.4864C1.15459 43.5653 1.92769 44.6834 2.91608 45.4614C4.60174 46.7874 5.3675 48.7911 6.91371 50.2737C9.10336 52.3777 10.6667 55.1325 12.5211 57.5913C13.4557 58.8268 14.4246 60.0378 15.4129 61.2317C16.3646 62.3816 17.3873 63.4752 18.3317 64.6324C19.3788 65.9192 20.4112 67.2159 21.4436 68.5174C21.6247 68.4025 21.8938 68.2752 21.9232 68.2997C22.0479 68.4147 22.1213 68.5419 22.2461 68.7083C22.0699 68.7866 21.8865 68.9113 21.7935 68.8967C21.769 68.8918 21.7495 68.8795 21.7274 68.8746C21.8498 69.0312 21.9745 69.1854 22.0969 69.3419C22.3268 69.2612 22.5739 69.2025 22.7183 69.2147C23.1024 69.2441 23.3348 69.4398 23.3103 69.7114C23.3006 69.8239 23.0119 70.0221 22.7378 70.1517C22.9287 70.389 23.1171 70.6288 23.3054 70.8661C25.5978 73.7604 27.8535 76.6815 30.1777 79.5488C31.9515 81.736 33.8744 83.8058 35.6066 86.0224C37.4904 88.4322 39.225 90.9594 41.0452 93.4207C41.1822 93.6041 41.4734 93.6726 41.8893 93.9002C42.3321 93.5063 42.792 93.0953 43.3303 92.6133ZM9.23058 50.8144C9.05932 50.878 8.79264 50.8731 8.48927 50.9073C8.38163 50.8682 8.20547 50.8315 8.12474 50.7654C8.0807 50.7312 8.20303 50.6407 8.25685 50.5771C8.27643 50.555 8.32536 50.5404 8.35716 50.5232C8.72169 50.2982 8.72414 50.3006 8.70213 49.8113C8.70213 49.7624 8.83424 49.6767 8.92476 49.6694C9.0324 49.6596 9.25014 49.7085 9.26237 49.7477C9.35045 50.0046 9.09846 50.2933 9.54862 50.5281C9.59266 50.5502 9.39449 50.7532 9.23058 50.8144ZM10.0086 51.0346C9.97676 51.0174 9.91315 50.9954 9.91805 50.9832C9.93272 50.9489 9.97676 50.9147 10.0086 50.8804C10.0404 50.8976 10.0746 50.9147 10.1138 50.9343C10.0795 50.9685 10.0428 51.0003 10.0086 51.0346ZM22.3048 69.2147C22.2583 69.1829 22.2143 69.1535 22.1703 69.1242C22.2314 69.1144 22.3317 69.0899 22.3464 69.0973C22.3929 69.1291 22.4076 69.1731 22.4345 69.2147C22.3904 69.2147 22.3489 69.2147 22.3048 69.2147ZM23.6308 69.7358C23.692 69.726 23.7947 69.6991 23.807 69.7089C23.8535 69.7407 23.8681 69.7848 23.8951 69.8239C23.8535 69.8239 23.8094 69.8239 23.7654 69.8263C23.7214 69.7945 23.6749 69.7652 23.6308 69.7358ZM24.0418 70.7413C24.01 70.7071 23.966 70.6753 23.9513 70.6386C23.9464 70.6264 24.01 70.6068 24.0418 70.5897C24.0785 70.6215 24.1128 70.6557 24.147 70.6875C24.1079 70.7071 24.0761 70.7242 24.0418 70.7413ZM24.0712 69.9609C24.0076 69.9438 23.9538 69.9169 23.8975 69.8924C23.9391 69.8704 23.9831 69.8484 24.0272 69.8239C24.0737 69.8557 24.1201 69.8851 24.1642 69.9144C24.1299 69.9315 24.0834 69.9633 24.0712 69.9609ZM24.6266 69.5205C24.5948 69.5034 24.5312 69.4814 24.536 69.4692C24.5507 69.4324 24.5948 69.4007 24.6266 69.3664C24.6584 69.3835 24.6926 69.4007 24.7318 69.4202C24.6975 69.4545 24.6633 69.4863 24.6266 69.5205ZM22.9189 90.453C24.5336 91.7056 26.1483 92.9583 27.971 94.3699C28.0052 94.4555 28.0419 94.9766 28.3233 95.214C29.8866 96.5498 31.4817 97.8513 33.1258 99.0917C33.9992 99.7498 34.9558 100.383 36.25 99.833C36.2892 99.5101 36.3283 99.1822 36.387 98.7101C34.7625 97.296 33.1283 95.8256 31.4377 94.4237C30.53 93.6726 29.319 93.2029 28.5997 92.3173C26.7379 90.02 24.2718 88.42 22.0039 86.6731C19.2785 84.5765 16.6631 82.3721 14.0723 80.1262C12.9322 79.1378 11.8288 78.1029 10.6447 77.1684C7.61342 74.7757 4.50388 72.4833 1.50933 70.0465C-1.29439 67.7639 -3.88037 65.2049 -6.75504 63.0201C-11.1955 59.6463 -15.4696 56.0842 -19.6874 52.4462C-19.7167 52.4854 -19.817 52.5514 -19.9125 52.6419C-20.069 52.5343 -20.2012 52.4756 -20.233 52.4046C-20.2525 52.3679 -20.1008 52.3068 -20.025 52.2578C-19.9492 52.2896 -19.866 52.3214 -19.7926 52.3557C-20.2232 51.9814 -20.6587 51.6119 -21.0892 51.2376C-23.1639 49.4345 -25.3266 47.7318 -27.46 45.9947C-27.5799 45.8993 -27.778 45.8993 -28.0374 45.8284C-28.468 46.2785 -28.9304 46.7629 -29.5591 47.4235C-28.7738 48.1623 -28.2918 48.9648 -27.6215 49.1801C-25.7694 49.7771 -24.7737 51.3379 -23.4183 52.4927C-22.4348 53.327 -21.4342 54.1392 -20.4311 54.949C-19.636 55.59 -18.677 56.0915 -18.0507 56.8646C-16.4213 58.8757 -13.7105 59.6243 -12.3209 61.8947C-12.2108 62.0757 -11.8658 62.1075 -11.6432 62.2348C-10.9875 62.6091 -10.2487 62.8488 -9.95999 63.7149C-9.845 64.0623 -9.39484 64.3657 -9.02786 64.5541C-5.77153 66.2324 -3.42042 69.0581 -0.567772 71.2478C1.93503 73.1707 4.26167 75.3261 6.7082 77.325C9.09846 79.2773 11.567 81.1342 13.9622 83.0816C16.0955 84.8211 18.1653 86.6364 20.2815 88.3979C21.1378 89.1099 22.0381 89.7704 22.9189 90.453ZM21.0938 87.6933C21.1109 87.6713 21.1549 87.6542 21.1916 87.6395C21.358 87.5735 21.5244 87.5074 21.6907 87.4413C21.7201 87.5343 21.818 87.642 21.7568 87.7129C21.6883 87.7961 21.4754 87.8426 21.3923 87.8768C21.1843 87.8621 21.0938 87.8548 21.0057 87.8475C21.0351 87.7961 21.0571 87.7423 21.0938 87.6933ZM-17.6861 56.3802C-17.762 56.3068 -17.8721 56.2334 -17.9039 56.1551C-17.9601 56.0181 -17.8892 55.8909 -17.5589 55.9301C-17.4366 55.9447 -17.3583 56.0548 -17.1919 56.1674C-17.3999 56.2555 -17.5418 56.3191 -17.6861 56.3802ZM1.54114 70.6875C1.43349 70.5603 1.32829 70.4894 1.32829 70.4184C1.32829 70.3793 1.56071 70.2961 1.59007 70.3083C1.71239 70.3523 1.82738 70.4209 1.87876 70.4918C1.89833 70.5163 1.73196 70.5799 1.54114 70.6875ZM4.67269 75.1891C4.63844 75.1549 4.60174 75.1231 4.56994 75.0913C4.60664 75.0693 4.64089 75.0546 4.67269 75.0374C4.70449 75.0693 4.74854 75.1035 4.76321 75.1402C4.77055 75.1524 4.70449 75.172 4.67269 75.1891ZM5.31613 74.9567C5.22805 74.7904 5.15221 74.6778 5.12285 74.5628C5.11551 74.5335 5.25007 74.4919 5.32102 74.4576C5.44579 74.5751 5.57791 74.6925 5.68311 74.8124C5.69289 74.8246 5.53142 74.8735 5.31613 74.9567ZM5.87149 75.0179C5.80788 75.0007 5.75406 74.9738 5.69534 74.9518C5.73938 74.9298 5.78342 74.9053 5.82745 74.8833C5.87149 74.9127 5.91797 74.942 5.96446 74.9714C5.93021 74.991 5.88372 75.0228 5.87149 75.0179ZM7.06295 75.3139C6.99445 75.3041 6.93084 75.2821 6.86478 75.265C6.89903 75.2478 6.93084 75.2307 6.96998 75.2112C7.03114 75.2283 7.09476 75.2478 7.15836 75.265C7.12656 75.2821 7.08497 75.3164 7.06295 75.3139ZM12.2741 80.6865C11.8679 80.7256 11.775 80.6082 11.9071 80.3244C11.8851 80.3342 12 80.2828 12.1175 80.2314C12.2985 80.3489 12.482 80.4663 12.663 80.5862C12.5334 80.6204 12.4111 80.6718 12.2741 80.6865ZM13.8814 81.7556C13.8814 81.8315 13.8888 81.9049 13.879 81.9807C13.8765 82.0003 13.8154 82.0345 13.7933 82.0321C13.7224 82.0247 13.627 82.0125 13.5952 81.9856C13.4826 81.8877 13.3677 81.785 13.3089 81.6773C13.2771 81.6186 13.3432 81.5379 13.4092 81.4792C13.4386 81.4522 13.605 81.4376 13.6588 81.4571C13.7542 81.4914 13.83 81.5526 13.8765 81.6088C13.9108 81.6504 13.8814 81.7067 13.8814 81.7556ZM36.8861 4.34748C36.8861 4.6166 36.847 4.80009 36.891 4.96156C37.4929 7.1879 38.0996 9.41179 38.7039 11.6357C38.743 11.6308 38.7822 11.6259 38.8213 11.6186C38.9999 11.5868 39.181 11.5574 39.362 11.5256C39.3718 11.6235 39.4403 11.7335 39.3718 11.8118C39.3204 11.8706 39.0978 11.895 38.9436 11.9219C38.8996 11.9293 38.8482 11.9317 38.7846 11.9293C39.0391 12.8712 39.2959 13.8131 39.5504 14.7575C40.118 16.881 40.6146 19.0242 41.1969 21.1429C41.8036 23.3423 42.633 25.4928 43.0832 27.7216C43.959 32.0348 45.0697 36.282 46.2539 40.5145C46.8239 42.5476 47.4355 44.5659 47.9053 46.1782C47.9934 47.196 47.8343 47.9666 48.1475 48.3948C48.6931 49.1483 48.8032 49.9116 48.9499 50.7752C49.2044 52.2701 49.6863 53.7282 50.1243 55.1863C50.342 55.9129 50.6209 56.6249 50.868 57.3417C50.9806 57.2806 51.0882 57.4224 51.1738 57.4127C51.3255 57.398 51.4601 57.3246 51.5849 57.2659C51.717 57.2023 51.8417 57.102 51.991 57.2414C52.0913 57.3368 52.2381 57.4616 52.1916 57.5472C52.1133 57.6867 51.8931 57.8066 51.7341 57.9338C51.4576 57.8604 51.2105 57.8114 51.005 57.7454C51.0686 57.9387 51.1273 58.1295 51.1812 58.3228C51.2839 58.2714 51.3916 58.2151 51.4405 58.2274C51.6387 58.2714 51.7977 58.3644 52.0742 58.4818C51.7928 58.4989 51.6093 58.5332 51.4503 58.5136C51.3622 58.5038 51.2864 58.4671 51.2105 58.428C51.4478 59.2892 51.5824 60.1748 51.4797 61.1143C51.4527 61.3516 51.5457 61.6256 51.6534 61.8507C52.7641 64.1528 52.4362 66.9223 53.9898 69.0875C54.117 69.2661 54.024 69.5964 54.0632 69.8508C54.2442 71.0227 54.3812 72.2093 54.6406 73.364C54.8999 74.5163 55.4895 75.6295 55.558 76.7818C55.6265 77.917 56.8914 78.7562 56.243 79.9941C57.1801 81.1097 57.2363 82.4969 57.3097 83.6859C57.9703 84.552 58.5599 85.1514 59.9177 84.6963C59.7342 83.5783 59.6388 82.5556 59.3917 81.5746C58.7042 78.8173 57.9923 76.065 57.2804 73.3151C57.2094 73.2759 57.1605 73.2515 57.1678 73.2466C57.1923 73.2295 57.2241 73.2148 57.251 73.1977C56.955 72.0576 56.659 70.9199 56.3654 69.7799C55.4112 66.0905 54.462 62.4011 53.4956 58.7142C52.4852 54.8683 51.5751 50.9905 50.3983 47.196C49.1946 43.3109 48.5365 39.2986 47.3034 35.4159C46.0533 31.4721 45.1701 27.4084 44.1547 23.3888C43.5309 20.9227 42.6208 18.5398 42.4642 15.9416C42.3737 14.4516 41.7718 12.9886 41.3706 11.5207C40.9253 9.89131 40.4629 8.26192 39.9761 6.64232C39.6678 5.61723 39.3033 4.60926 38.9143 3.45205C38.0556 3.83126 37.4562 4.09549 36.8861 4.34748ZM57.322 76.1164C57.3905 76.1262 57.4541 76.1482 57.5177 76.1653C57.4859 76.1824 57.4541 76.1995 57.4149 76.2191C57.3538 76.202 57.2902 76.1824 57.2265 76.1653C57.2583 76.1482 57.2975 76.1139 57.322 76.1164ZM56.4877 75.9402C56.6198 76.0063 56.884 76.0992 56.8596 76.1335C56.7739 76.2436 56.5856 76.3341 56.4583 76.4173C56.27 76.3781 56.1892 76.3635 56.1109 76.3463C56.2357 76.2093 56.3629 76.0748 56.4877 75.9402ZM55.5458 75.9524C55.5776 75.9867 55.6216 76.0185 55.6363 76.0552C55.6412 76.0674 55.5776 76.087 55.5458 76.1066C55.5115 76.0723 55.4699 76.0381 55.4528 76.0038C55.4479 75.9916 55.5115 75.9696 55.5458 75.9524ZM52.5488 58.291C52.4852 58.3081 52.4216 58.3277 52.3604 58.3448C52.3213 58.3252 52.2895 58.3081 52.2577 58.291C52.3213 58.2738 52.3849 58.2518 52.4534 58.242C52.4754 58.2396 52.517 58.2738 52.5488 58.291ZM52.1598 56.5637C52.1842 56.5588 52.2234 56.5931 52.2577 56.6102C52.194 56.6298 52.1304 56.6469 52.0693 56.664C52.0301 56.6445 51.9959 56.6273 51.9641 56.6102C52.0277 56.5931 52.0913 56.5711 52.1598 56.5637ZM92.0455 88.0603C92.0993 88.0334 92.2266 88.0236 92.3269 88.0334C92.4149 87.8891 92.4981 87.7374 92.574 87.5759C92.6841 87.3435 92.7599 87.0939 92.8333 86.8419C92.8015 86.8566 92.7721 86.8737 92.7379 86.8933C92.64 86.727 92.5569 86.634 92.5397 86.5386C92.5299 86.4774 92.6205 86.4114 92.6645 86.3477C92.7526 86.4114 92.8406 86.4774 92.9263 86.541C92.9948 86.3233 93.0682 86.108 93.1758 85.9123C94.9398 82.7 97.0193 79.6614 98.3184 76.202C98.4995 75.7225 98.6585 75.2112 98.9545 74.8075C100.268 73.0093 101.303 71.0741 102.103 68.997C102.142 68.8991 102.177 68.8012 102.213 68.7034C102.096 68.6349 102.181 68.5615 102.294 68.4856C102.671 67.4459 103.028 66.3645 103.689 65.54C104.32 64.7474 104.841 64.0354 105.21 63.0592C105.922 61.1705 106.942 59.3992 107.809 57.5668C108.217 56.7056 108.689 55.8811 109.179 55.064C108.968 54.9735 108.824 54.9123 108.684 54.8512C108.807 54.8022 108.922 54.719 109.056 54.7093C109.159 54.6995 109.294 54.6872 109.396 54.7019C110.412 53.0211 111.464 51.36 112.127 49.4884C112.406 48.6981 112.873 47.9764 113.267 47.2302C114.737 44.4387 116.217 41.6546 117.688 38.8655C118.48 37.3634 119.278 35.8661 120.046 34.3517C120.968 32.5315 121.927 30.7235 122.735 28.8543C123.038 28.1522 123.016 27.3522 123.894 26.9999C124.142 26.8996 124.318 26.5253 124.438 26.239C126.084 22.3148 127.899 18.4737 130.25 14.8529C129.724 14.3856 129.287 13.9941 128.866 13.6198C127.222 14.596 126.473 16.0982 126.006 17.8009C125.849 18.371 125.734 19.0291 125.375 19.4548C123.858 21.2505 122.913 23.3301 122.104 25.4977C121.984 25.8133 121.81 26.1118 121.651 26.4127C119.452 30.5522 117.233 34.682 115.058 38.8337C114.236 40.4044 113.568 42.0534 112.731 43.6167C111.079 46.7018 109.357 49.7501 107.674 52.8156C107.344 53.415 107.04 54.0291 106.744 54.6456C106.049 56.1038 105.423 57.5986 104.667 59.0249C103.189 61.814 101.308 64.444 100.21 67.3725C99.0304 70.5138 97.0731 73.1805 95.6933 76.1726C95.3385 76.9433 94.6291 77.5721 94.3624 78.3598C93.5061 80.8847 92.1874 83.155 90.903 85.4694C90.3476 86.4701 89.5623 87.6909 90.2571 88.9557C91.1672 89.1441 91.7201 88.8383 92.1165 88.3368C92.0675 88.3074 92.0186 88.2781 91.9697 88.2536C91.9159 88.2242 91.9648 88.097 92.0455 88.0603ZM121.193 28.343C121.384 28.4482 121.551 28.5118 121.531 28.5387C121.48 28.6097 121.365 28.6757 121.242 28.7222C121.213 28.732 120.981 28.6513 120.981 28.6121C120.981 28.5412 121.086 28.4678 121.193 28.343ZM113.433 42.9463C113.612 42.939 113.802 42.9928 114.338 43.0711C113.859 43.1812 113.722 43.235 113.582 43.2375C113.374 43.2424 113.047 43.2938 113.086 43.0931C113.095 43.0344 113.306 42.9512 113.433 42.9463ZM63.289 74.5628C63.2817 74.5457 63.2768 74.5286 63.2817 74.5066C63.0175 72.5738 62.8364 70.6312 62.5061 68.7132C61.897 65.1828 61.1875 61.6452 60.9159 58.0537C60.7128 55.3405 60.3703 52.6419 59.8027 49.9752C59.3257 47.7391 58.9293 45.4858 58.4987 43.2399C58.2443 41.909 57.7917 40.5806 57.7844 39.2472C57.777 37.4172 57.3758 35.6899 57.0015 33.9333C56.8596 33.2728 56.7005 32.6024 56.6785 31.9321C56.6345 30.6452 56.7128 29.3926 56.2259 28.1179C55.8125 27.0366 55.6265 25.7937 55.6534 24.6292C55.7195 21.6836 54.3519 18.9802 54.4522 16.0003C54.5182 14.0015 53.8332 11.9806 53.5592 9.96226C53.1604 7.02398 52.8277 4.07591 52.4729 1.18167C51.3769 0.968825 50.5328 0.819586 50.2172 1.41165C50.3151 3.06061 50.3029 4.34503 50.4815 5.60255C50.9561 8.97386 51.5237 12.3305 52.0277 15.6994C52.2307 17.045 52.243 18.4321 52.5488 19.7508C53.295 22.9851 53.4785 26.3002 54.0901 29.5516C54.1684 29.9651 54.1977 30.403 54.3641 30.7822C55.0589 32.3676 55.1446 34.0483 55.2522 35.7266C55.328 35.7511 55.4014 35.7756 55.4895 35.8025C55.399 35.8196 55.3256 35.8367 55.262 35.8539C55.3232 36.7689 55.3965 37.6839 55.5849 38.5817C55.8418 39.8074 55.7855 41.1041 56.062 42.3812C56.6492 45.1115 57.2632 47.8565 57.2192 50.6847C57.2143 51.0297 57.1532 51.4162 57.2804 51.7171C58.5085 54.6163 58.1049 57.7845 58.7899 60.7742C59.015 61.765 59.152 62.7755 59.3134 63.7785C59.6217 65.7015 59.8297 67.644 60.2382 69.545C61.0578 73.3787 61.5471 77.2491 61.897 81.1464C61.9777 82.0516 62.2835 82.9348 62.4572 83.7104C63.2279 83.8988 63.7759 84.0333 64.39 84.185C64.39 82.5923 64.7618 80.9262 64.319 79.5146C63.8077 77.8876 63.5166 76.2289 63.289 74.5628ZM62.927 73.1854C62.8951 73.1536 62.8511 73.1194 62.8364 73.0827C62.8315 73.0704 62.8951 73.0509 62.927 73.0337C62.9637 73.0655 62.9979 73.0998 63.0322 73.1316C62.993 73.1536 62.9612 73.1683 62.927 73.1854ZM48.0643 80.8847C47.0392 79.2504 46.912 77.1488 45.334 75.8375C44.6343 72.9628 42.7431 70.6728 41.5125 68.0575C39.8782 64.5883 38.2709 61.1045 36.5118 57.6965C33.6176 52.0817 30.4689 46.5941 27.7043 40.9157C26.07 37.5566 24.629 34.1046 22.8333 30.814C21.8155 28.9522 21.1109 26.924 20.1617 25.0231C18.4515 21.5979 16.6754 18.2095 14.8992 14.8186C14.5518 14.1556 14.0894 13.5538 13.6392 12.8638C12.9958 13.1966 12.4698 13.4657 11.7945 13.8106C12.3352 14.7354 12.8172 15.4376 13.1744 16.1985C14.3365 18.6621 15.3151 21.2236 16.6117 23.609C19.9561 29.762 22.5886 36.2796 26.2608 42.2638C26.5765 42.7775 26.848 43.3182 27.1049 43.8687C27.259 43.8956 27.3569 44.013 27.5061 44.1084C27.4376 44.1892 27.3814 44.2601 27.3251 44.3286C27.6334 45.0088 27.9269 45.6987 28.245 46.3739C29.0401 48.0498 29.7961 49.7452 30.6303 51.4015C31.7362 53.5936 32.913 55.7539 34.0433 57.9338C34.4763 58.7656 34.88 59.6121 35.2739 60.461C36.0225 62.0831 36.6953 63.7418 37.5051 65.3321C38.4348 67.1572 39.5137 68.9089 40.4629 70.7242C41.3975 72.5151 42.2367 74.3524 43.1419 76.158C44.1401 78.1445 45.1823 80.1091 46.178 82.0981C47.1297 83.9917 48.0178 85.9196 48.9915 87.801C49.3389 88.4689 49.9408 88.7943 50.7702 88.3392C51.0466 87.6077 50.9218 86.9496 50.5377 86.1936C49.6521 84.4517 49.0918 82.5263 48.0643 80.8847ZM27.8804 43.3745C27.7532 43.3769 27.5624 43.3965 27.511 43.3647C27.3496 43.2595 27.2395 43.1323 27.1171 43.0124C27.1122 43.0051 27.2028 42.9635 27.2077 42.9659C27.4768 43.0785 27.7385 43.1934 28.0052 43.3109C27.9465 43.3427 27.9147 43.3745 27.8804 43.3745ZM32.7711 51.9275C32.7319 51.908 32.7001 51.8909 32.6683 51.8737C32.7319 51.8566 32.7955 51.8346 32.864 51.8272C32.8885 51.8248 32.9276 51.8566 32.9594 51.8737C32.8958 51.8933 32.8322 51.9104 32.7711 51.9275ZM38.5033 65.5816C38.4641 65.633 38.3173 65.6917 38.2195 65.6917C38.1241 65.6917 37.965 65.6281 37.943 65.5792C37.899 65.4838 37.8916 65.3761 37.943 65.2831C37.9797 65.2097 38.1265 65.1535 38.2244 65.0899C38.3222 65.1535 38.4225 65.2171 38.5106 65.2831C38.5326 65.3003 38.5155 65.3345 38.5155 65.359C38.5155 65.4324 38.5522 65.5156 38.5033 65.5816ZM46.7676 62.1271C45.86 59.7589 45.1456 57.3148 44.2355 54.949C42.3761 50.1245 40.2207 45.4173 38.6158 40.4974C38.3027 39.5334 38.0433 38.5475 37.6739 37.6056C37.3094 36.6808 36.9448 35.756 36.5803 34.8312C36.4555 34.8141 36.321 34.7896 36.2035 34.7798C36.2525 34.6918 36.2818 34.6012 36.3577 34.5205C36.3772 34.4985 36.4042 34.4765 36.4311 34.4569C34.5448 29.6715 32.6512 24.891 30.7625 20.108C30.6719 19.8756 30.6548 19.6138 30.5985 19.3643C30.1068 17.204 29.412 15.1171 28.3918 13.1452C28.0786 12.5433 27.5942 11.9317 27.56 11.3054C27.4817 9.93046 26.7159 8.91759 26.0382 7.65029C25.3385 7.91207 24.6364 8.17385 24.1373 8.35979C25.5049 12.1519 26.7966 15.8926 28.2058 19.5893C29.6542 23.3937 31.4646 27.0757 32.6708 30.951C33.8549 34.7603 35.6922 38.3028 36.825 42.1121C37.9601 45.9311 39.5259 49.5764 41.0477 53.2487C42.5694 56.9209 43.9174 60.6714 45.1823 64.4415C46.4398 68.1921 48.194 71.7395 49.4295 75.5023C49.5249 75.468 49.6717 75.4656 49.8331 75.4827C49.9726 75.4974 50.0851 75.5757 50.2099 75.6246C50.0411 75.7298 49.8649 75.8375 49.5983 76.0038C50.7897 79.7054 52.3017 83.3018 53.6864 86.9863C54.2687 86.6438 54.6993 86.3869 55.0712 86.1692C55.4406 84.0064 54.5109 82.2009 53.8332 80.3929C51.5359 74.2815 49.1016 68.2239 46.7676 62.1271ZM36.365 35.2765C36.3038 35.2594 36.2402 35.2422 36.1766 35.2227C36.2084 35.2055 36.2476 35.1713 36.272 35.1762C36.3405 35.1835 36.4042 35.2055 36.4678 35.2227C36.436 35.2398 36.4042 35.2569 36.365 35.2765ZM49.4784 75.3237C49.4466 75.2919 49.4025 75.2576 49.3879 75.2234C49.383 75.2087 49.4466 75.1891 49.4784 75.172C49.5126 75.2063 49.5493 75.2381 49.5836 75.2699C49.5444 75.2894 49.5102 75.3066 49.4784 75.3237ZM51.8589 75.9133C51.7977 75.8962 51.7341 75.8766 51.6705 75.8595C51.7047 75.8424 51.7439 75.8081 51.7683 75.8105C51.8368 75.8203 51.898 75.8424 51.9641 75.8595C51.9323 75.8766 51.898 75.8937 51.8589 75.9133ZM18.158 112.33C17.517 112.124 16.92 111.596 16.2888 111.574C13.693 111.474 11.2514 110.669 8.86115 109.856C5.35772 108.67 1.48242 108.579 -1.66871 106.341C-1.79103 106.255 -2.01611 106.336 -2.18003 106.287C-4.76357 105.524 -7.67738 106.035 -10.0065 104.269C-10.119 104.185 -10.3514 104.281 -10.5178 104.247C-12.0077 103.921 -13.5148 103.654 -14.9803 103.246C-18.3956 102.294 -21.7816 101.235 -25.1994 100.291C-29.4392 99.1186 -33.7035 98.0324 -37.9483 96.8825C-42.7679 95.5785 -47.5778 94.2451 -52.395 92.9289C-52.6152 92.8677 -52.855 92.8677 -53.1118 92.8359C-53.3051 93.5234 -53.4764 94.1424 -53.6868 94.8959C-52.0133 95.3975 -50.4084 95.9014 -48.7913 96.354C-44.4732 97.5626 -40.1477 98.7467 -35.8247 99.9431C-31.9934 101.002 -28.167 102.089 -24.326 103.124C-21.5492 103.872 -18.7455 104.53 -15.9662 105.272C-13.1992 106.008 -10.4664 106.842 -7.6627 107.456C-5.11342 108.014 -2.6571 108.983 -0.134735 109.688C4.67514 111.026 9.4948 112.323 14.3218 113.59C15.4643 113.888 16.7683 113.766 17.7983 114.255C20.054 115.327 22.4908 115.694 24.8345 116.401C25.6199 116.638 26.4664 116.675 27.2174 116.792C27.5991 116.261 27.8389 115.929 28.267 115.334C26.0774 114.833 24.4406 113.605 22.295 113.494C20.9005 113.421 19.5256 112.77 18.158 112.33ZM-42.8364 97.3375C-43.2181 97.3473 -43.1276 97.1883 -43.1202 97.0782C-43.1178 97.0146 -43.037 96.951 -42.9906 96.8874C-42.8169 96.9901 -42.6431 97.0904 -42.4205 97.2226C-42.6236 97.2813 -42.7288 97.3327 -42.8364 97.3375ZM-41.5202 97.0342C-41.5544 97.0024 -41.596 96.9681 -41.6132 96.9314C-41.6181 96.9192 -41.5544 96.8996 -41.5202 96.8825C-41.4884 96.9167 -41.4443 96.9485 -41.4297 96.9852C-41.4248 96.9975 -41.4884 97.0171 -41.5202 97.0342ZM28.7074 83.9966C28.6805 84.0138 28.6584 84.0309 28.6315 84.0505C28.5875 84.026 28.5435 84.004 28.5019 83.982C28.5459 83.9624 28.5924 83.9428 28.6364 83.9232C28.4823 83.7642 28.3282 83.6052 28.1765 83.4462C28.1373 83.5024 27.8951 83.593 27.8658 83.5832C27.4792 83.4388 27.1049 83.2822 26.7526 83.1183C26.6303 83.0596 26.5691 82.9666 26.481 82.8908C26.6523 82.8614 26.8235 82.8345 26.9948 82.8052C27.2223 82.7929 27.4425 83.0229 27.6603 82.9128C26.8872 82.1128 26.1141 81.3103 25.3434 80.5103C24.6902 79.84 23.8192 79.38 23.1709 78.7048C21.4632 76.9237 19.8191 75.0839 18.1555 73.2588C17.5928 72.6447 17.0154 72.0478 16.4307 71.4557C16.372 71.419 16.3279 71.3848 16.3108 71.3481C16.3108 71.3456 16.3157 71.3432 16.3157 71.3407C13.26 68.263 9.95964 65.4324 7.09231 62.1663C5.74672 60.6323 4.10265 59.4041 2.6274 58.017C-0.452782 55.1178 -3.2932 51.9642 -6.22903 48.911C-7.48899 47.5972 -8.81991 46.3372 -9.97712 44.9378C-12.6732 41.6644 -15.8317 38.8631 -18.8433 35.778C-19.5553 36.3823 -20.1155 36.8594 -20.7198 37.3756C-19.1247 38.8606 -17.7473 40.0619 -16.4702 41.361C-15.3839 42.4619 -14.4763 43.7366 -13.3851 44.8302C-11.1661 47.0565 -8.93734 49.2706 -6.70855 51.4847C-6.41253 51.5386 -6.11649 51.5899 -5.82291 51.6462C-5.7593 51.6584 -5.71771 51.7049 -5.66389 51.7367C-5.74462 51.7563 -5.82291 51.7856 -5.90854 51.7954C-6.05288 51.8126 -6.19968 51.8297 -6.34647 51.8468C-3.1562 55.02 0.0340767 58.1907 3.20478 61.3809C4.28859 62.4721 5.24763 63.6856 6.27027 64.8379C6.34367 64.8256 6.41707 64.811 6.4929 64.8012C6.58343 64.7914 6.68618 64.7987 6.92839 64.7987C6.97243 64.8012 7.16081 64.811 7.34675 64.8256C7.38345 64.8281 7.4495 64.8721 7.44461 64.8746C7.40546 64.9039 7.34185 64.9235 7.30515 64.9529C7.12411 65.1021 6.83787 65.1461 6.55652 65.0972C6.53205 65.0948 6.51248 65.0825 6.49046 65.0752C6.77181 65.3883 7.05316 65.6966 7.34919 65.9926C9.20611 67.8471 11.3542 69.43 13.0765 71.3946C15.0142 73.6013 17.2968 75.4264 19.2907 77.5574C21.1378 79.5342 22.9972 81.4987 24.8663 83.4535C24.9079 83.4217 24.9544 83.3899 25.0009 83.3605C25.04 83.3336 25.1281 83.3287 25.1942 83.314C25.2235 83.3556 25.2553 83.3972 25.3214 83.4926C25.2455 83.5318 25.1477 83.5856 25.0425 83.637C25.7789 84.4076 26.5104 85.1783 27.2517 85.9441C28.086 86.8028 29.1282 87.4609 29.9624 88.3196C32.1252 90.5533 34.2023 92.8726 36.3675 95.1039C36.9473 95.7033 37.7204 96.1192 38.4152 96.6011C38.5253 96.677 38.7014 96.6501 38.9706 96.6892C39.1614 96.2831 39.3669 95.8452 39.6018 95.3436C35.8757 91.461 32.2818 87.708 28.7074 83.9966ZM-17.3265 38.9536C-17.7448 38.9194 -17.9308 38.7677 -17.9185 38.5353C-17.9088 38.3542 -17.713 38.3616 -17.461 38.3518C-16.8641 38.3249 -17.0794 38.5524 -17.0158 38.7652C-17.0867 38.8093 -17.2286 38.961 -17.3265 38.9536ZM-11.9197 46.1464C-11.9539 46.1122 -11.9882 46.0803 -12.0224 46.0485C-11.9833 46.0265 -11.9515 46.0094 -11.9197 45.9923C-11.8854 46.0265 -11.8438 46.0608 -11.8267 46.095C-11.8218 46.1073 -11.8854 46.1293 -11.9197 46.1464ZM-10.7184 46.4351C-10.782 46.4155 -10.8383 46.3911 -10.8946 46.3666C-10.8505 46.3421 -10.8089 46.3201 -10.7649 46.2981C-10.7184 46.3274 -10.6719 46.3568 -10.6279 46.3862C-10.6597 46.4057 -10.7086 46.4375 -10.7184 46.4351ZM-9.93552 46.4498C-10.0603 46.4008 -10.2756 46.3593 -10.2952 46.3005C-10.3563 46.1146 -10.5496 46.1317 -10.7967 46.1684C-10.919 46.1855 -10.8823 46.4204 -11.1319 46.2418C-11.193 46.1978 -11.1906 46.0779 -11.127 46.0485C-10.897 45.9458 -10.6279 45.8699 -10.415 45.799C-10.1068 45.8455 -9.90861 45.8528 -9.76916 45.9042C-9.64928 45.9458 -9.50004 46.0583 -9.53185 46.1073C-9.61503 46.232 -9.79362 46.3372 -9.93552 46.4498ZM7.78223 65.0972C7.70149 65.1143 7.56448 65.0532 7.4495 65.0238C7.59384 64.9504 7.73574 64.8795 7.88009 64.8061C7.93147 64.8379 7.98284 64.8721 8.09293 64.9406C7.99752 64.9945 7.90945 65.0727 7.78223 65.0972ZM8.44769 65.244C8.42811 65.2122 8.37918 65.1608 8.39875 65.151C8.45992 65.129 8.5431 65.1192 8.62138 65.107C8.62138 65.129 8.62138 65.151 8.62138 65.173C8.56267 65.1975 8.50395 65.222 8.44769 65.244ZM8.75105 65.107C8.70702 65.0825 8.66298 65.0605 8.62138 65.0385C8.67766 65.014 8.73392 64.9896 8.7902 64.9651C8.82445 64.9822 8.88561 65.0091 8.88072 65.014C8.84647 65.0483 8.79509 65.0752 8.75105 65.107ZM27.4768 83.8963C27.445 83.8645 27.4009 83.8303 27.3863 83.7936C27.3814 83.7813 27.445 83.7618 27.4768 83.7446C27.5135 83.7764 27.5477 83.8107 27.582 83.8425C27.5428 83.8621 27.511 83.8792 27.4768 83.8963ZM28.3282 84.1875C28.311 84.1557 28.2621 84.1043 28.2792 84.0945C28.3404 84.0725 28.426 84.0627 28.4994 84.0505C28.4994 84.0725 28.4994 84.0945 28.4994 84.1165C28.4432 84.141 28.3869 84.1654 28.3282 84.1875Z" fill="url(#paint0_linear_39_1078)"/>
<defs>
<linearGradient id="paint0_linear_39_1078" x1="70.1736" y1="127.126" x2="70.1736" y2="0" gradientUnits="userSpaceOnUse">
<stop stop-color="#769B4B" stop-opacity="0"/>
<stop offset="0.5" stop-color="#799F4E"/>
<stop offset="1" stop-color="#92AC74"/>
</linearGradient>
</defs>
</svg>
