<svg fill="none" height="87" viewBox="0 0 199 87" width="199" xmlns="http://www.w3.org/2000/svg" xmlns:xlink="http://www.w3.org/1999/xlink"><linearGradient id="a" gradientUnits="userSpaceOnUse" x1="70.1736" x2="70.1736" y1="127.126" y2="0"><stop offset="0" stop-color="#769b4b" stop-opacity="0"/><stop offset=".5" stop-color="#799f4e"/><stop offset="1" stop-color="#92ac74"/></linearGradient><path d="m190.254 123.555c2.667-.211 5.368-.316 8.093-.182v-2.5c-.624 0-1.13-.029-1.634.005-2.571.162-5.138.372-7.709.504-4.042.203-8.083.002-12.142.428-3.159.33-6.342.423-9.529.494-.189.233-.8.451-1.265.387-.424-.059-.881-.164-1.182-.323-.005-.002-.007-.005-.012-.007-.83.019-1.659.039-2.488.068-1.909.064-3.895-.264-5.711.162-1.739.408-3.437.384-5.127.308-1.674-.076-3.269.58-5.006.147-1.072-.267-2.334.332-3.518.411-2.655.171-5.326-.106-7.978.482-1.162.257-2.422.088-3.638.083-1.233-.003-2.462.063-3.699.022-1.116-.037-2.256.024-3.391.022-3.394-.007-6.787.335-10.241.543.369.966.667 1.742.963 2.517h2.087c.69-.692 1.285-.692 2.085 0h1.042c.159-.161.316-.459.48-.464 1.82-.044 3.669-.235 5.46-.003 1.779.23 3.474-1.15 5.248-.112.247.142.678-.003 1.018-.052.836-.117 1.685-.425 2.505-.359 2.977.247 5.923-.981 8.91-.135.377.108.839-.064 1.258-.13.584-.093 1.164-.271 1.751-.296 1.302-.051 2.63-.193 3.9.005 1.336.208 2.596-1.201 3.907-.083 1.28-.753 2.784-.054 4.02-.514 1.48-.548 2.794.191 4.208.059 3.425-.32 6.875-.384 10.312-.582 1.789-.103 3.621.399 5.37-.401.257-.118.661.073.993.137.414.078.935.376 1.216.225 1.576-.852 3.328-.013 4.837-.517 1.551-.518 3.095-.232 4.607-.349zm-61.567.645c-.068-.007-.132-.031-.196-.049.032-.017.064-.034.103-.053.061.017.125.036.189.053-.032.018-.071.052-.096.049zm37.322-1.223c-.022.003-.064-.032-.095-.046.063-.02.127-.037.188-.054.039.019.071.037.103.054-.064.014-.125.039-.196.046zm-147.1636.553c-2.8306-.149-5.6539.056-8.5017-.472-2.68135-.499-5.47284-.416-8.21785-.558-4.0441-.213-8.09066-.355-12.12985-.629-1.1572-.078-2.2729-.602-3.4521-.017-.2153.108-.6214-.247-.9492-.269-3.1658-.232-6.3488-.712-9.495-.541-1.6367.091-3.1389-.379-4.7218-.323-.7462.027-1.4997-.278-2.2533-.296-1.9963-.046-3.9951.032-5.9891-.026-2.6618-.076-5.3432.105-7.9707-.539-.9053-.222-1.8325-.452-2.7524-.469-3.4716-.076-6.9432-.064-10.4124-.084v2.085c.8661.012 1.7639-.118 2.5958.063 3.2.693 6.4833.409 9.7029.893 1.1915.179 2.4661-.124 3.6331.123 1.2697.271 2.5542-.245 3.6771.066 1.9793.548 3.9365.333 5.901.396 1.9108.064 3.8851-.254 5.7127.142 1.9009.413 3.8141.059 5.6221.47 1.8887.43 3.7359.425 5.6221.399.9542-.01 1.9719-.152 2.8478.122 1.0422.323 1.9523-.277 2.93092-.076.91011.191 1.82755.431 2.75234.47 3.26367.144 6.542019.012 9.78611.594 1.25262.225 2.64959.68 3.775.345 1.36271-.406 2.47098-.022 3.71623.12 2.4661.286 5.0032-.413 7.4399.482.893-.876 1.7664.098 2.6643.066.9101-.034 1.83.34 2.7572.438.7487.081 1.512.017 1.9695.017 1.0667-.827.8734-1.568.6899-2.307-2.3682-.24-4.6533-.563-6.9506-.685zm-36.6196-1.593c-.0709-.078-.1713-.151-.2055-.234-.0954-.226.1957-.245.504-.221.1443.01.2789.057.6263.132-.4355.155-.6801.238-.9248.323zm24.05426 3.049c-.16637.014-.34985-.025-.52845-.039.1786-.088.34496-.184.54313-.252.04404-.018.20061.053.42814.119-.20306.081-.31071.16-.44282.172zm96.74094-121.12538c-1.17 4.20314-2.332 8.37198-3.4891 12.52378.1517.0832.3058.1688.4971.2716-.1717.0758-.3161.1614-.3479.1492-.0856-.0245-.1639-.0563-.2422-.0881-2.5982 9.3188-5.167 18.5325-7.709 27.7534-3.704 13.4364-7.3493 26.8898-11.0045 40.2772.8808.9419 1.7395.8098 2.7524.3205.7731-2.8111 1.5486-5.6197 2.3217-8.4307-.0464.0391-.1052.0856-.1663.1419-.1566-.1077-.2912-.1664-.323-.2373-.0171-.0392.1322-.0979.208-.1493.1052.0465.23.0881.3107.1395 6.5787-23.883 13.1574-47.7758 19.7581-71.74445-.734-.26667-1.443-.52111-2.566-.92723zm-3.2714 12.49438c-.044-.022-.0856-.0464-.1296-.0685.0562-.0244.115-.0489.1712-.0709.0318.0171.0954.0416.0881.0465-.0343.0342-.0832.0636-.1297.0929zm-1.9768 10.6057c-.11-.1223-.1957-.1737-.1908-.2202.0098-.1076-.1394-.2642.2104-.296.1101-.0122.2422.0441.3621.0685-.1052.1248-.2128.2496-.3817.4477zm3.8532-12.6583c-.56.0612-.56.4135-1.01.5211-.076.0196-.196.0098-.277-.0098-.041-.0098-.078-.0758-.054-.1003.15-.1541.318-.3058.421-.4012-.105-.1297-.205-.1982-.195-.2569.009-.0514.181-.1443.229-.137.294.0489.588.1125.854.1957.064.0196.049.1884.032.1884zm-26.6205 51.8786c.5357-1.9768.2813-3.9364.4183-5.901.1297-1.8985.3817-3.7921.5138-5.6906.0783-1.1254-.2765-2.3781.1125-3.3542.4746-1.1866-.2226-2.1481-.0709-3.2074.0489-.3352.0929-.6728.1468-1.008.1223-.7535.3205-1.5022.3621-2.2581.1272-2.2239-.0245-4.4356.3841-6.6791.5162-2.8428-.0416-5.7762.5406-8.6925.4796-2.4098.1468-4.9468.482-7.4472.4942-3.6576.4502-7.3885.6312-11.0901.1713-3.43738.3376-6.87719.4918-10.31701.0073-.141899-.137-.291137-.2471-.5088782h-2.2875c0 1.5217382.0024 2.8183982-.0025 4.1126082-.0024.78045.1884 1.63918-.066 2.3291-.69 1.85691-.3768 3.74808-.4404 5.62458-.0196.6092.137 1.2697-.0563 1.8129-.9639 2.7303-.455 5.6001-.8538 8.394-.1175.8294-.186 1.6661-.2275 2.5028.1027.0661.2104.1346.3645.2349-.1639.0685-.2716.1394-.3792.1614-.1224 3.2319.1419 6.5054-.3425 9.7519-.4942 3.3053.1003 6.6937-.5285 10.0503-.3572 1.9083-.0807 3.912-.4869 5.8888-.3449 1.6686-.0269 3.4619-.1125 5.194-.0832 1.7077-.3743 3.4056-.4526 5.1108-.1199 2.5591-.2251 5.1157-.3254 7.6748.1174-.0857.2422-.1664.3768-.2447.0196-.0122.203.0196.2299.0514.0514.0636.049.1419.0539.159 0 .1297.0367.2128-.0123.2789-.0391.0514-.1883.1101-.2862.1101-.1174-.0024-.2495-.0563-.3425-.1028-.0098-.0048-.0196-.0122-.0294-.0195-.0954 2.4514-.1859 4.9028-.2838 7.3542-.0073.1737.0441.3695-.0171.5187-.8 1.9964-.2716 4.0857-.5554 6.175.4673.2961.8808.5578 1.5536.986.4134-1.2062.9884-2.2043 1.0691-3.2417.2716-3.5132.3817-7.0386.5309-10.5616.0563-1.3897-.2104-2.8527.1444-4.1518zm-2.1946 2.4392c-.0465-.0318-.0905-.0612-.1345-.0905.0611-.0098.1614-.0343.1761-.0269.0465.0318.0612.0758.0881.1174zm-.0171.9175c-.0318-.0343-.0758-.0685-.0905-.1028-.0049-.0122.0587-.0342.0905-.0514.0367.0318.0709.0661.1052.0979-.0392.0196-.071.0391-.1052.0563zm.5847-1.5291c-.0318-.0343-.0758-.0661-.0905-.1028-.0049-.0122.0587-.0318.0905-.0514.0367.0343.071.0685.1052.1004-.0391.0195-.0709.0366-.1052.0538zm.9199-1.5487c-.0612-.0195-.1248-.0367-.1884-.0538.0318-.0171.0734-.0514.0979-.0489.0685.0073.1297.0318.1957.0489-.0342.0147-.066.0318-.1052.0538zm29.3436 30.1339c1.627-1.6343 3.229-3.2955 4.898-4.8882 2.376-2.2679 4.834-4.4477 7.188-6.7401 1.103-1.0765 1.972-2.3903 3.068-3.4741 1.301-1.2869 2.796-2.3805 4.098-3.6698 4.2-4.1469 8.369-8.3255 12.511-12.5287 4.12-4.1786 8.46-8.1371 12.468-12.4283.289-.3083.682-.5162.993-.8074.548-.5162 1.084-1.0495 1.6-1.5976.35-.3743.612-.844.993-1.1743 1.777-1.5389 3.817-2.8062 4.962-4.9762.113-.2104.377-.3548.595-.4942 2.111-1.353 3.564-3.3787 5.379-5.0032-.636-.7291-1.14-1.304-1.7-1.945-1.402 1.6686-2.977 2.8502-4.311 4.3108-1.507 1.649-3.339 2.9946-4.939 4.5652-1.287 1.2649-2.378 2.7303-3.668 3.9977-2.338 2.3021-4.812 4.4698-7.134 6.7915-2.321 2.3218-4.479 4.8074-6.796 7.1341-.489.4942-.991.9762-1.497 1.4532.063.0294.124.0587.188.0881-.1.0196-.203.0391-.355.0661-1.431 1.3431-2.901 2.6471-4.311 4.0123-2.402 2.3266-4.792 4.6679-7.192 7.0019.098.022.208.0538.364.0905-.203.1004-.323.1884-.372.1786-.073-.0146-.139-.0367-.2-.066-3.995 3.8851-7.996 7.7628-11.976 11.6601-.734.7169-1.28 1.6196-1.996 2.3536-1.676 1.7126-3.404 3.3738-5.057 5.008.046.6606.08 1.1646.12 1.7371 1.103.3669 1.582-.1591 2.079-.6557zm37.133-40.0594c.12.0513.272.0929.345.159.032.0269-.102.1052-.232.2251-.154-.1077-.289-.1664-.32-.2349-.018-.0391.134-.1003.207-.1492zm-7.545 8.7805c.11-.1345.296-.2886.531-.3474.233-.0587.563.1909.583.4722-.054.0245-.159.1028-.292.1175-.352.044-.915-.1297-.822-.2423zm-11.317 11.4009c.032.0171.066.0342.105.0562-.034.0318-.071.0636-.105.0979-.032-.0171-.098-.0392-.091-.0514.015-.0342.059-.0685.091-.1027zm18.212-56.4267c-.729.9247-1.522 1.8275-2.197 2.811-2.324 3.386-4.573 6.8234-6.919 10.1971-1.737 2.5004-3.19 5.172-4.864 7.7213.01.0122.02.0244.025.0367.005.0098-.042.0269-.076.0416-.56.8489-1.143 1.6856-1.771 2.4954-1.187 1.5316-2.261 3.1463-3.301 4.7903.047-.0318.12-.066.167-.0978.119.0513.271.0929.345.159.029.0269-.103.1052-.233.2275-.152-.1052-.279-.1639-.316-.23-1.281 2.0233-2.515 4.0857-3.836 6.0821-1.458 2.2019-2.693 4.5408-4.435 6.5861-.759.8881-1.774 1.874-2.036 3.0165-.313 1.3774-1.314 2.197-1.991 3.2392-3.31 5.0913-6.809 10.0553-10.1288 15.1391-1.6979 2.6032-3.5279 5.15-4.7928 8.0222 2.2166 1.0838 2.6888.8367 3.1047-1.5951.5162-.4061 1.0226-.6459 1.2966-1.0447 1.3505-1.9694 2.8133-3.89 3.9043-5.9989 1.576-3.0483 4.169-5.4068 5.556-8.5555.069-.1517.245-.252.333-.3988 1.211-2.0502 2.618-3.9682 3.954-5.9352 1.725-2.542 3.3-5.1842 4.942-7.7849-.113.0318-.242.0685-.401.1101-.064-.0954-.145-.1688-.162-.2471-.029-.1223-.027-.296.318-.2373.144.022.259.0979.372.1761.093-.1468.183-.2935.276-.4403.504-.7878 1.155-1.4826 1.657-2.2729.824-1.2966 1.517-2.6789 2.385-3.9413 1.118-1.6221 2.549-3.0533 3.496-4.761.365-.6532.746-1.2942 1.143-1.9278-.167.0024-.299-.0514-.45-.137-.022-.0123-.093 0-.142 0 0 .1247.029.252-.005.3743-.115.4355-.861.6165-1.561.389-.262-.0856-.264-.1908-.056-.2936.129-.0636.293-.1101.44-.1639.088-.0343.232-.0612.252-.1028.152-.3449.144-.3449.639-.3547.134-.0979.239-.2496.413-.274.223-.0343.502.0318.756.0562-.071.0392-.064.0734-.027.1052 1.111-1.7517 2.3-3.4496 3.425-5.1915 1.877-2.9065 3.846-5.7469 5.522-8.7928.687-1.2477 1.541-2.4049 2.412-3.5548-.122.0318-.244.0587-.372.0734-.124.0122-.313-.0538-.42-.1126-.037-.0195.071-.1712.134-.1761.272-.0196.551-.0122.827-.0049.565-.7413 1.133-1.4826 1.666-2.2435.869-1.2404 1.674-2.5297 2.479-3.7554-.487-.3401-1.04-.7266-1.747-1.2232zm-20.377 31.4256c-.211-.159-.414-.2765-.517-.4159-.031-.044.206-.1419.321-.2153.081.0489.176.0881.237.1419.11.0979.223.1982.281.3058.018.0318-.149.0881-.322.1835zm6.373-6.8136c-.061-.0171-.125-.0367-.189-.0538.035-.0171.074-.0514.098-.0489.069.0098.13.0318.196.0489-.034.0171-.066.0342-.105.0538zm.2-3.5205c-.024.0024-.063-.0318-.095-.0465.064-.0171.127-.0416.196-.0489.024-.0025.063.0318.095.0489-.064.0171-.127.0391-.196.0465zm1.214-.438c-.25 0-.499-.0293-.822-.0538.125-.1223.203-.2373.247-.2349.247.0196.602-.1076.714.1077.03.0538-.088.181-.139.181zm2.72-3.1193c-.107-.1248-.21-.1982-.212-.2691 0-.0367.234-.1199.261-.1101.123.0465.24.1125.289.1835.02.0269-.147.0905-.338.1957zm-.007-.5431c-.073 0-.149-.0465-.223-.071.123-.0269.24-.066.365-.0709.068-.0049.147.044.262.0832-.154.0244-.279.0562-.404.0587zm7.956-11.0094c-.017.0587-.112.1468-.2.159-.108.0123-.355-.0391-.355-.066-.017-.2104-.093-.296-.428-.0954-.032.0195-.076.0342-.103.0538-.174.1394-.343.2813-.514.4208-.049-.1174-.12-.2324-.142-.3499-.041-.2324.164-.3792.622-.4134.144-.0098.291 0 .435 0 .692-.0025.763.022.685.2911zm-181.8062 55.5411c-.7878-.3034-1.7126-.4012-2.3535-.8857-.9273-.7021-1.8398-.8318-2.9824-.6043-.1737.5921-.3523 1.2062-.5358 1.83.6043.2398 1.1548.4649 1.7102.6802 1.6612.6434 3.3419 1.233 4.9762 1.9352 1.5462.6679 2.975 1.6954 4.575 2.1236 2.5615.6826 4.8882 1.9156 7.3812 2.745 2.0649.6899 4.0857 1.5095 6.1065 2.3315.0905-.0563.1957-.1027.3083-.1272h-.1321c-.0441-.0294-.0906-.0612-.1346-.0905.0612-.0098.1639-.0343.1762-.0245.0464.0318.0611.0759.088.115.323-.0734.5799.0465.5848.2716.0024.0587-.0319.1198-.0881.181.7755.3132 1.5511.6263 2.3315.9297.712.2789 1.4533.4795 2.1603.7658 3.227 1.304 6.4368 2.6446 9.67113 3.9315.70215.2814 1.47525.3743 2.21166.5798.89543.2471 1.83.416 2.66426.8025 2.35846 1.0959 4.54076 2.6199 7.24173 2.8579.23976.019.46728.188.69481.293 2.44408 1.133 4.79519 2.537 7.43251 3.149 1.8692.435 3.3909 1.541 5.128 2.194 2.9309 1.101 5.9866 1.857 8.7732 3.364 1.1743.637 2.4881 1.016 3.8435 1.552.5187-.487.9566-.898 1.5633-1.466-1.5853-.842-2.6691-1.473-3.7994-1.999-1.1401-.531-2.312-1.008-3.4986-1.424-.8367-.291-1.6734-.589-2.5076-.89-.0367.01-.0734.022-.1126.032-.0269-.035-.0709-.074-.1052-.11-1.7272-.624-3.4447-1.268-5.123-1.95-2.8943-1.18-5.66862-2.647-8.73901-3.396-.65323-.159-1.29666-.428-1.89361-.741-1.0569-.556-2.03062-1.2873-3.121773-1.7472-1.078918-.4575-2.341327-.5114-3.385997-1.0251-3.80679-1.8692-7.97081-2.772-11.81671-4.624-3.0753-1.485-6.4564-2.4392-9.654-3.7627-4.0001-1.6563-8.0271-3.2515-12.0492-4.8515-2.5223-1.0006-5.0569-1.9719-7.5891-2.9456zm69.6135 28.2131c.2618-.029.504.008.4281.181-.0293.064-.2373.105-.4501.191-.1737-.108-.2936-.183-.411-.259.1443-.039.2813-.096.433-.113zm-3.9267-.91c.1909-.054.6777.242.5529.333-.1076.076-.3596.098-.5773.152-.208-.054-.3915-.103-.575-.15.1957-.115.3548-.264.5994-.335zm-38.2196-15.5647c.0685.0074.1296.0318.1957.049-.0318.0146-.0661.0318-.1028.0538-.0611-.0196-.1247-.0367-.1883-.0538.0318-.0196.0709-.0514.0954-.049zm-.8269-1.0985c.0318.0343.0758.0661.0905.1028.0049.0122-.0587.0342-.0905.0514-.0319-.0343-.0759-.0685-.093-.1028-.0049-.0147.0611-.0342.093-.0514zm.0782.9248c.137.0025.2741.0563.5138.1126-.2031.1003-.3229.1859-.3719.1761-.1394-.0269-.2666-.0856-.3523-.1517-.0195-.0147.1346-.137.2104-.137zm-5.9255-1.2306c.0319.0171.0637.0343.1028.0538-.0342.0318-.0685.0661-.1028.0979-.0318-.0171-.0978-.0367-.0929-.0489.0171-.0367.0611-.0685.0929-.1028zm49.5691 11.665c-5.326-2.676-10.6815-5.2967-15.9929-8.0001-.80981-.411-1.57802-.9003-2.34867-1.3896-.07585.0171-.16637.0391-.26423.0685-.03181-.1101-.05872-.2006-.07829-.2863-.55536-.3523-1.11317-.6997-1.69055-1.0104-2.16517-1.167-4.43066-2.1554-6.573817-3.3566-3.107093-1.737-6.561583-2.8111-9.460723-4.942-.33273-.2446-.77552-.3327-1.16212-.5064-.6141-.2765-1.2404-.5358-1.8373-.8514-3.6894-1.9572-7.3225-4.0246-11.0681-5.8619-2.7181-1.3309-5.6172-2.241-8.0687-4.1518-1.3945-1.0862-3.0239-2.1211-4.7046-2.5223-1.901-.4526-3.0998-1.967-4.8588-2.4881-.5627-.1664-1.1426-.2716-1.8545-.4404-.3205.6679-.6018 1.2575-.8587 1.7908 3.408 1.8325 6.6521 3.5867 9.9011 5.3212.2935-.1125.5871-.2373.9199-.2887.2764-.044.6263.0465.9468.071.3205.0269.663.0196.9614.0783.1958.0367.4013.1541.4649.2593.1027.1713-.1884.1615-.4208.2031-.2398.044-.3988.2055-.6386.2544-.0929.0171-.2422-.1957-.4061.0465-.066.093-.1639.1395-.2789.1639.6019.2912 1.2037.5798 1.8007.8783 2.7327 1.375 5.4582 2.7695 8.2007 4.1298.9077.4501 2.0111.6361 2.7548 1.2624 1.4117 1.1865 3.0704 1.8495 4.6606 2.6691 1.5071.7756 3.0313 1.5193 4.5359 2.2998 1.50707.7829 2.98232 1.6342 4.50651 2.3878 1.51195.7486 3.18293 1.2355 4.57745 2.1529.41591.274.83916.5358 1.264854.7903.070949-.0367.149238-.0661.2324215-.0832.0513763-.0098.171257.0758.3743175.1761-.124771.0294-.2226337.0587-.30581317.0783 2.92604017 1.7028 6.05026017 3.0239 8.96163017 4.7463.29114.1737.59205.3988.91011.4452 1.36762.1982 2.31932 1.0276 3.19762 2.06.9419.0389 1.7346.3299 2.5933.8439.2814.169.5725.323.8563.485.0049-.035.0122-.069.0122-.098.0025-.064.0905-.127.1395-.191.1688.108.34.213.5578.35-.2006.051-.3083.1-.4135.102 2.1114 1.175 4.3157 2.193 6.4784 3.281 1.2771.644 2.701 1.104 3.7946 1.98.9737.778 1.989 1.257 3.2881 1.646.4257-.509.893-1.067 1.3407-1.6-.9566-.568-1.7492-1.03-2.5346-1.502-.8049-.48-1.5755-1.03-2.4123-1.451zm-58.0585-28.9326c-.1297-.0049-.2544-.0293-.3817-.0465.0367-.0342.0685-.0954.1101-.0954.1273-.0049.2569.0123.4159.0245-.066.0563-.11.1174-.1443.1174zm16.3183 9.6222c-.137-.0196-.3449-.0881-.3523-.1419-.0146-.093.1003-.1933.1615-.2887.159.0832.3156.1639.6753.3523-.2325.0416-.3744.093-.4845.0783zm.5799-.7609c-.1273.0245-.2838.0049-.4257.0049-.4747-.0049-.6802-.1419-.5236-.3669.0734-.1077.1811-.2104.2911-.3108.0416-.0366.1273-.0782.2031-.0831.5652-.0441.2863.3278.6704.3792-.0661.1272.1761.3082-.2153.3767zm31.1394 16.3503c-.0759-.049-.2276-.1102-.208-.1493.0318-.071.1664-.1273.3205-.2349.1297.1199.2642.1982.2324.2251-.0734.066-.2251.1081-.3449.1591zm52.0156-29.7743c-.5505-4.5163-.4918-9.1134-.6068-13.6786-.088-3.5548-.022-7.112-.0587-10.6693-.0049-.5847-.1835-1.167-.2618-1.7542-.2471-1.8544-.7804-3.7334-.6336-5.5585.0758-.9517.0856-1.874.0587-2.8012-.0147-.0147-.0293-.0294-.044-.0416.0171-.0098.0293-.0147.044-.0245-.0147-.4648-.0391-.9321-.0709-1.4067-.1444.0024-.2202.0024-.2936 0-.1933-.0074-.3866-.0172-.1639-.1493.0929-.0538.1835-.1345.3009-.1517.1174-.0147.1248-.0783.1297-.137-.3108-4.301-.3939-8.6191-.597-12.9274-.0881-1.8765.1468-3.7652-.4379-5.6295-.2153-.685.044-1.5266.1125-2.2948.0269-.3181.2618-.69.159-.9371-.6923-1.6807-.1981-3.42509-.3425-5.13277-.203-2.36334-.3939-4.72669-.5822-7.02153h-2.1212c.367 4.34503.1028 8.46254.4942 12.6045.504 5.3065.044 10.6815.5945 16.0199.1639 1.6098.3915 3.2514.2887 4.893.0685.0172.1639.0636.3645.1591.23.11.4135.318.8245.1272.0074-.0025.1933.1003.3768.1957-.1737.0905-.367.1761-.5236.2789s-.2397.0881-.4208.0024c-.1859-.088-.5089-.137-.6654-.2153-.0318.2863-.0734.5701-.1297.8563 1.1621 2.7744-.3156 5.8497.986 8.6094-.6802 1.0446-.1297 2.0746-.0588 3.1413.23 3.43-.0783 6.8821.5334 10.3023.1076.6092-.5823 1.4361-.3719 1.9401 1.0642 2.5444-.2495 5.3359.9175 7.8436.1321.2838.1272.7535-.0221 1.0202-.751 1.3431-.1394 2.6545.0465 3.9585.1762 1.2379.6728 2.4294.0661 3.6991-.1688.3572-.0465.8563-.049 1.2894-.0073 1.3896.9248 2.7132.1077 4.2006-.2422.438.2275 1.2894.4183 1.9352.2472.849.6631.9689 2.0307.6141-.1297-4.3744.137-8.7488-.3988-13.1598zm-2.6716-41.6179c-.0367-.1175-.0734-.2349-.0857-.2716 0-.1076-.0073-.1321 0-.1566.0367-.1076-.1296-.2838.2178-.2911.1835-.0049.4746.0881.5456.1737.0929.115.1052.296-.0123.3939-.1076.0881-.4354.1027-.6654.1517zm.6459 41.586c-.0318-.0171-.0979-.0367-.0906-.0513.0147-.0343.0588-.0685.0906-.1028.0318.0171.0636.0343.1027.0538-.0318.0343-.0685.0661-.1027.1003zm1.8031-.7926c-.0686-.0074-.1297-.0318-.1958-.049.0318-.0171.0661-.0318.1052-.0538.0612.0171.1224.0367.186.0538-.0318.0172-.071.0514-.0954.049zm19.3128 16.7783c1.9524-3.9683 3.1512-8.2302 4.7488-12.3354.2128-.5407.2422-1.1597.4868-1.6784 1.1597-2.4587 2.3707-4.8906 3.5401-7.3444.1419-.2961.1321-.663.2007-.9958.1736-.8269.203-1.7223.5529-2.4661 1.4067-2.997 2.6153-6.06 3.7159-9.1793 1.128-3.1903 2.484-6.2974 3.707-9.4534.274-.7022.276-1.5364.646-2.1676 1.854-3.1707 2.869-6.6962 4.32-10.0333 1.718-3.9584 3.115-8.0564 4.619-12.1029.323-.871.267-1.9915.808-2.6496 1.639-1.9939 1.678-4.6215 3.146-6.81359-.92-.33518-1.674-.60919-2.542-.92479-.658 1.54376-1.28 2.84778-1.774 4.19828-.844 2.2972-1.416 4.7169-2.459 6.9163-1.159 2.4416-2.118 4.9713-3.033 7.479-.815 2.2288-1.747 4.4087-2.613 6.613-1.48 3.7676-3.112 7.479-4.436 11.3054-.748 2.1627-1.392 4.3573-2.1257 6.5224-.7535 2.2313-2.0404 4.2154-2.8233 6.4736-.9615 2.7694-2.3658 5.3921-2.997 8.3035-.1566.7315-.5627 1.4116-.8563 2.1113-.9468 2.2704-1.7297 4.6264-2.8893 6.7818-1.26 2.3364-1.6808 4.9567-2.8674 7.3127-.6238 1.2379-1.2134 2.6153-1.0471 4.1175.5162.2275.9591.4208 1.4043.6189.2227-.2348.46-.3914.5676-.6091zm15.2832-40.2014c-.066.0171-.127.0416-.195.0489-.025.0025-.064-.0318-.098-.0489.066-.0171.129-.0391.198-.0465.024-.0024.063.0294.095.0465zm-.482-.3596c.061.0171.125.0367.189.0538-.032.0171-.071.0514-.096.0489-.068-.0073-.132-.0318-.195-.0489.031-.0147.066-.0318.102-.0538zm-.783 2.7572c.022-.0024.064.0318.096.0489-.066.0147-.127.0392-.196.0465-.024.0025-.063-.0318-.098-.0465.066-.0171.13-.0415.198-.0489zm-.552-.6336c.1-.0123.337.0489.337.0758.005.1272-.056.2569-.105.4306-.235-.071-.45-.1125-.443-.1346.037-.1296-.213-.318.211-.3718zm-5.5541 13.9672c.1908.1076.3572.1688.3376.1957-.0513.0734-.1663.1395-.2887.1835-.0293.0122-.2617-.071-.2617-.1101 0-.0709.1052-.1419.2128-.2691zm25.1871 59.5777c2.224-.132 4.399-.401 6.554-.956 1.148-.294 2.341-.463 3.523-.561 1.448-.122 2.885-.1 4.323-.509 1.316-.376 2.735-.386 4.101-.606.489-.081 1.034-.536 1.421-.411 1.16.379 2.08-.203 3.107-.451 1.072-.259 2.256-.095 3.303-.413 1.825-.553 3.67-.731 5.553-.829 1.701-.088 3.401-.277 5.087-.531.44-.069.822-.551 1.228-.842.714.465 1.431.374 2.219.169 1.311-.34 2.652-.749 3.985-.768 1.657-.025 3.2-.482 4.796-.746.753-.125 1.504-.272 2.26-.37 1.436-.183 2.877-.342 4.318-.501.881-.098 1.61-.695 2.694-.24.643.267 1.708-.509 2.593-.778.238-.074.521.022.776-.01 1.688-.225 3.381-.404 5.052-.709 2.16-.397 4.303-.901 6.456-1.339.242-.049.585-.068.751.061.93.73 1.564-.031 2.268-.362v-1.8c-1.942-.059-3.64-.223-5.309.44-.775.308-1.639.45-2.478.541-2.214.235-4.44.381-6.657.602-1.441.142-2.909.21-4.306.553-4.22 1.032-8.492 1.671-12.817 1.996-.34.024-.678.093-1.011.159-1.499.289-2.987.656-4.496.864-2.868.401-5.654 1.431-8.62 1.137-.222-.022-.459.218-.704.262-2.253.416-4.502.864-6.767 1.206-2.775.418-5.605.558-8.338 1.16-3.68.81-7.386 1.221-11.124 1.512-.84.066-1.681.242-2.493.469-1.158.326-2.285.617-3.521.531-1.639-.112-3.163.389-4.692 1.165.029.648.056 1.221.088 1.952.746-.066 1.323-.08 1.888-.178 1.664-.284 3.313-.771 4.989-.869zm23.824-3.995c.022-.002.064.032.096.049-.064.017-.128.037-.189.054-.039-.02-.071-.037-.103-.054.064-.017.128-.039.196-.049zm-8.822.888c.032.034.076.066.091.103.007.012-.059.032-.091.051-.032-.034-.076-.068-.091-.103-.004-.012.059-.034.091-.051zm-1.414-.176c.186.041.264.059.345.076-.184.083-.357.173-.551.249-.036.013-.154-.032-.232-.049.152-.095.306-.193.438-.276zm-7.088 1.869c.071.098.145.196.26.35-.147.039-.289.105-.36.088-.127-.029-.32-.135-.296-.162.091-.102.257-.185.396-.276zm-12.528-26.1509c3.576-2.816 7.19-5.5805 10.779-8.3794 1.691-1.3186 3.599-2.4636 4.964-4.0636 1.534-1.7958 3.469-2.9383 5.272-4.3206 1.434-1.0961 2.753-2.3511 4.225-3.386 2.024-1.4239 3.497-3.5426 5.867-4.5383.605-.252 1.025-.9199 1.549-1.3774.844-.7315 1.676-1.4802 2.557-2.1652 2.37-1.8422 4.802-3.6086 7.141-5.4875 4.027-3.2344 7.995-6.5372 12-9.7959.658-.5334 1.378-.9958 2.202-1.5854-.577-.5284-1.025-.9395-1.759-1.6123-3.105 2.4148-6.085 4.7145-9.045 7.0436-2.564 2.0184-5.096 4.0833-7.657 6.1065-1.542 1.2233-3.122 2.3976-4.668 3.616-2.29 1.8031-4.583 3.6062-6.843 5.4509-.891.729-1.696 1.578-2.569 2.3242.024.0122.054.0244.071.0391.032.0269-.103.1052-.23.2251-.034-.022-.064-.0392-.093-.0587-.225.1835-.455.3621-.697.526-3.597 2.4538-6.76 5.4435-10.249 8.0319-2.694 1.9988-5.133 4.3377-7.709 6.498-1.118.9346-2.214 1.9425-3.467 2.6618-1.884 1.0838-3.586 2.3487-5.111 3.8876-.538.5431-1.228.9321-1.815 1.4312-1.7 1.4508-3.383 2.9211-5.223 4.5138.355.6415.658 1.1895.971 1.7595 1.948-.607 2.926-2.2023 4.377-3.1564 1.84-1.2111 3.418-2.8184 5.16-4.1885zm33.686-28.3283c.191.1052.357.1688.338.1957-.052.0709-.167.137-.289.1835-.03.0098-.262-.071-.262-.1101 0-.0734.105-.1444.213-.2691zm-.847 1.7223c-.061-.0171-.124-.0367-.188-.0538.034-.0171.073-.0514.098-.0489.068.0097.13.0318.196.0489-.032.0171-.066.0318-.106.0538zm.093-1.1963c.093-.0025.191.0416.429.0978-.375.0881-.615.1468-.852.2031-.051-.0636-.156-.1297-.139-.1884.053-.1859.357-.1052.562-.1125zm-6.931 6.1236c.035.0343.069.0661.103.0979-.039.022-.071.0367-.103.0538-.034-.0318-.075-.0661-.093-.1027-.005-.0123.059-.0319.093-.049zm-1.468-.2911c.321-.0807.683-.1199 1.033-.1615.073-.0098.176.0416.247.0612-.137.3205-.619.5725-1.042.5358-.208-.0147-.392-.115-.585-.1762.115-.0881.188-.2177.347-.2593zm-115.7081 23.7974c-3.0019-2.3609-6.4979-4.0809-9.7029-6.1922-2.5566-1.6832-4.96645-3.5891-7.50595-5.3016-1.48015-.9982-3.27345-1.5952-4.59458-2.7524-1.8789297-1.644-4.27652-2.5052-6.22886-4.0049-.03425.0293-.06605.0611-.1003.0929-.03181-.0171-.09542-.0391-.09053-.0513.01468-.0343.05872-.0686.09053-.1028.01957.0122.04159.022.06116.0318-.09786-.0758-.19327-.1541-.28869-.2349-.02936.0123-.06116.0245-.09052.0367-.01713-.0318-.06606-.0856-.04893-.0929.01712-.0049.0367-.0098.05627-.0123-.07829-.066-.15413-.1345-.22998-.203-.70215 0-.71927-.0098-.69481-.411.00734-.0857-.05627-.2031.00734-.279-.00978-.0097-.01957-.0195-.02936-.0318-2.28506-.8342-4.0857-2.4489-6.08449-3.7529-2.5004-1.6294-5.0961-3.1193-7.5696-4.7879-3.545-2.3878-6.9922-4.9151-10.5249-7.32-1.9768-1.3456-4.0417-2.564-6.1017-3.8655-.5725.4966-1.3627.959-1.2208 2.0061 2.2655 1.5414 4.5114 3.0851 6.7744 4.6044 2.3414 1.5707 4.6387 3.2221 7.0656 4.6484 2.4147 1.4214 4.4233 3.5279 7.2197 4.301 1.7346 2.3707 4.6019 3.1047 6.85763 4.7243 2.22145 1.6 4.60926 2.9749 6.77199 4.6435 2.231232 1.7223 4.80253 2.8942 6.99462 4.7095 2.15294 1.7835 4.67532 3.1316 7.07776 4.5995 1.1401.6973 2.2093 1.5071 3.3004 2.2777.0979-.022.2129-.0465.3621-.0807.4183-.0979.5554.0171.8343.044.2299.0245.499-.0929.7633-.1125.0538-.0049.2397.1957.2128.2079-.203.093-.4477.1615-.6801.2373-.2838-.2911-.8563.2105-1.1376-.11-.0025-.0025-.0416 0-.0832.0048 1.1107.7707 2.2508 1.4949 3.523 2.0062 1.8226 2.2557 4.7291 2.9187 6.8918 4.7365 2.1114 1.7764 4.6509 3.0414 7.1659 4.6334.4746-.763.8123-1.301 1.2208-1.954-1.1082-.796-1.9131-1.297-2.6324-1.901-2.334-1.965-5.1916-3.0928-7.6112-4.9913zm-31.85865-20.4677c.0318.0343.07584.0661.09052.1028.00489.0122-.05872.0318-.09052.0489-.03181-.0318-.07585-.0661-.09052-.1003-.00734-.0147.05871-.0343.09052-.0514zm-.63365.2765c-.02447.0024-.06361-.0294-.09787-.0465.06606-.0171.12722-.0416.19573-.0489.02446-.0025.0636.0318.09786.0489-.06606.0171-.12722.0391-.19572.0465zm1.3725.6923c-.44527-.0978-.78778-.1639-1.10094-.252-.06361-.0195-.09052-.1688-.03181-.1932.28136-.1224.59451-.2251.90767-.3254.02691-.0074.20795.0636.2055.0954-.00978.159.02202.296.2887.4037.02691.0122-.15903.1639-.26912.2715zm.72172-.2055c-.0318-.0342-.07584-.066-.09052-.1027-.00489-.0123.05872-.0318.09052-.049.03426.0343.07585.0661.09297.1028.0049.0122-.05871.0318-.09297.0489zm1.38963 1.3921c-.0318-.0343-.07584-.0661-.09052-.1028-.00734-.0122.05872-.0318.09052-.0489.03181.0318.07584.0661.09052.1028.00734.0122-.05871.0318-.09052.0489zm.91989.4355c-.06116-.0171-.12477-.0343-.18838-.0538.03181-.0147.07095-.049.09542-.0465.0685.0073.13211.0318.19572.0465-.03181.0171-.06361.0342-.10276.0538zm192.77366 4.4135v.0392l-.046-.0245c.015-.0049.029-.0098.046-.0147zm-67.492 27.8976c4.052-1.497 8.091-3.041 12.186-4.404 1.679-.56 3.071-1.646 4.95-1.935 1.92-.296 3.699-1.524 5.644-2.39.205 0 .631.103.964-.027.379-.147.646-.661 1.02-.739 2.999-.6261 5.796-1.82 8.607-2.9846 2.899-1.2037 5.791-2.4367 8.739-3.5107 1.098-.3988 2.143-.9786 3.244-1.2698 2.794-.7437 5.509-1.6563 8.117-2.8844-.004-.0025-.007-.0049-.012-.0074.044-.022.088-.044.13-.066.005.0024.01.0049.015.0098.193-.093.386-.1835.579-.279.38-.1883.761-.3914 1.162-.5211 1.767-.5773 3.519-1.2085 5.317-1.6685 1.959-.4991 3.459-2.0306 5.624-2.1701 1.172-.0734 2.295-.9615 3.614-1.5608-.318-.7291-.573-1.3138-.871-1.9964-.472.159-.932.3082-1.387.4575.032.0122.063.0269.093.0391-.081.0172-.162.0343-.243.049.228.2446.13.4305-.256.4575-.235.0146-.487-.0196-.715.0073-.218.0269-.333-.0024-.406-.0514-.778.2569-1.539.5138-2.292.7903-1.116.4061-2.17.9737-3.284 1.3945-2.693 1.0177-5.416 1.9621-8.107 2.9872-1.977.7535-3.942 1.5389-5.909 2.3144.025.0073.047.0147.071.022-.208.0808-.318.1517-.452.1688-.022.0025-.047-.0049-.071-.0122-1.035.4061-2.07.8073-3.11 1.1988-1.343.5015-2.784.7462-4.12 1.2575-.379.1468-.756.296-1.135.4453.122.0685.235.1199.245.1737.036.2006-.289.1614-.492.1443-.108-.0073-.201-.0587-.296-.1052-3.389 1.326-6.753 2.7108-10.148 4.0148-4.108 1.5755-8.255 3.0438-12.363 4.6118-2.138.817-4.176 1.938-6.358 2.593-6.075 1.825-11.954 4.14-17.796 6.598.242.798.462 1.515.668 2.19 2.975-1.128 5.896-2.258 8.834-3.342zm54.521-21.3042c.117-.1027.262-.2006.401-.296.061-.0416.191-.1101.206-.1052.117.044.306.1052.298.1566-.014.1027-.105.2152-.222.3009-.091.066-.27.0978-.323.1174-.225-.0073-.321-.0098-.416-.0122.017-.0563.007-.1175.056-.1615zm-1.355.9321h-.13c-.044-.0293-.091-.0611-.135-.0905.062-.0098.164-.0342.177-.0245.046.0319.061.0759.088.115zm.234-.3523c.005.0049-.075.049-.095.0441-.164-.0294-.379-.0441-.472-.1077-.118-.0783-.14-.1981-.186-.3009-.003-.0049.152-.0318.33-.0661.14.1395.286.2838.423.4306zm-.672-.8685c.031.0318.076.0661.09.1003.005.0123-.059.0343-.09.0514-.035-.0318-.071-.0661-.103-.0979.037-.022.071-.0391.103-.0538zm-.876 1.0691c.034.0319.068.0661.103.0979-.04.0196-.071.0367-.103.0538-.034-.0342-.076-.066-.093-.1027-.005-.0123.059-.0318.093-.049zm0 .4576c.034.0318.068.066.103.0978-.04.0196-.071.0367-.103.0538-.034-.0342-.076-.066-.093-.1027-.005-.0098.059-.0318.093-.0489zm-3.802-.4576c.032.0343.076.0661.09.1028.005.0122-.058.0318-.09.0489-.034-.0318-.071-.066-.103-.0978.037-.0196.071-.0367.103-.0539zm-.834.4796c.039.0195.071.0367.102.0538-.063.0171-.127.0391-.195.0489-.025.0025-.064-.0318-.096-.0489.064-.0171.127-.0367.189-.0538zm-6.753 3.6747c.142.1198.282.2373.411.3571.003.0025-.137.0588-.217.0661-.081.0098-.24-.0049-.25-.0245-.054-.1149-.081-.2324-.095-.3498-.003-.0171.117-.0367.151-.0489zm-2.062-.3352c.034.0318.076.066.093.1027.005.0123-.059.0318-.093.049-.034-.0318-.069-.0661-.103-.0979.039-.0196.071-.0367.103-.0538zm-132.5237 26.4147c-.1908.71-.3572 1.326-.4966 1.845-1.7884-.267-3.5377-.504-5.2796-.79-2.3316-.384-4.6558-.803-6.98-1.218-.4134-.074-.8171-.287-1.2257-.284-1.5486.01-3.06303-.088-4.57499-.526-2.77436-.805-5.78604-.387-8.494347-1.591-2.789043.353-5.326083-.983-8.075983-1.179-3.51808-.252-6.99458-1.292-10.49318-1.803-3.8704-.565-7.6747-1.519-11.6063-1.845-2.5468-.207-5.194-.369-7.7041-1.316-1.304-.492-2.8551-.159-4.2839-.606-2.3413-.737-4.827-.717-7.227-1.424-1.8936-.558-4.005-.639-5.994-1.099-.1762-.039-.411.181-1.0129.465.252-1.13.3939-1.776.5774-2.613.7951.066 1.4557.073 2.0967.181 1.1107.189 2.1382 1.108 3.3444.335 2.1676.394 4.3744.656 6.4931 1.231 1.4043.379 2.8453.541 4.2129.9 2.3144.609 4.8074.074 7.0044 1.241.3572.188.8245.22 1.2453.23 2.9847.078 5.8374 1.12 8.761 1.338 2.745.203 5.2674 1.297 8.0539 1.348 2.679.049 5.34082.861 8.01732 1.306 1.59514.265 3.20984.416 4.79764.715 2.248358.421 4.46981.976 6.71817 1.387 1.67586.306 3.36886.555 5.06431.68 1.88136.139 3.69426.504 5.52916.927 1.9034.438 3.8924.561 5.8521.685 1.9841.128 3.8019.729 5.6808 1.48zm-21.20403-90.4942c.15657-.0783.34251-.1565.57248-.2373.22508-.0783.47218-.1394.69971-.2177.30826-.1028.79756-.115 1.12785-.115.4893.0024.389.1615.39389.4575-.00489.1174-.19328.3327-.66546.4722-.09541.0293-.21529.1101-.20061.159.11744.4257-.64833.4428-1.05446.5872-.04648.0171-.1003.0244-.15657.0318 1.59758 2.4661 3.30037 4.8637 4.9102 7.3224.9908 1.512 1.9694 3.0313 2.9456 4.5506.0612-.0343.1248-.071.1713-.1028.0636.0685.1198.1395.1932.2055.0881.0808.2251.1493.274.2349.0245.0416-.1003.1052-.2299.2275-.0221-.0147-.0441-.0269-.0685-.0391.0367.0538.0709.1101.1076.1663.0196-.0195.0392-.0367.0587-.0562.0318.0171.0979.0391.0905.0513-.0146.0343-.0562.0685-.088.1003 1.0153 1.5829 2.0306 3.1683 3.0483 4.7512 2.86 4.4429 5.6222 8.9421 8.5409 13.3507 2.2557 3.408 4.3866 6.8992 6.5273 10.3806.0636.0123.1248.0196.1835.0343.1028.0244.1664.0929.3572.2055-.1492 0-.274.0049-.3866.0073.5163.8416 1.0398 1.6808 1.5609 2.5199.0514-.0391.1052-.0758.1566-.1125.1688.0538.2422.0783.318.1003-.1272.0563-.2519.1125-.3792.1688.2398.3841.4747.7707.7169 1.1548.1174.0244.2251.0856.411.159-.1052.0294-.1908.0587-.2593.0832.7241 1.1547 1.4556 2.3168 2.3095 3.3713 1.9352 2.3952 3.0557 5.3481 5.2551 7.5622.3279.3303.4404.9175.5554 1.4092.2666 1.1425.8856 2.0331 1.7957 2.7401.1199.0954.3156.093.5627.1615.2716-.2569.575-.5431 1.03-.9737-.6801-1.5462-1.03-3.386-2.1015-4.5799-2.6619-2.9554-3.8925-6.8699-6.772-9.632-.6141-2.1994-2.3316-3.7407-3.3885-5.6784-.9761-1.7957-1.9817-3.5768-3.0581-5.3138-1.2478-2.016-2.5689-3.9854-3.89-5.9549-.9052-1.348-1.8618-2.6594-2.7988-3.9854-.5432-.7682-1.1352-1.507-1.6319-2.3071-2.1138-3.408-4.2471-6.8086-6.2875-10.2631-2.0845-3.5279-4.7512-6.6742-6.6766-10.3024-.51134-.9664-.86365-2.033-1.46304-2.9407-1.26975-1.923-2.65204-3.7725-3.99763-5.6466-.25199-.3498-.75842-.6532-.78533-1.008-.10765-1.4116-1.24773-1.9767-2.1554-2.9945-.55536.318-1.081359.619-1.66608.9517.87096 1.4067 1.64651 2.6251 2.38781 3.8655.97861 1.6318 1.90095 3.2979 2.89914 4.9175zm2.10401 1.0985c-.06116-.0171-.12478-.0367-.18838-.0538.03424-.0171.07339-.0514.09786-.0489.0685.0073.13211.0318.19572.0489-.03425.0171-.06606.0342-.1052.0538zm29.20662 43.4968c.1908.1077.3572.1688.3376.1958-.0513.0734-.1688.1394-.2886.1834-.0294.0123-.2643-.0709-.2618-.11 0-.071.1052-.1419.2128-.2692zm-.8587.3083c.1541.1076.3009.1639.3229.2324.0269.0881-.0489.1835-.0783.2765-.1639-.093-.3449-.1811-.4795-.2863-.0318-.022.1052-.1027.2349-.2226zm-.6141.9786c.0318.0343.0759.0661.0905.1028.0049.0122-.0587.0318-.0905.0489-.0318-.0318-.0758-.0661-.0905-.1003-.0073-.0147.0587-.0343.0905-.0514zm-1.397-3.0288c.1346.0171.2471.0856.4527.1664-.23.0685-.3793.137-.4331.1223-.1248-.0391-.2055-.1174-.3033-.181.0954-.0392.2103-.1175.2837-.1077zm-.6507-1.096c.0342.0342.0758.066.0929.1027.0049.0122-.0587.0318-.0929.0514-.0343-.0343-.0685-.0685-.1028-.1003.0392-.0196.071-.0367.1028-.0538zm-10.6889-18.0163c.1957.0123.367.1224.5505.1909-.1493.0978-.2985.1957-.5725.3767-.1346-.1663-.2349-.2373-.2422-.3107-.0098-.1052-.1052-.2813.2642-.2569zm-.6875.0025c.0318.0171.0954.0416.0881.0465-.0343.0342-.0832.0636-.1297.0929-.0416-.022-.0856-.044-.1296-.0685.0562-.0244.1125-.0489.1712-.0709zm-.1712.1394v.0685c-.0588.0245-.115.0465-.1737.071-.0172-.0318-.0661-.0856-.0465-.093.0587-.0244.1443-.0318.2202-.0465zm-3.0019-5.7982c.252.0758.4893.1639.8.274-.1859.0929-.3352.1761-.3499.1712-.2299-.0954-.4501-.1981-.6532-.3082-.0122-.0074.1884-.1419.2031-.137zm-1.1083-2.52c.1566.0979.2838.1419.3009.1933.0514.1786-.1835.1957-.4379.1786-.1321-.0073-.2569-.0318-.3841-.0489.1615-.1003.3229-.2006.5211-.323zm-2.5958-2.2948c-.0073-.022.208-.0661.4428-.1346.049.1737.1077.301.1052.4306 0 .0269-.2373.0881-.3376.0759-.4232-.0563-.1737-.2422-.2104-.3719zm-5.1352-7.7188c.0318.0343.0758.0661.0929.1028.0049.0122-.0611.0318-.0929.0489-.03428-.0318-.07099-.0661-.10278-.0979.03914-.0195.07094-.0367.10278-.0538zm-.29117-.4599c.03425.0342.0685.066.10275.0978-.03914.022-.07094.0392-.10275.0563-.03425-.0343-.07584-.0685-.09296-.1028-.0049-.0122.05871-.0342.09296-.0513zm-.58472-.1517c.0318.0342.07585.066.09053.1027.00489.0123-.05873.0318-.09053.0514-.03425-.0343-.07584-.0685-.09297-.1028-.00489-.0146.05872-.0342.09297-.0513zm-.44037-4.049c-.06362.0171-.12722.0391-.19573.0489-.02446.0024-.0636-.0318-.09541-.0489.06361-.0172.12722-.0367.18838-.0539.03914.0196.07095.0367.10276.0539zm162.86766 45.4809c-2.031 1.0838-4.01 2.2753-6.072 3.3004-2.126 1.0569-4.406 1.8251-6.469 2.9847-2.001 1.123-4.159 1.8888-6.148 3.0044-2.067 1.1572-4.054 2.4881-6.197 3.4789-2.067.9542-4.159 1.8031-6.141 2.9726-2.038 1.2037-4.34 1.9474-6.468 3.0092-2.046 1.0227-3.998 2.2288-6.026 3.2881-2.107 1.101-4.201 2.2533-6.395 3.1484-2.141.874-4.147 1.943-6.168 3.049-2.028 1.11-4.037 2.265-6.253 3.126.359.761.611 1.292 1.012 2.139.982-.49 1.735-.864 2.491-1.236 2.361-1.167 4.727-2.329 7.085-3.503 2.662-1.324 5.314-2.669 7.981-3.983 2.586-1.27 5.096-2.6914 7.648-4.0199 5.869-3.0582 11.88-5.8399 17.82-8.7659 4.82-2.378 9.617-4.805 14.425-7.2075 1.211-.6043 2.444-1.1645 3.638-1.8006 1.125-.5994 2.187-1.326 3.325-1.9034 3.041-1.5462 6.111-3.0337 9.159-4.5677.583-.2911 1.109-.6924 1.804-1.1352-.556-.6777-.979-1.1963-1.415-1.7248-2.155 1.0422-4.232 2.016-6.28 3.0435-2.133 1.0716-4.249 2.1799-6.356 3.3028zm-43.176 22.8824c-.061-.071-.171-.1419-.171-.2129 0-.0685.115-.1345.178-.2006.135.0661.269.1297.404.1957-.147.0783-.279.1468-.411.2178zm-46.1539-38.271c.34-.4747.9688-.9909.8807-1.2943-.4918-1.6783.5236-3.085.6826-4.6337.2471-2.3658.6605-4.7144 1.0373-7.0656.3058-1.9205.9542-3.8361.9248-5.7468-.044-2.8723 1.03-5.5145 1.2844-8.3329.2398-2.6521.8245-5.3457 1.3897-8.0002.5455-2.5713.6287-5.238 1.0764-7.8337.5358-3.0876 1.2698-6.1384 1.8643-9.21612.4159-2.14805 1.0862-4.29121.5578-6.49797-.6288-.16147-1.1817-.30093-1.8276-.46729-.1981.9884-.4012 1.97924-.5945 2.97498-.3425 1.74437-.6752 3.49119-1.0177 5.23801-.093.47463-.3523.96639-.2838 1.40919.2691 1.7052-.2863 3.3395-.4037 5.0007-.1346 1.9303-1.5951 3.6796-.9982 5.7812-.7095 1.3994-.7168 2.9529-1.0349 4.4404-.5015 2.3438-.959 4.6631-.9761 7.0705-.0049.6654-.2765 1.326-.3572 1.9963-.3817 3.1267-1.7689 6.1164-1.1352 9.1868-.4379.5896-.7486 1.003-1.0594 1.4214.093 2.5982.1175 5.167-.9248 7.6209-.1908.4526-.0954 1.0202-.1663 1.5291-.1688 1.1768-.3425 2.3536-.5407 3.5254-.1419.8319-.3572 1.6539-.4746 2.4882-.0832.5969.1247 1.2942-.1101 1.8006-1.0276 2.2239-.9957 4.6631-1.3334 6.9848-.0049.0245-.0073.0465-.0122.0685.0391-.0146.0734-.0269.1028-.0244.1369.0171.2471.0881.455.1688-.2324.0685-.3816.137-.433.1223-.0612-.0196-.1077-.0465-.1517-.0783-.4233 2.86-.9395 5.6882-1.5218 8.5164-.3571 1.7199-.4648 3.4936-.6776 5.1964.6483.296 1.0764.4893 1.5878.7217 1.2012-2.5492 1.852-5.1181 1.9841-7.7188.0881-1.7223.4966-3.359.7657-5.0202.6141-3.7824 1.627-7.5084 1.4411-11.3323zm-3.2955 10.0283c-.0318-.0172-.0661-.0343-.1028-.0539.0318-.0318.0685-.066.1028-.0978.0318.0147.0954.0367.0905.0489-.0147.0367-.0587.0685-.0905.1028zm29.9824 34.227c.017-.069.156-.13.301-.24.029.025.058.047.085.066 1.412-.905 2.748-1.761 4.044-2.596-.019-.019-.044-.041-.051-.063-.059-.142.027-.262.352-.22.032.002.062.014.091.031.572-.367 1.142-.734 1.71-1.101 2.434-1.5726 4.785-3.3023 7.32-4.6968 3.271-1.8007 6.381-3.8582 9.436-5.9598 2.723-1.8765 5.6-3.4961 8.316-5.3726 1.541-1.0666 3.318-1.7615 4.663-3.1682.685-.7144 1.705-1.1083 2.569-1.6612 1.142-.7291 2.336-1.3725 3.525-2.0282-.051-.066-.058-.1443.013-.2422.445-.2495-.052-.5064.009-.7633.022-.0832.106-.1639.159-.2446.137.0709.394.1443.387.2104-.029.2104.191.3669.35.5308 1.487-.8416 2.941-1.7394 4.237-2.8893.69-.6116 1.615-.9517 2.403-1.4581 2.008-1.2918 3.997-2.6105 5.999-3.9145 1.927-1.2575 3.821-2.5713 5.798-3.7481 1.769-1.052 3.56-2.0355 5.098-3.4422.6-.5505 1.488-.7829 2.239-1.1695.367-.1883.724-.4036 1.096-.6116-.423-.6434-.79-1.2012-1.182-1.7933-1.69.7266-3.378 1.1817-4.494 2.6178-.137.1761-.448.2104-.67.3278-1.121.5921-2.332 1.0618-3.342 1.8031-2.584 1.8887-5.268 3.6258-7.942 5.375.005.0025.008.0049.013.0049-.01.0025-.018.0049-.027.0049-1.461.9566-2.917 1.9157-4.35 2.9089-2.42 1.6735-5.084 2.9065-7.496 4.6044.132.0734.261.1395.239.1566-.122.1076-.305.1982-.467.2936-.061-.0441-.137-.0881-.205-.1346-.243.1811-.487.3572-.725.5505-2.659 2.1456-5.844 3.6331-8.743 5.4949-7.024 4.5065-14.009 9.0742-21.026 13.5953-2.358 1.5169-4.69 3.1096-7.176 4.3915-1.675.8637-2.909 2.1017-4.132 3.4247-.095.103-.054.326-.103.69.541.235 1.131.492 1.476.641.068-.044.134-.088.205-.132-.007-.024-.01-.049-.002-.073zm56.681-37.8063c-.034.0196-.081.0514-.093.0489-.064-.0195-.117-.044-.176-.0685.044-.022.088-.0465.129-.0685.047.0294.093.0587.14.0881zm-.822-.3817c.223.0367.372.1909.553.2936-.198.0538-.397.1077-.707.1933-.066-.0954-.145-.1713-.164-.2471-.027-.1248-.025-.296.318-.2398zm-12.458 10.2241c.032.0171.098.0367.093.0514-.017.0342-.061.0685-.093.1003-.032-.0172-.063-.0318-.103-.0539.035-.0318.069-.0636.103-.0978zm-41.757 24.1669c.024-.003.063.032.095.046-.063.02-.127.037-.188.057-.039-.022-.071-.04-.103-.057.064-.017.127-.039.196-.046zm-1.754 3.303c-.069-.008-.132-.032-.198-.047.034-.017.066-.034.105-.054.061.018.124.035.188.054-.032.015-.071.049-.095.047zm86-7.2616c-.103-.5651-.13-.9811-.264-1.3578-.125-.3474-.365-.6557-.614-1.0863-2.102.6655-4.113 1.304-6.126 1.9328-.243.0758-.504.0954-.759.1272-4.489.5578-8.744 2.0355-13.052 3.3126-.763.2275-1.412.6411-2.339.5631-.82-.074-1.695.516-2.547.807-.08.027-.173.002-.259.012-3.973.494-7.753 1.779-11.577 2.86-1.877.531-3.611 1.495-5.676 1.407-.785-.032-1.595.511-2.393.79-.638.223-1.262.541-1.92.648-4.866.796-9.537 2.33-14.261 3.663-1.135.32-2.312.494-3.912.827-.086.063-.565.416-.648.477-2.222.426-3.966.824-5.73 1.081-1.938.284-3.628 1.343-5.683 1.422-1.402.051-2.767 1.062-4.069 1.612v1.113c.692.233 1.404.472 1.979.666 2.036-.683 3.915-1.681 5.877-1.889 3.765-.399 7.168-2.063 10.848-2.689 1.24-.21 2.422-.739 3.65-1.047 1.147-.286 2.353-.372 3.476-.722 2.259-.707 4.578-1.218 6.856-1.817 2.434-.644 4.792-1.848 7.425-1.662.154.01.325-.1.474-.176 2.577-1.333 5.464-1.637 8.201-2.407 5.867-1.652 11.797-3.073 17.696-4.614 3.024-.7906 6.028-1.6713 9.057-2.4444 2.04-.5211 4.11-.9248 6.29-1.4092zm-.636-.8294c-.064-.0171-.127-.0342-.188-.0538.031-.0171.07-.0489.095-.0465.068.0074.132.0294.196.0465-.032.0171-.066.0343-.103.0538zm.051-.6605c.154.0978.318.159.331.225.036.2007-.289.1615-.492.1444-.135-.0098-.247-.093-.372-.1419.149-.0636.301-.1297.533-.2275zm-1.507.8636c.025-.0025.064.0318.098.0489-.066.0171-.13.0392-.198.0489-.022.0025-.064-.0318-.095-.0489.066-.0171.127-.0391.195-.0489zm-2.018.5823c.12.0538.271.0954.345.1614.032.0269-.103.1052-.23.2251-.157-.1076-.289-.1664-.323-.2373-.017-.0367.134-.0979.208-.1492zm-85.105-9.9452c.494-.4868.986-.981 1.419-1.5193 1.598-1.9792 3.183-3.9633 4.773-5.9499-.152.0024-.269.0171-.306-.0049-.102-.0612-.161-.1444-.237-.2178.117-.0293.23-.0685.352-.0782.066-.0049.157.0367.223.0685.039.0171.073.0367.11.0562.935-1.1694 1.874-2.3364 2.811-3.5034 1.556-1.9425 3.114-3.8802 4.675-5.8178.698-.8686 1.39-1.7444 2.102-2.6031 2.075-2.5028 4.533-4.6974 6.146-7.5818.164-.2961.43-.5407.653-.8025 1.071-1.2575 2.175-2.493 3.251-3.7456-.08-.0783-.159-.1542-.076-.23-.122-.0807-.244-.1615-.369-.2447.108-.0954.171-.1516.235-.2079.137.0709.35.1345.386.2177.03.0636-.159.1542-.252.2349h.272c.815-.9542 1.617-1.9205 2.366-2.9261 1.02-1.3725 2.06-2.6691 3.349-3.7847.387-.3328.673-.7829.998-1.1841 1.948-2.3976 3.91-4.783 5.825-7.2051.742-.937 1.38-1.9547 2.043-2.9505.235-.3547.313-.9443.627-1.1009 1.871-.9395 2.512-2.9995 4.007-4.279.626-.5358 1.05-1.3113 1.634-2.0698-.724-.4624-1.333-.8514-2.077-1.326-.839 1.1181-1.495 2.1261-2.29 3.0141-1.032 1.1548-1.729 2.6619-2.777 3.6503-2.708 2.5517-4.707 5.6417-7.094 8.4234-1.735 2.0208-3.257 4.2496-5.146 6.1089-2.448 2.4074-4.445 5.1891-6.5 7.8705-1.774 2.3144-3.55 4.6044-5.49 6.7818-1.201 1.348-2.481 2.6569-3.484 4.1469-2.588 3.8459-5.732 7.2197-8.741 10.7133-1.456 1.6881-2.819 3.4545-4.233 5.1769-1.693 2.0599-3.422 4.0905-5.0812 6.1774-.685.8637-1.2477 1.83-1.8153 2.7768-.0954.1615.0587.4722.115.827.5407.0391 1.0446.0783 1.7713.1345.8022-.9394 1.6362-1.7223 2.2312-2.6569 1.025-1.6172 2.239-3.0533 3.594-4.3891zm45.76-56.5637c-.052.071-.167.137-.289.1835-.029.0098-.262-.0734-.262-.1101.003-.0734.106-.1443.213-.2691.191.1076.357.1688.338.1957zm-.397-.7144c.032.0196.096.0441.089.049-.035.0342-.084.0611-.13.0929-.042-.0244-.086-.0465-.13-.0685.056-.0244.113-.0489.171-.0734zm-.171.1419v.0685c-.059.022-.115.0465-.174.0685-.017-.0318-.066-.0856-.048-.0905.061-.0245.146-.0342.222-.0465zm-11.357 13.2113c.13.1198.265.1981.233.2251-.074.066-.225.1076-.345.159-.076-.049-.225-.1101-.208-.1468.032-.071.164-.1297.32-.2373zm-4.017 6.0453c.069 0 .137.1028.272.2104-.301.0881-.558.164-.815.2398-.137-.1346-.274-.2691-.411-.4061.318-.0171.636-.0441.954-.0441zm-29.847 34.8533c.034.0171.097.0416.09.0489-.034.0318-.083.0612-.13.0905-.041-.022-.085-.044-.129-.0685.056-.022.112-.0465.169-.0709zm-.169.1394v.0685c-.059.0245-.115.0465-.174.071-.017-.0318-.066-.0857-.046-.093.058-.0245.144-.0318.22-.0465zm-62.0637 8.717c-.0416-.0661-.0832-.1272-.1224-.1933-.0318-.0147-.0611-.0318-.088-.044.0171-.0049.0342-.0073.0489-.0122-1.5756-2.5028-3.2221-4.4625-4.8906-6.4295-3.2172-3.7872-6.1653-7.802-9.2503-11.7018-.827-1.0446-1.8839-1.9254-2.6056-3.0312-2.2606-3.457-4.8294-6.6619-7.5671-9.7396-.5725-.6459-1.2086-1.238-1.7884-1.8765-.3401.0807-.5015.1125-.6239.1615-.2128.0831-.4208.2642-.6654.0856-.1101-.0808-.0196-.2789.0978-.389.0906-.0832.3768-.1541.5627-.1468.1444.0049.2863.0587.4893.1321-.0709-.0807-.1443-.159-.2128-.2398-1.3701-1.6514-2.7083-3.3272-4.0123-5.0276-.7927-1.0324-1.6906-2.0281-2.3095-3.1291-.3719-.663-.73888-1.282-1.23797-1.8569-.00734.0098-.01468.0171-.02447.0245-.0318-.0172-.09541-.0367-.09052-.049.00734-.022.02692-.0416.04649-.0587-.7095-.8196-1.36517-1.6807-2.05509-2.5175-1.04222-1.2624-2.0037-2.6031-3.15846-3.7529-1.96456-1.9548-3.542575-4.1836-5.09857-6.4564-.96637-1.4117-2.16762-2.6618-3.25633-3.9879-.65077-.7926-1.30399-1.5804-1.93031-2.3902-.73151-.9493-1.43121-1.9205-2.17496-2.9163-.71194.4257-1.28442.7682-1.99151 1.1939 1.02514 1.2698 2.11384 2.3585 2.89184 3.638 2.32909 3.8337 5.73955 6.8185 8.151824 10.5837.689926 1.0789 1.463026 2.197 2.451416 2.975 1.68566 1.326 2.45142 3.3297 3.99763 4.8123 2.18965 2.104 3.75299 4.8588 5.60739 7.3176.9346 1.2355 1.9035 2.4465 2.8918 3.6404.9517 1.1499 1.9744 2.2435 2.9188 3.4007 1.0471 1.2868 2.0795 2.5835 3.1119 3.885.1811-.1149.4502-.2422.4796-.2177.1247.115.1981.2422.3229.4086-.1762.0783-.3596.203-.4526.1884-.0245-.0049-.044-.0172-.0661-.0221.1224.1566.2471.3108.3695.4673.2299-.0807.477-.1394.6214-.1272.3841.0294.6165.2251.592.4967-.0097.1125-.2984.3107-.5725.4403.1909.2373.3793.4771.5676.7144 2.2924 2.8943 4.5481 5.8154 6.8723 8.6827 1.7738 2.1872 3.6967 4.257 5.4289 6.4736 1.8838 2.4098 3.6184 4.937 5.4386 7.3983.137.1834.4282.2519.8441.4795.4428-.3939.9027-.8049 1.441-1.2869zm-34.09972-41.7989c-.17126.0636-.43794.0587-.74131.0929-.10764-.0391-.2838-.0758-.36453-.1419-.04404-.0342.07829-.1247.13211-.1883.01958-.0221.06851-.0367.10031-.0539.36453-.225.36698-.2226.34497-.7119 0-.0489.13211-.1346.22263-.1419.10764-.0098.32538.0391.33761.0783.08808.2569-.16391.5456.28625.7804.04404.0221-.15413.2251-.31804.2863zm.77802.2202c-.03184-.0172-.09545-.0392-.09055-.0514.01467-.0343.05871-.0685.09055-.1028.0318.0172.066.0343.1052.0539-.0343.0342-.071.066-.1052.1003zm12.2962 18.1801c-.0465-.0318-.0905-.0612-.1345-.0905.0611-.0098.1614-.0343.1761-.0269.0465.0318.0612.0758.0881.1174-.0441 0-.0856 0-.1297 0zm1.326.5211c.0612-.0098.1639-.0367.1762-.0269.0465.0318.0611.0759.0881.115-.0416 0-.0857 0-.1297.0024-.044-.0318-.0905-.0611-.1346-.0905zm.411 1.0055c-.0318-.0342-.0758-.066-.0905-.1027-.0049-.0122.0587-.0318.0905-.0489.0367.0318.071.066.1052.0978-.0391.0196-.0709.0367-.1052.0538zm.0294-.7804c-.0636-.0171-.1174-.044-.1737-.0685.0416-.022.0856-.044.1297-.0685.0465.0318.0929.0612.137.0905-.0343.0171-.0808.0489-.093.0465zm.5554-.4404c-.0318-.0171-.0954-.0391-.0906-.0513.0147-.0368.0588-.0685.0906-.1028.0318.0171.066.0343.1052.0538-.0343.0343-.0685.0661-.1052.1003zm-1.7077 20.9325c1.6147 1.2526 3.2294 2.5053 5.0521 3.9169.0342.0856.0709.6067.3523.8441 1.5633 1.3358 3.1584 2.6373 4.8025 3.8777.8734.6581 1.83 1.2913 3.1242.7413.0392-.3229.0783-.6508.137-1.1229-1.6245-1.4141-3.2587-2.8845-4.9493-4.2864-.9077-.7511-2.1187-1.2208-2.838-2.1064-1.8618-2.2973-4.3279-3.8973-6.5958-5.6442-2.7254-2.0966-5.3408-4.301-7.9316-6.5469-1.1401-.9884-2.2435-2.0233-3.4276-2.9578-3.03128-2.3927-6.14082-4.6851-9.13537-7.1219-2.80372-2.2826-5.3897-4.8416-8.26437-7.0264-4.44046-3.3738-8.71456-6.9359-12.93236-10.5739-.0293.0392-.1296.1052-.2251.1957-.1565-.1076-.2887-.1663-.3205-.2373-.0195-.0367.1322-.0978.208-.1468.0758.0318.159.0636.2324.0979-.4306-.3743-.8661-.7438-1.2966-1.1181-2.0747-1.8031-4.2374-3.5058-6.3708-5.2429-.1199-.0954-.318-.0954-.5774-.1663-.4306.4501-.893.9345-1.5217 1.5951.7853.7388 1.2673 1.5413 1.9376 1.7566 1.8521.597 2.8478 2.1578 4.2032 3.3126.9835.8343 1.9841 1.6465 2.9872 2.4563.7951.641 1.7541 1.1425 2.3804 1.9156 1.6294 2.0111 4.3402 2.7597 5.7298 5.0301.1101.181.4551.2128.6777.3401.6557.3743 1.3945.614 1.68321 1.4801.11499.3474.56515.6508.93213.8392 3.25633 1.6783 5.60744 4.504 8.460088 6.6937 2.502802 1.9229 4.829442 4.0783 7.275972 6.0772 2.39026 1.9523 4.8588 3.8092 7.254 5.7566 2.1333 1.7395 4.2031 3.5548 6.3193 5.3163.8563.712 1.7566 1.3725 2.6374 2.0551zm-1.8251-2.7597c.0171-.022.0611-.0391.0978-.0538.1664-.066.3328-.1321.4991-.1982.0294.093.1273.2007.0661.2716-.0685.0832-.2814.1297-.3645.1639-.208-.0147-.2985-.022-.3866-.0293.0294-.0514.0514-.1052.0881-.1542zm-38.7799-31.3131c-.0759-.0734-.186-.1468-.2178-.2251-.0562-.137.0147-.2642.345-.225.1223.0146.2006.1247.367.2373-.208.0881-.3499.1517-.4942.2128zm19.22724 14.3073c-.10765-.1272-.21285-.1981-.21285-.2691 0-.0391.23242-.1223.26178-.1101.12232.044.23731.1126.28869.1835.01957.0245-.1468.0881-.33762.1957zm3.13155 4.5016c-.03425-.0342-.07095-.066-.10275-.0978.0367-.022.07095-.0367.10275-.0539.0318.0319.07585.0661.09052.1028.00734.0122-.05872.0318-.09052.0489zm.64344-.2324c-.08808-.1663-.16392-.2789-.19328-.3939-.00734-.0293.12722-.0709.19817-.1052.12477.1175.25689.2349.36209.3548.00978.0122-.15169.0611-.36698.1443zm.55536.0612c-.06361-.0172-.11743-.0441-.17615-.0661.04404-.022.08808-.0465.13211-.0685.04404.0294.09052.0587.13701.0881-.03425.0196-.08074.0514-.09297.0465zm1.19146.296c-.0685-.0098-.13211-.0318-.19817-.0489.03425-.0172.06606-.0343.1052-.0538.06116.0171.12478.0366.18838.0538-.0318.0171-.07339.0514-.09541.0489zm5.21115 5.3726c-.4062.0391-.4991-.0783-.367-.3621-.022.0098.0929-.0416.2104-.093.181.1175.3645.2349.5455.3548-.1296.0342-.2519.0856-.3889.1003zm1.6073 1.0691c0 .0759.0074.1493-.0024.2251-.0025.0196-.0636.0538-.0857.0514-.0709-.0074-.1663-.0196-.1981-.0465-.1126-.0979-.2275-.2006-.2863-.3083-.0318-.0587.0343-.1394.1003-.1981.0294-.027.1958-.0416.2496-.0221.0954.0343.1712.0955.2177.1517.0343.0416.0049.0979.0049.1468zm23.0047-77.40812c0 .26912-.0391.45261.0049.61408.6019 2.22634 1.2086 4.45023 1.8129 6.67414.0391-.0049.0783-.0098.1174-.0171.1786-.0318.3597-.0612.5407-.093.0098.0979.0783.2079.0098.2862-.0514.0588-.274.0832-.4282.1101-.044.0074-.0954.0098-.159.0074.2545.9419.5113 1.8838.7658 2.8282.5676 2.1235 1.0642 4.2667 1.6465 6.3854.6067 2.1994 1.4361 4.3499 1.8863 6.5787.8758 4.3132 1.9865 8.5604 3.1707 12.7929.57 2.0331 1.1816 4.0514 1.6514 5.6637.0881 1.0178-.071 1.7884.2422 2.2166.5456.7535.6557 1.5168.8024 2.3804.2545 1.4949.7364 2.953 1.1744 4.4111.2177.7266.4966 1.4386.7437 2.1554.1126-.0611.2202.0807.3058.071.1517-.0147.2863-.0881.4111-.1468.1321-.0636.2568-.1639.4061-.0245.1003.0954.2471.2202.2006.3058-.0783.1395-.2985.2594-.4575.3866-.2765-.0734-.5236-.1224-.7291-.1884.0636.1933.1223.3841.1762.5774.1027-.0514.2104-.1077.2593-.0954.1982.044.3572.137.6337.2544-.2814.0171-.4649.0514-.6239.0318-.0881-.0098-.1639-.0465-.2398-.0856.2373.8612.3719 1.7468.2692 2.6863-.027.2373.066.5113.1737.7364 1.1107 2.3021.7828 5.0716 2.3364 7.2368.1272.1786.0342.5089.0734.7633.181 1.1719.318 2.3585.5774 3.5132.2593 1.1523.8489 2.2655.9174 3.4178.0685 1.1352 1.3334 1.9744.685 3.2123.9371 1.1156.9933 2.5028 1.0667 3.6918.6606.8661 1.2502 1.4655 2.608 1.0104-.1835-1.118-.2789-2.1407-.526-3.1217-.6875-2.7573-1.3994-5.5096-2.1113-8.2595-.071-.0392-.1199-.0636-.1126-.0685.0245-.0171.0563-.0318.0832-.0489-.296-1.1401-.592-2.2778-.8856-3.4178-.9542-3.6894-1.9034-7.3788-2.8698-11.0657-1.0104-3.8459-1.9205-7.7237-3.0973-11.5182-1.2037-3.8851-1.8618-7.8974-3.0949-11.7801-1.2501-3.9438-2.1333-8.0075-3.1487-12.0271-.6238-2.4661-1.5339-4.849-1.6905-7.4472-.0905-1.49-.6924-2.953-1.0936-4.4209-.4453-1.62939-.9077-3.25878-1.3945-4.87838-.3083-1.02509-.6728-2.03306-1.0618-3.19027-.8587.37921-1.4581.64344-2.0282.89543zm20.4359 71.76892c.0685.0098.1321.0318.1957.0489-.0318.0171-.0636.0342-.1028.0538-.0611-.0171-.1247-.0367-.1884-.0538.0318-.0171.071-.0514.0955-.0489zm-.8343-.1762c.1321.0661.3963.159.3719.1933-.0857.1101-.274.2006-.4013.2838-.1883-.0392-.2691-.0538-.3474-.071.1248-.137.252-.2715.3768-.4061zm-.9419.0122c.0318.0343.0758.0661.0905.1028.0049.0122-.0587.0318-.0905.0514-.0343-.0343-.0759-.0685-.093-.1028-.0049-.0122.0587-.0342.093-.0514zm-2.997-17.6614c-.0636.0171-.1272.0367-.1884.0538-.0391-.0196-.0709-.0367-.1027-.0538.0636-.0172.1272-.0392.1957-.049.022-.0024.0636.0318.0954.049zm-.389-1.7273c.0244-.0049.0636.0294.0979.0465-.0637.0196-.1273.0367-.1884.0538-.0392-.0195-.0734-.0367-.1052-.0538.0636-.0171.1272-.0391.1957-.0465zm39.8857 31.4966c.0538-.0269.1811-.0367.2814-.0269.088-.1443.1712-.296.2471-.4575.1101-.2324.1859-.482.2593-.734-.0318.0147-.0612.0318-.0954.0514-.0979-.1663-.181-.2593-.1982-.3547-.0098-.0612.0808-.1272.1248-.1909.0881.0637.1761.1297.2618.1933.0685-.2177.1419-.433.2495-.6287 1.764-3.2123 3.8435-6.2509 5.1426-9.7103.1811-.4795.3401-.9908.6361-1.3945 1.3135-1.7982 2.3485-3.7334 3.1485-5.8105.039-.0979.074-.1958.11-.2936-.117-.0685-.032-.1419.081-.2178.377-1.0397.734-2.1211 1.395-2.9456.631-.7926 1.152-1.5046 1.521-2.4808.712-1.8887 1.732-3.66 2.599-5.4924.408-.8612.88-1.6857 1.37-2.5028-.211-.0905-.355-.1517-.495-.2128.123-.049.238-.1322.372-.1419.103-.0098.238-.0221.34-.0074 1.016-1.6808 2.068-3.3419 2.731-5.2135.279-.7903.746-1.512 1.14-2.2582 1.47-2.7915 2.95-5.5756 4.421-8.3647.792-1.5021 1.59-2.9994 2.358-4.5138.922-1.8202 1.881-3.6282 2.689-5.4974.303-.7021.281-1.5021 1.159-1.8544.248-.1003.424-.4746.544-.7609 1.646-3.9242 3.461-7.7653 5.812-11.3861-.526-.4673-.963-.8588-1.384-1.2331-1.644.9762-2.393 2.4784-2.86 4.1811-.157.5701-.272 1.2282-.631 1.6539-1.517 1.7957-2.462 3.8753-3.271 6.0429-.12.3156-.294.6141-.453.915-2.199 4.1395-4.418 8.2693-6.593 12.421-.822 1.5707-1.49 3.2197-2.327 4.783-1.652 3.0851-3.374 6.1334-5.057 9.1989-.33.5994-.634 1.2135-.93 1.83-.695 1.4582-1.321 2.953-2.077 4.3793-1.478 2.7891-3.359 5.4191-4.457 8.3476-1.1796 3.1413-3.1369 5.808-4.5167 8.8001-.3548.7707-1.0642 1.3995-1.3309 2.1872-.8563 2.5249-2.175 4.7952-3.4594 7.1096-.5554 1.0007-1.3407 2.2215-.6459 3.4863.9101.1884 1.463-.1174 1.8594-.6189-.049-.0294-.0979-.0587-.1468-.0832-.0538-.0294-.0049-.1566.0758-.1933zm29.1475-59.7173c.191.1052.358.1688.338.1957-.051.071-.166.137-.289.1835-.029.0098-.261-.0709-.261-.1101 0-.0709.105-.1443.212-.2691zm-7.76 14.6033c.179-.0073.369.0465.905.1248-.479.1101-.616.1639-.756.1664-.208.0049-.535.0563-.496-.1444.009-.0587.22-.1419.347-.1468zm-50.144 31.6165c-.0073-.0171-.0122-.0342-.0073-.0562-.2642-1.9328-.4453-3.8754-.7756-5.7934-.6091-3.5304-1.3186-7.068-1.5902-10.6595-.2031-2.7132-.5456-5.4118-1.1132-8.0785-.477-2.2361-.8734-4.4894-1.304-6.7353-.2544-1.3309-.707-2.6593-.7143-3.9927-.0074-1.83-.4086-3.5573-.7829-5.3139-.1419-.6605-.301-1.3309-.323-2.0012-.044-1.2869.0343-2.5395-.4526-3.8142-.4134-1.0813-.5994-2.3242-.5725-3.4887.0661-2.9456-1.3015-5.649-1.2012-8.6289.066-1.9988-.619-4.0197-.893-6.03804-.3988-2.93828-.7315-5.88635-1.0863-8.78059-1.096-.212845-1.9401-.362084-2.2557.22998.0979 1.64896.0857 2.93338.2643 4.1909.4746 3.37131 1.0422 6.72795 1.5462 10.09685.203 1.3456.2153 2.7327.5211 4.0514.7462 3.2343.9297 6.5494 1.5413 9.8008.0783.4135.1076.8514.274 1.2306.6948 1.5854.7805 3.2661.8881 4.9444.0758.0245.1492.049.2373.0759-.0905.0171-.1639.0342-.2275.0514.0612.915.1345 1.83.3229 2.7278.2569 1.2257.2006 2.5224.4771 3.7995.5872 2.7303 1.2012 5.4753 1.1572 8.3035-.0049.345-.066.7315.0612 1.0324 1.2281 2.8992.8245 6.0674 1.5095 9.0571.2251.9908.3621 2.0013.5235 3.0043.3083 1.923.5163 3.8655.9248 5.7665.8196 3.8337 1.3089 7.7041 1.6588 11.6014.0807.9052.3865 1.7884.5602 2.564.7707.1884 1.3187.3229 1.9328.4746 0-1.5927.3718-3.2588-.071-4.6704-.5113-1.627-.8024-3.2857-1.03-4.9518zm-.362-1.3774c-.0319-.0318-.0759-.066-.0906-.1027-.0049-.0123.0587-.0318.0906-.049.0367.0318.0709.0661.1052.0979-.0392.022-.071.0367-.1052.0538zm-14.8627 7.6993c-1.0251-1.6343-1.1523-3.7359-2.7303-5.0472-.6997-2.8747-2.5909-5.1647-3.8215-7.78-1.6343-3.4692-3.2416-6.953-5.0007-10.361-2.8942-5.6148-6.0429-11.1024-8.8075-16.7808-1.6343-3.3591-3.0753-6.8111-4.871-10.1017-1.0178-1.8618-1.7224-3.89-2.6716-5.7909-1.7102-3.4252-3.4863-6.8136-5.2625-10.2045-.3474-.663-.8098-1.2648-1.26-1.9548-.6434.3328-1.1694.6019-1.8447.9468.5407.9248 1.0227 1.627 1.3799 2.3879 1.1621 2.4636 2.1407 5.0251 3.4373 7.4105 3.3444 6.153 5.9769 12.6706 9.6491 18.6548.3157.5137.5872 1.0544.8441 1.6049.1541.0269.252.1443.4012.2397-.0685.0808-.1247.1517-.181.2202.3083.6802.6018 1.3701.9199 2.0453.7951 1.6759 1.5511 3.3713 2.3853 5.0276 1.1059 2.1921 2.2827 4.3524 3.413 6.5323.433.8318.8367 1.6783 1.2306 2.5272.7486 1.6221 1.4214 3.2808 2.2312 4.8711.9297 1.8251 2.0086 3.5768 2.9578 5.3921.9346 1.7909 1.7738 3.6282 2.679 5.4338.9982 1.9865 2.0404 3.9511 3.0361 5.9401.9517 1.8936 1.8398 3.8215 2.8135 5.7029.3474.6679.9493.9933 1.7787.5382.2764-.7315.1516-1.3896-.2325-2.1456-.8856-1.7419-1.4459-3.6673-2.4734-5.3089zm-20.1839-37.5102c-.1272.0024-.318.022-.3694-.0098-.1614-.1052-.2715-.2324-.3939-.3523-.0049-.0073.0857-.0489.0906-.0465.2691.1126.5308.2275.7975.345-.0587.0318-.0905.0636-.1248.0636zm4.8907 8.553c-.0392-.0195-.071-.0366-.1028-.0538.0636-.0171.1272-.0391.1957-.0465.0245-.0024.0636.0294.0954.0465-.0636.0196-.1272.0367-.1883.0538zm5.7322 13.6541c-.0392.0514-.186.1101-.2838.1101-.0954 0-.2545-.0636-.2765-.1125-.044-.0954-.0514-.2031 0-.2961.0367-.0734.1835-.1296.2814-.1932.0978.0636.1981.1272.2862.1932.022.0172.0049.0514.0049.0759 0 .0734.0367.1566-.0122.2226zm8.2643-3.4545c-.9076-2.3682-1.622-4.8123-2.5321-7.1781-1.8594-4.8245-4.0148-9.5317-5.6197-14.4516-.3131-.964-.5725-1.9499-.9419-2.8918-.3645-.9248-.7291-1.8496-1.0936-2.7744-.1248-.0171-.2593-.0416-.3768-.0514.049-.088.0783-.1786.1542-.2593.0195-.022.0465-.044.0734-.0636-1.8863-4.7854-3.7799-9.5659-5.6686-14.3489-.0906-.2324-.1077-.4942-.164-.7437-.4917-2.1603-1.1865-4.2472-2.2067-6.2191-.3132-.6019-.7976-1.2135-.8318-1.8398-.0783-1.37494-.8441-2.38781-1.5218-3.65511-.6997.26178-1.4018.52356-1.9009.7095 1.3676 3.79211 2.6593 7.53281 4.0685 11.22951 1.4484 3.8044 3.2588 7.4864 4.465 11.3617 1.1841 3.8093 3.0214 7.3518 4.1542 11.1611 1.1351 3.819 2.7009 7.4643 4.2227 11.1366 1.5217 3.6722 2.8697 7.4227 4.1346 11.1928 1.2575 3.7506 3.0117 7.298 4.2472 11.0608.0954-.0343.2422-.0367.4036-.0196.1395.0147.252.093.3768.1419-.1688.1052-.345.2129-.6116.3792 1.1914 3.7016 2.7034 7.298 4.0881 10.9825.5823-.3425 1.0129-.5994 1.3848-.8171.3694-2.1628-.5603-3.9683-1.238-5.7763-2.2973-6.1114-4.7316-12.169-7.0656-18.2658zm-10.4026-26.8506c-.0612-.0171-.1248-.0343-.1884-.0538.0318-.0172.071-.0514.0954-.0465.0685.0073.1322.0293.1958.0465-.0318.0171-.0636.0342-.1028.0538zm13.1134 40.0472c-.0318-.0318-.0759-.0661-.0905-.1003-.0049-.0147.0587-.0343.0905-.0514.0342.0343.0709.0661.1052.0979-.0392.0195-.0734.0367-.1052.0538zm2.3805.5896c-.0612-.0171-.1248-.0367-.1884-.0538.0342-.0171.0734-.0514.0978-.049.0685.0098.1297.0319.1958.049-.0318.0171-.0661.0342-.1052.0538zm-33.7009 36.4167c-.641-.206-1.238-.734-1.8692-.756-2.5958-.1-5.0374-.905-7.42765-1.718-3.50343-1.186-7.37873-1.277-10.52986-3.515-.12232-.086-.3474-.005-.51132-.054-2.58354-.763-5.49735-.252-7.82647-2.018-.1125-.084-.3449.012-.5113-.022-1.4899-.326-2.997-.593-4.4625-1.001-3.4153-.952-6.8013-2.011-10.2191-2.955-4.2398-1.1724-8.5041-2.2586-12.7489-3.4085-4.8196-1.304-9.6295-2.6374-14.4467-3.9536-.2202-.0612-.46-.0612-.7168-.093-.1933.6875-.3646 1.3065-.575 2.06 1.6735.5016 3.2784 1.0055 4.8955 1.4581 4.3181 1.2086 8.6436 2.3927 12.9666 3.5891 3.8313 1.0589 7.6577 2.1459 11.4987 3.1809 2.7768.748 5.5805 1.406 8.3598 2.148 2.767.736 5.4998 1.57 8.3035 2.184 2.54928.558 5.0056 1.527 7.527965 2.232 4.809875 1.338 9.629535 2.635 14.456535 3.902 1.1425.298 2.4465.176 3.4765.665 2.2557 1.072 4.6925 1.439 7.0362 2.146.7854.237 1.6319.274 2.3829.391.3817-.531.6215-.863 1.0496-1.458-2.1896-.501-3.8264-1.729-5.972-1.84-1.3945-.073-2.7694-.724-4.137-1.164zm-60.9944-14.9925c-.3817.0098-.2912-.1492-.2838-.2593.0024-.0636.0832-.1272.1296-.1908.1737.1027.3475.203.5701.3352-.2031.0587-.3083.1101-.4159.1149zm1.3162-.3033c-.0342-.0318-.0758-.0661-.093-.1028-.0049-.0122.0588-.0318.093-.0489.0318.0342.0759.066.0905.1027.0049.0123-.0587.0319-.0905.049zm70.2276-13.0376c-.0269.0172-.049.0343-.0759.0539-.044-.0245-.088-.0465-.1296-.0685.044-.0196.0905-.0392.1345-.0588-.1541-.159-.3082-.318-.4599-.477-.0392.0562-.2814.1468-.3107.137-.3866-.1444-.7609-.301-1.1132-.4649-.1223-.0587-.1835-.1517-.2716-.2275.1713-.0294.3425-.0563.5138-.0856.2275-.0123.4477.2177.6655.1076-.7731-.8-1.5462-1.6025-2.3169-2.4025-.6532-.6703-1.5242-1.1303-2.1725-1.8055-1.7077-1.7811-3.3518-3.6209-5.0154-5.446-.5627-.6141-1.1401-1.211-1.7248-1.8031-.0587-.0367-.1028-.0709-.1199-.1076 0-.0025.0049-.0049.0049-.0074-3.0557-3.0777-6.35606-5.9083-9.22339-9.1744-1.34559-1.534-2.98966-2.7622-4.46491-4.1493-3.080182-2.8992-5.9206-6.0528-8.85643-9.106-1.25996-1.3138-2.59088-2.5738-3.74809-3.9732-2.69608-3.2734-5.85458-6.0747-8.86618-9.1598-.712.6043-1.2722 1.0814-1.8765 1.5976 1.5951 1.485 2.9725 2.6863 4.2496 3.9854 1.0863 1.1009 1.9939 2.3756 3.0851 3.4692 2.219 2.2263 4.44776 4.4404 6.67655 6.6545.29602.0539.59206.1052.88564.1615.06361.0122.1052.0587.15902.0905-.08073.0196-.15902.0489-.24465.0587-.14434.0172-.29114.0343-.43793.0514 3.19027 3.1732 6.3805467 6.3439 9.55125 9.5341 1.08381 1.0912 2.04285 2.3047 3.06549 3.457.0734-.0123.1468-.0269.22263-.0367.09053-.0098.19328-.0025.43549-.0025.04404.0025.23242.0123.41836.0269.0367.0025.10275.0465.09786.049-.03915.0293-.10276.0489-.13946.0783-.18104.1492-.46728.1932-.74863.1443-.02447-.0024-.04404-.0147-.06606-.022.28135.3131.5627.6214.85873.9174 1.85692 1.8545 4.00501 3.4374 5.72731 5.402 1.9377 2.2067 4.2203 4.0318 6.2142 6.1628 1.8471 1.9768 3.7065 3.9413 5.5756 5.8961.0416-.0318.0881-.0636.1346-.093.0391-.0269.1272-.0318.1933-.0465.0293.0416.0611.0832.1272.1786-.0759.0392-.1737.093-.2789.1444.7364.7706 1.4679 1.5413 2.2092 2.3071.8343.8587 1.8765 1.5168 2.7107 2.3755 2.1628 2.2337 4.2399 4.553 6.4051 6.7843.5798.5994 1.3529 1.0153 2.0477 1.4972.1101.0759.2862.049.5554.0881.1908-.4061.3963-.844.6312-1.3456-3.7261-3.8826-7.32-7.6356-10.8944-11.347zm-46.0339-45.043c-.4183-.0342-.6043-.1859-.592-.4183.0097-.1811.2055-.1737.4575-.1835.5969-.0269.3816.2006.4452.4134-.0709.0441-.2128.1958-.3107.1884zm5.4068 7.1928c-.0342-.0342-.0685-.0661-.1027-.0979.0391-.022.0709-.0391.1027-.0562.0343.0342.0759.0685.093.1027.0049.0123-.0587.0343-.093.0514zm1.2013.2887c-.0636-.0196-.1199-.044-.1762-.0685.0441-.0245.0857-.0465.1297-.0685.0465.0293.093.0587.137.0881-.0318.0195-.0807.0513-.0905.0489zm.78288.0147c-.12478-.049-.34008-.0905-.35968-.1493-.0611-.1859-.2544-.1688-.5015-.1321-.1223.0171-.0856.252-.3352.0734-.0611-.044-.0587-.1639.0049-.1933.23-.1027.4991-.1786.712-.2495.3082.0465.50639.0538.64584.1052.11988.0416.26912.1541.23731.2031-.08318.1247-.26177.2299-.40367.3425zm17.71775 18.6474c-.08074.0171-.21775-.044-.33273-.0734.14434-.0734.28624-.1443.43059-.2177.05138.0318.10275.066.21284.1345-.09541.0539-.18348.1321-.3107.1566zm.66546.1468c-.01958-.0318-.06851-.0832-.04894-.093.06117-.022.14435-.0318.22263-.044v.066c-.05871.0245-.11743.049-.17369.071zm.30336-.137c-.04403-.0245-.08807-.0465-.12967-.0685.05628-.0245.11254-.0489.16882-.0734.03425.0171.09541.044.09052.0489-.03425.0343-.08563.0612-.12967.093zm18.72575 18.7893c-.0318-.0318-.0759-.066-.0905-.1027-.0049-.0123.0587-.0318.0905-.049.0367.0318.0709.0661.1052.0979-.0392.0196-.071.0367-.1052.0538zm.8514.2912c-.0172-.0318-.0661-.0832-.049-.093.0612-.022.1468-.0318.2202-.044v.066c-.0562.0245-.1125.0489-.1712.071z" fill="url(#a)"/></svg>