<svg width="46" height="46" viewBox="0 0 72 72" fill="none" xmlns="http://www.w3.org/2000/svg">
  <circle cx="36" cy="36" r="36" fill="#F5ECD5" />
  <g transform="translate(3, 0)">
    <path d="M24.7207 29.7031H17.0391V54.5391H24.7207V29.7031Z" fill="#587A33" />
    <path d="M20.8672 17.4609C18.3281 17.4609 16.2734 19.5156 16.2734 22.0547C16.2734 24.5938 18.3281 26.6484 20.8672 26.6484C23.4062 26.6484 25.4609 24.5938 25.4609 22.0547C25.4609 19.5156 23.4062 17.4609 20.8672 17.4609Z" fill="#587A33" />
    <path d="M40.8281 29.7031C37.6172 29.7031 35.1562 31.2891 33.8672 33.0547V29.7031H26.4844V54.5391H34.1641V41.4141C34.1641 38.3516 34.7578 35.3906 38.4766 35.3906C42.1406 35.3906 42.1953 38.9062 42.1953 41.6172V54.5391H49.8828V40.1484C49.8828 33.6562 48.4688 29.7031 40.8281 29.7031Z" fill="#587A33" />
  </g>
</svg>