<svg fill="none" height="46" viewBox="0 0 46 46" width="46" xmlns="http://www.w3.org/2000/svg" xmlns:xlink="http://www.w3.org/1999/xlink"><mask id="a" height="9" maskUnits="userSpaceOnUse" width="22" x="12" y="15"><path d="m12.6238 15h20.9083v8.9751h-20.9083z" fill="#fff"/></mask><mask id="b" height="15" maskUnits="userSpaceOnUse" width="23" x="12" y="16"><path d="m12 16.6074h22.2416v13.7678h-22.2416z" fill="#fff"/></mask><path d="m46 23c0 12.7025-10.2975 23-23 23s-23-10.2975-23-23 10.2975-23 23-23 23 10.2975 23 23z" fill="#f5ecd5"/><g mask="url(#a)"><path d="m23.1258 23.9461c.9264-.0681 5.9233-4.1801 10.3578-8.2315-.4504-.4376-1.0637-.7083-1.7416-.7083h-17.2405c-.6965 0-1.3262.2851-1.7801.7448 4.4469 4.03 9.4691 8.1296 10.4044 8.195z" fill="#587a33"/></g><g mask="url(#b)"><path d="m29.6655 20.6009c-5.3123 4.4963-6.1753 4.4963-6.544 4.4963-.3679 0-1.2301 0-6.544-4.4594-1.8578-1.5592-3.6251-3.1323-4.4617-3.8845-.0758.2384-.117.4924-.117.756v10.3636c0 1.3811 1.1197 2.5008 2.5007 2.5008h17.2405c1.3822 0 2.5027-1.1201 2.5027-2.5027v-10.3636c0-.2824-.049-.5527-.1354-.8062-.8435.7646-2.5983 2.3393-4.4418 3.8997z" fill="#587a33"/></g></svg>