<svg fill="none" height="28" viewBox="0 0 28 28" width="28" xmlns="http://www.w3.org/2000/svg"><path d="m28 14c0 7.732-6.268 14-14 14-7.73199 0-14-6.268-14-14 0-7.73199 6.26801-14 14-14 7.732 0 14 6.26801 14 14z" fill="#f5ecd5"/><path d="m10.5184 7.00007c.3415-.00329.6727.11759.9317.33984.2588.22221.4277.53078.4756.86816.0891.67447.2548 1.33723.4931 1.97463l.0567.1924c.043.1951.044.3978.0019.5947-.0561.2627-.1858.5043-.375.6953l-.8945.8916c1.002 1.7588 2.4613 3.2157 4.2236 4.2158l.8936-.8926c.1913-.1888.4331-.3189.6963-.375.2631-.056.5372-.0358.789.0586.6387.2379 1.3027.4033 1.9785.4922.3417.0482.6538.2198.877.4825.2232.2628.3425.5989.334.9433v2.1074c.0008.1957-.0396.3901-.1182.5694l-.0654.1308c-.0722.1269-.1644.2418-.2725.3408l-.1133.0938c-.1175.087-.2484.1551-.3877.2021l-.1416.0401c-.1427.0321-.2901.0415-.4365.0283-2.1658-.2349-4.2463-.9733-6.0742-2.1562-1.7008-1.0787-3.1429-2.5185-4.22363-4.2159-1.11527-1.7182-1.83626-3.6593-2.11231-5.68453l-.04882-.40625c-.01753-.19401.00515-.3896.06738-.57422.06238-.18485.16317-.35497.29492-.49903.13172-.14401.292-.25908.4707-.33789.17871-.07878.37203-.1199.56739-.12011z" fill="#587a33"/></svg>