<svg fill="none" height="166" viewBox="0 0 334 166" width="334" xmlns="http://www.w3.org/2000/svg" xmlns:xlink="http://www.w3.org/1999/xlink"><linearGradient id="a" gradientUnits="userSpaceOnUse" x1="166.999" x2="166.999" y1="0" y2="165.635"><stop offset="0" stop-color="#769b4b" stop-opacity="0"/><stop offset=".5" stop-color="#799f4e"/><stop offset="1" stop-color="#92ac74"/></linearGradient><path d="m10.5446 4.65393c-3.4745.27412-6.99364.41119-10.54466104.23587v3.25775c.81286604 0 1.47269104.03826 2.12933104-.00636 3.35019-.21039 6.694-.48453 10.04423-.65666 5.2659-.26457 10.5319-.00319 15.8202-.55783 4.1152-.43033 8.2623-.55146 12.4157-.64391.2455-.30281 1.0424-.58652 1.648-.50363.5515.07649 1.1476.21356 1.5396.42076.0064.00319.0096.00638.016.00957 1.0806-.02551 2.1612-.05101 3.2418-.08927 2.4864-.08287 5.0747.34427 7.4399-.21037 2.2664-.53233 4.4786-.50046 6.6813-.40164 2.1803.09882 4.2586-.75546 6.5219-.19125 1.3961.34744 3.0409-.43352 4.5838-.53553 3.4585-.22314 6.9394.13707 10.3948-.62796 1.5141-.3347 3.1557-.11476 4.74-.10838 1.6065.00319 3.2067-.08289 4.8197-.02869 1.4535.04781 2.939-.03187 4.418-.02868 4.4208.00955 8.8428-.43671 13.3438-.70766-.482-1.25911-.871-2.26959-1.256-3.28006h-2.719c-.899.902084-1.674.902084-2.716 0h-1.358c-.207.210373-.411.599274-.625.605637-2.3715.057388-4.7813.306015-7.1147.003189-2.3174-.299637-4.5264 1.498184-6.8374.146637-.322-.184891-.883.003189-1.3261.06694-1.0902.153-2.1963.554637-3.2641.468587-3.8794-.321965-7.7173 1.27822-11.6093.1753-.4909-.14024-1.0934.08289-1.6385.16895-.7618.12114-1.5173.35383-2.2823.38571-1.6958.06694-3.4267.25182-5.0811-.00638-1.7404-.27095-3.3821 1.56513-5.0906.10839-1.6671.98178-3.6275.07012-5.2373.6694-1.9285.71402-3.6403-.24864-5.4827-.07651-4.4627.41757-8.9572.50046-13.4358.75865-2.3302.13388-4.7177-.51957-6.9969.52277-.3347.15301-.8606-.09563-1.2941-.1785-.5387-.102-1.2177-.4909-1.5843-.29327-2.0528 1.1093-4.3351.01594-6.3019.67259-2.021.67578-4.0323.30283-6.0023.45584zm80.2165-.84154c.0893.00957.1722.04145.255.06375-.0414.02231-.0828.04464-.1339.07013-.0796-.02232-.1625-.04782-.2454-.07013.0414-.0223.0924-.06694.1243-.06375zm-48.6272 1.59381c.0287-.00318.0829.04145.1244.06057-.0829.02549-.1658.04782-.2455.07013-.051-.0255-.0924-.04783-.1339-.07013.0829-.01912.1626-.051.255-.06057zm191.7421-.72039c3.688.19444 7.366-.07332 11.077.6152 3.493.65028 7.131.5419 10.707.72678 5.269.27732 10.541.4622 15.804.81923 1.508.10199 2.962.78414 4.498.0223.28-.14026.81.32195 1.237.35064 4.125.30282 8.272.92759 12.371.70446 2.132-.11793 4.09.49408 6.152.42076.972-.03506 1.954.36339 2.936.38572 2.601.06056 5.205-.04145 7.803.03506 3.468.09882 6.962-.13707 10.385.70128 1.18.29007 2.388.58966 3.587.61206 4.523.0988 9.046.0828 13.566.1083v-2.71581c-1.128-.01595-2.298.153-3.382-.08289-4.169-.9021-8.447-.53233-12.642-1.16348-1.553-.2327-3.213.16257-4.734-.15938-1.654-.35382-3.328.31876-4.791-.08606-2.579-.71403-5.129-.43352-7.688-.5164-2.49-.08287-5.062.33151-7.443-.18488-2.477-.53871-4.97-.07651-7.326-.61203-2.46-.56102-4.867-.55464-7.325-.51958-1.243.01275-2.569.19764-3.71-.15937-1.358-.42078-2.544.3602-3.819.09881-1.186-.24864-2.381-.56103-3.586-.61203-4.252-.18806-8.524-.01593-12.75-.77459-1.633-.29326-3.453-.88616-4.919-.44945-1.775.52914-3.219.02868-4.842-.15619-3.213-.37296-6.519.5387-9.694-.62798-1.163 1.14118-2.301-.1275-3.471-.08606-1.186.04464-2.384-.443081-3.592-.570583-.976-.105194-1.97-.022309-2.566-.022309-1.39 1.077422-1.138 2.043262-.899 3.005922 3.085.31239 6.063.73315 9.056.89255zm47.712 2.07513c.093.10201.223.19763.268.30602.124.29325-.255.31875-.657.28688-.188-.01275-.363-.07332-.816-.17214.568-.20082.886-.30919 1.205-.42076zm-31.341-3.97177c.217-.01914.456.03187.689.05099-.233.11477-.449.23908-.708.32833-.057.02232-.261-.07013-.558-.15619.265-.1052.405-.2072.577-.22313zm-126.045 157.81583c1.524-5.476 3.038-10.908 4.546-16.317-.198-.109-.398-.22-.647-.354.223-.099.411-.21.453-.195.111.032.213.074.315.115 3.385-12.141 6.732-24.146 10.044-36.16 4.826-17.5066 9.576-35.0353 14.338-52.478-1.147-1.2272-2.266-1.0551-3.586-.4176-1.007 3.6626-2.018 7.322-3.025 10.9846.061-.051.137-.1116.217-.1849.204.1402.379.2167.421.3092.022.051-.172.1275-.271.1944-.137-.0605-.3-.1147-.405-.1817-8.572 31.1176-17.143 62.248-25.743 93.477.956.348 1.88.679 3.343 1.208zm4.262-16.279c.058.029.112.061.169.089-.073.032-.15.064-.223.093-.041-.023-.124-.055-.115-.061.045-.045.109-.083.169-.121zm2.576-13.818c.143.159.255.226.249.287-.013.14.181.344-.275.385-.143.016-.315-.057-.471-.089.137-.163.277-.325.497-.583zm-5.021 16.492c.73-.079.73-.538 1.317-.679.099-.025.255-.012.36.013.054.013.102.099.07.131-.194.201-.414.398-.548.523.137.169.268.258.255.334-.013.067-.236.188-.3.179-.382-.064-.765-.147-1.112-.255-.083-.026-.064-.246-.042-.246zm34.685-67.5931c-.698 2.5756-.367 5.1289-.545 7.6885-.169 2.4736-.497 4.9408-.67 7.4144-.102 1.4663.361 3.0984-.146 4.3703-.619 1.5459.29 2.7989.092 4.1789-.063.437-.121.877-.191 1.313-.159.982-.418 1.958-.472 2.943-.166 2.897.032 5.779-.5 8.702-.673 3.704.054 7.526-.705 11.325-.624 3.14-.191 6.446-.628 9.703-.644 4.766-.586 9.627-.822 14.45-.223 4.479-.44 8.96-.641 13.442-.009.185.179.379.322.663h2.981c0-1.983-.004-3.672.003-5.358.003-1.017-.246-2.136.086-3.035.899-2.419.491-4.883.574-7.328.025-.794-.179-1.655.073-2.362 1.256-3.558.593-7.297 1.112-10.937.153-1.081.243-2.171.297-3.261-.134-.086-.274-.175-.475-.306.213-.089.354-.182.494-.21.159-4.211-.185-8.476.446-12.706.644-4.307-.13-8.721.689-13.095.465-2.486.105-5.097.634-7.6725.45-2.174.035-4.5105.147-6.7673.108-2.225.487-4.4372.589-6.659.157-3.3342.294-6.6653.424-9.9995-.153.1115-.315.2167-.49.3187-.026.016-.265-.0255-.3-.0669-.067-.0829-.064-.1849-.07-.2072 0-.1689-.048-.2773.016-.3634.051-.0669.245-.1434.373-.1434.153.0031.325.0733.446.1338.013.0064.025.016.038.0255.124-3.194.242-6.3879.37-9.5819.01-.2264-.057-.4814.022-.6758 1.043-2.6011.354-5.3234.724-8.0456-.609-.3857-1.148-.7268-2.024-1.2846-.539 1.5715-1.288 2.872-1.393 4.2236-.354 4.5774-.498 9.1708-.692 13.761-.073 1.8105.274 3.7167-.188 5.4094zm2.859-3.1781c.061.0414.118.0797.176.1179-.08.0128-.211.0447-.23.0351-.061-.0414-.08-.0988-.115-.153zm.023-1.1954c.041.0447.098.0893.117.1339.007.016-.076.0447-.117.067-.048-.0415-.093-.0861-.138-.1275.051-.0255.093-.051.138-.0734zm-.762 1.9923c.041.0446.099.0861.118.1339.006.0159-.077.0414-.118.0669-.048-.0446-.093-.0892-.137-.1307.051-.0255.092-.0478.137-.0701zm-1.199 2.0178c.08.0255.163.0478.246.0701-.042.0223-.096.0669-.128.0638-.089-.0096-.169-.0415-.255-.0638.045-.0191.086-.0414.137-.0701zm-38.232-39.262c-2.12 2.1294-4.208 4.2938-6.382 6.3689-3.095 2.9549-6.299 5.7951-9.365 8.7819-1.438 1.4026-2.569 3.1143-3.997 4.5264-1.696 1.6767-3.644 3.1016-5.3396 4.7815-5.4731 5.403-10.9048 10.8474-16.3015 16.3238-5.3679 5.4444-11.0228 10.602-16.2441 16.1931-.3762.4016-.8893.6726-1.2942 1.0519-.714.6726-1.4121 1.3675-2.0847 2.0815-.4558.4875-.7969 1.0995-1.2942 1.5305-2.3142 2.005-4.9727 3.656-6.4645 6.483-.1466.274-.4909.462-.7745.644-2.751 1.763-4.6444 4.402-7.0096 6.519.8287.95 1.4854 1.699 2.2154 2.534 1.8265-2.174 3.8793-3.714 5.6165-5.617 1.9636-2.148 4.3511-3.901 6.4359-5.948 1.6767-1.648 3.0983-3.557 4.7782-5.208 3.0474-2.9999 6.27-5.8241 9.2951-8.8491 3.0251-3.0251 5.8365-6.2637 8.8552-9.2952.6375-.6439 1.291-1.2718 1.9508-1.8934-.0828-.0383-.1625-.0765-.2454-.1148.1307-.0255.2646-.051.4622-.086 1.8648-1.75 3.7805-3.449 5.6166-5.2277 3.1303-3.0315 6.2446-6.082 9.3714-9.123-.127-.0287-.271-.0701-.475-.1179.265-.1307.421-.2455.485-.2327.095.0191.181.0478.261.086 5.206-5.0619 10.417-10.1143 15.604-15.1922.956-.934 1.667-2.1102 2.601-3.0665 2.183-2.2313 4.434-4.3957 6.588-6.525-.06-.8607-.105-1.5174-.156-2.2633-1.437-.4781-2.062.2072-2.709.8543zm-48.3819 52.1942c-.1562-.067-.3538-.1212-.4495-.2072-.0414-.0351.1339-.1371.3028-.2933.2009.1403.3762.2168.4176.306.0224.051-.1753.1307-.2709.1945zm9.8306-11.4404c-.1434.1753-.3857.3761-.6917.4526-.3028.0765-.7332-.2486-.7587-.6152.0702-.0319.2072-.1339.3794-.153.459-.0574 1.1921.169 1.071.3156zm14.7459-14.8543c-.0414-.0223-.086-.0447-.137-.0733.0446-.0415.0924-.0829.137-.1276.0415.0224.1275.051.118.067-.0191.0446-.0765.0892-.118.1339zm-23.7286 73.519c.9499-1.205 1.9827-2.381 2.8625-3.662 3.0282-4.412 5.9576-8.891 9.0146-13.286 2.2632-3.258 4.1566-6.739 6.337-10.06-.0128-.016-.0255-.032-.0319-.048-.0064-.013.0542-.035.0988-.054.73-1.107 1.4886-2.197 2.3078-3.252 1.546-1.995 2.9454-4.099 4.3002-6.241-.061.041-.156.086-.217.127-.156-.067-.354-.121-.449-.207-.039-.035.134-.137.303-.296.197.137.363.213.411.299 1.67-2.6358 3.277-5.323 4.998-7.9241 1.9-2.8689 3.51-5.9162 5.779-8.5811.988-1.1571 2.311-2.4417 2.652-3.9303.408-1.7947 1.712-2.8625 2.595-4.2204 4.313-6.6335 8.871-13.1012 13.197-19.7251 2.212-3.3916 4.596-6.7099 6.244-10.4522-2.888-1.4121-3.503-1.0901-4.045 2.0784-.672.5291-1.332.8415-1.689 1.3611-1.76 2.566-3.666 5.0683-5.088 7.816-2.053 3.9718-5.431 7.0447-7.239 11.1471-.089.1977-.319.3284-.433.5196-1.578 2.6713-3.411 5.1704-5.152 7.7332-2.247 3.3119-4.3 6.7546-6.439 10.143.147-.0414.316-.0892.523-.1434.083.1243.188.2199.211.3219.038.1594.035.3857-.415.3092-.188-.0287-.338-.1275-.484-.2295-.121.1913-.239.3825-.361.5738-.656 1.0264-1.504 1.9317-2.158 2.9613-1.074 1.6894-1.976 3.4904-3.107 5.1352-1.4572 2.1134-3.322 3.9783-4.5556 6.2033-.4749.851-.9722 1.686-1.4886 2.512.2168-.003.3889.067.5865.178.0287.016.1212 0 .1849 0 0-.162-.0382-.328.0064-.487.1498-.568 1.122-.804 2.0337-.507.3411.111.3443.248.0733.382-.1689.083-.3825.144-.5738.214-.1147.044-.3028.079-.3283.134-.1976.449-.188.449-.832.462-.1753.127-.3123.325-.5386.357-.2901.044-.6535-.042-.985-.073.0924-.051.0829-.096.035-.138-1.4471 2.283-2.9963 4.495-4.4626 6.765-2.4449 3.787-5.011 7.487-7.1945 11.456-.8957 1.626-2.0082 3.133-3.143 4.632.1594-.042.3188-.077.4845-.096.1626-.016.408.07.5483.147.0478.025-.0924.223-.1753.229-.3538.026-.7172.016-1.0775.006-.7363.966-1.4758 1.932-2.1707 2.923-1.1316 1.617-2.1804 3.296-3.2291 4.893.6343.444 1.3548.947 2.276 1.594zm26.55-40.9447c.274.2072.538.3602.672.5419.042.0574-.267.1849-.417.2805-.105-.0638-.23-.1148-.309-.1849-.144-.1275-.291-.2582-.367-.3984-.022-.0415.194-.1148.421-.2391zm-8.3041 8.8777c.0797.022.1626.048.2455.07-.0446.022-.0956.067-.1275.064-.0893-.013-.169-.042-.255-.064.0446-.022.086-.045.137-.07zm-.2613 4.587c.0318-.003.0828.041.1243.06-.0829.023-.1658.055-.255.064-.0319.003-.0829-.041-.1244-.064.0829-.022.1658-.051.2551-.06zm-1.5811.57c.3251 0 .6503.039 1.071.071-.1625.159-.2645.309-.3219.306-.322-.026-.7842.14-.9308-.141-.0383-.07.1148-.236.1817-.236zm-3.5447 4.065c.1403.162.2742.258.2774.35 0 .048-.306.156-.3411.144-.1594-.061-.3124-.147-.3761-.239-.0255-.035.1912-.118.4398-.255zm.0096.707c.0956 0 .1945.061.2901.093-.1594.035-.3124.086-.475.092-.0892.007-.1912-.057-.341-.108.2008-.032.3633-.074.5259-.077zm-10.3661 14.345c.0223-.077.1466-.192.2614-.208.1402-.016.4622.051.4622.086.0223.275.1211.386.5578.125.0414-.026.0988-.045.1339-.07.2263-.182.4462-.367.6694-.549.0637.153.1562.303.1849.456.0541.303-.2136.494-.8097.539-.1881.013-.3793 0-.5674 0-.9021.003-.9945-.029-.8925-.379zm236.8787-72.3659c1.026.3953 2.231.5228 3.066 1.154 1.208.9148 2.397 1.0838 3.886.7873.226-.7714.459-1.5715.698-2.3843-.787-.3124-1.504-.6057-2.228-.8862-2.164-.8383-4.354-1.6066-6.484-2.5214-2.014-.8702-3.876-2.209-5.96-2.7669-3.338-.8893-6.369-2.4959-9.618-3.5765-2.69-.8989-5.323-1.9667-7.956-3.0378-.118.0733-.255.1339-.401.1658h.172c.057.0382.118.0797.175.1179-.08.0128-.214.0446-.23.0319-.06-.0414-.079-.0988-.114-.1498-.421.0956-.756-.0606-.762-.3538-.003-.0766.041-.1562.115-.2359-1.011-.408-2.021-.8161-3.038-1.2113-.928-.3634-1.894-.6248-2.815-.9978-4.204-1.699-8.386-3.4458-12.601-5.1225-.914-.3665-1.922-.4877-2.881-.7554-1.167-.322-2.384-.5419-3.471-1.0456-3.073-1.428-5.917-3.4139-9.436-3.7231-.312-.0255-.609-.2455-.905-.3825-3.185-1.4759-6.248-3.3056-9.684-4.1025-2.435-.5674-4.418-2.0082-6.681-2.8593-3.819-1.4344-7.8-2.4194-11.431-4.383-1.53-.8288-3.242-1.3228-5.008-2.0209-.676.6343-1.246 1.1698-2.037 1.9094 2.066 1.0965 3.478 1.9189 4.951 2.6042 1.485.6918 3.012 1.3133 4.558 1.8552 1.09.3794 2.18.7683 3.267 1.1603.048-.0127.096-.0286.147-.0414.035.0446.092.0956.137.1434 2.25.8129 4.488 1.6512 6.675 2.5406 3.771 1.5364 7.385 3.449 11.386 4.4244.851.2072 1.689.5578 2.467.9658 1.377.7236 2.646 1.6767 4.068 2.276 1.405.5961 3.05.6662 4.411 1.3356 4.96 2.4354 10.386 3.6116 15.396 6.0246 4.007 1.9349 8.413 3.1781 12.579 4.9026 5.212 2.158 10.458 4.2363 15.699 6.321 3.286 1.3038 6.589 2.5693 9.888 3.8379zm-90.701-36.7596c-.341.0382-.656-.0096-.558-.2359.039-.0829.31-.1371.587-.2486.226.1402.382.239.535.3378-.188.0511-.366.1244-.564.1467zm5.116 1.1858c-.248.0701-.883-.3156-.72-.4335.14-.0989.469-.1276.752-.1977.271.0701.51.1339.749.1945-.255.1498-.462.3442-.781.4367zm49.797 20.2796c-.089-.0095-.169-.0414-.255-.0637.042-.0191.086-.0415.134-.0701.08.0254.163.0478.246.0701-.042.0255-.093.0669-.125.0637zm1.078 1.4313c-.042-.0447-.099-.0861-.118-.1339-.006-.0159.076-.0446.118-.0669.041.0446.099.0892.121.1338.006.0192-.08.0447-.121.067zm-.102-1.2049c-.179-.0032-.357-.0734-.67-.1467.265-.1307.421-.2422.485-.2295.182.0351.347.1116.459.1976.025.0192-.175.1786-.274.1786zm7.72 1.6033c-.041-.0223-.083-.0446-.134-.0701.045-.0414.09-.0861.134-.1275.042.0223.128.0478.121.0637-.022.0479-.079.0893-.121.1339zm-64.584-15.1986c6.939 3.4873 13.917 6.9012 20.837 10.4236 1.055.5355 2.056 1.173 3.06 1.8105.099-.0223.217-.051.345-.0892.041.1434.076.2614.102.3729.723.4591 1.45.9117 2.202 1.3165 2.821 1.5205 5.773 2.8083 8.566 4.3734 4.048 2.2633 8.549 3.6626 12.326 6.439.434.3188 1.011.4336 1.514.6599.8.3602 1.616.6981 2.394 1.1093 4.807 2.5501 9.541 5.2436 14.421 7.6375 3.541 1.7341 7.319 2.9199 10.513 5.4094 1.817 1.4153 3.94 2.7637 6.129 3.2865 2.477.5897 4.039 2.5628 6.331 3.2418.733.2167 1.489.3538 2.416.5737.418-.8702.784-1.6384 1.119-2.3333-4.44-2.3875-8.667-4.6731-12.9-6.9331-.383.1466-.765.3092-1.199.3762-.36.0573-.816-.0606-1.233-.0925-.418-.0351-.864-.0255-1.253-.102-.255-.0478-.523-.2008-.606-.3379-.134-.2231.246-.2104.549-.2646.312-.0573.519-.2677.832-.3315.121-.0223.315.255.529-.0605.086-.1212.213-.1817.363-.2136-.784-.3793-1.568-.7555-2.346-1.1444-3.561-1.7914-7.112-3.6083-10.685-5.3807-1.183-.5865-2.62-.8287-3.589-1.6448-1.839-1.546-4.001-2.4098-6.073-3.4777-1.963-1.0104-3.949-1.9795-5.909-2.9963-1.964-1.0201-3.886-2.1294-5.872-3.1112-1.97-.9754-4.147-1.6097-5.964-2.8051-.542-.357-1.093-.6981-1.648-1.0296-.093.0478-.195.0861-.303.1084-.067.0128-.223-.0988-.488-.2295.163-.0383.29-.0765.399-.102-3.813-2.2186-7.883-3.9399-11.676-6.184-.38-.2263-.772-.5196-1.186-.5801-1.782-.2582-3.022-1.3388-4.166-2.684-1.228-.051-2.26-.4304-3.379-1.0997-.367-.22-.746-.4208-1.116-.6312-.006.0446-.016.0893-.016.1275-.003.0829-.118.1658-.182.2486-.22-.1402-.443-.2773-.726-.4558.261-.0669.401-.1307.538-.1339-2.751-1.53-5.623-2.8561-8.441-4.2746-1.663-.8383-3.519-1.4376-4.944-2.5788-1.268-1.0136-2.591-1.6384-4.284-2.1452-.554.663-1.163 1.3898-1.747 2.0847 1.247.7395 2.28 1.342 3.303 1.9572 1.049.6247 2.053 1.342 3.143 1.8902zm75.645 37.6969c.169.0063.332.0382.498.0605-.048.0447-.09.1244-.144.1244-.166.0063-.335-.016-.542-.0319.086-.0733.144-.153.188-.153zm-21.261-12.537c.178.0255.449.1148.459.1849.019.1212-.131.2519-.21.3762-.208-.1084-.412-.2136-.88-.459.303-.0542.487-.1212.631-.1021zm-.756.9914c.166-.0319.37-.0064.555-.0064.618.0064.886.1849.682.4782-.095.1402-.236.2741-.379.4048-.054.0478-.166.102-.265.1084-.736.0573-.373-.4272-.873-.4941.086-.1658-.23-.4016.28-.4909zm-40.572-21.3029c.099.0638.297.1435.271.1945-.041.0924-.216.1657-.417.306-.169-.1562-.345-.2582-.303-.2933.096-.0861.293-.1402.449-.2072zm-67.772 38.7934c.718 5.8843.641 11.8739.791 17.822.115 4.6316.029 9.2662.076 13.9012.007.762.239 1.521.341 2.286.322 2.416 1.017 4.864.826 7.242-.099 1.24-.112 2.442-.076 3.65.019.019.038.038.057.054-.022.013-.038.019-.057.032.019.605.051 1.214.092 1.833.188-.004.287-.004.382 0 .252.009.504.022.214.194-.121.07-.239.175-.392.198-.153.019-.163.102-.169.178.405 5.604.513 11.23.778 16.844.115 2.444-.191 4.905.57 7.334.281.893-.057 1.989-.146 2.99-.035.415-.341.899-.207 1.221.902 2.19.258 4.463.446 6.688.264 3.079.513 6.158.758 9.148h2.764c-.478-5.661-.134-11.026-.644-16.422-.656-6.914-.057-13.918-.774-20.873-.214-2.097-.51-4.236-.376-6.375-.09-.022-.214-.083-.475-.207-.3-.144-.539-.415-1.075-.166-.009.003-.251-.131-.491-.255.227-.118.479-.23.683-.364.204-.133.312-.114.548-.003.242.115.663.179.867.281.041-.373.096-.743.169-1.116-1.514-3.615.411-7.621-1.285-11.217.886-1.361.169-2.703.077-4.093-.3-4.469.102-8.9668-.695-13.4231-.14-.7937.758-1.8711.484-2.5278-1.386-3.3151.325-6.9522-1.195-10.2195-.172-.3698-.166-.9818.029-1.3293.978-1.75.181-3.4585-.061-5.1575-.229-1.613-.876-3.1653-.086-4.8197.22-.4654.061-1.1157.064-1.6799.009-1.8106-1.205-3.5351-.14-5.4731.315-.5706-.297-1.6799-.546-2.5214-.322-1.1061-.863-1.2623-2.645-.8001.169 5.6994-.179 11.3989.519 17.1462zm3.481 54.2242c.048.153.096.306.112.354 0 .141.009.172 0 .204-.048.141.169.37-.284.38-.239.006-.618-.115-.711-.227-.121-.15-.137-.385.016-.513.14-.115.568-.134.867-.198zm-.841-54.1828c.041.0223.127.0478.118.067-.02.0446-.077.0892-.118.1338-.042-.0223-.083-.0446-.134-.0701.041-.0446.089-.086.134-.1307zm-2.35 1.0328c.09.0096.169.0415.255.0638-.041.0223-.086.0414-.137.0701-.079-.0223-.159-.0478-.242-.0701.041-.0223.093-.067.124-.0638zm-25.163-21.8607c-2.543 5.1703-4.105 10.7232-6.187 16.072-.277.7045-.315 1.5109-.634 2.1867-1.511 3.2036-3.089 6.3721-4.613 9.5692-.185.3857-.172.8639-.261 1.2974-.226 1.0774-.265 2.2441-.721 3.2131-1.832 3.9049-3.407 7.8958-4.842 11.96-1.469 4.1563-3.235 8.2053-4.829 12.3173-.357.915-.36 2.001-.841 2.824-2.416 4.131-3.739 8.724-5.63 13.072-2.237 5.158-4.057 10.497-6.018 15.77-.421 1.134-.347 2.594-1.052 3.452-2.135 2.598-2.186 6.021-4.099 8.877 1.199.437 2.18.794 3.312 1.205.857-2.011 1.667-3.71 2.311-5.47 1.1-2.993 1.846-6.146 3.203-9.011 1.511-3.181 2.761-6.477 3.953-9.745 1.062-2.904 2.276-5.744 3.405-8.616 1.928-4.909 4.054-9.744 5.779-14.73.975-2.818 1.813-5.677 2.77-8.4981.981-2.9071 2.658-5.4923 3.678-8.4345 1.253-3.6084 3.083-7.0255 3.905-10.8188.204-.9531.733-1.8392 1.116-2.7509 1.233-2.9581 2.253-6.0278 3.764-8.8361 1.642-3.0442 2.19-6.4581 3.736-9.5278.813-1.6129 1.581-3.4076 1.365-5.3648-.673-.2964-1.25-.5482-1.83-.8064-.29.306-.599.51-.74.7937zm-19.913 52.3787c.086-.022.166-.054.255-.063.032-.004.083.041.128.063-.086.023-.169.051-.258.061-.032.003-.083-.038-.125-.061zm.628.469c-.08-.022-.162-.048-.245-.07.041-.023.092-.067.124-.064.089.01.172.041.255.064-.041.019-.086.041-.134.07zm1.02-3.593c-.028.004-.083-.041-.124-.063.086-.019.166-.051.255-.061.032-.003.083.042.127.061-.086.022-.169.054-.258.063zm.721.826c-.131.016-.44-.064-.44-.099-.007-.166.073-.334.137-.561.306.093.586.147.577.176-.048.168.277.414-.274.484zm7.236-18.1981c-.249-.1403-.466-.2199-.44-.255.067-.0956.216-.1817.376-.2391.038-.0159.341.0925.341.1435 0 .0924-.137.1848-.277.3506zm-32.817-77.62499c-2.8976.17213-5.7314.52276-8.5397 1.24636-1.495.38251-3.0505.60245-4.5902.72997-1.887.15938-3.7582.13069-5.6325.66306-1.7149.4909-3.5638.5036-5.3425.7905-.6375.1052-1.3483.6981-1.852.5355-1.5109-.4941-2.7094.2646-4.0483.5865-1.3961.3379-2.9389.1243-4.3032.5387-2.378.7204-4.7815.9531-7.2359 1.0806-2.2154.1148-4.4308.3603-6.6271.6918-.5738.0892-1.0711.7172-1.6002 1.0965-.9308-.6056-1.8647-.4877-2.8912-.2199-1.7085.443-3.4554.9754-5.1926 1.0009-2.158.0318-4.1694.6279-6.2477.9722-.9818.1626-1.9604.3538-2.9454.4813-1.8711.2391-3.7486.4463-5.6261.6535-1.1476.1275-2.0975.9053-3.5096.3124-.8384-.3475-2.225.663-3.3789 1.0136-.3092.0957-.679-.0286-1.0105.0128-2.1994.2933-4.4053.526-6.5824.9244-2.8147.5164-5.60706 1.173-8.41217 1.7436-.31555.0638-.76184.0893-.97861-.0797-1.21127-.9499-2.03686.0415-2.95492.4718v2.3461c2.53097.0765 4.74319.2901 6.91714-.5738 1.0105-.4016 2.13576-.5865 3.22906-.7044 2.8848-.3061 5.7856-.4973 8.6735-.7842 1.8775-.1849 3.7901-.2741 5.6103-.7204 5.4986-1.3452 11.0642-2.1771 16.6999-2.6011.4431-.0319.883-.1211 1.3165-.2072 1.954-.3761 3.8921-.8543 5.8588-1.1252 3.7359-.5228 7.3666-1.8648 11.23-1.4823.2901.0287.5993-.2837.9181-.341 2.9358-.5419 5.8652-1.1253 8.8169-1.5715 3.6148-.5451 7.3029-.7268 10.8634-1.511 4.7942-1.0551 9.6235-1.5906 14.4942-1.9699 1.0933-.0861 2.1899-.3156 3.2482-.6121 1.5077-.4239 2.9767-.8032 4.5867-.6917 2.136.1467 4.122-.5068 6.114-1.51727-.038-.84472-.073-1.59062-.115-2.54373-.972.08608-1.724.1052-2.46.2327-2.168.36976-4.317 1.0041-6.5 1.13161zm-31.0411 5.20539c-.0287.0032-.0829-.0414-.1243-.0638.0828-.0223.1657-.0478.2454-.0701.051.0255.0925.0478.1339.0701-.0829.0224-.1658.051-.255.0638zm11.4946-1.1571c-.0415-.0446-.0989-.0861-.118-.1339-.0096-.0159.0765-.0414.118-.0669.0414.0446.0988.0892.1179.1338.0064.016-.0765.0447-.1179.067zm1.8424.2295c-.2423-.0542-.3443-.0765-.4495-.0988.2391-.1084.4654-.2263.7173-.3252.0478-.0159.2008.0415.3028.0638-.1977.1243-.3985.2518-.5706.3602zm9.2345-2.43534c-.0924-.1275-.188-.25502-.3379-.45584.1913-.051.3762-.13706.4686-.11475.1658.03826.4176.17533.3857.21039-.1179.13388-.3347.24225-.5164.3602zm16.3236 34.07254c-4.66 3.6689-9.3682 7.2709-14.0444 10.9176-2.2027 1.7181-4.689 3.2099-6.4677 5.2946-1.9986 2.3397-4.5201 3.8283-6.8693 5.6293-1.868 1.4281-3.5861 3.0634-5.5051 4.4117-2.6361 1.8552-4.5551 4.6157-7.6439 5.9131-.7873.3283-1.3356 1.1985-2.0177 1.7946-1.0998.9531-2.1835 1.9285-3.3311 2.821-3.0888 2.4003-6.2573 4.7018-9.3047 7.1499-5.2468 4.214-10.4171 8.5173-15.6353 12.7633-.8574.695-1.7946 1.297-2.8688 2.065.7522.689 1.3356 1.225 2.2919 2.101 4.0451-3.146 7.9276-6.1424 11.7846-9.177 3.3406-2.6298 6.6398-5.3202 9.9773-7.9563 2.0082-1.5938 4.0674-3.1239 6.082-4.7113 2.9836-2.3493 5.9704-4.6986 8.9157-7.1021 1.1603-.9499 2.2091-2.056 3.3471-3.0282-.0319-.0159-.0702-.0319-.0925-.051-.0414-.0351.1339-.1371.2996-.2933.0447.0287.0829.051.1212.0765.2932-.239.5929-.4717.9084-.6853 4.6858-3.1972 8.8074-7.0925 13.353-10.465 3.5096-2.6043 6.6876-5.6516 10.0437-8.4663 1.457-1.2177 2.885-2.531 4.517-3.4681 2.455-1.4121 4.673-3.0602 6.659-5.0652.702-.7076 1.6-1.2144 2.366-1.8647 2.215-1.8903 4.408-3.806 6.805-5.8812-.462-.8351-.857-1.5492-1.265-2.2919-2.538.7905-3.813 2.8689-5.703 4.112-2.397 1.5779-4.453 3.6722-6.723 5.4573zm-43.8901 36.9094c-.2487-.137-.4654-.2199-.4399-.255.0669-.0924.2167-.1785.3761-.239.0383-.0128.3411.0924.3411.1434 0 .0956-.1371.1881-.2773.3506zm1.1029-2.244c.0797.0223.1625.0478.2454.0701-.0446.0223-.0956.0669-.1275.0637-.0892-.0127-.1689-.0414-.255-.0637.0415-.0223.0861-.0415.1371-.0701zm-.1211 1.5587c-.1212.0032-.2487-.0542-.5579-.1275.4877-.1148.8001-.1913 1.1093-.2646.067.0829.204.169.1817.2455-.0701.2422-.4654.137-.7331.1466zm9.0305-7.9786c-.0446-.0446-.0893-.0861-.1339-.1275.051-.0287.0925-.0478.1339-.0701.0446.0414.0988.086.1211.1338.0064.016-.0765.0415-.1211.0638zm1.9126.3793c-.4176.1052-.8894.1562-1.3452.2104-.0956.0127-.2295-.0542-.3219-.0797.1785-.4176.8064-.7459 1.3579-.6981.2709.0191.51.1498.7618.2295-.1498.1148-.2454.2837-.4526.3379zm150.7582-31.006c3.912 3.0761 8.467 5.317 12.642 8.0679 3.332 2.1931 6.471 4.6762 9.78 6.9076 1.929 1.3005 4.265 2.0783 5.986 3.586 2.449 2.1421 5.572 3.2642 8.116 5.2182.045-.0383.086-.0797.131-.1212.041.0224.124.051.118.067-.019.0446-.077.0892-.118.1339-.026-.016-.054-.0287-.08-.0415.128.0988.252.2008.376.306.039-.0159.08-.0318.118-.0478.023.0415.086.1116.064.1211-.022.0064-.048.0128-.073.016.102.0861.2.1753.299.2646.915 0 .937.0127.906.5355-.01.1115.073.2646-.01.3634.013.0127.026.0255.038.0414 2.978 1.087 5.324 3.1908 7.928 4.8898 3.258 2.123 6.64 4.0642 9.862 6.2382 4.619 3.1111 9.111 6.4039 13.714 9.5374 2.575 1.7532 5.266 3.3406 7.949 5.0364.746-.6471 1.776-1.2495 1.591-2.6138-2.952-2.0082-5.878-4.0196-8.826-5.9991-3.051-2.0465-6.044-4.1982-9.206-6.0565-3.146-1.852-5.763-4.5966-9.407-5.6039-2.26-3.0888-5.996-4.0451-8.935-6.1553-2.894-2.0847-6.005-3.8761-8.823-6.0501-2.907-2.2441-6.257-3.7709-9.114-6.1362-2.805-2.3237-6.091-4.0801-9.221-5.9927-1.486-.9085-2.879-1.9636-4.3-2.9677-.128.0287-.278.0606-.472.1052-.545.1275-.724-.0223-1.087-.0574-.3-.0318-.651.1212-.995.1467-.07.0064-.312-.255-.277-.271.264-.1211.583-.2104.886-.3092.37.3794 1.116-.2741 1.482.1435.003.0032.054 0 .109-.0064-1.448-1.0041-2.933-1.9476-4.591-2.6139-2.374-2.9389-6.161-3.8028-8.979-6.1712-2.751-2.3142-6.06-3.9622-9.337-6.0373-.618.9945-1.058 1.6958-1.59 2.5469 1.444 1.0359 2.493 1.6894 3.43 2.4768 3.041 2.5596 6.764 4.0291 9.916 6.5027zm41.51 26.6677c-.042-.0447-.099-.0861-.118-.1339-.007-.016.076-.0415.118-.0638.041.0415.098.0861.118.1307.009.0191-.077.0446-.118.067zm.825-.3602c.032-.0032.083.0382.128.0605-.086.0223-.166.0542-.255.0638-.032.0032-.083-.0415-.128-.0638.086-.0223.166-.051.255-.0605zm-1.788-.9021c.58.1275 1.026.2135 1.434.3283.083.0255.118.2199.042.2518-.367.1594-.775.2933-1.183.424-.035.0095-.271-.0829-.268-.1244.013-.2072-.028-.3857-.376-.5259-.035-.016.207-.2136.351-.3538zm-.94.2677c.041.0446.098.0861.118.1339.006.0159-.077.0414-.118.0637-.045-.0446-.099-.086-.122-.1338-.006-.016.077-.0415.122-.0638zm-1.811-1.8137c.041.0446.099.086.118.1338.01.016-.077.0415-.118.0638-.041-.0414-.099-.0861-.118-.1339-.009-.0159.077-.0414.118-.0637zm-1.199-.5674c.08.0223.163.0446.246.0701-.042.0191-.093.0637-.124.0606-.09-.0096-.173-.0415-.255-.0606.041-.0223.082-.0446.133-.0701zm-251.1682-5.7505v-.051l.0605.0319c-.0191.0063-.0382.0127-.0605.0191zm87.9372-36.3485c-5.279 1.9508-10.5418 3.9622-15.8778 5.7377-2.1868.73-4.0005 2.1453-6.4486 2.5215-2.5023.3857-4.8197 1.9859-7.3539 3.1143-.2677 0-.8223-.1339-1.2559.035-.4941.1913-.8415.8607-1.3292.9627-3.9081.816-7.5515 2.3716-11.2141 3.8889-3.7773 1.5683-7.5451 3.1749-11.3862 4.5742-1.4312.5196-2.7923 1.2751-4.2268 1.6544-3.6402.969-7.1785 2.158-10.5765 3.7582.0064.0032.0096.0064.016.0096-.0574.0287-.1148.0574-.169.086-.0064-.0031-.0127-.0063-.0191-.0127-.2518.1211-.5037.2391-.7555.3634-.4941.2454-.9913.51-1.5141.6789-2.3015.7523-4.5838 1.5747-6.9267 2.174-2.5533.6503-4.5073 2.6457-7.3283 2.8274-1.5269.0957-2.99 1.2528-4.70818 2.0337.41438.9499.74588 1.7118 1.13478 2.6011.6153-.2072 1.2145-.4016 1.8074-.5961-.0414-.0159-.0829-.035-.1211-.051.1052-.0223.2104-.0446.3156-.0637-.2965-.3188-.169-.561.3347-.5961.306-.0191.6343.0255.9308-.0096.2836-.035.4335.0032.5291.067 1.0136-.3347 2.005-.6694 2.9868-1.0296 1.4535-.5292 2.8274-1.2687 4.2778-1.817 3.5095-1.326 7.0574-2.5564 10.5638-3.8921 2.5756-.9817 5.1352-2.005 7.6981-3.0154-.0319-.0096-.0606-.0192-.0925-.0287.271-.1052.4144-.1977.5897-.22.0287-.0032.0606.0064.0925.016 1.3483-.5292 2.6967-1.052 4.0514-1.562 1.7501-.6534 3.6276-.9722 5.368-1.6384.4941-.1913.985-.3857 1.479-.5802-.1593-.0892-.306-.1562-.3187-.2263-.0478-.2614.3761-.2104.6407-.1881.1403.0096.2614.0765.3857.1371 4.4149-1.7277 8.7978-3.5319 13.2223-5.2309 5.352-2.0528 10.755-3.9654 16.107-6.0086 2.786-1.0647 5.4413-2.5246 8.2847-3.3789 7.9148-2.378 15.5743-5.3935 23.1863-8.597-.315-1.0392-.602-1.9732-.87-2.853-3.876 1.4695-7.682 2.9422-11.51 4.3543zm-71.0365 27.7578c-.153.1339-.3411.2614-.5227.3857-.0797.0542-.2487.1435-.2678.1371-.153-.0574-.3985-.1371-.3889-.204.0191-.1339.1371-.2805.2901-.3921.1179-.086.3506-.1275.4207-.153.2933.0096.4176.0128.5419.016-.0223.0733-.0095.153-.0733.2103zm1.766-1.2144h.1689c.0574.0382.118.0797.1753.1179-.0796.0128-.2135.0446-.2295.0319-.0605-.0415-.0797-.0988-.1147-.1498zm-.306.459c-.0064-.0064.0988-.0638.1243-.0574.2136.0383.494.0574.6152.1403.153.102.1817.2582.2422.392.0032.0064-.1976.0415-.4303.0861-.1817-.1817-.3729-.3698-.5514-.561zm.8766 1.1316c-.0415-.0415-.0989-.0861-.118-.1307-.0064-.0159.0765-.0446.118-.0669.0446.0414.0924.086.1338.1275-.0478.0286-.0924.051-.1338.0701zm1.1411-1.393c-.0446-.0414-.0892-.0861-.1339-.1275.051-.0255.0925-.0478.1339-.0701.0446.0446.0988.086.1212.1338.0063.016-.0766.0415-.1212.0638zm0-.5961c-.0446-.0414-.0892-.0861-.1339-.1275.051-.0255.0925-.0478.1339-.0701.0446.0446.0988.086.1212.1339.0063.0127-.0766.0414-.1212.0637zm4.9536.5961c-.0415-.0446-.0988-.0861-.1179-.1339-.0064-.0159.0764-.0414.1179-.0637.0446.0414.0924.086.1339.1275-.0478.0255-.0925.0478-.1339.0701zm1.087-.6248c-.051-.0255-.0925-.0478-.1339-.0701.0829-.0223.1657-.051.255-.0638.0319-.0031.0829.0415.1243.0638-.0829.0223-.1657.0478-.2454.0701zm8.7978-4.7878c-.1849-.1562-.3666-.3092-.5355-.4654-.0032-.0032.1785-.0765.2837-.086.1052-.0128.3124.0063.3251.0318.0701.1498.1052.3029.1243.4559.0032.0223-.153.0478-.1976.0637zm2.6872.4367c-.0446-.0414-.0988-.086-.1212-.1339-.0063-.0159.0766-.0414.1212-.0637.0446.0414.0892.086.1339.1275-.051.0255-.0925.0478-.1339.0701zm172.6672-34.41674c.249-.92443.465-1.7277.647-2.40348 2.33.34746 4.609.65665 6.879 1.0296 3.038.50046 6.066 1.04555 9.094 1.58744.539.09562 1.065.37298 1.597.36978 2.018-.0128 3.991.1147 5.961.6853 3.615 1.0488 7.539.5037 11.067 2.072 3.634-.459 6.94 1.2814 10.523 1.5364 4.584.3283 9.113 1.6831 13.672 2.3493 5.042.7363 9.999 1.9795 15.122 2.4035 3.318.2709 6.767.4813 10.037 1.7149 1.699.6407 3.72.2072 5.582.7905 3.05.9595 6.289.934 9.416 1.8552 2.467.7268 5.218.832 7.81 1.4313.229.051.535-.2359 1.32-.6057-.329 1.4727-.514 2.3142-.753 3.4044-1.036-.0861-1.896-.0956-2.732-.2359-1.447-.2454-2.786-1.444-4.357-.4367-2.824-.5132-5.7-.8543-8.46-1.6034-1.83-.494-3.707-.7044-5.489-1.173-3.016-.7937-6.264-.0956-9.126-1.6161-.466-.2455-1.074-.2869-1.623-.2997-3.889-.102-7.605-1.4599-11.415-1.7436-3.576-.2646-6.863-1.6894-10.493-1.7564-3.491-.0637-6.959-1.122-10.446-1.7022-2.078-.3442-4.182-.5419-6.251-.9308-2.929-.5482-5.824-1.2718-8.753-1.8073-2.184-.3985-4.39-.7236-6.599-.8862-2.451-.1817-4.813-.6566-7.204-1.2081-2.48-.5706-5.071-.73-7.624-.8925-2.586-.1658-4.954-.95-7.402-1.92854zm27.627 117.90694c-.204.102-.446.204-.746.309-.293.102-.615.182-.912.284-.401.134-1.039.15-1.469.15-.638-.003-.507-.211-.513-.596.006-.153.252-.434.867-.616.124-.038.28-.143.261-.207-.153-.554.845-.577 1.374-.765.061-.022.131-.032.204-.041-2.081-3.213-4.3-6.337-6.398-9.541-1.29-1.97-2.566-3.949-3.837-5.929-.08.045-.163.093-.224.134-.082-.089-.156-.182-.251-.268-.115-.105-.294-.194-.357-.306-.032-.054.13-.137.299-.296.029.019.058.035.09.051-.048-.07-.093-.144-.141-.217-.025.026-.051.048-.076.073-.042-.022-.128-.051-.118-.066.019-.045.073-.09.115-.131-1.323-2.063-2.646-4.128-3.972-6.191-3.727-5.7882-7.325-11.6503-11.128-17.3944-2.939-4.4403-5.716-8.9891-8.505-13.5251-.083-.0159-.162-.0255-.239-.0446-.134-.0319-.217-.1211-.465-.2678.194 0 .357-.0063.503-.0095-.672-1.0966-1.354-2.1899-2.033-3.2833-.067.051-.137.0989-.204.1467-.22-.0702-.316-.102-.415-.1307.166-.0733.329-.1467.494-.22-.312-.5004-.618-1.0041-.934-1.5045-.153-.0319-.293-.1116-.535-.2072.137-.0383.249-.0765.338-.1084-.944-1.5046-1.897-3.0187-3.009-4.3926-2.522-3.1206-3.982-6.9681-6.847-9.8529-.427-.4303-.574-1.1954-.724-1.8361-.347-1.4886-1.154-2.6489-2.34-3.5701-.156-.1243-.411-.1211-.733-.2104-.354.3347-.749.7077-1.342 1.2687.886 2.0146 1.342 4.4117 2.738 5.9672 3.469 3.8507 5.072 8.9509 8.824 12.5497.8 2.8657 3.038 4.8739 4.415 7.3985 1.271 2.3397 2.582 4.6603 3.984 6.9235 1.626 2.6266 3.347 5.1926 5.068 7.7587 1.18 1.7563 2.426 3.4649 3.647 5.1926.708 1.0009 1.479 1.9636 2.126 3.0059 2.754 4.4401 5.534 8.8711 8.192 13.3721 2.716 4.597 6.191 8.696 8.699 13.423.667 1.259 1.126 2.649 1.907 3.832 1.654 2.505 3.455 4.915 5.208 7.357.329.455.988.851 1.023 1.313.141 1.839 1.626 2.576 2.809 3.902.723-.415 1.409-.807 2.17-1.24-1.134-1.833-2.145-3.421-3.111-5.037-1.275-2.126-2.476-4.297-3.777-6.407zm-2.741-1.431c.079.022.162.048.245.07-.045.022-.096.067-.127.064-.09-.01-.173-.042-.255-.064.044-.022.086-.045.137-.07zm-38.054-56.673c-.249-.1402-.466-.2199-.44-.255.067-.0956.22-.1817.376-.239.038-.016.344.0924.341.1434 0 .0924-.137.1849-.277.3506zm1.119-.4016c-.201-.1403-.392-.2136-.421-.3028-.035-.1148.064-.2391.102-.3602.213.1211.449.2359.625.3729.041.0287-.137.1339-.306.2901zm.8-1.275c-.042-.0447-.099-.0861-.118-.1339-.007-.016.076-.0415.118-.0638.041.0415.099.0861.118.1307.009.0191-.077.0446-.118.067zm1.82 3.9462c-.175-.0223-.322-.1115-.59-.2167.3-.0893.494-.1785.564-.1594.163.051.268.153.396.2359-.125.051-.274.153-.37.1402zm.848 1.4281c-.045-.0446-.099-.0861-.121-.1339-.007-.0159.076-.0414.121-.0669.044.0446.089.0892.134.1307-.051.0255-.093.0478-.134.0701zm13.927 23.4736c-.255-.0159-.479-.1593-.718-.2486.195-.1275.389-.255.746-.4909.176.2168.306.3092.316.4048.013.1371.137.3666-.344.3347zm.895-.0031c-.041-.0224-.124-.0542-.114-.0606.044-.0446.108-.0829.168-.1211.055.0286.112.0573.169.0892-.073.0319-.146.0638-.223.0925zm.223-.1817c0-.0287 0-.0606 0-.0893.077-.0319.15-.0606.227-.0924.022.0414.086.1115.06.1211-.076.0319-.188.0414-.287.0606zm3.912 7.5545c-.329-.099-.638-.213-1.043-.357.243-.121.437-.229.456-.223.3.124.587.258.851.402.016.009-.245.185-.264.178zm1.444 3.283c-.204-.127-.37-.185-.392-.251-.067-.233.239-.255.57-.233.172.009.335.041.501.064-.211.13-.421.261-.679.42zm3.382 2.99c.009.029-.271.086-.577.176-.064-.227-.141-.392-.137-.561 0-.035.309-.115.44-.099.551.073.226.315.274.484zm6.69 10.057c-.041-.044-.098-.086-.121-.134-.006-.016.08-.041.121-.063.045.041.093.086.134.127-.051.026-.092.048-.134.07zm.38.6c-.045-.045-.089-.086-.134-.128.051-.029.092-.051.134-.073.044.044.099.089.121.134.006.016-.077.044-.121.067zm.762.197c-.042-.044-.099-.086-.118-.134-.007-.016.076-.041.118-.067.044.045.098.09.121.134.006.019-.077.045-.121.067zm.573 5.276c.083-.023.166-.051.255-.064.032-.003.083.041.125.064-.083.022-.166.048-.246.07-.051-.026-.092-.048-.134-.07zm-212.2028-59.2582c2.6458-1.4121 5.2245-2.9645 7.9117-4.3001 2.77-1.377 5.7409-2.3779 8.4281-3.8889 2.6074-1.4631 5.4189-2.4608 8.0105-3.9144 2.6935-1.5077 5.2819-3.2418 8.0742-4.5328 2.6936-1.2431 5.419-2.3492 8.001-3.8729 2.6552-1.5683 5.6548-2.5374 8.428-3.9208 2.6649-1.3324 5.2086-2.9039 7.8511-4.2842 2.7446-1.4344 5.4732-2.9358 8.3325-4.1024 2.7887-1.138 5.4027-2.531 8.0357-3.9718 2.643-1.4472 5.26-2.9518 8.148-4.0738-.469-.9914-.797-1.6831-1.32-2.786-1.278.6375-2.26 1.1252-3.245 1.6098-3.076 1.5205-6.158 3.0346-9.231 4.5646-3.4683 1.7245-6.9237 3.4777-10.3982 5.1895-3.3693 1.6544-6.6398 3.5064-9.9645 5.2373-7.6471 3.9845-15.4791 7.6088-23.2187 11.4212-6.2796 3.0984-12.5305 6.2605-18.7942 9.3907-1.5778.7874-3.1844 1.5174-4.74 2.3461-1.4663.781-2.8497 1.7277-4.332 2.48-3.9622 2.0146-7.9626 3.9526-11.9344 5.9513-.7587.3793-1.444.9021-2.3493 1.479.7236.883 1.2751 1.5588 1.8425 2.2473 2.8083-1.3579 5.5146-2.6266 8.1826-3.9654 2.7796-1.3962 5.5369-2.8402 8.2814-4.3033zm56.2552-29.8138c.0797.0924.2231.1849.2231.2773 0 .0893-.1498.1753-.2327.2614-.1753-.0861-.3506-.169-.5259-.255.1912-.102.3634-.1913.5355-.2837zm60.1346 49.864c-.443.6184-1.262 1.291-1.148 1.6862.641 2.1867-.682 4.0196-.889 6.0374-.322 3.0824-.861 6.1424-1.352 9.2054-.398 2.503-1.243 4.999-1.204 7.488.057 3.742-1.342 7.185-1.674 10.857-.312 3.456-1.074 6.965-1.811 10.424-.71 3.35-.819 6.824-1.402 10.207-.698 4.022-1.654 7.997-2.429 12.007-.542 2.799-1.415 5.591-.727 8.467.819.21 1.54.392 2.381.608.258-1.287.523-2.578.775-3.876.446-2.272.88-4.548 1.326-6.824.121-.619.459-1.26.37-1.836-.351-2.222.373-4.352.526-6.516.175-2.515 2.078-4.794 1.3-7.532.925-1.824.934-3.848 1.349-5.786.653-3.054 1.249-6.075 1.271-9.212.007-.867.361-1.728.466-2.601.497-4.074 2.304-7.969 1.479-11.97.57-.768.975-1.307 1.38-1.852-.121-3.385-.153-6.732 1.205-9.9292.249-.5897.124-1.3292.217-1.9922.22-1.5333.446-3.0665.704-4.5934.185-1.0838.466-2.1548.619-3.2418.108-.7778-.163-1.6863.143-2.3461 1.339-2.8976 1.297-6.0756 1.737-9.1007.007-.0318.01-.0605.016-.0892-.051.0191-.095.035-.134.0319-.178-.0224-.322-.1148-.592-.22.302-.0892.497-.1785.564-.1594.079.0255.14.0606.197.102.552-3.7263 1.224-7.4112 1.983-11.0961.465-2.2409.606-4.5519.883-6.7705-.845-.3857-1.403-.6375-2.069-.9403-1.565 3.3215-2.413 6.6685-2.585 10.0569-.115 2.2441-.647 4.3766-.998 6.541-.8 4.9281-2.119 9.7828-1.877 14.7651zm4.294-13.0661c.041.0223.086.0446.133.0701-.041.0415-.089.0861-.133.1275-.042-.0191-.125-.0478-.118-.0637.019-.0478.076-.0893.118-.1339zm-39.065-44.5948c-.022.0892-.204.1689-.392.3124-.038-.0319-.076-.0606-.111-.0861-1.84 1.1794-3.58 2.2951-5.269 3.3821.025.0255.057.0541.066.0828.077.1849-.035.3411-.459.2869-.041-.0032-.079-.0191-.118-.0414-.745.4781-1.488.9563-2.228 1.4344-3.171 2.0497-6.235 4.3033-9.537 6.1202-4.2619 2.3461-8.3133 5.0269-12.2947 7.7651-3.5478 2.4449-7.2965 4.5551-10.8347 7-2.0082 1.3898-4.3224 2.2951-6.0756 4.128-.8925.9308-2.2218 1.444-3.347 2.1644-1.4886.9499-3.0442 1.7882-4.5934 2.6425.067.0861.0765.1881-.0159.3156-.5802.3251.0669.6598-.0128.9945-.0287.1084-.137.2136-.2072.3188-.1785-.0924-.5132-.1881-.5036-.2741.0382-.2742-.2487-.4782-.4558-.6918-1.9381 1.0966-3.8316 2.2664-5.521 3.7646-.8989.7969-2.1038 1.24-3.1303 1.8999-2.617 1.683-5.2085 3.4012-7.816 5.1001-2.5118 1.6385-4.9791 3.3502-7.5547 4.8835-2.3046 1.3707-4.638 2.6521-6.643 4.485-.7809.7172-1.938 1.02-2.9166 1.5237-.4782.2454-.9436.5259-1.4281.7969.5515.8383 1.0296 1.5651 1.5396 2.3365 2.2027-.9467 4.4021-1.5396 5.8557-3.4108.1785-.2295.5833-.2741.8734-.4271 1.4599-.7714 3.0378-1.3834 4.3543-2.3493 3.3661-2.4608 6.8629-4.724 10.347-7.0032-.0064-.0032-.0096-.0064-.0159-.0064.0127-.0032.0223-.0063.035-.0063 1.903-1.2464 3.7997-2.496 5.6676-3.7901 3.1526-2.1804 6.6239-3.7869 9.7669-5.9991-.1721-.0957-.3411-.1817-.3124-.204.1594-.1403.3985-.2582.6088-.3826.0797.0574.1785.1148.2678.1754.3156-.2359.6343-.4654.9435-.7173 3.465-2.7955 7.6153-4.7336 11.3926-7.1594 9.1517-5.8716 18.2523-11.8228 27.3945-17.7136 3.073-1.9763 6.111-4.0514 9.349-5.7218 2.184-1.1252 3.79-2.7381 5.384-4.4626.124-.1339.07-.424.134-.8989-.704-.3061-1.473-.6407-1.922-.8352-.089.0574-.175.1148-.268.1721.01.0319.013.0638.003.0957zm-73.8505 49.2583c.0446-.0255.1052-.0669.1211-.0638.0829.0256.153.0574.2295.0893-.0574.0287-.1148.0606-.1689.0893-.0606-.0383-.1212-.0765-.1817-.1148zm1.071.4973c-.2901-.0478-.4845-.2487-.7204-.3825.2582-.0702.5164-.1403.9212-.2519.0861.1244.1881.2232.2136.322.0351.1626.0319.3857-.4144.3124zm16.2314-13.3211c-.0414-.0223-.1275-.0478-.1212-.0669.0223-.0447.0798-.0893.1212-.1307.0414.0223.0828.0414.1338.0701-.0446.0414-.0892.0829-.1338.1275zm54.4061-31.4873c-.032.0031-.083-.0415-.124-.0606.083-.0255.166-.0478.245-.0733.051.0287.093.051.134.0733-.083.0223-.166.051-.255.0606zm2.286-4.3033c.089.0095.172.0414.258.0605-.045.0223-.086.0447-.137.0702-.08-.0223-.163-.0447-.246-.0702.042-.0191.093-.0637.125-.0605zm-112.05157 9.4608c.13388.7364.16894 1.2783.34427 1.7692.16256.4526.47494.8542.80011 1.4153 2.73815-.8671 5.35839-1.699 7.98179-2.5183.3156-.0988.6567-.1243.9882-.1657 5.8492-.7268 11.3925-2.6521 17.0059-4.3161.9946-.2964 1.8393-.8351 3.0474-.7331 1.0679.0956 2.209-.6726 3.3183-1.0519.1052-.0351.2263-.0032.3379-.016 5.1767-.6439 10.1016-2.3174 15.0838-3.7263 2.4449-.6917 4.705-1.9476 7.3953-1.8329 1.0232.0415 2.0783-.6662 3.1175-1.0296.832-.2901 1.6448-.7044 2.5023-.8447 6.3402-1.036 12.4253-3.0346 18.5806-4.7719 1.4791-.4176 3.0123-.6439 5.097-1.0774.1116-.0829.7364-.5419.8448-.6216 2.8943-.5546 5.1671-1.0742 7.4654-1.4089 2.525-.3698 4.727-1.75 7.405-1.852 1.826-.0669 3.605-1.3834 5.301-2.1007v-1.4503c-.902-.3028-1.83-.6152-2.579-.8671-2.652.8894-5.1 2.1899-7.657 2.4609-4.9054.5196-9.3393 2.6872-14.1335 3.5032-1.6162.2741-3.1558.9626-4.756 1.3643-1.495.3729-3.0665.4845-4.5296.9403-2.9422.9213-5.964 1.5875-8.9317 2.3684-3.1717.8384-6.2446 2.4067-9.6744 2.1644-.2008-.0127-.424.1307-.6184.2296-3.3566 1.7372-7.118 2.1325-10.6849 3.1366-7.644 2.1516-15.3707 4.0036-23.0561 6.0118-3.9399 1.0296-7.8543 2.1772-11.8006 3.1845-2.6585.6789-5.35519 1.2049-8.19537 1.836zm.82879 1.0806c.08289.0223.16574.0447.24546.0702-.04145.0223-.09244.0637-.12433.0605-.08927-.0095-.17212-.0382-.25501-.0605.04145-.0224.08606-.0447.13388-.0702zm-.06695.8607c-.20081-.1275-.41437-.2072-.43033-.2933-.04779-.2614.37616-.2103.64072-.188.17532.0127.32196.1211.48452.1848-.19445.0829-.39209.169-.69491.2965zm1.96359-1.1252c-.03189.0031-.08289-.0415-.1275-.0638.08606-.0223.16894-.051.25818-.0637.02868-.0032.08288.0414.12432.0637-.08605.0223-.16577.051-.255.0638zm2.62979-.7587c-.15619-.0701-.35382-.1243-.44946-.2104-.04144-.035.13388-.137.29962-.2932.20399.1402.37619.2167.42079.3092.0223.0478-.1753.1275-.27095.1944zm110.88435 12.9577c-.644.6343-1.284 1.2782-1.849 1.9795-2.081 2.5788-4.147 5.164-6.219 7.7523.198-.0032.351-.0223.399.0064.134.0797.21.1881.309.2837-.153.0382-.3.0892-.459.102-.086.0064-.204-.0478-.29-.0893-.051-.0223-.096-.0478-.143-.0733-1.218 1.5237-2.442 3.0442-3.663 4.5647-2.027 2.531-4.058 5.0556-6.092 7.5802-.908 1.1316-1.81 2.2727-2.738 3.3916-2.7029 3.2609-5.9064 6.1202-8.0071 9.8784-.2135.3857-.561.7045-.8511 1.0456-1.3962 1.6384-2.8338 3.2482-4.2363 4.8802.1052.102.2072.2008.0988.2997.1594.1052.3188.2103.4813.3187-.1402.1243-.2231.1977-.306.271-.1785-.0925-.4558-.1754-.5036-.2837-.0383-.0829.2072-.2008.3283-.306-.118 0-.2359 0-.3538 0-1.0615 1.2431-2.107 2.5022-3.0825 3.8124-1.3292 1.7882-2.6839 3.478-4.3638 4.931-.5037.434-.8766 1.02-1.3006 1.543-2.5373 3.124-5.0938 6.232-7.5897 9.388-.9659 1.22-1.7978 2.546-2.6617 3.844-.306.462-.408 1.23-.816 1.434-2.4385 1.224-3.2737 3.908-5.2213 5.575-.816.699-1.3675 1.709-2.1293 2.697.9435.603 1.7372 1.109 2.7062 1.728 1.0934-1.457 1.9477-2.77 2.9836-3.927 1.3452-1.505 2.2537-3.468 3.618-4.756 3.5287-3.325 6.133-7.351 9.2441-10.975 2.26-2.633 4.2427-5.537 6.7036-7.96 3.1908-3.1363 5.7919-6.7607 8.4695-10.2543 2.311-3.0155 4.6252-5.9991 7.1534-8.8361 1.565-1.7564 3.232-3.4617 4.539-5.403 3.372-5.011 7.468-9.4067 11.389-13.9586 1.897-2.1995 3.672-4.5009 5.515-6.745 2.206-2.684 4.459-5.3297 6.62-8.0488.893-1.1252 1.626-2.3843 2.366-3.6179.124-.2104-.077-.6152-.15-1.0774-.705-.051-1.361-.102-2.308-.1754-1.046 1.2241-2.133 2.2441-2.907 3.4618-1.336 2.107-2.917 3.9782-4.683 5.7186zm-59.621 73.6981c.0669-.093.2168-.179.3761-.239.0383-.013.3411.095.3411.143-.0032.096-.1371.188-.2773.351-.2487-.141-.4654-.22-.4399-.255zm.5164.931c-.0415-.026-.1243-.058-.1148-.064.0446-.045.1084-.08.169-.121.0542.032.1115.06.1689.089-.0733.032-.1466.064-.2231.096zm.2231-.185c0-.029 0-.058 0-.09.0765-.028.1498-.06.2263-.089.0223.042.0861.112.0638.118-.0797.032-.1913.045-.2901.061zm14.797-17.214c-.169-.156-.3443-.258-.3029-.293.0957-.086.2933-.14.4495-.207.0988.064.2932.143.2709.191-.0414.093-.2135.169-.4175.309zm5.234-7.876c-.0892 0-.1785-.134-.3538-.274.3921-.115.7268-.214 1.0615-.313.1785.176.357.351.5355.529-.4144.023-.8288.058-1.2432.058zm38.8895-45.411c-.045-.0223-.128-.0542-.118-.0638.044-.0414.108-.0797.169-.1179.054.0287.111.0574.168.0892-.073.0287-.146.0606-.219.0925zm.219-.1817c0-.0319 0-.0606 0-.0893.077-.0318.15-.0605.227-.0924.022.0414.086.1116.06.1211-.076.0319-.188.0415-.287.0606zm80.864-11.3575c.054.0861.108.1657.159.2518.042.0191.08.0414.115.0574-.022.0064-.044.0096-.064.0159 2.053 3.261 4.199 5.8143 6.373 8.3771 4.191 4.9344 8.032 10.1653 12.052 15.2464 1.077 1.3611 2.454 2.5087 3.395 3.9495 2.945 4.5041 6.292 8.6799 9.859 12.6899.746.8415 1.575 1.6129 2.33 2.4449.443-.1052.654-.1466.813-.2104.277-.1084.548-.3442.867-.1116.144.1052.026.3634-.127.5069-.118.1084-.491.2008-.734.1912-.188-.0063-.373-.0765-.637-.1721.092.1052.188.2072.277.3124 1.785 2.1516 3.529 4.3352 5.228 6.5506 1.033 1.3451 2.203 2.6425 3.009 4.0769.485.8634.963 1.6704 1.613 2.4194.01-.013.019-.022.032-.032.041.022.124.048.118.064-.01.029-.035.054-.061.076.925 1.068 1.779 2.19 2.678 3.28 1.358 1.645 2.61 3.392 4.115 4.89 2.56 2.547 4.616 5.451 6.643 8.412 1.259 1.84 2.824 3.469 4.243 5.196.848 1.033 1.699 2.059 2.515 3.115.953 1.236 1.865 2.502 2.834 3.799.927-.554 1.673-1.001 2.594-1.555-1.335-1.655-2.754-3.073-3.767-4.74-3.035-4.995-7.479-8.884-10.622-13.79-.899-1.406-1.906-2.862-3.194-3.876-2.196-1.728-3.194-4.339-5.208-6.27-2.853-2.7416-4.89-6.3308-7.306-9.5344-1.218-1.6097-2.48-3.1876-3.768-4.7432-1.24-1.4982-2.572-2.923-3.803-4.4308-1.364-1.6767-2.709-3.3661-4.054-5.0619-.236.1498-.587.3156-.625.2837-.163-.1498-.258-.3156-.421-.5323.23-.1021.469-.2646.59-.2455.032.0064.057.0223.086.0287-.16-.204-.322-.4048-.482-.6088-.299.1052-.621.1817-.809.1657-.501-.0382-.803-.2932-.772-.6471.013-.1466.389-.4048.746-.5737-.248-.3092-.494-.6216-.739-.9308-2.987-3.771-5.926-7.577-8.954-11.3129-2.311-2.8497-4.817-5.5465-7.074-8.4345-2.454-3.1398-4.714-6.4326-7.086-9.6393-.178-.2391-.558-.3284-1.099-.6248-.577.5132-1.177 1.0487-1.878 1.6767zm44.429 54.4605c.223-.0828.571-.0765.966-.1211.14.051.37.0988.475.1849.057.0446-.102.1625-.172.2454-.026.0287-.089.0478-.131.0702-.475.2933-.478.2903-.449.9273 0 .064-.172.176-.29.185-.141.013-.424-.051-.44-.102-.115-.335.213-.711-.373-1.0167-.058-.0287.201-.2933.414-.373zm-1.014-.2869c.042.0224.125.051.118.067-.019.0446-.076.0892-.118.1339-.041-.0224-.086-.0447-.137-.0702.045-.0446.093-.086.137-.1307zm-16.02-23.6872c.06.0415.117.0797.175.118-.08.0127-.211.0446-.23.035-.06-.0414-.079-.0988-.114-.153zm-1.728-.6789c-.08.0127-.214.0478-.23.035-.06-.0414-.079-.0988-.114-.1498.054 0 .111 0 .168-.0032.058.0414.118.0797.176.118zm-.536-1.3102c.042.0447.099.0861.118.1339.007.016-.076.0415-.118.0638-.048-.0415-.092-.0861-.137-.1275.051-.0255.093-.0479.137-.0702zm-.038 1.0169c.083.0223.153.0574.226.0892-.054.0287-.111.0574-.169.0893-.06-.0414-.121-.0797-.178-.1179.045-.0224.105-.0638.121-.0606zm-.724.5738c.042.0223.125.051.118.0669-.019.0478-.076.0893-.118.1339-.041-.0223-.086-.0446-.137-.0701.045-.0447.09-.0861.137-.1307zm2.225-27.2733c-2.103-1.6321-4.207-3.2642-6.582-5.1034-.045-.1116-.092-.7906-.459-1.0998-2.037-1.7404-4.115-3.4362-6.257-5.0523-1.138-.8575-2.385-1.6831-4.071-.9659-.051.4208-.102.8479-.178 1.4631 2.116 1.8425 4.245 3.7582 6.448 5.5847 1.183.9786 2.761 1.5907 3.698 2.7446 2.426 2.9932 5.639 5.0779 8.594 7.3538 3.551 2.7318 6.958 5.6039 10.334 8.5301 1.485 1.2878 2.923 2.6362 4.466 3.8539 3.949 3.1174 8.001 6.1042 11.902 9.2791 3.653 2.9741 7.023 6.3083 10.768 9.1549 5.786 4.3957 11.354 9.0369 16.85 13.7769.038-.051.169-.1371.293-.255.204.1402.376.2167.418.3092.025.0478-.172.1275-.271.1912-.099-.0414-.207-.0828-.303-.1275.561.4877 1.128.9691 1.689 1.4568 2.703 2.3491 5.521 4.5681 8.301 6.8311.156.124.414.124.752.217.561-.587 1.164-1.218 1.983-2.079-1.023-.962-1.651-2.008-2.525-2.288-2.413-.778-3.71-2.8118-5.476-4.3164-1.281-1.087-2.585-2.1453-3.892-3.2004-1.036-.8351-2.286-1.4886-3.102-2.4959-2.123-2.6202-5.655-3.5956-7.465-6.5537-.144-.2359-.593-.2773-.883-.4431-.854-.4877-1.817-.8001-2.193-1.9285-.15-.4526-.736-.8479-1.215-1.0934-4.242-2.1867-7.306-5.8684-11.022-8.7213-3.261-2.5055-6.293-5.3138-9.48-7.9181-3.115-2.5437-6.331-4.9631-9.452-7.5004-2.779-2.2664-5.476-4.6317-8.233-6.9267-1.116-.9276-2.289-1.7883-3.437-2.6776zm2.378 3.5956c-.022.0287-.079.051-.127.0701-.217.0861-.434.1722-.65.2582-.039-.1211-.166-.2614-.086-.3538.089-.1084.366-.1689.474-.2136.271.0191.389.0287.504.0383-.038.0669-.067.137-.115.2008zm50.527 40.7984c.099.0956.243.1912.284.2932.073.1786-.019.3443-.449.2933-.16-.0191-.262-.1626-.479-.3092.271-.1147.456-.1976.644-.2773zm-25.051-18.6412c.14.1657.277.2582.277.3506 0 .051-.303.1594-.341.1435-.159-.0574-.309-.1467-.376-.2391-.026-.0319.191-.1148.44-.255zm-4.08-5.8653c.044.0447.092.0861.134.1275-.048.0287-.093.0479-.134.0702-.042-.0415-.099-.0861-.118-.1339-.01-.0159.076-.0414.118-.0638zm-.839.3029c.115.2167.214.3634.252.5132.01.0382-.166.0924-.258.137-.163-.153-.335-.306-.472-.4622-.013-.0159.198-.0797.478-.188zm-.723-.0797c.083.0223.153.0574.229.086-.057.0287-.114.0606-.172.0893-.057-.0383-.118-.0765-.178-.1148.044-.0255.105-.0669.121-.0605zm-1.553-.3857c.09.0127.173.0414.259.0637-.045.0223-.086.0447-.137.0701-.08-.0223-.163-.0478-.246-.0701.042-.0223.096-.0669.124-.0637zm-6.789-7c.529-.051.65.102.478.4717.029-.0127-.121.0542-.274.1211-.236-.153-.475-.306-.711-.4622.169-.0446.328-.1115.507-.1306zm-2.095-1.393c0-.0989-.009-.1945.004-.2933.003-.0255.083-.0701.111-.0669.093.0095.217.0255.258.0605.147.1275.297.2614.373.4017.042.0765-.044.1817-.13.2582-.039.035-.255.0542-.325.0286-.125-.0446-.224-.1243-.284-.1976-.045-.0542-.007-.1275-.007-.1912zm-29.973 100.8565c0-.351.051-.59-.006-.8-.784-2.901-1.575-5.799-2.362-8.696-.051.006-.102.013-.153.022-.233.042-.469.08-.705.121-.012-.127-.102-.271-.012-.373.067-.076.357-.108.557-.143.058-.01.125-.013.208-.01-.332-1.227-.667-2.454-.998-3.684-.74-2.767-1.387-5.56-2.145-8.32-.791-2.866-1.871-5.668-2.458-8.572-1.141-5.619-2.588-11.153-4.131-16.668-.743-2.649-1.54-5.278-2.152-7.379-.115-1.326.093-2.33-.315-2.888-.711-.982-.855-1.976-1.046-3.1017-.331-1.9476-.959-3.8474-1.53-5.7473-.284-.9467-.647-1.8743-.969-2.8082-.147.0796-.287-.1052-.398-.0925-.198.0191-.373.1148-.536.1913-.172.0828-.335.2135-.529.0318-.131-.1243-.322-.2868-.261-.3984.102-.1817.388-.3379.596-.5037.36.0957.682.1594.95.2455-.083-.2518-.16-.5005-.23-.7523-.134.067-.274.1403-.338.1243-.258-.0573-.465-.1785-.825-.3315.366-.0223.605-.0669.812-.0414.115.0127.214.0605.313.1115-.309-1.122-.485-2.2759-.351-3.5.035-.3092-.086-.6662-.226-.9594-1.447-2.9996-1.02-6.608-3.044-9.429-.166-.2327-.045-.6631-.096-.9946-.236-1.5268-.414-3.0728-.752-4.5774-.338-1.5014-1.106-2.9517-1.196-4.4531-.089-1.4791-1.737-2.5724-.892-4.1854-1.221-1.4535-1.294-3.2609-1.39-4.8101-.861-1.1284-1.629-1.9094-3.398-1.3165.239 1.4568.363 2.7892.685 4.0674.896 3.5925 1.824 7.1786 2.751 10.7615.093.051.156.0828.147.0892-.032.0223-.073.0415-.108.0638.385 1.4854.771 2.9676 1.153 4.4531 1.244 4.8069 2.48 9.6138 3.74 14.4176 1.316 5.0109 2.502 10.0633 4.035 15.0075 1.568 5.062 2.426 10.289 4.032 15.348 1.629 5.139 2.78 10.433 4.103 15.671.813 3.213 1.998 6.317 2.202 9.703.118 1.941.903 3.847 1.425 5.76.581 2.123 1.183 4.246 1.817 6.356.402 1.335.877 2.649 1.384 4.157 1.119-.495 1.9-.839 2.642-1.167zm-26.626-93.5091c-.089-.0127-.172-.0414-.255-.0637.042-.0223.083-.0446.134-.0702.08.0224.163.0479.245.0702-.041.0223-.092.0669-.124.0637zm1.087.2295c-.172-.086-.516-.2072-.484-.2518.111-.1434.357-.2614.522-.3697.246.051.351.0701.453.0924-.163.1785-.328.3538-.491.5291zm1.227-.0159c-.041-.0446-.099-.0861-.118-.1339-.006-.0159.077-.0414.118-.0669.045.0446.099.0892.121.1339.007.0159-.076.0446-.121.0669zm3.905 23.0115c.083-.0224.166-.0479.246-.0702.051.0255.092.0478.133.0702-.082.0223-.165.051-.255.0637-.028.0032-.082-.0414-.124-.0637zm.507 2.2504c-.032.0064-.083-.0382-.128-.0606.083-.0255.166-.0478.246-.0701.051.0255.096.0478.137.0701-.083.0224-.166.051-.255.0606zm-51.968-41.0374c-.07.035-.236.0478-.366.035-.115.1881-.224.3857-.322.5961-.144.3028-.243.628-.338.9563.041-.0191.079-.0414.124-.0669.128.2167.236.3378.258.4622.013.0796-.105.1657-.162.2486-.115-.0829-.23-.169-.341-.2518-.09.2837-.185.5642-.326.8192-2.298 4.1853-5.007 8.1444-6.7 12.6517-.236.6247-.443 1.2909-.829 1.8169-1.711 2.3429-3.06 4.8643-4.102 7.5706-.051.1275-.096.255-.144.3825.153.0893.042.1849-.105.2837-.491 1.3548-.956 2.7637-1.817 3.8379-.822 1.0328-1.501 1.9604-1.982 3.2323-.928 2.4608-2.257 4.7687-3.386 7.1562-.532 1.122-1.147 2.1963-1.785 3.2609.274.118.462.1977.644.2773-.159.0638-.309.1722-.484.1849-.134.0128-.31.0287-.443.0096-1.323 2.1899-2.694 4.3543-3.558 6.7928-.363 1.03-.972 1.97-1.485 2.942-1.916 3.637-3.845 7.265-5.76 10.899-1.033 1.957-2.072 3.908-3.073 5.881-1.202 2.371-2.4515 4.727-3.5034 7.162-.3953.915-.3666 1.958-1.5109 2.417-.322.13-.5515.618-.7077.991-2.1452 5.113-4.5105 10.118-7.5738 14.835.6854.609 1.2559 1.119 1.8042 1.607 2.1421-1.272 3.1175-3.229 3.7264-5.448.204-.743.3538-1.6.8224-2.155 1.9763-2.339 3.2067-5.049 4.2618-7.873.1562-.411.3825-.8.5897-1.192 2.8653-5.394 5.7573-10.774 8.5903-16.184 1.071-2.046 1.942-4.195 3.032-6.232 2.151-4.019 4.396-7.991 6.589-11.9851.43-.781.825-1.5811 1.211-2.3844.905-1.8998 1.721-3.8474 2.706-5.7058 1.926-3.6339 4.377-7.0606 5.808-10.8762 1.536-4.0929 4.087-7.5674 5.884-11.4659.463-1.0041 1.387-1.8233 1.734-2.8497 1.116-3.2896 2.834-6.2478 4.508-9.2632.723-1.3038 1.747-2.8944.841-4.5424-1.186-.2455-1.906.153-2.422.8065.063.0382.127.0765.191.1083.07.0383.006.204-.099.2519zm-37.977 77.807c-.249-.137-.466-.22-.44-.255.067-.093.217-.179.376-.239.038-.013.341.092.341.143 0 .092-.137.188-.277.351zm10.111-19.027c-.233.009-.481-.061-1.179-.163.624-.143.803-.213.984-.217.271-.006.699-.073.648.188-.013.077-.287.185-.453.192zm65.333-41.1939c.01.0223.016.0446.01.0733.344 2.5182.58 5.0492 1.01 7.5483.794 4.5997 1.719 9.209 2.072 13.8884.265 3.5351.711 7.0511 1.451 10.5259.621 2.913 1.138 5.849 1.699 8.775.331 1.734.921 3.465.931 5.202.009 2.385.532 4.635 1.02 6.924.185.861.392 1.734.42 2.607.058 1.677-.044 3.309.59 4.97.539 1.409.781 3.028.746 4.545-.086 3.838 1.696 7.361 1.565 11.243-.086 2.604.807 5.237 1.164 7.867.519 3.829.953 7.67 1.415 11.441 1.428.277 2.528.471 2.939-.3-.128-2.148-.112-3.822-.344-5.46-.619-4.393-1.358-8.766-2.015-13.156-.264-1.753-.28-3.56-.679-5.278-.972-4.214-1.211-8.534-2.008-12.77-.102-.539-.14-1.109-.357-1.603-.905-2.066-1.017-4.256-1.157-6.443-.099-.031-.195-.063-.309-.098.118-.023.213-.045.296-.067-.08-1.193-.175-2.385-.421-3.555-.334-1.597-.261-3.286-.621-4.95-.765-3.557-1.565-7.134-1.508-10.8187.006-.4495.086-.9531-.08-1.3452-1.6-3.7773-1.074-7.9053-1.967-11.8006-.293-1.291-.471-2.6075-.682-3.9144-.401-2.5055-.672-5.0364-1.205-7.5132-1.067-4.995-1.705-10.0378-2.161-15.1157-.105-1.1794-.503-2.3302-.73-3.3406-1.004-.2455-1.718-.4208-2.518-.6184 0 2.0751-.484 4.2459.092 6.0851.667 2.1198 1.046 4.281 1.342 6.4518zm.472 1.7946c.042.0414.099.0861.118.1339.007.0159-.076.0414-.118.0637-.048-.0414-.092-.086-.137-.1275.051-.0287.093-.0478.137-.0701zm19.365-10.0314c1.336 2.1293 1.501 4.8675 3.557 6.576.912 3.7455 3.376 6.7291 4.979 10.1367 2.13 4.52 4.224 9.0592 6.516 13.4995 3.771 7.3156 7.873 14.4655 11.475 21.8635 2.13 4.377 4.007 8.875 6.347 13.162 1.326 2.426 2.244 5.068 3.481 7.545 2.228 4.463 4.542 8.878 6.856 13.296.453.864 1.056 1.648 1.642 2.547.838-.434 1.524-.784 2.404-1.234-.705-1.205-1.333-2.12-1.798-3.111-1.514-3.21-2.789-6.547-4.479-9.655-4.357-8.017-7.787-16.509-12.572-24.306-.411-.669-.765-1.374-1.1-2.091-.2-.035-.328-.188-.522-.312.089-.106.162-.198.236-.287-.402-.886-.785-1.785-1.199-2.665-1.036-2.184-2.021-4.393-3.108-6.5507-1.441-2.8561-2.974-5.6708-4.447-8.511-.564-1.0837-1.09-2.1867-1.603-3.2928-.975-2.1134-1.852-4.2746-2.907-6.3465-1.211-2.378-2.617-4.6603-3.854-7.0256-1.218-2.3333-2.311-4.7272-3.49-7.0797-1.301-2.5883-2.659-5.148-3.956-7.7395-1.24-2.4672-2.397-4.9791-3.666-7.4304-.453-.8702-1.237-1.2941-2.317-.7012-.361.9531-.198 1.8105.302 2.7955 1.154 2.2696 1.884 4.7783 3.223 6.9172zm26.298 48.8727c.166-.003.414-.029.481.013.211.137.354.302.513.459.007.009-.111.063-.117.06-.351-.146-.692-.296-1.04-.449.077-.042.118-.083.163-.083zm-6.372-11.144c.051.0255.092.0478.134.0701-.083.0223-.166.051-.255.0606-.032.0031-.083-.0383-.125-.0606.083-.0255.166-.0478.246-.0701zm-7.469-17.7902c.051-.0669.243-.1434.37-.1434.124 0 .332.0829.36.1466.058.1243.067.2646 0 .3857-.048.0957-.239.169-.366.2518-.128-.0828-.259-.1657-.373-.2518-.029-.0223-.007-.0669-.007-.0988 0-.0956-.047-.204.016-.2901zm-10.768 4.501c1.183 3.0856 2.114 6.27 3.3 9.3524 2.422 6.2858 5.231 12.4188 7.322 18.8298.408 1.255.746 2.54 1.227 3.767.475 1.205.95 2.41 1.425 3.615.162.022.338.054.491.067-.064.115-.102.233-.201.338-.026.029-.061.057-.096.083 2.458 6.235 4.925 12.463 7.386 18.695.118.303.14.644.213.969.641 2.815 1.546 5.534 2.876 8.103.408.784 1.039 1.581 1.083 2.397.102 1.792 1.1 3.111 1.983 4.763.912-.342 1.827-.683 2.477-.925-1.782-4.941-3.465-9.815-5.301-14.631-1.887-4.957-4.246-9.754-5.817-14.803-1.543-4.963-3.937-9.579-5.413-14.542-1.479-4.976-3.519-9.726-5.502-14.5104-1.983-4.7846-3.739-9.6712-5.387-14.5833-1.638-4.8867-3.924-9.5087-5.534-14.4113-.124.0446-.315.0478-.526.0255-.181-.0191-.328-.1211-.491-.1849.22-.137.45-.2773.797-.494-1.552-4.8229-3.522-9.5087-5.326-14.3093-.759.4463-1.32.781-1.804 1.0647-.482 2.8178.73 5.1703 1.613 7.526 2.993 7.9626 6.164 15.8552 9.205 23.7988zm13.554 34.9842c.08.022.163.045.246.07-.042.022-.093.067-.125.061-.089-.01-.172-.039-.255-.061.042-.022.083-.045.134-.07zm-17.085-52.1783c.041.0415.098.0861.118.1307.006.0191-.077.0446-.118.067-.045-.0447-.093-.0861-.137-.1276.051-.0255.095-.0478.137-.0701zm-3.102-.7682c.08.0223.163.0478.245.0701-.044.0223-.095.067-.127.0638-.089-.0128-.169-.0415-.255-.0638.041-.0223.086-.0446.137-.0701zm43.91-47.4478c.835.2678 1.612.9563 2.435.985 3.382.1307 6.563 1.1794 9.677 2.2377 4.565 1.546 9.614 1.664 13.72 4.5806.159.1116.453.0064.666.0702 3.366.9945 7.163.3283 10.197 2.6298.147.1083.45-.016.667.0286 1.941.424 3.904.7714 5.814 1.3038 4.45 1.24 8.861 2.6202 13.315 3.8506 5.524 1.5269 11.08 2.9422 16.61 4.4404 6.28 1.699 12.547 3.4362 18.823 5.1512.287.0797.599.0797.934.1211.252-.8957.475-1.7022.749-2.684-2.18-.6534-4.271-1.3101-6.378-1.8998-5.626-1.5747-11.262-3.1175-16.895-4.6762-4.991-1.3803-9.977-2.7956-14.981-4.1439-3.618-.9754-7.271-1.8329-10.893-2.7988-3.605-.9595-7.165-2.0464-10.818-2.8465-3.322-.7268-6.522-1.9891-9.809-2.9071-6.266-1.7437-12.546-3.4331-18.835-5.0843-1.489-.3889-3.188-.2295-4.53-.867-2.939-1.3962-6.114-1.8743-9.167-2.7956-1.024-.3092-2.127-.357-3.105-.51-.498.6917-.81 1.1252-1.368 1.8998 2.853.6535 4.986 2.2537 7.781 2.3971 1.817.0957 3.609.9436 5.391 1.5173zm79.47 19.5338c.497-.0128.379.1944.37.3379-.003.0829-.108.1657-.169.2486-.226-.1339-.453-.2646-.743-.4367.265-.0765.402-.1434.542-.1498zm-1.715.3953c.045.0414.099.086.121.1338.007.016-.076.0415-.121.0638-.041-.0446-.099-.0861-.118-.1339-.006-.0159.077-.0414.118-.0637zm-91.501 16.9868c.036-.0223.064-.0446.099-.0701.058.0318.115.0605.169.0892-.057.0255-.118.051-.175.0765.201.2072.402.4144.599.6216.051-.0733.367-.1912.405-.1785.504.1881.991.3921 1.45.6057.16.0765.239.1976.354.2964-.223.0383-.446.0733-.669.1116-.297.0159-.584-.2837-.867-.1403 1.007 1.0424 2.014 2.0879 3.018 3.1303.852.8734 1.986 1.4726 2.831 2.3524 2.225 2.3206 4.367 4.7177 6.535 7.0957.733.8001 1.485 1.5778 2.247 2.3493.076.0478.134.0924.156.1402 0 .0032-.006.0064-.006.0096 3.981 4.01 8.281 7.6981 12.017 11.9536 1.753 1.9986 3.895 3.5988 5.818 5.4062 4.013 3.7773 7.714 7.8861 11.539 11.864 1.641 1.712 3.375 3.354 4.883 5.177 3.513 4.265 7.628 7.915 11.552 11.934.928-.787 1.658-1.408 2.445-2.081-2.078-1.935-3.873-3.5-5.537-5.193-1.415-1.434-2.598-3.095-4.019-4.52-2.892-2.9-5.796-5.785-8.699-8.6701-.386-.0701-.772-.137-1.154-.2104-.083-.0159-.137-.0765-.208-.1179.106-.0255.208-.0638.319-.0765.188-.0223.379-.0446.571-.0669-4.157-4.1344-8.314-8.2656-12.445-12.4222-1.412-1.4217-2.661-3.0028-3.994-4.5041-.095.0159-.191.035-.29.0478-.118.0127-.252.0032-.567.0032-.058-.0032-.303-.016-.545-.0351-.048-.0032-.134-.0606-.128-.0637.051-.0383.134-.0638.182-.102.236-.1945.609-.2519.975-.1881.032.0032.058.0191.086.0287-.366-.408-.733-.8097-1.119-1.1954-2.419-2.4162-5.218-4.4786-7.462-7.0383-2.524-2.8752-5.498-5.2532-8.096-8.0296-2.407-2.5756-4.83-5.1352-7.265-7.6821-.054.0414-.115.0828-.175.1211-.051.035-.166.0414-.252.0605-.038-.0541-.08-.1083-.166-.2327.099-.051.226-.1211.364-.188-.96-1.0041-1.913-2.0082-2.879-3.006-1.087-1.1188-2.445-1.9763-3.532-3.0951-2.818-2.9103-5.524-5.9322-8.345-8.8393-.755-.781-1.763-1.3229-2.668-1.9508-.143-.0989-.373-.0638-.724-.1148-.248.5292-.516 1.0997-.822 1.7532 4.855 5.0588 9.537 9.9486 14.194 14.7842zm59.979 58.6874c.545.045.787.242.771.545-.013.236-.268.226-.596.239-.778.035-.497-.261-.58-.539.092-.057.277-.255.405-.245zm-7.045-9.372c.045.045.089.086.134.128-.051.029-.092.051-.134.073-.044-.044-.099-.089-.121-.134-.006-.016.077-.044.121-.067zm-1.565-.376c.083.026.156.058.23.089-.058.032-.112.061-.169.09-.061-.039-.122-.077-.179-.115.042-.026.105-.067.118-.064zm-1.02-.019c.163.064.443.118.469.194.079.243.331.22.653.173.159-.023.112-.329.437-.096.079.057.076.214-.007.252-.299.134-.65.233-.927.325-.402-.061-.66-.07-.842-.137-.156-.054-.35-.201-.309-.265.108-.162.341-.299.526-.446zm-23.085-24.296c.105-.0223.284.0574.434.0956-.188.0956-.373.1881-.561.2837-.067-.0414-.134-.0861-.278-.1753.125-.0701.239-.1721.405-.204zm-.867-.1913c.026.0415.089.1084.064.1212-.08.0286-.188.0414-.29.0573 0-.0287 0-.0573 0-.086.076-.0319.153-.0638.226-.0925zm-.395.1785c.057.0319.115.0606.169.0893-.073.0319-.147.0637-.22.0956-.045-.0223-.124-.0574-.118-.0637.045-.0447.112-.0797.169-.1212zm-24.398-24.4809c.041.0414.099.0861.118.1339.006.0159-.077.0414-.118.0637-.048-.0414-.093-.086-.137-.1275.051-.0255.092-.0478.137-.0701zm-1.109-.3793c.022.0414.086.1083.063.1211-.079.0287-.191.0414-.287.0574 0-.0287 0-.0574 0-.0861.074-.0319.147-.0637.224-.0924z" fill="url(#a)"/></svg>