<svg width="334" height="166" viewBox="0 0 334 166" fill="none" xmlns="http://www.w3.org/2000/svg">
<path d="M10.5446 4.65393C7.0701 4.92805 3.55096 5.06512 -6.10352e-05 4.8898V8.14755C0.812805 8.14755 1.47263 8.18581 2.12927 8.14119C5.47946 7.9308 8.82327 7.65666 12.1735 7.48453C17.4394 7.21996 22.7054 7.48134 27.9937 6.9267C32.1089 6.49637 36.256 6.37524 40.4094 6.28279C40.6549 5.97998 41.4518 5.69627 42.0574 5.77916C42.6089 5.85565 43.205 5.99272 43.597 6.19992C43.6034 6.20311 43.6066 6.2063 43.613 6.20949C44.6936 6.18398 45.7742 6.15848 46.8548 6.12022C49.3412 6.03735 51.9295 6.46449 54.2947 5.90985C56.5611 5.37752 58.7733 5.40939 60.976 5.50821C63.1563 5.60703 65.2346 4.75275 67.4979 5.31696C68.894 5.6644 70.5388 4.88344 72.0817 4.78143C75.5402 4.55829 79.0211 4.9185 82.4765 4.15347C83.9906 3.81877 85.6322 4.03871 87.2165 4.04509C88.823 4.04828 90.4232 3.9622 92.0362 4.0164C93.4897 4.06421 94.9752 3.98453 96.4542 3.98772C100.875 3.99727 105.297 3.55101 109.798 3.28006C109.316 2.02095 108.927 1.01047 108.542 0H105.823C104.924 0.902084 104.149 0.902084 103.107 0H101.749C101.542 0.210373 101.338 0.599274 101.124 0.605637C98.7525 0.663025 96.3427 0.911652 94.0093 0.608826C91.6919 0.309189 89.4829 2.10701 87.1719 0.755463C86.8499 0.570572 86.2889 0.758652 85.8458 0.822403C84.7556 0.975403 83.6495 1.37704 82.5817 1.29099C78.7023 0.969025 74.8644 2.56921 70.9724 1.46629C70.4815 1.32605 69.879 1.54918 69.3339 1.63524C68.5721 1.75638 67.8166 1.98907 67.0516 2.02095C65.3558 2.08789 63.6249 2.27277 61.9705 2.01457C60.2301 1.74362 58.5884 3.5797 56.8799 2.12296C55.2128 3.10474 53.2524 2.19308 51.6426 2.79236C49.7141 3.50638 48.0023 2.54372 46.1599 2.71585C41.6972 3.13342 37.2027 3.21631 32.7241 3.4745C30.3939 3.60838 28.0064 2.95493 25.7272 3.99727C25.3925 4.15028 24.8666 3.90164 24.4331 3.81877C23.8944 3.71677 23.2154 3.32787 22.8488 3.5255C20.796 4.6348 18.5137 3.54144 16.5469 4.19809C14.5259 4.87387 12.5146 4.50092 10.5446 4.65393ZM90.7611 3.81239C90.8504 3.82196 90.9333 3.85384 91.0161 3.87614C90.9747 3.89845 90.9333 3.92078 90.8822 3.94627C90.8026 3.92395 90.7197 3.89845 90.6368 3.87614C90.6782 3.85384 90.7292 3.8092 90.7611 3.81239ZM42.1339 5.4062C42.1626 5.40302 42.2168 5.44765 42.2583 5.46677C42.1754 5.49226 42.0925 5.51459 42.0128 5.5369C41.9618 5.5114 41.9204 5.48907 41.8789 5.46677C41.9618 5.44765 42.0415 5.41577 42.1339 5.4062ZM233.876 4.68581C237.564 4.88025 241.242 4.61249 244.953 5.30101C248.446 5.95129 252.084 5.84291 255.66 6.02779C260.929 6.30511 266.201 6.48999 271.464 6.84702C272.972 6.94901 274.426 7.63116 275.962 6.86932C276.242 6.72906 276.772 7.19127 277.199 7.21996C281.324 7.52278 285.471 8.14755 289.57 7.92442C291.702 7.80649 293.66 8.4185 295.722 8.34518C296.694 8.31012 297.676 8.70857 298.658 8.7309C301.259 8.79146 303.863 8.68945 306.461 8.76596C309.929 8.86478 313.423 8.62889 316.846 9.46724C318.026 9.75731 319.234 10.0569 320.433 10.0793C324.956 10.1781 329.479 10.1621 333.999 10.1876V7.47179C332.871 7.45584 331.701 7.62479 330.617 7.3889C326.448 6.4868 322.17 6.85657 317.975 6.22542C316.422 5.99272 314.762 6.38799 313.241 6.06604C311.587 5.71222 309.913 6.3848 308.45 5.97998C305.871 5.26595 303.321 5.54646 300.762 5.46358C298.272 5.38071 295.7 5.79509 293.319 5.2787C290.842 4.73999 288.349 5.20219 285.993 4.66667C283.533 4.10565 281.126 4.11203 278.668 4.14709C277.425 4.15984 276.099 4.34473 274.958 3.98772C273.6 3.56694 272.414 4.34792 271.139 4.08653C269.953 3.83789 268.758 3.5255 267.553 3.4745C263.301 3.28644 259.029 3.45857 254.803 2.69991C253.17 2.40665 251.35 1.81375 249.884 2.25046C248.109 2.7796 246.665 2.27914 245.042 2.09427C241.829 1.72131 238.523 2.63297 235.348 1.46629C234.185 2.60747 233.047 1.33879 231.877 1.38023C230.691 1.42487 229.493 0.937149 228.285 0.809647C227.309 0.704453 226.315 0.787338 225.719 0.787338C224.329 1.86476 224.581 2.8306 224.82 3.79326C227.905 4.10565 230.883 4.52641 233.876 4.68581ZM281.588 6.76094C281.681 6.86295 281.811 6.95857 281.856 7.06696C281.98 7.36021 281.601 7.38571 281.199 7.35384C281.011 7.34109 280.836 7.28052 280.383 7.1817C280.951 6.98088 281.269 6.87251 281.588 6.76094ZM250.247 2.78917C250.464 2.77003 250.703 2.82104 250.936 2.84016C250.703 2.95493 250.487 3.07924 250.228 3.16849C250.171 3.19081 249.967 3.09836 249.67 3.0123C249.935 2.9071 250.075 2.8051 250.247 2.78917ZM124.202 160.605C125.726 155.129 127.24 149.697 128.748 144.288C128.55 144.179 128.35 144.068 128.101 143.934C128.324 143.835 128.512 143.724 128.554 143.739C128.665 143.771 128.767 143.813 128.869 143.854C132.254 131.713 135.601 119.708 138.913 107.694C143.739 90.1874 148.489 72.6587 153.251 55.216C152.104 53.9888 150.985 54.1609 149.665 54.7984C148.658 58.461 147.647 62.1204 146.64 65.783C146.701 65.732 146.777 65.6714 146.857 65.5981C147.061 65.7383 147.236 65.8148 147.278 65.9073C147.3 65.9583 147.106 66.0348 147.007 66.1017C146.87 66.0412 146.707 65.987 146.602 65.92C138.03 97.0376 129.459 128.168 120.859 159.397C121.815 159.745 122.739 160.076 124.202 160.605ZM128.464 144.326C128.522 144.355 128.576 144.387 128.633 144.415C128.56 144.447 128.483 144.479 128.41 144.508C128.369 144.485 128.286 144.453 128.295 144.447C128.34 144.402 128.404 144.364 128.464 144.326ZM131.04 130.508C131.183 130.667 131.295 130.734 131.289 130.795C131.276 130.935 131.47 131.139 131.014 131.18C130.871 131.196 130.699 131.123 130.543 131.091C130.68 130.928 130.82 130.766 131.04 130.508ZM126.019 147C126.749 146.921 126.749 146.462 127.336 146.321C127.435 146.296 127.591 146.309 127.696 146.334C127.75 146.347 127.798 146.433 127.766 146.465C127.572 146.666 127.352 146.863 127.218 146.988C127.355 147.157 127.486 147.246 127.473 147.322C127.46 147.389 127.237 147.51 127.173 147.501C126.791 147.437 126.408 147.354 126.061 147.246C125.978 147.22 125.997 147 126.019 147ZM160.704 79.4069C160.006 81.9825 160.337 84.5358 160.159 87.0954C159.99 89.569 159.662 92.0362 159.489 94.5098C159.387 95.9761 159.85 97.6082 159.343 98.8801C158.724 100.426 159.633 101.679 159.435 103.059C159.372 103.496 159.314 103.936 159.244 104.372C159.085 105.354 158.826 106.33 158.772 107.315C158.606 110.212 158.804 113.094 158.272 116.017C157.599 119.721 158.326 123.543 157.567 127.342C156.943 130.482 157.376 133.788 156.939 137.045C156.295 141.811 156.353 146.672 156.117 151.495C155.894 155.974 155.677 160.455 155.476 164.937C155.467 165.122 155.655 165.316 155.798 165.6H158.779C158.779 163.617 158.775 161.928 158.782 160.242C158.785 159.225 158.536 158.106 158.868 157.207C159.767 154.788 159.359 152.324 159.442 149.879C159.467 149.085 159.263 148.224 159.515 147.517C160.771 143.959 160.108 140.22 160.627 136.58C160.78 135.499 160.87 134.409 160.924 133.319C160.79 133.233 160.65 133.144 160.449 133.013C160.662 132.924 160.803 132.831 160.943 132.803C161.102 128.592 160.758 124.327 161.389 120.097C162.033 115.79 161.259 111.376 162.078 107.002C162.543 104.516 162.183 101.905 162.712 99.3295C163.162 97.1555 162.747 94.819 162.859 92.5622C162.967 90.3372 163.346 88.125 163.448 85.9032C163.605 82.569 163.742 79.2379 163.872 75.9037C163.719 76.0152 163.557 76.1204 163.382 76.2224C163.356 76.2384 163.117 76.1969 163.082 76.1555C163.015 76.0726 163.018 75.9706 163.012 75.9483C163.012 75.7794 162.964 75.671 163.028 75.5849C163.079 75.518 163.273 75.4415 163.401 75.4415C163.554 75.4446 163.726 75.5148 163.847 75.5753C163.86 75.5817 163.872 75.5913 163.885 75.6008C164.009 72.4068 164.127 69.2129 164.255 66.0189C164.265 65.7925 164.198 65.5375 164.277 65.3431C165.32 62.742 164.631 60.0197 165.001 57.2975C164.392 56.9118 163.853 56.5707 162.977 56.0129C162.438 57.5844 161.689 58.8849 161.584 60.2365C161.23 64.8139 161.086 69.4073 160.892 73.9975C160.819 75.808 161.166 77.7142 160.704 79.4069ZM163.563 76.2288C163.624 76.2702 163.681 76.3085 163.739 76.3467C163.659 76.3595 163.528 76.3914 163.509 76.3818C163.448 76.3404 163.429 76.283 163.394 76.2288H163.563ZM163.586 75.0334C163.627 75.0781 163.684 75.1227 163.703 75.1673C163.71 75.1833 163.627 75.212 163.586 75.2343C163.538 75.1928 163.493 75.1482 163.448 75.1068C163.499 75.0813 163.541 75.0558 163.586 75.0334ZM162.824 77.0257C162.865 77.0703 162.923 77.1118 162.942 77.1596C162.948 77.1755 162.865 77.201 162.824 77.2265C162.776 77.1819 162.731 77.1373 162.687 77.0958C162.738 77.0703 162.779 77.048 162.824 77.0257ZM161.625 79.0435C161.705 79.069 161.788 79.0913 161.871 79.1136C161.829 79.1359 161.775 79.1805 161.743 79.1774C161.654 79.1678 161.574 79.1359 161.488 79.1136C161.533 79.0945 161.574 79.0722 161.625 79.0435ZM123.393 39.7815C121.273 41.9109 119.185 44.0753 117.011 46.1504C113.916 49.1053 110.712 51.9455 107.646 54.9323C106.208 56.3349 105.077 58.0466 103.649 59.4587C101.953 61.1354 100.005 62.5603 98.3094 64.2402C92.8363 69.6432 87.4046 75.0876 82.0079 80.564C76.64 86.0084 70.9851 91.166 65.7638 96.7571C65.3876 97.1587 64.8745 97.4297 64.4696 97.809C63.7556 98.4816 63.0575 99.1765 62.3849 99.8905C61.9291 100.378 61.588 100.99 61.0907 101.421C58.7765 103.426 56.118 105.077 54.6262 107.904C54.4796 108.178 54.1353 108.366 53.8517 108.548C51.1007 110.311 49.2073 112.95 46.8421 115.067C47.6708 116.017 48.3275 116.766 49.0575 117.601C50.884 115.427 52.9368 113.887 54.674 111.984C56.6376 109.836 59.0251 108.083 61.1099 106.036C62.7866 104.388 64.2082 102.479 65.8881 100.828C68.9355 97.8281 72.1581 95.0039 75.1832 91.9789C78.2083 88.9538 81.0197 85.7152 84.0384 82.6837C84.6759 82.0398 85.3294 81.4119 85.9892 80.7903C85.9064 80.752 85.8267 80.7138 85.7438 80.6755C85.8745 80.65 86.0084 80.6245 86.206 80.5895C88.0708 78.8395 89.9865 77.1405 91.8226 75.3618C94.9529 72.3303 98.0672 69.2798 101.194 66.2388C101.067 66.2101 100.923 66.1687 100.719 66.1209C100.984 65.9902 101.14 65.8754 101.204 65.8882C101.299 65.9073 101.385 65.936 101.465 65.9742C106.671 60.9123 111.882 55.8599 117.069 50.782C118.025 49.848 118.736 48.6718 119.67 47.7155C121.853 45.4842 124.104 43.3198 126.258 41.1905C126.198 40.3298 126.153 39.6731 126.102 38.9272C124.665 38.4491 124.04 39.1344 123.393 39.7815ZM75.0111 91.9757C74.8549 91.9087 74.6573 91.8545 74.5616 91.7685C74.5202 91.7334 74.6955 91.6314 74.8644 91.4752C75.0653 91.6155 75.2406 91.692 75.282 91.7812C75.3044 91.8322 75.1067 91.9119 75.0111 91.9757ZM84.8417 80.5353C84.6983 80.7106 84.456 80.9114 84.15 80.9879C83.8472 81.0644 83.4168 80.7393 83.3913 80.3727C83.4615 80.3408 83.5985 80.2388 83.7707 80.2197C84.2297 80.1623 84.9628 80.3887 84.8417 80.5353ZM99.5876 65.681C99.5462 65.6587 99.5016 65.6363 99.4506 65.6077C99.4952 65.5662 99.543 65.5248 99.5876 65.4801C99.6291 65.5025 99.7151 65.5311 99.7056 65.5471C99.6865 65.5917 99.6291 65.6363 99.5876 65.681ZM75.859 139.2C76.8089 137.995 77.8417 136.819 78.7215 135.538C81.7497 131.126 84.6791 126.647 87.7361 122.252C89.9993 118.994 91.8927 115.513 94.0731 112.192C94.0603 112.176 94.0476 112.16 94.0412 112.144C94.0348 112.131 94.0954 112.109 94.14 112.09C94.87 110.983 95.6286 109.893 96.4478 108.838C97.9938 106.843 99.3932 104.739 100.748 102.597C100.687 102.638 100.592 102.683 100.531 102.724C100.375 102.657 100.177 102.603 100.082 102.517C100.043 102.482 100.216 102.38 100.385 102.221C100.582 102.358 100.748 102.434 100.796 102.52C102.466 99.8842 104.073 97.197 105.794 94.5959C107.694 91.727 109.304 88.6797 111.573 86.0148C112.561 84.8577 113.884 83.5731 114.225 82.0845C114.633 80.2898 115.937 79.222 116.82 77.8641C121.133 71.2306 125.691 64.7629 130.017 58.139C132.229 54.7474 134.613 51.4291 136.261 47.6868C133.373 46.2747 132.758 46.5967 132.216 49.7652C131.544 50.2943 130.884 50.6067 130.527 51.1263C128.767 53.6923 126.861 56.1946 125.439 58.9423C123.386 62.9141 120.008 65.987 118.2 70.0894C118.111 70.2871 117.881 70.4178 117.767 70.609C116.189 73.2803 114.356 75.7794 112.615 78.3422C110.368 81.6541 108.315 85.0968 106.176 88.4852C106.323 88.4438 106.492 88.396 106.699 88.3418C106.782 88.4661 106.887 88.5617 106.91 88.6637C106.948 88.8231 106.945 89.0494 106.495 88.9729C106.307 88.9442 106.157 88.8454 106.011 88.7434C105.89 88.9347 105.772 89.1259 105.65 89.3172C104.994 90.3436 104.146 91.2489 103.492 92.2785C102.418 93.9679 101.516 95.7689 100.385 97.4137C98.9278 99.5271 97.063 101.392 95.8294 103.617C95.3545 104.468 94.8572 105.303 94.3408 106.129C94.5576 106.126 94.7297 106.196 94.9273 106.307C94.956 106.323 95.0485 106.307 95.1122 106.307C95.1122 106.145 95.074 105.979 95.1186 105.82C95.2684 105.252 96.2406 105.016 97.1523 105.313C97.4934 105.424 97.4966 105.561 97.2256 105.695C97.0567 105.778 96.8431 105.839 96.6518 105.909C96.5371 105.953 96.349 105.988 96.3235 106.043C96.1259 106.492 96.1355 106.492 95.4915 106.505C95.3162 106.632 95.1792 106.83 94.9529 106.862C94.6628 106.906 94.2994 106.82 93.9679 106.789C94.0603 106.738 94.0508 106.693 94.0029 106.651C92.5558 108.934 91.0066 111.146 89.5403 113.416C87.0954 117.203 84.5293 120.903 82.3458 124.872C81.4501 126.498 80.3376 128.005 79.2028 129.504C79.3622 129.462 79.5216 129.427 79.6873 129.408C79.8499 129.392 80.0953 129.478 80.2356 129.555C80.2834 129.58 80.1432 129.778 80.0603 129.784C79.7065 129.81 79.3431 129.8 78.9828 129.79C78.2465 130.756 77.507 131.722 76.8121 132.713C75.6805 134.33 74.6317 136.009 73.583 137.606C74.2173 138.05 74.9378 138.553 75.859 139.2ZM102.409 98.2553C102.683 98.4625 102.947 98.6155 103.081 98.7972C103.123 98.8546 102.814 98.9821 102.664 99.0777C102.559 99.0139 102.434 98.9629 102.355 98.8928C102.211 98.7653 102.064 98.6346 101.988 98.4944C101.966 98.4529 102.182 98.3796 102.409 98.2553ZM94.1049 107.133C94.1846 107.155 94.2675 107.181 94.3504 107.203C94.3058 107.225 94.2548 107.27 94.2229 107.267C94.1336 107.254 94.0539 107.225 93.9679 107.203C94.0125 107.181 94.0539 107.158 94.1049 107.133ZM93.8436 111.72C93.8754 111.717 93.9264 111.761 93.9679 111.78C93.885 111.803 93.8021 111.835 93.7129 111.844C93.681 111.847 93.63 111.803 93.5885 111.78C93.6714 111.758 93.7543 111.729 93.8436 111.72ZM92.2625 112.29C92.5876 112.29 92.9128 112.329 93.3335 112.361C93.171 112.52 93.069 112.67 93.0116 112.667C92.6896 112.641 92.2274 112.807 92.0808 112.526C92.0425 112.456 92.1956 112.29 92.2625 112.29ZM88.7178 116.355C88.8581 116.517 88.992 116.613 88.9952 116.705C88.9952 116.753 88.6892 116.861 88.6541 116.849C88.4947 116.788 88.3417 116.702 88.278 116.61C88.2525 116.575 88.4692 116.492 88.7178 116.355ZM88.7274 117.062C88.823 117.062 88.9219 117.123 89.0175 117.155C88.8581 117.19 88.7051 117.241 88.5425 117.247C88.4533 117.254 88.3513 117.19 88.2015 117.139C88.4023 117.107 88.5648 117.065 88.7274 117.062ZM78.3613 131.407C78.3836 131.33 78.5079 131.215 78.6227 131.199C78.7629 131.183 79.0849 131.25 79.0849 131.285C79.1072 131.56 79.206 131.671 79.6427 131.41C79.6841 131.384 79.7415 131.365 79.7766 131.34C80.0029 131.158 80.2228 130.973 80.446 130.791C80.5097 130.944 80.6022 131.094 80.6309 131.247C80.685 131.55 80.4173 131.741 79.8212 131.786C79.6331 131.799 79.4419 131.786 79.2538 131.786C78.3517 131.789 78.2593 131.757 78.3613 131.407ZM315.24 59.0411C316.266 59.4364 317.471 59.5639 318.306 60.1951C319.514 61.1099 320.703 61.2789 322.192 60.9824C322.418 60.211 322.651 59.4109 322.89 58.5981C322.103 58.2857 321.386 57.9924 320.662 57.7119C318.498 56.8736 316.308 56.1053 314.178 55.1905C312.164 54.3203 310.302 52.9815 308.218 52.4236C304.88 51.5343 301.849 49.9277 298.6 48.8471C295.91 47.9482 293.277 46.8804 290.644 45.8093C290.526 45.8826 290.389 45.9432 290.243 45.9751H290.415C290.472 46.0133 290.533 46.0548 290.59 46.093C290.51 46.1058 290.376 46.1376 290.36 46.1249C290.3 46.0835 290.281 46.0261 290.246 45.9751C289.825 46.0707 289.49 45.9145 289.484 45.6213C289.481 45.5447 289.525 45.4651 289.599 45.3854C288.588 44.9774 287.578 44.5693 286.561 44.1741C285.633 43.8107 284.667 43.5493 283.746 43.1763C279.542 41.4773 275.36 39.7305 271.145 38.0538C270.231 37.6873 269.223 37.5661 268.264 37.2984C267.097 36.9764 265.88 36.7565 264.793 36.2528C261.72 34.8248 258.876 32.8389 255.357 32.5297C255.045 32.5042 254.748 32.2842 254.452 32.1472C251.267 30.6713 248.204 28.8416 244.768 28.0447C242.333 27.4773 240.35 26.0365 238.087 25.1854C234.268 23.751 230.287 22.766 226.656 20.8024C225.126 19.9736 223.414 19.4796 221.648 18.7815C220.972 19.4158 220.402 19.9513 219.611 20.6909C221.677 21.7874 223.089 22.6098 224.562 23.2951C226.047 23.9869 227.574 24.6084 229.12 25.1503C230.21 25.5297 231.3 25.9186 232.387 26.3106C232.435 26.2979 232.483 26.282 232.534 26.2692C232.569 26.3138 232.626 26.3648 232.671 26.4126C234.921 27.2255 237.159 28.0638 239.346 28.9532C243.117 30.4896 246.731 32.4022 250.732 33.3776C251.583 33.5848 252.421 33.9354 253.199 34.3434C254.576 35.067 255.845 36.0201 257.267 36.6194C258.672 37.2155 260.317 37.2856 261.678 37.955C266.638 40.3904 272.064 41.5666 277.074 43.9796C281.081 45.9145 285.487 47.1577 289.653 48.8822C294.865 51.0402 300.111 53.1185 305.352 55.2032C308.638 56.507 311.941 57.7725 315.24 59.0411ZM224.539 22.2815C224.198 22.3197 223.883 22.2719 223.981 22.0456C224.02 21.9627 224.291 21.9085 224.568 21.797C224.794 21.9372 224.95 22.036 225.103 22.1348C224.915 22.1859 224.737 22.2592 224.539 22.2815ZM229.655 23.4673C229.407 23.5374 228.772 23.1517 228.935 23.0338C229.075 22.9349 229.404 22.9062 229.687 22.8361C229.958 22.9062 230.197 22.97 230.436 23.0306C230.181 23.1804 229.974 23.3748 229.655 23.4673ZM279.452 43.7469C279.363 43.7374 279.283 43.7055 279.197 43.6832C279.239 43.6641 279.283 43.6417 279.331 43.6131C279.411 43.6385 279.494 43.6609 279.577 43.6832C279.535 43.7087 279.484 43.7501 279.452 43.7469ZM280.53 45.1782C280.488 45.1335 280.431 45.0921 280.412 45.0443C280.406 45.0284 280.488 44.9997 280.53 44.9774C280.571 45.022 280.629 45.0666 280.651 45.1112C280.657 45.1304 280.571 45.1559 280.53 45.1782ZM280.428 43.9733C280.249 43.9701 280.071 43.8999 279.758 43.8266C280.023 43.6959 280.179 43.5844 280.243 43.5971C280.425 43.6322 280.59 43.7087 280.702 43.7947C280.727 43.8139 280.527 43.9733 280.428 43.9733ZM288.148 45.5766C288.107 45.5543 288.065 45.532 288.014 45.5065C288.059 45.4651 288.104 45.4204 288.148 45.379C288.19 45.4013 288.276 45.4268 288.269 45.4427C288.247 45.4906 288.19 45.532 288.148 45.5766ZM223.564 30.378C230.503 33.8653 237.481 37.2792 244.401 40.8016C245.456 41.3371 246.457 41.9746 247.461 42.6121C247.56 42.5898 247.678 42.5611 247.806 42.5229C247.847 42.6663 247.882 42.7843 247.908 42.8958C248.631 43.3549 249.358 43.8075 250.11 44.2123C252.931 45.7328 255.883 47.0206 258.676 48.5857C262.724 50.849 267.225 52.2483 271.002 55.0247C271.436 55.3435 272.013 55.4583 272.516 55.6846C273.316 56.0448 274.132 56.3827 274.91 56.7939C279.717 59.344 284.451 62.0375 289.331 64.4314C292.872 66.1655 296.65 67.3513 299.844 69.8408C301.661 71.2561 303.784 72.6045 305.973 73.1273C308.45 73.717 310.012 75.6901 312.304 76.3691C313.037 76.5858 313.793 76.7229 314.72 76.9428C315.138 76.0726 315.504 75.3044 315.839 74.6095C311.399 72.222 307.172 69.9364 302.939 67.6764C302.556 67.823 302.174 67.9856 301.74 68.0526C301.38 68.1099 300.924 67.992 300.507 67.9601C300.089 67.925 299.643 67.9346 299.254 67.8581C298.999 67.8103 298.731 67.6573 298.648 67.5202C298.514 67.2971 298.894 67.3098 299.197 67.2556C299.509 67.1983 299.716 66.9879 300.029 66.9241C300.15 66.9018 300.344 67.1791 300.558 66.8636C300.644 66.7424 300.771 66.6819 300.921 66.65C300.137 66.2707 299.353 65.8945 298.575 65.5056C295.014 63.7142 291.463 61.8973 287.89 60.1249C286.707 59.5384 285.27 59.2962 284.301 58.4801C282.462 56.9341 280.3 56.0703 278.228 55.0024C276.265 53.992 274.279 53.0229 272.319 52.0061C270.355 50.986 268.433 49.8767 266.447 48.8949C264.477 47.9195 262.3 47.2852 260.483 46.0898C259.941 45.7328 259.39 45.3917 258.835 45.0602C258.742 45.108 258.64 45.1463 258.532 45.1686C258.465 45.1814 258.309 45.0698 258.044 44.9391C258.207 44.9008 258.334 44.8626 258.443 44.8371C254.63 42.6185 250.56 40.8972 246.767 38.6531C246.387 38.4268 245.995 38.1335 245.581 38.073C243.799 37.8148 242.559 36.7342 241.415 35.389C240.187 35.338 239.155 34.9586 238.036 34.2893C237.669 34.0693 237.29 33.8685 236.92 33.6581C236.914 33.7027 236.904 33.7474 236.904 33.7856C236.901 33.8685 236.786 33.9514 236.722 34.0342C236.502 33.894 236.279 33.7569 235.996 33.5784C236.257 33.5115 236.397 33.4477 236.534 33.4445C233.783 31.9145 230.911 30.5884 228.093 29.1699C226.43 28.3316 224.574 27.7323 223.149 26.5911C221.881 25.5775 220.558 24.9527 218.865 24.4459C218.311 25.1089 217.702 25.8357 217.118 26.5306C218.365 27.2701 219.398 27.8726 220.421 28.4878C221.47 29.1125 222.474 29.8298 223.564 30.378ZM299.209 68.0749C299.378 68.0812 299.541 68.1131 299.707 68.1354C299.659 68.1801 299.617 68.2598 299.563 68.2598C299.397 68.2661 299.228 68.2438 299.021 68.2279C299.107 68.1546 299.165 68.0749 299.209 68.0749ZM277.948 55.5379C278.126 55.5634 278.397 55.6527 278.407 55.7228C278.426 55.844 278.276 55.9747 278.197 56.099C277.989 55.9906 277.785 55.8854 277.317 55.64C277.62 55.5858 277.804 55.5188 277.948 55.5379ZM277.192 56.5293C277.358 56.4974 277.562 56.5229 277.747 56.5229C278.365 56.5293 278.633 56.7078 278.429 57.0011C278.334 57.1413 278.193 57.2752 278.05 57.4059C277.996 57.4537 277.884 57.5079 277.785 57.5143C277.049 57.5716 277.412 57.0871 276.912 57.0202C276.998 56.8544 276.682 56.6186 277.192 56.5293ZM236.62 35.2264C236.719 35.2902 236.917 35.3699 236.891 35.4209C236.85 35.5133 236.675 35.5866 236.474 35.7269C236.305 35.5707 236.129 35.4687 236.171 35.4336C236.267 35.3475 236.464 35.2934 236.62 35.2264ZM168.848 74.0198C169.566 79.9041 169.489 85.8937 169.639 91.8418C169.754 96.4734 169.668 101.108 169.715 105.743C169.722 106.505 169.954 107.264 170.056 108.029C170.378 110.445 171.073 112.893 170.882 115.271C170.783 116.511 170.77 117.713 170.806 118.921C170.825 118.94 170.844 118.959 170.863 118.975C170.841 118.988 170.825 118.994 170.806 119.007C170.825 119.612 170.857 120.221 170.898 120.84C171.086 120.836 171.185 120.836 171.28 120.84C171.532 120.849 171.784 120.862 171.494 121.034C171.373 121.104 171.255 121.209 171.102 121.232C170.949 121.251 170.939 121.334 170.933 121.41C171.338 127.014 171.446 132.64 171.711 138.254C171.826 140.698 171.52 143.159 172.281 145.588C172.562 146.481 172.224 147.577 172.135 148.578C172.1 148.993 171.794 149.477 171.928 149.799C172.83 151.989 172.186 154.262 172.374 156.487C172.638 159.566 172.887 162.645 173.132 165.635H175.896C175.418 159.974 175.762 154.609 175.252 149.213C174.596 142.299 175.195 135.295 174.478 128.34C174.264 126.243 173.968 124.104 174.102 121.965C174.012 121.943 173.888 121.882 173.627 121.758C173.327 121.614 173.088 121.343 172.552 121.592C172.543 121.595 172.301 121.461 172.061 121.337C172.288 121.219 172.54 121.107 172.744 120.973C172.948 120.84 173.056 120.859 173.292 120.97C173.534 121.085 173.955 121.149 174.159 121.251C174.2 120.878 174.255 120.508 174.328 120.135C172.814 116.52 174.739 112.514 173.043 108.918C173.929 107.557 173.212 106.215 173.12 104.825C172.82 100.356 173.222 95.8582 172.425 91.4019C172.285 90.6082 173.183 89.5308 172.909 88.8741C171.523 85.559 173.234 81.9219 171.714 78.6546C171.542 78.2848 171.548 77.6728 171.743 77.3253C172.721 75.5753 171.924 73.8668 171.682 72.1678C171.453 70.5548 170.806 69.0025 171.596 67.3481C171.816 66.8827 171.657 66.2324 171.66 65.6682C171.669 63.8576 170.455 62.1331 171.52 60.1951C171.835 59.6245 171.223 58.5152 170.974 57.6737C170.652 56.5676 170.111 56.4114 168.329 56.8736C168.498 62.573 168.15 68.2725 168.848 74.0198ZM172.329 128.244C172.377 128.397 172.425 128.55 172.441 128.598C172.441 128.739 172.45 128.77 172.441 128.802C172.393 128.943 172.61 129.172 172.157 129.182C171.918 129.188 171.539 129.067 171.446 128.955C171.325 128.805 171.309 128.57 171.462 128.442C171.602 128.327 172.03 128.308 172.329 128.244ZM171.488 74.0612C171.529 74.0835 171.615 74.109 171.606 74.1282C171.586 74.1728 171.529 74.2174 171.488 74.262C171.446 74.2397 171.405 74.2174 171.354 74.1919C171.395 74.1473 171.443 74.1059 171.488 74.0612ZM169.138 75.094C169.228 75.1036 169.307 75.1355 169.393 75.1578C169.352 75.1801 169.307 75.1992 169.256 75.2279C169.177 75.2056 169.097 75.1801 169.014 75.1578C169.055 75.1355 169.107 75.0908 169.138 75.094ZM143.975 53.2333C141.432 58.4036 139.87 63.9565 137.788 69.3053C137.511 70.0098 137.473 70.8162 137.154 71.492C135.643 74.6956 134.065 77.8641 132.541 81.0612C132.356 81.4469 132.369 81.9251 132.28 82.3586C132.054 83.436 132.015 84.6027 131.559 85.5717C129.727 89.4766 128.152 93.4675 126.717 97.5317C125.248 101.688 123.482 105.737 121.888 109.849C121.531 110.764 121.528 111.85 121.047 112.673C118.631 116.804 117.308 121.397 115.417 125.745C113.18 130.903 111.36 136.242 109.399 141.515C108.978 142.649 109.052 144.109 108.347 144.967C106.212 147.565 106.161 150.988 104.248 153.844C105.447 154.281 106.428 154.638 107.56 155.049C108.417 153.038 109.227 151.339 109.871 149.579C110.971 146.586 111.717 143.433 113.074 140.568C114.585 137.387 115.835 134.091 117.027 130.823C118.089 127.919 119.303 125.079 120.432 122.207C122.36 117.298 124.486 112.463 126.211 107.477C127.186 104.659 128.024 101.8 128.981 98.9789C129.962 96.0718 131.639 93.4866 132.659 90.5444C133.912 86.936 135.742 83.5189 136.564 79.7256C136.768 78.7725 137.297 77.8864 137.68 76.9747C138.913 74.0166 139.933 70.9469 141.444 68.1386C143.086 65.0944 143.634 61.6805 145.18 58.6108C145.993 56.9979 146.761 55.2032 146.545 53.246C145.872 52.9496 145.295 52.6978 144.715 52.4396C144.425 52.7456 144.116 52.9496 143.975 53.2333ZM124.062 105.612C124.148 105.59 124.228 105.558 124.317 105.549C124.349 105.545 124.4 105.59 124.445 105.612C124.359 105.635 124.276 105.663 124.187 105.673C124.155 105.676 124.104 105.635 124.062 105.612ZM124.69 106.081C124.61 106.059 124.528 106.033 124.445 106.011C124.486 105.988 124.537 105.944 124.569 105.947C124.658 105.957 124.741 105.988 124.824 106.011C124.783 106.03 124.738 106.052 124.69 106.081ZM125.71 102.488C125.682 102.492 125.627 102.447 125.586 102.425C125.672 102.406 125.752 102.374 125.841 102.364C125.873 102.361 125.924 102.406 125.968 102.425C125.882 102.447 125.799 102.479 125.71 102.488ZM126.431 103.314C126.3 103.33 125.991 103.25 125.991 103.215C125.984 103.049 126.064 102.881 126.128 102.654C126.434 102.747 126.714 102.801 126.705 102.83C126.657 102.998 126.982 103.244 126.431 103.314ZM133.667 85.1159C133.418 84.9756 133.201 84.896 133.227 84.8609C133.294 84.7653 133.443 84.6792 133.603 84.6218C133.641 84.6059 133.944 84.7143 133.944 84.7653C133.944 84.8577 133.807 84.9501 133.667 85.1159ZM100.85 7.49091C97.9524 7.66304 95.1186 8.01367 92.3103 8.73727C90.8153 9.11978 89.2598 9.33972 87.7201 9.46724C85.8331 9.62662 83.9619 9.59793 82.0876 10.1303C80.3727 10.6212 78.5238 10.6339 76.7451 10.9208C76.1076 11.026 75.3968 11.6189 74.8931 11.4563C73.3822 10.9622 72.1837 11.7209 70.8448 12.0428C69.4487 12.3807 67.9059 12.1671 66.5416 12.5815C64.1636 13.3019 61.7601 13.5346 59.3057 13.6621C57.0903 13.7769 54.8749 14.0224 52.6786 14.3539C52.1048 14.4431 51.6075 15.0711 51.0784 15.4504C50.1476 14.8448 49.2137 14.9627 48.1872 15.2305C46.4787 15.6735 44.7318 16.2059 42.9946 16.2314C40.8366 16.2632 38.8252 16.8593 36.7469 17.2036C35.7651 17.3662 34.7865 17.5574 33.8015 17.6849C31.9304 17.924 30.0529 18.1312 28.1754 18.3384C27.0278 18.4659 26.0779 19.2437 24.6658 18.6508C23.8274 18.3033 22.4408 19.3138 21.2869 19.6644C20.9777 19.7601 20.6079 19.6358 20.2764 19.6772C18.077 19.9705 15.8711 20.2032 13.694 20.6016C10.8793 21.118 8.08694 21.7746 5.28183 22.3452C4.96628 22.409 4.51999 22.4345 4.30322 22.2655C3.09195 21.3156 2.26636 22.307 1.3483 22.7373V25.0834C3.87927 25.1599 6.09149 25.3735 8.26544 24.5096C9.27594 24.108 10.4012 23.9231 11.4945 23.8052C14.3793 23.4991 17.2801 23.3079 20.168 23.021C22.0455 22.8361 23.9581 22.7469 25.7783 22.3006C31.2769 20.9554 36.8425 20.1235 42.4782 19.6995C42.9213 19.6676 43.3612 19.5784 43.7947 19.4923C45.7487 19.1162 47.6868 18.638 49.6535 18.3671C53.3894 17.8443 57.0201 16.5023 60.8835 16.8848C61.1736 16.9135 61.4828 16.6011 61.8016 16.5438C64.7374 16.0019 67.6668 15.4185 70.6185 14.9723C74.2333 14.4272 77.9214 14.2455 81.4819 13.4613C86.2761 12.4062 91.1054 11.8707 95.9761 11.4914C97.0694 11.4053 98.166 11.1758 99.2243 10.8793C100.732 10.4554 102.201 10.0761 103.811 10.1876C105.947 10.3343 107.933 9.6808 109.925 8.67033C109.887 7.82561 109.852 7.07971 109.81 6.1266C108.838 6.21268 108.086 6.2318 107.35 6.3593C105.182 6.72906 103.033 7.3634 100.85 7.49091ZM69.8089 12.6963C69.7802 12.6995 69.726 12.6549 69.6846 12.6325C69.7674 12.6102 69.8503 12.5847 69.93 12.5624C69.981 12.5879 70.0225 12.6102 70.0639 12.6325C69.981 12.6549 69.8981 12.6835 69.8089 12.6963ZM81.3035 11.5392C81.262 11.4946 81.2046 11.4531 81.1855 11.4053C81.1759 11.3894 81.262 11.3639 81.3035 11.3384C81.3449 11.383 81.4023 11.4276 81.4214 11.4722C81.4278 11.4882 81.3449 11.5169 81.3035 11.5392ZM83.1459 11.7687C82.9036 11.7145 82.8016 11.6922 82.6964 11.6699C82.9355 11.5615 83.1618 11.4436 83.4137 11.3447C83.4615 11.3288 83.6145 11.3862 83.7165 11.4085C83.5188 11.5328 83.318 11.6603 83.1459 11.7687ZM92.3804 9.33336C92.288 9.20586 92.1924 9.07834 92.0425 8.87752C92.2338 8.82652 92.4187 8.74046 92.5111 8.76277C92.6769 8.80103 92.9287 8.9381 92.8968 8.97316C92.7789 9.10704 92.5621 9.21541 92.3804 9.33336ZM108.704 43.4059C104.044 47.0748 99.3358 50.6768 94.6596 54.3235C92.4569 56.0416 89.9706 57.5334 88.1919 59.6181C86.1933 61.9578 83.6718 63.4464 81.3226 65.2474C79.4546 66.6755 77.7365 68.3108 75.8175 69.6591C73.1814 71.5143 71.2624 74.2748 68.1736 75.5722C67.3863 75.9005 66.838 76.7707 66.1559 77.3668C65.0561 78.3199 63.9724 79.2953 62.8248 80.1878C59.736 82.5881 56.5675 84.8896 53.5201 87.3377C48.2733 91.5517 43.103 95.855 37.8848 100.101C37.0274 100.796 36.0902 101.398 35.016 102.166C35.7682 102.855 36.3516 103.391 37.3079 104.267C41.353 101.121 45.2355 98.1246 49.0925 95.09C52.4331 92.4602 55.7323 89.7698 59.0698 87.1337C61.078 85.5399 63.1372 84.0098 65.1518 82.4224C68.1354 80.0731 71.1222 77.7238 74.0675 75.3203C75.2278 74.3704 76.2766 73.2643 77.4146 72.2921C77.3827 72.2762 77.3444 72.2602 77.3221 72.2411C77.2807 72.206 77.456 72.104 77.6217 71.9478C77.6664 71.9765 77.7046 71.9988 77.7429 72.0243C78.0361 71.7853 78.3358 71.5526 78.6513 71.339C83.3371 68.1418 87.4587 64.2465 92.0043 60.874C95.5139 58.2697 98.6919 55.2224 102.048 52.4077C103.505 51.19 104.933 49.8767 106.565 48.9396C109.02 47.5275 111.238 45.8794 113.224 43.8744C113.926 43.1668 114.824 42.66 115.59 42.0097C117.805 40.1194 119.998 38.2037 122.395 36.1285C121.933 35.2934 121.538 34.5793 121.13 33.8366C118.592 34.6271 117.317 36.7055 115.427 37.9486C113.03 39.5265 110.974 41.6208 108.704 43.4059ZM64.8139 80.3153C64.5652 80.1783 64.3485 80.0954 64.374 80.0603C64.4409 79.9679 64.5907 79.8818 64.7501 79.8213C64.7884 79.8085 65.0912 79.9137 65.0912 79.9647C65.0912 80.0603 64.9541 80.1528 64.8139 80.3153ZM65.9168 78.0713C65.9965 78.0936 66.0793 78.1191 66.1622 78.1414C66.1176 78.1637 66.0666 78.2083 66.0347 78.2051C65.9455 78.1924 65.8658 78.1637 65.7797 78.1414C65.8212 78.1191 65.8658 78.0999 65.9168 78.0713ZM65.7957 79.63C65.6745 79.6332 65.547 79.5758 65.2378 79.5025C65.7255 79.3877 66.0379 79.3112 66.3471 79.2379C66.4141 79.3208 66.5511 79.4069 66.5288 79.4834C66.4587 79.7256 66.0634 79.6204 65.7957 79.63ZM74.8262 71.6514C74.7816 71.6068 74.7369 71.5653 74.6923 71.5239C74.7433 71.4952 74.7848 71.4761 74.8262 71.4538C74.8708 71.4952 74.925 71.5398 74.9473 71.5876C74.9537 71.6036 74.8708 71.6291 74.8262 71.6514ZM76.7388 72.0307C76.3212 72.1359 75.8494 72.1869 75.3936 72.2411C75.298 72.2538 75.1641 72.1869 75.0717 72.1614C75.2502 71.7438 75.8781 71.4155 76.4296 71.4633C76.7005 71.4824 76.9396 71.6131 77.1914 71.6928C77.0416 71.8076 76.946 71.9765 76.7388 72.0307ZM227.497 41.0247C231.409 44.1008 235.964 46.3417 240.139 49.0926C243.471 51.2857 246.61 53.7688 249.919 56.0002C251.848 57.3007 254.184 58.0785 255.905 59.5862C258.354 61.7283 261.477 62.8504 264.021 64.8044C264.066 64.7661 264.107 64.7247 264.152 64.6832C264.193 64.7056 264.276 64.7342 264.27 64.7502C264.251 64.7948 264.193 64.8394 264.152 64.8841C264.126 64.8681 264.098 64.8554 264.072 64.8426C264.2 64.9414 264.324 65.0434 264.448 65.1486C264.487 65.1327 264.528 65.1168 264.566 65.1008C264.589 65.1423 264.652 65.2124 264.63 65.2219C264.608 65.2283 264.582 65.2347 264.557 65.2379C264.659 65.324 264.757 65.4132 264.856 65.5025C265.771 65.5025 265.793 65.5152 265.762 66.038C265.752 66.1495 265.835 66.3026 265.752 66.4014C265.765 66.4141 265.778 66.4269 265.79 66.4428C268.768 67.5298 271.114 69.6336 273.718 71.3326C276.976 73.4556 280.358 75.3968 283.58 77.5708C288.199 80.6819 292.691 83.9747 297.294 87.1082C299.869 88.8614 302.56 90.4488 305.243 92.1446C305.989 91.4975 307.019 90.8951 306.834 89.5308C303.882 87.5226 300.956 85.5112 298.008 83.5317C294.957 81.4852 291.964 79.3335 288.802 77.4752C285.656 75.6232 283.039 72.8786 279.395 71.8713C277.135 68.7825 273.399 67.8262 270.46 65.716C267.566 63.6313 264.455 61.8399 261.637 59.6659C258.73 57.4218 255.38 55.895 252.523 53.5297C249.718 51.206 246.432 49.4496 243.302 47.537C241.816 46.6285 240.423 45.5734 239.002 44.5693C238.874 44.598 238.724 44.6299 238.53 44.6745C237.985 44.802 237.806 44.6522 237.443 44.6171C237.143 44.5853 236.792 44.7383 236.448 44.7638C236.378 44.7702 236.136 44.5088 236.171 44.4928C236.435 44.3717 236.754 44.2824 237.057 44.1836C237.427 44.563 238.173 43.9095 238.539 44.3271C238.542 44.3303 238.593 44.3271 238.648 44.3207C237.2 43.3166 235.715 42.3731 234.057 41.7068C231.683 38.7679 227.896 37.904 225.078 35.5356C222.327 33.2214 219.018 31.5734 215.741 29.4983C215.123 30.4928 214.683 31.1941 214.151 32.0452C215.595 33.0811 216.644 33.7346 217.581 34.522C220.622 37.0816 224.345 38.5511 227.497 41.0247ZM269.007 67.6924C268.965 67.6477 268.908 67.6063 268.889 67.5585C268.882 67.5425 268.965 67.517 269.007 67.4947C269.048 67.5362 269.105 67.5808 269.125 67.6254C269.134 67.6445 269.048 67.67 269.007 67.6924ZM269.832 67.3322C269.864 67.329 269.915 67.3704 269.96 67.3927C269.874 67.415 269.794 67.4469 269.705 67.4565C269.673 67.4597 269.622 67.415 269.577 67.3927C269.663 67.3704 269.743 67.3417 269.832 67.3322ZM268.044 66.4301C268.624 66.5576 269.07 66.6436 269.478 66.7584C269.561 66.7839 269.596 66.9783 269.52 67.0102C269.153 67.1696 268.745 67.3035 268.337 67.4342C268.302 67.4437 268.066 67.3513 268.069 67.3098C268.082 67.1026 268.041 66.9241 267.693 66.7839C267.658 66.7679 267.9 66.5703 268.044 66.4301ZM267.104 66.6978C267.145 66.7424 267.202 66.7839 267.222 66.8317C267.228 66.8476 267.145 66.8731 267.104 66.8954C267.059 66.8508 267.005 66.8094 266.982 66.7616C266.976 66.7456 267.059 66.7201 267.104 66.6978ZM265.293 64.8841C265.334 64.9287 265.392 64.9701 265.411 65.0179C265.421 65.0339 265.334 65.0594 265.293 65.0817C265.252 65.0403 265.194 64.9956 265.175 64.9478C265.166 64.9319 265.252 64.9064 265.293 64.8841ZM264.094 64.3167C264.174 64.339 264.257 64.3613 264.34 64.3868C264.298 64.4059 264.247 64.4505 264.216 64.4474C264.126 64.4378 264.043 64.4059 263.961 64.3868C264.002 64.3645 264.043 64.3422 264.094 64.3167ZM12.9258 58.5662V58.5152L12.9863 58.5471C12.9672 58.5534 12.9481 58.5598 12.9258 58.5662ZM100.863 22.2177C95.584 24.1685 90.3212 26.1799 84.9852 27.9554C82.7984 28.6854 80.9847 30.1007 78.5366 30.4769C76.0343 30.8626 73.7169 32.4628 71.1827 33.5912C70.915 33.5912 70.3604 33.4573 69.9268 33.6262C69.4327 33.8175 69.0853 34.4869 68.5976 34.5889C64.6895 35.4049 61.0461 36.9605 57.3835 38.4778C53.6062 40.0461 49.8384 41.6527 45.9973 43.052C44.5661 43.5716 43.205 44.3271 41.7705 44.7064C38.1303 45.6754 34.592 46.8644 31.194 48.4646C31.2004 48.4678 31.2036 48.471 31.21 48.4742C31.1526 48.5029 31.0952 48.5316 31.041 48.5602C31.0346 48.5571 31.0283 48.5539 31.0219 48.5475C30.7701 48.6686 30.5182 48.7866 30.2664 48.9109C29.7723 49.1563 29.2751 49.4209 28.7523 49.5898C26.4508 50.3421 24.1685 51.1645 21.8256 51.7638C19.2723 52.4141 17.3183 54.4095 14.4973 54.5912C12.9704 54.6869 11.5073 55.844 9.78912 56.6249C10.2035 57.5748 10.535 58.3367 10.9239 59.226C11.5392 59.0188 12.1384 58.8244 12.7313 58.6299C12.6899 58.614 12.6484 58.5949 12.6102 58.5789C12.7154 58.5566 12.8206 58.5343 12.9258 58.5152C12.6293 58.1964 12.7568 57.9542 13.2605 57.9191C13.5665 57.9 13.8948 57.9446 14.1913 57.9095C14.4749 57.8745 14.6248 57.9127 14.7204 57.9765C15.734 57.6418 16.7254 57.3071 17.7072 56.9469C19.1607 56.4177 20.5346 55.6782 21.985 55.1299C25.4945 53.8039 29.0424 52.5735 32.5488 51.2378C35.1244 50.2561 37.684 49.2328 40.2469 48.2224C40.215 48.2128 40.1863 48.2032 40.1544 48.1937C40.4254 48.0885 40.5688 47.996 40.7441 47.9737C40.7728 47.9705 40.8047 47.9801 40.8366 47.9897C42.1849 47.4605 43.5333 46.9377 44.888 46.4277C46.6381 45.7743 48.5156 45.4555 50.256 44.7893C50.7501 44.598 51.241 44.4036 51.735 44.2091C51.5757 44.1199 51.429 44.0529 51.4163 43.9828C51.3685 43.7214 51.7924 43.7724 52.057 43.7947C52.1973 43.8043 52.3184 43.8712 52.4427 43.9318C56.8576 42.2041 61.2405 40.3999 65.665 38.7009C71.017 36.6481 76.42 34.7355 81.772 32.6923C84.558 31.6276 87.2133 30.1677 90.0567 29.3134C97.9715 26.9354 105.631 23.9199 113.243 20.7164C112.928 19.6772 112.641 18.7432 112.373 17.8634C108.497 19.3329 104.691 20.8056 100.863 22.2177ZM29.8265 49.9755C29.6735 50.1094 29.4854 50.2369 29.3038 50.3612C29.2241 50.4154 29.0551 50.5047 29.036 50.4983C28.883 50.4409 28.6375 50.3612 28.6471 50.2943C28.6662 50.1604 28.7842 50.0138 28.9372 49.9022C29.0551 49.8162 29.2878 49.7747 29.3579 49.7492C29.6512 49.7588 29.7755 49.762 29.8998 49.7652C29.8775 49.8385 29.8903 49.9182 29.8265 49.9755ZM31.5925 48.7611H31.7614C31.8188 48.7993 31.8794 48.8408 31.9367 48.879C31.8571 48.8918 31.7232 48.9236 31.7072 48.9109C31.6467 48.8694 31.6275 48.8121 31.5925 48.7611ZM31.2865 49.2201C31.2801 49.2137 31.3853 49.1563 31.4108 49.1627C31.6244 49.201 31.9048 49.2201 32.026 49.303C32.179 49.405 32.2077 49.5612 32.2682 49.695C32.2714 49.7014 32.0706 49.7365 31.8379 49.7811C31.6562 49.5994 31.465 49.4113 31.2865 49.2201ZM32.1631 50.3517C32.1216 50.3102 32.0642 50.2656 32.0451 50.221C32.0387 50.2051 32.1216 50.1764 32.1631 50.1541C32.2077 50.1955 32.2555 50.2401 32.2969 50.2816C32.2491 50.3102 32.2045 50.3326 32.1631 50.3517ZM33.3042 48.9587C33.2596 48.9173 33.215 48.8726 33.1703 48.8312C33.2213 48.8057 33.2628 48.7834 33.3042 48.7611C33.3488 48.8057 33.403 48.8471 33.4254 48.8949C33.4317 48.9109 33.3488 48.9364 33.3042 48.9587ZM33.3042 48.3626C33.2596 48.3212 33.215 48.2765 33.1703 48.2351C33.2213 48.2096 33.2628 48.1873 33.3042 48.165C33.3488 48.2096 33.403 48.251 33.4254 48.2989C33.4317 48.3116 33.3488 48.3403 33.3042 48.3626ZM38.2578 48.9587C38.2163 48.9141 38.159 48.8726 38.1399 48.8248C38.1335 48.8089 38.2163 48.7834 38.2578 48.7611C38.3024 48.8025 38.3502 48.8471 38.3917 48.8886C38.3439 48.9141 38.2992 48.9364 38.2578 48.9587ZM39.3448 48.3339C39.2938 48.3084 39.2523 48.2861 39.2109 48.2638C39.2938 48.2415 39.3766 48.2128 39.4659 48.2C39.4978 48.1969 39.5488 48.2415 39.5902 48.2638C39.5073 48.2861 39.4245 48.3116 39.3448 48.3339ZM48.1426 43.5461C47.9577 43.3899 47.776 43.2369 47.6071 43.0807C47.6039 43.0775 47.7856 43.0042 47.8908 42.9947C47.996 42.9819 48.2032 43.001 48.2159 43.0265C48.286 43.1763 48.3211 43.3294 48.3402 43.4824C48.3434 43.5047 48.1872 43.5302 48.1426 43.5461ZM50.8298 43.9828C50.7852 43.9414 50.731 43.8968 50.7086 43.8489C50.7023 43.833 50.7852 43.8075 50.8298 43.7852C50.8744 43.8266 50.919 43.8712 50.9637 43.9127C50.9127 43.9382 50.8712 43.9605 50.8298 43.9828ZM223.497 9.56606C223.746 8.64163 223.962 7.83836 224.144 7.16258C226.474 7.51004 228.753 7.81923 231.023 8.19218C234.061 8.69264 237.089 9.23773 240.117 9.77962C240.656 9.87524 241.182 10.1526 241.714 10.1494C243.732 10.1366 245.705 10.2641 247.675 10.8347C251.29 11.8835 255.214 11.3384 258.742 12.9067C262.376 12.4477 265.682 14.1881 269.265 14.4431C273.849 14.7714 278.378 16.1262 282.937 16.7924C287.979 17.5287 292.936 18.7719 298.059 19.1959C301.377 19.4668 304.826 19.6772 308.096 20.9108C309.795 21.5515 311.816 21.118 313.678 21.7013C316.728 22.6608 319.967 22.6353 323.094 23.5565C325.561 24.2833 328.312 24.3885 330.904 24.9878C331.133 25.0388 331.439 24.7519 332.224 24.3821C331.895 25.8548 331.71 26.6963 331.471 27.7865C330.435 27.7004 329.575 27.6909 328.739 27.5506C327.292 27.3052 325.953 26.1066 324.382 27.1139C321.558 26.6007 318.682 26.2596 315.922 25.5105C314.092 25.0165 312.215 24.8061 310.433 24.3375C307.417 23.5438 304.169 24.2419 301.307 22.7214C300.841 22.4759 300.233 22.4345 299.684 22.4217C295.795 22.3197 292.079 20.9618 288.269 20.6781C284.693 20.4135 281.406 18.9887 277.776 18.9217C274.285 18.858 270.817 17.7997 267.33 17.2195C265.252 16.8753 263.148 16.6776 261.079 16.2887C258.15 15.7405 255.255 15.0169 252.326 14.4814C250.142 14.0829 247.936 13.7578 245.727 13.5952C243.276 13.4135 240.914 12.9386 238.523 12.3871C236.043 11.8165 233.452 11.6571 230.899 11.4946C228.313 11.3288 225.945 10.5446 223.497 9.56606ZM251.124 127.473C250.92 127.575 250.678 127.677 250.378 127.782C250.085 127.884 249.763 127.964 249.466 128.066C249.065 128.2 248.427 128.216 247.997 128.216C247.359 128.213 247.49 128.005 247.484 127.62C247.49 127.467 247.736 127.186 248.351 127.004C248.475 126.966 248.631 126.861 248.612 126.797C248.459 126.243 249.457 126.22 249.986 126.032C250.047 126.01 250.117 126 250.19 125.991C248.109 122.778 245.89 119.654 243.792 116.45C242.502 114.48 241.226 112.501 239.955 110.521C239.875 110.566 239.792 110.614 239.731 110.655C239.649 110.566 239.575 110.473 239.48 110.387C239.365 110.282 239.186 110.193 239.123 110.081C239.091 110.027 239.253 109.944 239.422 109.785C239.451 109.804 239.48 109.82 239.512 109.836C239.464 109.766 239.419 109.692 239.371 109.619C239.346 109.645 239.32 109.667 239.295 109.692C239.253 109.67 239.167 109.641 239.177 109.626C239.196 109.581 239.25 109.536 239.292 109.495C237.969 107.432 236.646 105.367 235.32 103.304C231.593 97.5158 227.995 91.6537 224.192 85.9096C221.253 81.4693 218.476 76.9205 215.687 72.3845C215.604 72.3686 215.525 72.359 215.448 72.3399C215.314 72.308 215.231 72.2188 214.983 72.0721C215.177 72.0721 215.34 72.0658 215.486 72.0626C214.814 70.966 214.132 69.8727 213.453 68.7793C213.386 68.8303 213.316 68.8782 213.249 68.926C213.029 68.8558 212.933 68.824 212.834 68.7953C213 68.722 213.163 68.6486 213.328 68.5753C213.016 68.0749 212.71 67.5712 212.394 67.0708C212.241 67.0389 212.101 66.9592 211.859 66.8636C211.996 66.8253 212.108 66.7871 212.197 66.7552C211.253 65.2506 210.3 63.7365 209.188 62.3626C206.666 59.242 205.206 55.3945 202.341 52.5097C201.914 52.0794 201.767 51.3143 201.617 50.6736C201.27 49.185 200.463 48.0247 199.277 47.1035C199.121 46.9792 198.866 46.9824 198.544 46.8931C198.19 47.2278 197.795 47.6008 197.202 48.1618C198.088 50.1764 198.544 52.5735 199.94 54.129C203.409 57.9797 205.012 63.0799 208.764 66.6787C209.564 69.5444 211.802 71.5526 213.179 74.0772C214.45 76.4169 215.761 78.7375 217.163 81.0007C218.789 83.6273 220.51 86.1933 222.231 88.7594C223.411 90.5157 224.657 92.2243 225.878 93.952C226.586 94.9529 227.357 95.9156 228.004 96.9579C230.758 101.398 233.538 105.829 236.196 110.33C238.912 114.927 242.387 119.026 244.895 123.753C245.562 125.012 246.021 126.402 246.802 127.585C248.456 130.09 250.257 132.5 252.01 134.942C252.339 135.397 252.998 135.793 253.033 136.255C253.174 138.094 254.659 138.831 255.842 140.157C256.565 139.742 257.251 139.35 258.012 138.917C256.878 137.084 255.867 135.496 254.901 133.88C253.626 131.754 252.425 129.583 251.124 127.473ZM248.383 126.042C248.462 126.064 248.545 126.09 248.628 126.112C248.583 126.134 248.532 126.179 248.501 126.176C248.411 126.166 248.328 126.134 248.246 126.112C248.29 126.09 248.332 126.067 248.383 126.042ZM210.329 69.369C210.08 69.2288 209.863 69.1491 209.889 69.114C209.956 69.0184 210.109 68.9323 210.265 68.875C210.303 68.859 210.609 68.9674 210.606 69.0184C210.606 69.1108 210.469 69.2033 210.329 69.369ZM211.448 68.9674C211.247 68.8271 211.056 68.7538 211.027 68.6646C210.992 68.5498 211.091 68.4255 211.129 68.3044C211.342 68.4255 211.578 68.5403 211.754 68.6773C211.795 68.706 211.617 68.8112 211.448 68.9674ZM212.248 67.6924C212.206 67.6477 212.149 67.6063 212.13 67.5585C212.123 67.5425 212.206 67.517 212.248 67.4947C212.289 67.5362 212.347 67.5808 212.366 67.6254C212.375 67.6445 212.289 67.67 212.248 67.6924ZM214.068 71.6386C213.893 71.6163 213.746 71.5271 213.478 71.4219C213.778 71.3326 213.972 71.2434 214.042 71.2625C214.205 71.3135 214.31 71.4155 214.438 71.4984C214.313 71.5494 214.164 71.6514 214.068 71.6386ZM214.916 73.0667C214.871 73.0221 214.817 72.9806 214.795 72.9328C214.788 72.9169 214.871 72.8914 214.916 72.8659C214.96 72.9105 215.005 72.9551 215.05 72.9966C214.999 73.0221 214.957 73.0444 214.916 73.0667ZM228.843 96.5403C228.588 96.5244 228.364 96.381 228.125 96.2917C228.32 96.1642 228.514 96.0367 228.871 95.8008C229.047 96.0176 229.177 96.11 229.187 96.2056C229.2 96.3427 229.324 96.5722 228.843 96.5403ZM229.738 96.5372C229.697 96.5148 229.614 96.483 229.624 96.4766C229.668 96.432 229.732 96.3937 229.792 96.3555C229.847 96.3841 229.904 96.4128 229.961 96.4447C229.888 96.4766 229.815 96.5085 229.738 96.5372ZM229.961 96.3555C229.961 96.3268 229.961 96.2949 229.961 96.2662C230.038 96.2343 230.111 96.2056 230.188 96.1738C230.21 96.2152 230.274 96.2853 230.248 96.2949C230.172 96.3268 230.06 96.3363 229.961 96.3555ZM233.873 103.91C233.544 103.811 233.235 103.697 232.83 103.553C233.073 103.432 233.267 103.324 233.286 103.33C233.586 103.454 233.873 103.588 234.137 103.732C234.153 103.741 233.892 103.917 233.873 103.91ZM235.317 107.193C235.113 107.066 234.947 107.008 234.925 106.942C234.858 106.709 235.164 106.687 235.495 106.709C235.667 106.718 235.83 106.75 235.996 106.773C235.785 106.903 235.575 107.034 235.317 107.193ZM238.699 110.183C238.708 110.212 238.428 110.269 238.122 110.359C238.058 110.132 237.981 109.967 237.985 109.798C237.985 109.763 238.294 109.683 238.425 109.699C238.976 109.772 238.651 110.014 238.699 110.183ZM245.389 120.24C245.348 120.196 245.291 120.154 245.268 120.106C245.262 120.09 245.348 120.065 245.389 120.043C245.434 120.084 245.482 120.129 245.523 120.17C245.472 120.196 245.431 120.218 245.389 120.24ZM245.769 120.84C245.724 120.795 245.68 120.754 245.635 120.712C245.686 120.683 245.727 120.661 245.769 120.639C245.813 120.683 245.868 120.728 245.89 120.773C245.896 120.789 245.813 120.817 245.769 120.84ZM246.531 121.037C246.489 120.993 246.432 120.951 246.413 120.903C246.406 120.887 246.489 120.862 246.531 120.836C246.575 120.881 246.629 120.926 246.652 120.97C246.658 120.989 246.575 121.015 246.531 121.037ZM247.104 126.313C247.187 126.29 247.27 126.262 247.359 126.249C247.391 126.246 247.442 126.29 247.484 126.313C247.401 126.335 247.318 126.361 247.238 126.383C247.187 126.357 247.146 126.335 247.104 126.313ZM34.9012 67.0548C37.547 65.6427 40.1257 64.0903 42.8129 62.7547C45.5829 61.3777 48.5538 60.3768 51.241 58.8658C53.8484 57.4027 56.6599 56.405 59.2515 54.9514C61.945 53.4437 64.5334 51.7096 67.3257 50.4186C70.0193 49.1755 72.7447 48.0694 75.3267 46.5457C77.9819 44.9774 80.9815 44.0083 83.7547 42.6249C86.4196 41.2925 88.9633 39.721 91.6058 38.3407C94.3504 36.9063 97.079 35.4049 99.9383 34.2383C102.727 33.1003 105.341 31.7073 107.974 30.2665C110.617 28.8193 113.234 27.3147 116.122 26.1927C115.653 25.2013 115.325 24.5096 114.802 23.4067C113.524 24.0442 112.542 24.5319 111.557 25.0165C108.481 26.537 105.399 28.0511 102.326 29.5811C98.8577 31.3056 95.4023 33.0588 91.9278 34.7706C88.5585 36.425 85.288 38.277 81.9633 40.0079C74.3162 43.9924 66.4842 47.6167 58.7446 51.4291C52.465 54.5275 46.2141 57.6896 39.9504 60.8198C38.3726 61.6072 36.766 62.3372 35.2104 63.1659C33.7441 63.9469 32.3607 64.8936 30.8784 65.6459C26.9162 67.6605 22.9158 69.5985 18.944 71.5972C18.1853 71.9765 17.5 72.4993 16.5947 73.0762C17.3183 73.9592 17.8698 74.635 18.4372 75.3235C21.2455 73.9656 23.9518 72.6969 26.6198 71.3581C29.3994 69.9619 32.1567 68.5179 34.9012 67.0548ZM91.1564 37.241C91.2361 37.3334 91.3795 37.4259 91.3795 37.5183C91.3795 37.6076 91.2297 37.6936 91.1468 37.7797C90.9715 37.6936 90.7962 37.6107 90.6209 37.5247C90.8121 37.4227 90.9843 37.3334 91.1564 37.241ZM151.291 87.105C150.848 87.7234 150.029 88.396 150.143 88.7912C150.784 90.9779 149.461 92.8108 149.254 94.8286C148.932 97.911 148.393 100.971 147.902 104.034C147.504 106.537 146.659 109.033 146.698 111.522C146.755 115.264 145.356 118.707 145.024 122.379C144.712 125.835 143.95 129.344 143.213 132.803C142.503 136.153 142.394 139.627 141.811 143.01C141.113 147.032 140.157 151.007 139.382 155.017C138.84 157.816 137.967 160.608 138.655 163.484C139.474 163.694 140.195 163.876 141.036 164.092C141.294 162.805 141.559 161.514 141.811 160.216C142.257 157.944 142.691 155.668 143.137 153.392C143.258 152.773 143.596 152.132 143.507 151.556C143.156 149.334 143.88 147.204 144.033 145.04C144.208 142.525 146.111 140.246 145.333 137.508C146.258 135.684 146.267 133.66 146.682 131.722C147.335 128.668 147.931 125.647 147.953 122.51C147.96 121.643 148.314 120.782 148.419 119.909C148.916 115.835 150.723 111.94 149.898 107.939C150.468 107.171 150.873 106.632 151.278 106.087C151.157 102.702 151.125 99.355 152.483 96.1578C152.732 95.5681 152.607 94.8286 152.7 94.1656C152.92 92.6323 153.146 91.0991 153.404 89.5722C153.589 88.4884 153.87 87.4174 154.023 86.3304C154.131 85.5526 153.86 84.6441 154.166 83.9843C155.505 81.0867 155.463 77.9087 155.903 74.8836C155.91 74.8518 155.913 74.8231 155.919 74.7944C155.868 74.8135 155.824 74.8294 155.785 74.8263C155.607 74.8039 155.463 74.7115 155.193 74.6063C155.495 74.5171 155.69 74.4278 155.757 74.4469C155.836 74.4724 155.897 74.5075 155.954 74.5489C156.506 70.8226 157.178 67.1377 157.937 63.4528C158.402 61.2119 158.543 58.9009 158.82 56.6823C157.975 56.2966 157.417 56.0448 156.751 55.742C155.186 59.0635 154.338 62.4105 154.166 65.7989C154.051 68.043 153.519 70.1755 153.168 72.3399C152.368 77.268 151.049 82.1227 151.291 87.105ZM155.585 74.0389C155.626 74.0612 155.671 74.0835 155.718 74.109C155.677 74.1505 155.629 74.1951 155.585 74.2365C155.543 74.2174 155.46 74.1887 155.467 74.1728C155.486 74.125 155.543 74.0835 155.585 74.0389ZM116.52 29.4441C116.498 29.5333 116.316 29.613 116.128 29.7565C116.09 29.7246 116.052 29.6959 116.017 29.6704C114.177 30.8498 112.437 31.9655 110.748 33.0525C110.773 33.078 110.805 33.1066 110.814 33.1353C110.891 33.3202 110.779 33.4764 110.355 33.4222C110.314 33.419 110.276 33.4031 110.237 33.3808C109.492 33.8589 108.749 34.3371 108.009 34.8152C104.838 36.8649 101.774 39.1185 98.472 40.9354C94.2101 43.2815 90.1587 45.9623 86.1773 48.7005C82.6295 51.1454 78.8808 53.2556 75.3426 55.7005C73.3344 57.0903 71.0202 57.9956 69.267 59.8285C68.3745 60.7593 67.0452 61.2725 65.92 61.9929C64.4314 62.9428 62.8758 63.7811 61.3266 64.6354C61.3936 64.7215 61.4031 64.8235 61.3107 64.951C60.7305 65.2761 61.3776 65.6108 61.2979 65.9455C61.2692 66.0539 61.1609 66.1591 61.0907 66.2643C60.9122 66.1719 60.5775 66.0762 60.5871 65.9902C60.6253 65.716 60.3384 65.512 60.1313 65.2984C58.1932 66.395 56.2997 67.5648 54.6103 69.063C53.7114 69.8599 52.5065 70.303 51.48 70.9629C48.863 72.6459 46.2715 74.3641 43.664 76.063C41.1522 77.7015 38.6849 79.4132 36.1093 80.9465C33.8047 82.3172 31.4713 83.5986 29.4663 85.4315C28.6854 86.1487 27.5283 86.4515 26.5497 86.9552C26.0715 87.2006 25.6061 87.4811 25.1216 87.7521C25.6731 88.5904 26.1512 89.3172 26.6612 90.0886C28.8639 89.1419 31.0633 88.549 32.5169 86.6778C32.6954 86.4483 33.1002 86.4037 33.3903 86.2507C34.8502 85.4793 36.4281 84.8673 37.7446 83.9014C41.1107 81.4406 44.6075 79.1774 48.0916 76.8982C48.0852 76.895 48.082 76.8918 48.0757 76.8918C48.0884 76.8886 48.098 76.8855 48.1107 76.8855C50.0137 75.6391 51.9104 74.3895 53.7783 73.0954C56.9309 70.915 60.4022 69.3085 63.5452 67.0963C63.3731 67.0006 63.2041 66.9146 63.2328 66.8923C63.3922 66.752 63.6313 66.6341 63.8416 66.5097C63.9213 66.5671 64.0201 66.6245 64.1094 66.6851C64.425 66.4492 64.7437 66.2197 65.0529 65.9678C68.5179 63.1723 72.6682 61.2342 76.4455 58.8084C85.5972 52.9368 94.6978 46.9856 103.84 41.0948C106.913 39.1185 109.951 37.0434 113.189 35.373C115.373 34.2478 116.979 32.6349 118.573 30.9104C118.697 30.7765 118.643 30.4864 118.707 30.0115C118.003 29.7054 117.234 29.3708 116.785 29.1763C116.696 29.2337 116.61 29.2911 116.517 29.3484C116.527 29.3803 116.53 29.4122 116.52 29.4441ZM42.6695 78.7024C42.7141 78.6769 42.7747 78.6355 42.7906 78.6386C42.8735 78.6642 42.9436 78.696 43.0201 78.7279C42.9627 78.7566 42.9053 78.7885 42.8512 78.8172C42.7906 78.7789 42.73 78.7407 42.6695 78.7024ZM43.7405 79.1997C43.4504 79.1519 43.256 78.951 43.0201 78.8172C43.2783 78.747 43.5365 78.6769 43.9413 78.5653C44.0274 78.6897 44.1294 78.7885 44.1549 78.8873C44.19 79.0499 44.1868 79.273 43.7405 79.1997ZM59.9719 65.8786C59.9305 65.8563 59.8444 65.8308 59.8507 65.8117C59.873 65.767 59.9305 65.7224 59.9719 65.681C60.0133 65.7033 60.0547 65.7224 60.1057 65.7511C60.0611 65.7925 60.0165 65.834 59.9719 65.8786ZM114.378 34.3913C114.346 34.3944 114.295 34.3498 114.254 34.3307C114.337 34.3052 114.42 34.2829 114.499 34.2574C114.55 34.2861 114.592 34.3084 114.633 34.3307C114.55 34.353 114.467 34.3817 114.378 34.3913ZM116.664 30.088C116.753 30.0975 116.836 30.1294 116.922 30.1485C116.877 30.1708 116.836 30.1932 116.785 30.2187C116.705 30.1964 116.622 30.174 116.539 30.1485C116.581 30.1294 116.632 30.0848 116.664 30.088ZM4.61243 39.5488C4.74631 40.2852 4.78137 40.8271 4.9567 41.318C5.11926 41.7706 5.43164 42.1722 5.75681 42.7333C8.49496 41.8662 11.1152 41.0343 13.7386 40.215C14.0542 40.1162 14.3953 40.0907 14.7268 40.0493C20.576 39.3225 26.1193 37.3972 31.7327 35.7332C32.7273 35.4368 33.572 34.8981 34.7801 35.0001C35.848 35.0957 36.9891 34.3275 38.0984 33.9482C38.2036 33.9131 38.3247 33.945 38.4363 33.9322C43.613 33.2883 48.5379 31.6148 53.5201 30.2059C55.965 29.5142 58.2251 28.2583 60.9154 28.373C61.9386 28.4145 62.9937 27.7068 64.0329 27.3434C64.8649 27.0533 65.6777 26.639 66.5352 26.4987C72.8754 25.4627 78.9605 23.4641 85.1158 21.7268C86.5949 21.3092 88.1281 21.0829 90.2128 20.6494C90.3244 20.5665 90.9492 20.1075 91.0576 20.0278C93.9519 19.4732 96.2247 18.9536 98.523 18.6189C101.048 18.2491 103.25 16.8689 105.928 16.7669C107.754 16.7 109.533 15.3835 111.229 14.6662V13.2159C110.327 12.9131 109.399 12.6007 108.65 12.3488C105.998 13.2382 103.55 14.5387 100.993 14.8097C96.0876 15.3293 91.6537 17.4969 86.8595 18.3129C85.2433 18.587 83.7037 19.2755 82.1035 19.6772C80.6085 20.0501 79.037 20.1617 77.5739 20.6175C74.6317 21.5388 71.6099 22.205 68.6422 22.9859C65.4705 23.8243 62.3976 25.3926 58.9678 25.1503C58.767 25.1376 58.5438 25.281 58.3494 25.3799C54.9928 27.1171 51.2314 27.5124 47.6645 28.5165C40.0205 30.6681 32.2938 32.5201 24.6084 34.5283C20.6685 35.5579 16.7541 36.7055 12.8078 37.7128C10.1493 38.3917 7.45261 38.9177 4.61243 39.5488ZM5.44122 40.6294C5.52411 40.6517 5.60696 40.6741 5.68668 40.6996C5.64523 40.7219 5.59424 40.7633 5.56235 40.7601C5.47308 40.7506 5.39023 40.7219 5.30734 40.6996C5.34879 40.6772 5.3934 40.6549 5.44122 40.6294ZM5.37427 41.4901C5.17346 41.3626 4.9599 41.2829 4.94394 41.1968C4.89615 40.9354 5.3201 40.9865 5.58466 41.0088C5.75998 41.0215 5.90662 41.1299 6.06918 41.1936C5.87473 41.2765 5.67709 41.3626 5.37427 41.4901ZM7.33786 40.3649C7.30597 40.368 7.25497 40.3234 7.21036 40.3011C7.29642 40.2788 7.3793 40.2501 7.46854 40.2374C7.49722 40.2342 7.55142 40.2788 7.59286 40.3011C7.50681 40.3234 7.42709 40.3521 7.33786 40.3649ZM9.96765 39.6062C9.81146 39.5361 9.61383 39.4819 9.51819 39.3958C9.47675 39.3608 9.65207 39.2588 9.81781 39.1026C10.0218 39.2428 10.194 39.3193 10.2386 39.4118C10.2609 39.4596 10.0633 39.5393 9.96765 39.6062ZM120.852 52.5639C120.208 53.1982 119.568 53.8421 119.003 54.5434C116.922 57.1222 114.856 59.7074 112.784 62.2957C112.982 62.2925 113.135 62.2734 113.183 62.3021C113.317 62.3818 113.393 62.4902 113.492 62.5858C113.339 62.624 113.192 62.675 113.033 62.6878C112.947 62.6942 112.829 62.64 112.743 62.5985C112.692 62.5762 112.647 62.5507 112.6 62.5252C111.382 64.0489 110.158 65.5694 108.937 67.0899C106.91 69.6209 104.879 72.1455 102.845 74.6701C101.937 75.8017 101.035 76.9428 100.107 78.0617C97.4041 81.3226 94.2006 84.1819 92.0999 87.9401C91.8864 88.3258 91.5389 88.6446 91.2488 88.9857C89.8526 90.6241 88.415 92.2339 87.0125 93.8659C87.1177 93.9679 87.2197 94.0667 87.1113 94.1656C87.2707 94.2708 87.4301 94.3759 87.5926 94.4843C87.4524 94.6086 87.3695 94.682 87.2866 94.7553C87.1081 94.6628 86.8308 94.5799 86.783 94.4716C86.7447 94.3887 86.9902 94.2708 87.1113 94.1656C86.9933 94.1656 86.8754 94.1656 86.7575 94.1656C85.696 95.4087 84.6505 96.6678 83.675 97.978C82.3458 99.7662 80.9911 101.456 79.3112 102.909C78.8075 103.343 78.4346 103.929 78.0106 104.452C75.4733 107.576 72.9168 110.684 70.4209 113.84C69.455 115.06 68.6231 116.386 67.7592 117.684C67.4532 118.146 67.3512 118.914 66.9432 119.118C64.5047 120.342 63.6695 123.026 61.7219 124.693C60.9059 125.392 60.3544 126.402 59.5926 127.39C60.5361 127.993 61.3298 128.499 62.2988 129.118C63.3922 127.661 64.2465 126.348 65.2824 125.191C66.6276 123.686 67.5361 121.723 68.9004 120.435C72.4291 117.11 75.0334 113.084 78.1445 109.46C80.4045 106.827 82.3872 103.923 84.8481 101.5C88.0389 98.3637 90.64 94.7393 93.3176 91.2457C95.6286 88.2302 97.9428 85.2466 100.471 82.4096C102.036 80.6532 103.703 78.9479 105.01 77.0066C108.382 71.9956 112.478 67.5999 116.399 63.048C118.296 60.8485 120.071 58.5471 121.914 56.303C124.12 53.619 126.373 50.9733 128.534 48.2542C129.427 47.129 130.16 45.8699 130.9 44.6363C131.024 44.4259 130.823 44.0211 130.75 43.5589C130.045 43.5079 129.389 43.4569 128.442 43.3835C127.396 44.6076 126.309 45.6276 125.535 46.8453C124.199 48.9523 122.618 50.8235 120.852 52.5639ZM61.231 126.262C61.2979 126.169 61.4478 126.083 61.6071 126.023C61.6454 126.01 61.9482 126.118 61.9482 126.166C61.945 126.262 61.8111 126.354 61.6709 126.517C61.4222 126.376 61.2055 126.297 61.231 126.262ZM61.7474 127.193C61.7059 127.167 61.6231 127.135 61.6326 127.129C61.6772 127.084 61.741 127.049 61.8016 127.008C61.8558 127.04 61.9131 127.068 61.9705 127.097C61.8972 127.129 61.8239 127.161 61.7474 127.193ZM61.9705 127.008C61.9705 126.979 61.9705 126.95 61.9705 126.918C62.047 126.89 62.1203 126.858 62.1968 126.829C62.2191 126.871 62.2829 126.941 62.2606 126.947C62.1809 126.979 62.0693 126.992 61.9705 127.008ZM76.7675 109.794C76.5985 109.638 76.4232 109.536 76.4646 109.501C76.5603 109.415 76.7579 109.361 76.9141 109.294C77.0129 109.358 77.2073 109.437 77.185 109.485C77.1436 109.578 76.9715 109.654 76.7675 109.794ZM82.0015 101.918C81.9123 101.918 81.823 101.784 81.6477 101.644C82.0398 101.529 82.3745 101.43 82.7092 101.331C82.8877 101.507 83.0662 101.682 83.2447 101.86C82.8303 101.883 82.4159 101.918 82.0015 101.918ZM120.891 56.507C120.846 56.4847 120.763 56.4528 120.773 56.4432C120.817 56.4018 120.881 56.3635 120.942 56.3253C120.996 56.354 121.053 56.3827 121.11 56.4145C121.037 56.4432 120.964 56.4751 120.891 56.507ZM121.11 56.3253C121.11 56.2934 121.11 56.2647 121.11 56.236C121.187 56.2042 121.26 56.1755 121.337 56.1436C121.359 56.185 121.423 56.2552 121.397 56.2647C121.321 56.2966 121.209 56.3062 121.11 56.3253ZM201.974 44.9678C202.028 45.0539 202.082 45.1335 202.133 45.2196C202.175 45.2387 202.213 45.261 202.248 45.277C202.226 45.2834 202.204 45.2866 202.184 45.2929C204.237 48.5539 206.383 51.1072 208.557 53.67C212.748 58.6044 216.589 63.8353 220.609 68.9164C221.686 70.2775 223.063 71.4251 224.004 72.8659C226.949 77.37 230.296 81.5458 233.863 85.5558C234.609 86.3973 235.438 87.1687 236.193 88.0007C236.636 87.8955 236.847 87.8541 237.006 87.7903C237.283 87.6819 237.554 87.4461 237.873 87.6787C238.017 87.7839 237.899 88.0421 237.746 88.1856C237.628 88.294 237.255 88.3864 237.012 88.3768C236.824 88.3705 236.639 88.3003 236.375 88.2047C236.467 88.3099 236.563 88.4119 236.652 88.5171C238.437 90.6687 240.181 92.8523 241.88 95.0677C242.913 96.4128 244.083 97.7102 244.889 99.1446C245.374 100.008 245.852 100.815 246.502 101.564C246.512 101.551 246.521 101.542 246.534 101.532C246.575 101.554 246.658 101.58 246.652 101.596C246.642 101.625 246.617 101.65 246.591 101.672C247.516 102.74 248.37 103.862 249.269 104.952C250.627 106.597 251.879 108.344 253.384 109.842C255.944 112.389 258 115.293 260.027 118.254C261.286 120.094 262.851 121.723 264.27 123.45C265.118 124.483 265.969 125.509 266.785 126.565C267.738 127.801 268.65 129.067 269.619 130.364C270.546 129.81 271.292 129.363 272.213 128.809C270.878 127.154 269.459 125.736 268.446 124.069C265.411 119.074 260.967 115.185 257.824 110.279C256.925 108.873 255.918 107.417 254.63 106.403C252.434 104.675 251.436 102.064 249.422 100.133C246.569 97.3914 244.532 93.8022 242.116 90.5986C240.898 88.9889 239.636 87.411 238.348 85.8554C237.108 84.3572 235.776 82.9324 234.545 81.4246C233.181 79.7479 231.836 78.0585 230.491 76.3627C230.255 76.5125 229.904 76.6783 229.866 76.6464C229.703 76.4966 229.608 76.3308 229.445 76.1141C229.675 76.012 229.914 75.8495 230.035 75.8686C230.067 75.875 230.092 75.8909 230.121 75.8973C229.961 75.6933 229.799 75.4925 229.639 75.2885C229.34 75.3937 229.018 75.4702 228.83 75.4542C228.329 75.416 228.027 75.161 228.058 74.8071C228.071 74.6605 228.447 74.4023 228.804 74.2334C228.556 73.9242 228.31 73.6118 228.065 73.3026C225.078 69.5316 222.139 65.7256 219.111 61.9897C216.8 59.14 214.294 56.4432 212.037 53.5552C209.583 50.4154 207.323 47.1226 204.951 43.9159C204.773 43.6768 204.393 43.5875 203.852 43.2911C203.275 43.8043 202.675 44.3398 201.974 44.9678ZM246.403 99.4283C246.626 99.3455 246.974 99.3518 247.369 99.3072C247.509 99.3582 247.739 99.406 247.844 99.4921C247.901 99.5367 247.742 99.6546 247.672 99.7375C247.646 99.7662 247.583 99.7853 247.541 99.8077C247.066 100.101 247.063 100.098 247.092 100.735C247.092 100.799 246.92 100.911 246.802 100.92C246.661 100.933 246.378 100.869 246.362 100.818C246.247 100.483 246.575 100.107 245.989 99.8013C245.931 99.7726 246.19 99.508 246.403 99.4283ZM245.389 99.1414C245.431 99.1638 245.514 99.1924 245.507 99.2084C245.488 99.253 245.431 99.2976 245.389 99.3423C245.348 99.3199 245.303 99.2976 245.252 99.2721C245.297 99.2275 245.345 99.1861 245.389 99.1414ZM229.369 75.4542C229.429 75.4957 229.486 75.5339 229.544 75.5722C229.464 75.5849 229.333 75.6168 229.314 75.6072C229.254 75.5658 229.235 75.5084 229.2 75.4542C229.257 75.4542 229.311 75.4542 229.369 75.4542ZM227.641 74.7753C227.561 74.788 227.427 74.8231 227.411 74.8103C227.351 74.7689 227.332 74.7115 227.297 74.6605C227.351 74.6605 227.408 74.6605 227.465 74.6573C227.523 74.6987 227.583 74.737 227.641 74.7753ZM227.105 73.4651C227.147 73.5098 227.204 73.5512 227.223 73.599C227.23 73.615 227.147 73.6405 227.105 73.6628C227.057 73.6213 227.013 73.5767 226.968 73.5353C227.019 73.5098 227.061 73.4874 227.105 73.4651ZM227.067 74.482C227.15 74.5043 227.22 74.5394 227.293 74.5712C227.239 74.5999 227.182 74.6286 227.124 74.6605C227.064 74.6191 227.003 74.5808 226.946 74.5426C226.991 74.5202 227.051 74.4788 227.067 74.482ZM226.343 75.0558C226.385 75.0781 226.468 75.1068 226.461 75.1227C226.442 75.1705 226.385 75.212 226.343 75.2566C226.302 75.2343 226.257 75.212 226.206 75.1865C226.251 75.1418 226.296 75.1004 226.343 75.0558ZM228.568 47.7825C226.465 46.1504 224.361 44.5183 221.986 42.6791C221.941 42.5675 221.894 41.8885 221.527 41.5793C219.49 39.8389 217.412 38.1431 215.27 36.527C214.132 35.6695 212.885 34.8439 211.199 35.5611C211.148 35.9819 211.097 36.409 211.021 37.0242C213.137 38.8667 215.266 40.7824 217.469 42.6089C218.652 43.5875 220.23 44.1996 221.167 45.3535C223.593 48.3467 226.806 50.4314 229.761 52.7073C233.312 55.4391 236.719 58.3112 240.095 61.2374C241.58 62.5252 243.018 63.8736 244.561 65.0913C248.51 68.2087 252.562 71.1955 256.463 74.3704C260.116 77.3445 263.486 80.6787 267.231 83.5253C273.017 87.921 278.585 92.5622 284.081 97.3022C284.119 97.2512 284.25 97.1651 284.374 97.0472C284.578 97.1874 284.75 97.2639 284.792 97.3564C284.817 97.4042 284.62 97.4839 284.521 97.5476C284.422 97.5062 284.314 97.4648 284.218 97.4201C284.779 97.9078 285.346 98.3892 285.907 98.8769C288.61 101.226 291.428 103.445 294.208 105.708C294.364 105.832 294.622 105.832 294.96 105.925C295.521 105.338 296.124 104.707 296.943 103.846C295.92 102.884 295.292 101.838 294.418 101.558C292.005 100.78 290.708 98.7462 288.942 97.2416C287.661 96.1546 286.357 95.0963 285.05 94.0412C284.014 93.2061 282.764 92.5526 281.948 91.5453C279.825 88.9251 276.293 87.9497 274.483 84.9916C274.339 84.7557 273.89 84.7143 273.6 84.5485C272.746 84.0608 271.783 83.7484 271.407 82.62C271.257 82.1674 270.671 81.7721 270.192 81.5266C265.95 79.3399 262.886 75.6582 259.17 72.8053C255.909 70.2998 252.877 67.4915 249.69 64.8872C246.575 62.3435 243.359 59.9241 240.238 57.3868C237.459 55.1204 234.762 52.7551 232.005 50.4601C230.889 49.5325 229.716 48.6718 228.568 47.7825ZM230.946 51.3781C230.924 51.4068 230.867 51.4291 230.819 51.4482C230.602 51.5343 230.385 51.6204 230.169 51.7064C230.13 51.5853 230.003 51.445 230.083 51.3526C230.172 51.2442 230.449 51.1837 230.557 51.139C230.828 51.1581 230.946 51.1677 231.061 51.1773C231.023 51.2442 230.994 51.3143 230.946 51.3781ZM281.473 92.1765C281.572 92.2721 281.716 92.3677 281.757 92.4697C281.83 92.6483 281.738 92.814 281.308 92.763C281.148 92.7439 281.046 92.6004 280.829 92.4538C281.1 92.3391 281.285 92.2562 281.473 92.1765ZM256.422 73.5353C256.562 73.701 256.699 73.7935 256.699 73.8859C256.699 73.9369 256.396 74.0453 256.358 74.0294C256.199 73.972 256.049 73.8827 255.982 73.7903C255.956 73.7584 256.173 73.6755 256.422 73.5353ZM252.342 67.67C252.386 67.7147 252.434 67.7561 252.476 67.7975C252.428 67.8262 252.383 67.8454 252.342 67.8677C252.3 67.8262 252.243 67.7816 252.224 67.7338C252.214 67.7179 252.3 67.6924 252.342 67.67ZM251.503 67.9729C251.618 68.1896 251.717 68.3363 251.755 68.4861C251.765 68.5243 251.589 68.5785 251.497 68.6231C251.334 68.4701 251.162 68.3171 251.025 68.1609C251.012 68.145 251.223 68.0812 251.503 67.9729ZM250.78 67.8932C250.863 67.9155 250.933 67.9506 251.009 67.9792C250.952 68.0079 250.895 68.0398 250.837 68.0685C250.78 68.0302 250.719 67.992 250.659 67.9537C250.703 67.9282 250.764 67.8868 250.78 67.8932ZM249.227 67.5075C249.317 67.5202 249.4 67.5489 249.486 67.5712C249.441 67.5935 249.4 67.6159 249.349 67.6413C249.269 67.619 249.186 67.5935 249.103 67.5712C249.145 67.5489 249.199 67.5043 249.227 67.5075ZM242.438 60.5075C242.967 60.4565 243.088 60.6095 242.916 60.9792C242.945 60.9665 242.795 61.0334 242.642 61.1003C242.406 60.9473 242.167 60.7943 241.931 60.6381C242.1 60.5935 242.259 60.5266 242.438 60.5075ZM240.343 59.1145C240.343 59.0156 240.334 58.92 240.347 58.8212C240.35 58.7957 240.43 58.7511 240.458 58.7543C240.551 58.7638 240.675 58.7798 240.716 58.8148C240.863 58.9423 241.013 59.0762 241.089 59.2165C241.131 59.293 241.045 59.3982 240.959 59.4747C240.92 59.5097 240.704 59.5289 240.634 59.5033C240.509 59.4587 240.41 59.379 240.35 59.3057C240.305 59.2515 240.343 59.1782 240.343 59.1145ZM210.37 159.971C210.37 159.62 210.421 159.381 210.364 159.171C209.58 156.27 208.789 153.372 208.002 150.475C207.951 150.481 207.9 150.488 207.849 150.497C207.616 150.539 207.38 150.577 207.144 150.618C207.132 150.491 207.042 150.347 207.132 150.245C207.199 150.169 207.489 150.137 207.689 150.102C207.747 150.092 207.814 150.089 207.897 150.092C207.565 148.865 207.23 147.638 206.899 146.408C206.159 143.641 205.512 140.848 204.754 138.088C203.963 135.222 202.883 132.42 202.296 129.516C201.155 123.897 199.708 118.363 198.165 112.848C197.422 110.199 196.625 107.57 196.013 105.469C195.898 104.143 196.106 103.139 195.698 102.581C194.987 101.599 194.843 100.605 194.652 99.4793C194.321 97.5317 193.693 95.6319 193.122 93.732C192.838 92.7853 192.475 91.8577 192.153 90.9238C192.006 91.0034 191.866 90.8186 191.755 90.8313C191.557 90.8504 191.382 90.9461 191.219 91.0226C191.047 91.1054 190.884 91.2361 190.69 91.0544C190.559 90.9301 190.368 90.7676 190.429 90.656C190.531 90.4743 190.817 90.3181 191.025 90.1523C191.385 90.248 191.707 90.3117 191.975 90.3978C191.892 90.146 191.815 89.8973 191.745 89.6455C191.611 89.7125 191.471 89.7858 191.407 89.7698C191.149 89.7125 190.942 89.5913 190.582 89.4383C190.948 89.416 191.187 89.3714 191.394 89.3969C191.509 89.4096 191.608 89.4574 191.707 89.5084C191.398 88.3864 191.222 87.2325 191.356 86.0084C191.391 85.6992 191.27 85.3422 191.13 85.049C189.683 82.0494 190.11 78.441 188.086 75.62C187.92 75.3873 188.041 74.9569 187.99 74.6254C187.754 73.0986 187.576 71.5526 187.238 70.048C186.9 68.5466 186.132 67.0963 186.042 65.5949C185.953 64.1158 184.305 63.0225 185.15 61.4095C183.929 59.956 183.856 58.1486 183.76 56.5994C182.899 55.471 182.131 54.69 180.362 55.2829C180.601 56.7397 180.725 58.0721 181.047 59.3503C181.943 62.9428 182.871 66.5289 183.798 70.1118C183.891 70.1628 183.954 70.1946 183.945 70.201C183.913 70.2233 183.872 70.2425 183.837 70.2648C184.222 71.7502 184.608 73.2324 184.99 74.7179C186.234 79.5248 187.47 84.3317 188.73 89.1355C190.046 94.1464 191.232 99.1988 192.765 104.143C194.333 109.205 195.191 114.432 196.797 119.491C198.426 124.63 199.577 129.924 200.9 135.162C201.713 138.375 202.898 141.479 203.102 144.865C203.22 146.806 204.005 148.712 204.527 150.625C205.108 152.748 205.71 154.871 206.344 156.981C206.746 158.316 207.221 159.63 207.728 161.138C208.847 160.643 209.628 160.299 210.37 159.971ZM183.744 66.4619C183.655 66.4492 183.572 66.4205 183.489 66.3982C183.531 66.3759 183.572 66.3536 183.623 66.328C183.703 66.3504 183.786 66.3759 183.868 66.3982C183.827 66.4205 183.776 66.4651 183.744 66.4619ZM184.831 66.6914C184.659 66.6054 184.315 66.4842 184.347 66.4396C184.458 66.2962 184.704 66.1782 184.869 66.0699C185.115 66.1209 185.22 66.14 185.322 66.1623C185.159 66.3408 184.994 66.5161 184.831 66.6914ZM186.058 66.6755C186.017 66.6309 185.959 66.5894 185.94 66.5416C185.934 66.5257 186.017 66.5002 186.058 66.4747C186.103 66.5193 186.157 66.5639 186.179 66.6086C186.186 66.6245 186.103 66.6532 186.058 66.6755ZM189.963 89.687C190.046 89.6646 190.129 89.6391 190.209 89.6168C190.26 89.6423 190.301 89.6646 190.342 89.687C190.26 89.7093 190.177 89.738 190.087 89.7507C190.059 89.7539 190.005 89.7093 189.963 89.687ZM190.47 91.9374C190.438 91.9438 190.387 91.8992 190.342 91.8768C190.425 91.8513 190.508 91.829 190.588 91.8067C190.639 91.8322 190.684 91.8545 190.725 91.8768C190.642 91.8992 190.559 91.9278 190.47 91.9374ZM138.502 50.9C138.432 50.935 138.266 50.9478 138.136 50.935C138.021 51.1231 137.912 51.3207 137.814 51.5311C137.67 51.8339 137.571 52.1591 137.476 52.4874C137.517 52.4683 137.555 52.446 137.6 52.4205C137.728 52.6372 137.836 52.7583 137.858 52.8827C137.871 52.9623 137.753 53.0484 137.696 53.1313C137.581 53.0484 137.466 52.9623 137.355 52.8795C137.265 53.1632 137.17 53.4437 137.029 53.6987C134.731 57.884 132.022 61.8431 130.329 66.3504C130.093 66.9751 129.886 67.6413 129.5 68.1673C127.789 70.5102 126.44 73.0316 125.398 75.7379C125.347 75.8654 125.302 75.9929 125.254 76.1204C125.407 76.2097 125.296 76.3053 125.149 76.4041C124.658 77.7589 124.193 79.1678 123.332 80.242C122.51 81.2748 121.831 82.2024 121.35 83.4743C120.422 85.9351 119.093 88.243 117.964 90.6305C117.432 91.7525 116.817 92.8268 116.179 93.8914C116.453 94.0094 116.641 94.0891 116.823 94.1687C116.664 94.2325 116.514 94.3409 116.339 94.3536C116.205 94.3664 116.029 94.3823 115.896 94.3632C114.573 96.5531 113.202 98.7175 112.338 101.156C111.975 102.186 111.366 103.126 110.853 104.098C108.937 107.735 107.008 111.363 105.093 114.997C104.06 116.954 103.021 118.905 102.02 120.878C100.818 123.249 99.5685 125.605 98.5166 128.04C98.1213 128.955 98.15 129.998 97.0057 130.457C96.6837 130.587 96.4542 131.075 96.298 131.448C94.1528 136.561 91.7875 141.566 88.7242 146.283C89.4096 146.892 89.9801 147.402 90.5284 147.89C92.6705 146.618 93.6459 144.661 94.2548 142.442C94.4588 141.699 94.6086 140.842 95.0772 140.287C97.0535 137.948 98.2839 135.238 99.339 132.414C99.4952 132.003 99.7215 131.614 99.9287 131.222C102.794 125.828 105.686 120.448 108.519 115.038C109.59 112.992 110.461 110.843 111.551 108.806C113.702 104.787 115.947 100.815 118.14 96.8209C118.57 96.0399 118.965 95.2398 119.351 94.4365C120.256 92.5367 121.072 90.5891 122.057 88.7307C123.983 85.0968 126.434 81.6701 127.865 77.8545C129.401 73.7616 131.952 70.2871 133.749 66.3886C134.212 65.3845 135.136 64.5653 135.483 63.5389C136.599 60.2493 138.317 57.2911 139.991 54.2757C140.714 52.9719 141.738 51.3813 140.832 49.7333C139.646 49.4878 138.926 49.8863 138.41 50.5398C138.473 50.578 138.537 50.6163 138.601 50.6481C138.671 50.6864 138.607 50.8521 138.502 50.9ZM100.525 128.707C100.276 128.57 100.059 128.487 100.085 128.452C100.152 128.359 100.302 128.273 100.461 128.213C100.499 128.2 100.802 128.305 100.802 128.356C100.802 128.448 100.665 128.544 100.525 128.707ZM110.636 109.68C110.403 109.689 110.155 109.619 109.457 109.517C110.081 109.374 110.26 109.304 110.441 109.3C110.712 109.294 111.14 109.227 111.089 109.488C111.076 109.565 110.802 109.673 110.636 109.68ZM175.969 68.4861C175.979 68.5084 175.985 68.5307 175.979 68.5594C176.323 71.0776 176.559 73.6086 176.989 76.1077C177.783 80.7074 178.708 85.3167 179.061 89.9961C179.326 93.5312 179.772 97.0472 180.512 100.522C181.133 103.435 181.65 106.371 182.211 109.297C182.542 111.031 183.132 112.762 183.142 114.499C183.151 116.884 183.674 119.134 184.162 121.423C184.347 122.284 184.554 123.157 184.582 124.03C184.64 125.707 184.538 127.339 185.172 129C185.711 130.409 185.953 132.028 185.918 133.545C185.832 137.383 187.614 140.906 187.483 144.788C187.397 147.392 188.29 150.025 188.647 152.655C189.166 156.484 189.6 160.325 190.062 164.096C191.49 164.373 192.59 164.567 193.001 163.796C192.873 161.648 192.889 159.974 192.657 158.336C192.038 153.943 191.299 149.57 190.642 145.18C190.378 143.427 190.362 141.62 189.963 139.902C188.991 135.688 188.752 131.368 187.955 127.132C187.853 126.593 187.815 126.023 187.598 125.529C186.693 123.463 186.581 121.273 186.441 119.086C186.342 119.055 186.246 119.023 186.132 118.988C186.25 118.965 186.345 118.943 186.428 118.921C186.348 117.728 186.253 116.536 186.007 115.366C185.673 113.769 185.746 112.08 185.386 110.416C184.621 106.859 183.821 103.282 183.878 99.5973C183.884 99.1478 183.964 98.6442 183.798 98.2521C182.198 94.4748 182.724 90.3468 181.831 86.4515C181.538 85.1605 181.36 83.844 181.149 82.5371C180.748 80.0316 180.477 77.5007 179.944 75.0239C178.877 70.0289 178.239 64.9861 177.783 59.9082C177.678 58.7288 177.28 57.578 177.053 56.5676C176.049 56.3221 175.335 56.1468 174.535 55.9492C174.535 58.0243 174.051 60.1951 174.627 62.0343C175.294 64.1541 175.673 66.3153 175.969 68.4861ZM176.441 70.2807C176.483 70.3221 176.54 70.3668 176.559 70.4146C176.566 70.4305 176.483 70.456 176.441 70.4783C176.393 70.4369 176.349 70.3923 176.304 70.3508C176.355 70.3221 176.397 70.303 176.441 70.2807ZM195.806 60.2493C197.142 62.3786 197.307 65.1168 199.363 66.8253C200.275 70.5708 202.739 73.5544 204.342 76.962C206.472 81.482 208.566 86.0212 210.858 90.4615C214.629 97.7771 218.731 104.927 222.333 112.325C224.463 116.702 226.34 121.2 228.68 125.487C230.006 127.913 230.924 130.555 232.161 133.032C234.389 137.495 236.703 141.91 239.017 146.328C239.47 147.192 240.073 147.976 240.659 148.875C241.497 148.441 242.183 148.091 243.063 147.641C242.358 146.436 241.73 145.521 241.265 144.53C239.751 141.32 238.476 137.983 236.786 134.875C232.429 126.858 228.999 118.366 224.214 110.569C223.803 109.9 223.449 109.195 223.114 108.478C222.914 108.443 222.786 108.29 222.592 108.166C222.681 108.06 222.754 107.968 222.828 107.879C222.426 106.993 222.043 106.094 221.629 105.214C220.593 103.03 219.608 100.821 218.521 98.6633C217.08 95.8072 215.547 92.9925 214.074 90.1523C213.51 89.0686 212.984 87.9656 212.471 86.8595C211.496 84.7461 210.619 82.5849 209.564 80.513C208.353 78.135 206.947 75.8527 205.71 73.4874C204.492 71.1541 203.399 68.7602 202.22 66.4077C200.919 63.8194 199.561 61.2597 198.264 58.6682C197.024 56.201 195.867 53.6891 194.598 51.2378C194.145 50.3676 193.361 49.9437 192.281 50.5366C191.92 51.4897 192.083 52.3471 192.583 53.3321C193.737 55.6017 194.467 58.1104 195.806 60.2493ZM222.104 109.122C222.27 109.119 222.518 109.093 222.585 109.135C222.796 109.272 222.939 109.437 223.098 109.594C223.105 109.603 222.987 109.657 222.981 109.654C222.63 109.508 222.289 109.358 221.941 109.205C222.018 109.163 222.059 109.122 222.104 109.122ZM215.732 97.978C215.783 98.0035 215.824 98.0258 215.866 98.0481C215.783 98.0704 215.7 98.0991 215.611 98.1087C215.579 98.1118 215.528 98.0704 215.486 98.0481C215.569 98.0226 215.652 98.0003 215.732 97.978ZM208.263 80.1878C208.314 80.1209 208.506 80.0444 208.633 80.0444C208.757 80.0444 208.965 80.1273 208.993 80.191C209.051 80.3153 209.06 80.4556 208.993 80.5767C208.945 80.6724 208.754 80.7457 208.627 80.8285C208.499 80.7457 208.368 80.6628 208.254 80.5767C208.225 80.5544 208.247 80.5098 208.247 80.4779C208.247 80.3823 208.2 80.2739 208.263 80.1878ZM197.495 84.6888C198.678 87.7744 199.609 90.9588 200.795 94.0412C203.217 100.327 206.026 106.46 208.117 112.871C208.525 114.126 208.863 115.411 209.344 116.638C209.819 117.843 210.294 119.048 210.769 120.253C210.931 120.275 211.107 120.307 211.26 120.32C211.196 120.435 211.158 120.553 211.059 120.658C211.033 120.687 210.998 120.715 210.963 120.741C213.421 126.976 215.888 133.204 218.349 139.436C218.467 139.739 218.489 140.08 218.562 140.405C219.203 143.22 220.108 145.939 221.438 148.508C221.846 149.292 222.477 150.089 222.521 150.905C222.623 152.697 223.621 154.016 224.504 155.668C225.416 155.326 226.331 154.985 226.981 154.743C225.199 149.802 223.516 144.928 221.68 140.112C219.793 135.155 217.434 130.358 215.863 125.309C214.32 120.346 211.926 115.73 210.45 110.767C208.971 105.791 206.931 101.041 204.948 96.2566C202.965 91.472 201.209 86.5854 199.561 81.6733C197.923 76.7866 195.637 72.1646 194.027 67.262C193.903 67.3066 193.712 67.3098 193.501 67.2875C193.32 67.2684 193.173 67.1664 193.01 67.1026C193.23 66.9656 193.46 66.8253 193.807 66.6086C192.255 61.7857 190.285 57.0999 188.481 52.2993C187.722 52.7456 187.161 53.0803 186.677 53.364C186.195 56.1818 187.407 58.5343 188.29 60.89C191.283 68.8526 194.454 76.7452 197.495 84.6888ZM211.049 119.673C211.129 119.695 211.212 119.718 211.295 119.743C211.253 119.765 211.202 119.81 211.17 119.804C211.081 119.794 210.998 119.765 210.915 119.743C210.957 119.721 210.998 119.698 211.049 119.673ZM193.964 67.4947C194.005 67.5362 194.062 67.5808 194.082 67.6254C194.088 67.6445 194.005 67.67 193.964 67.6924C193.919 67.6477 193.871 67.6063 193.827 67.5648C193.878 67.5393 193.922 67.517 193.964 67.4947ZM190.862 66.7265C190.942 66.7488 191.025 66.7743 191.107 66.7966C191.063 66.8189 191.012 66.8636 190.98 66.8604C190.891 66.8476 190.811 66.8189 190.725 66.7966C190.766 66.7743 190.811 66.752 190.862 66.7265ZM234.772 19.2787C235.607 19.5465 236.384 20.235 237.207 20.2637C240.589 20.3944 243.77 21.4431 246.884 22.5014C251.449 24.0474 256.498 24.1654 260.604 27.082C260.763 27.1936 261.057 27.0884 261.27 27.1522C264.636 28.1467 268.433 27.4805 271.467 29.782C271.614 29.8903 271.917 29.766 272.134 29.8106C274.075 30.2346 276.038 30.582 277.948 31.1144C282.398 32.3544 286.809 33.7346 291.263 34.965C296.787 36.4919 302.343 37.9072 307.873 39.4054C314.153 41.1044 320.42 42.8416 326.696 44.5566C326.983 44.6363 327.295 44.6363 327.63 44.6777C327.882 43.782 328.105 42.9755 328.379 41.9937C326.199 41.3403 324.108 40.6836 322.001 40.0939C316.375 38.5192 310.739 36.9764 305.106 35.4177C300.115 34.0374 295.129 32.6221 290.125 31.2738C286.507 30.2984 282.854 29.4409 279.232 28.475C275.627 27.5155 272.067 26.4286 268.414 25.6285C265.092 24.9017 261.892 23.6394 258.605 22.7214C252.339 20.9777 246.059 19.2883 239.77 17.6371C238.281 17.2482 236.582 17.4076 235.24 16.7701C232.301 15.3739 229.126 14.8958 226.073 13.9745C225.049 13.6653 223.946 13.6175 222.968 13.4645C222.47 14.1562 222.158 14.5897 221.6 15.3643C224.453 16.0178 226.586 17.618 229.381 17.7614C231.198 17.8571 232.99 18.705 234.772 19.2787ZM314.242 38.8125C314.739 38.7997 314.621 39.0069 314.612 39.1504C314.609 39.2333 314.504 39.3161 314.443 39.399C314.217 39.2651 313.99 39.1344 313.7 38.9623C313.965 38.8858 314.102 38.8189 314.242 38.8125ZM312.527 39.2078C312.572 39.2492 312.626 39.2938 312.648 39.3416C312.655 39.3576 312.572 39.3831 312.527 39.4054C312.486 39.3608 312.428 39.3193 312.409 39.2715C312.403 39.2556 312.486 39.2301 312.527 39.2078ZM221.026 56.1946C221.062 56.1723 221.09 56.15 221.125 56.1245C221.183 56.1563 221.24 56.185 221.294 56.2137C221.237 56.2392 221.176 56.2647 221.119 56.2902C221.32 56.4974 221.521 56.7046 221.718 56.9118C221.769 56.8385 222.085 56.7206 222.123 56.7333C222.627 56.9214 223.114 57.1254 223.573 57.339C223.733 57.4155 223.812 57.5366 223.927 57.6354C223.704 57.6737 223.481 57.7087 223.258 57.747C222.961 57.7629 222.674 57.4633 222.391 57.6067C223.398 58.6491 224.405 59.6946 225.409 60.737C226.261 61.6104 227.395 62.2096 228.24 63.0894C230.465 65.41 232.607 67.8071 234.775 70.1851C235.508 70.9852 236.26 71.7629 237.022 72.5344C237.098 72.5822 237.156 72.6268 237.178 72.6746C237.178 72.6778 237.172 72.681 237.172 72.6842C241.153 76.6942 245.453 80.3823 249.189 84.6378C250.942 86.6364 253.084 88.2366 255.007 90.044C259.02 93.8213 262.721 97.9301 266.546 101.908C268.187 103.62 269.921 105.262 271.429 107.085C274.942 111.35 279.057 115 282.981 119.019C283.909 118.232 284.639 117.611 285.426 116.938C283.348 115.003 281.553 113.438 279.889 111.745C278.474 110.311 277.291 108.65 275.87 107.225C272.978 104.325 270.074 101.44 267.171 98.5549C266.785 98.4848 266.399 98.4179 266.017 98.3445C265.934 98.3286 265.88 98.268 265.809 98.2266C265.915 98.2011 266.017 98.1628 266.128 98.1501C266.316 98.1278 266.507 98.1055 266.699 98.0832C262.542 93.9488 258.385 89.8176 254.254 85.661C252.842 84.2393 251.593 82.6582 250.26 81.1569C250.165 81.1728 250.069 81.1919 249.97 81.2047C249.852 81.2174 249.718 81.2079 249.403 81.2079C249.345 81.2047 249.1 81.1919 248.858 81.1728C248.81 81.1696 248.724 81.1122 248.73 81.1091C248.781 81.0708 248.864 81.0453 248.912 81.0071C249.148 80.8126 249.521 80.7552 249.887 80.819C249.919 80.8222 249.945 80.8381 249.973 80.8477C249.607 80.4397 249.24 80.038 248.854 79.6523C246.435 77.2361 243.636 75.1737 241.392 72.614C238.868 69.7388 235.894 67.3608 233.296 64.5844C230.889 62.0088 228.466 59.4492 226.031 56.9023C225.977 56.9437 225.916 56.9851 225.856 57.0234C225.805 57.0584 225.69 57.0648 225.604 57.0839C225.566 57.0298 225.524 56.9756 225.438 56.8512C225.537 56.8002 225.664 56.7301 225.802 56.6632C224.842 55.6591 223.889 54.655 222.923 53.6572C221.836 52.5384 220.478 51.6809 219.391 50.5621C216.573 47.6518 213.867 44.6299 211.046 41.7228C210.291 40.9418 209.283 40.3999 208.378 39.772C208.235 39.6731 208.005 39.7082 207.654 39.6572C207.406 40.1864 207.138 40.7569 206.832 41.4104C211.687 46.4692 216.369 51.359 221.026 56.1946ZM281.005 114.882C281.55 114.927 281.792 115.124 281.776 115.427C281.763 115.663 281.508 115.653 281.18 115.666C280.402 115.701 280.683 115.405 280.6 115.127C280.692 115.07 280.877 114.872 281.005 114.882ZM273.96 105.51C274.005 105.555 274.049 105.596 274.094 105.638C274.043 105.667 274.002 105.689 273.96 105.711C273.916 105.667 273.861 105.622 273.839 105.577C273.833 105.561 273.916 105.533 273.96 105.51ZM272.395 105.134C272.478 105.16 272.551 105.192 272.625 105.223C272.567 105.255 272.513 105.284 272.456 105.313C272.395 105.274 272.334 105.236 272.277 105.198C272.319 105.172 272.382 105.131 272.395 105.134ZM271.375 105.115C271.538 105.179 271.818 105.233 271.844 105.309C271.923 105.552 272.175 105.529 272.497 105.482C272.656 105.459 272.609 105.153 272.934 105.386C273.013 105.443 273.01 105.6 272.927 105.638C272.628 105.772 272.277 105.871 272 105.963C271.598 105.902 271.34 105.893 271.158 105.826C271.002 105.772 270.808 105.625 270.849 105.561C270.957 105.399 271.19 105.262 271.375 105.115ZM248.29 80.819C248.395 80.7967 248.574 80.8764 248.724 80.9146C248.536 81.0102 248.351 81.1027 248.163 81.1983C248.096 81.1569 248.029 81.1122 247.885 81.023C248.01 80.9529 248.124 80.8509 248.29 80.819ZM247.423 80.6277C247.449 80.6692 247.512 80.7361 247.487 80.7489C247.407 80.7775 247.299 80.7903 247.197 80.8062C247.197 80.7775 247.197 80.7489 247.197 80.7202C247.273 80.6883 247.35 80.6564 247.423 80.6277ZM247.028 80.8062C247.085 80.8381 247.143 80.8668 247.197 80.8955C247.124 80.9274 247.05 80.9592 246.977 80.9911C246.932 80.9688 246.853 80.9337 246.859 80.9274C246.904 80.8827 246.971 80.8477 247.028 80.8062ZM222.63 56.3253C222.671 56.3667 222.729 56.4114 222.748 56.4592C222.754 56.4751 222.671 56.5006 222.63 56.5229C222.582 56.4815 222.537 56.4369 222.493 56.3954C222.544 56.3699 222.585 56.3476 222.63 56.3253ZM221.521 55.946C221.543 55.9874 221.607 56.0543 221.584 56.0671C221.505 56.0958 221.393 56.1085 221.297 56.1245C221.297 56.0958 221.297 56.0671 221.297 56.0384C221.371 56.0065 221.444 55.9747 221.521 55.946Z" fill="url(#paint0_linear_39_1077)"/>
<defs>
<linearGradient id="paint0_linear_39_1077" x1="166.999" y1="0" x2="166.999" y2="165.635" gradientUnits="userSpaceOnUse">
<stop stop-color="#769B4B" stop-opacity="0"/>
<stop offset="0.5" stop-color="#799F4E"/>
<stop offset="1" stop-color="#92AC74"/>
</linearGradient>
</defs>
</svg>
